<?xml version="1.0" encoding="utf-8"?>
<!-- Generator: Adobe Illustrator 22.1.0, SVG Export Plug-In . SVG Version: 6.00 Build 0)  -->
<svg version="1.1" id="Layer_1" xmlns="http://www.w3.org/2000/svg" xmlns:xlink="http://www.w3.org/1999/xlink" x="0px" y="0px"
	 viewBox="0 0 452 452" style="enable-background:new 0 0 452 452;" xml:space="preserve">
<style type="text/css">
	.st0{fill:url(#SVGID_1_);}
	.st1{clip-path:url(#SVGID_3_);}
	.st2{fill:#CABF9E;stroke:#333132;stroke-width:4.37;stroke-linecap:round;stroke-linejoin:round;}
	.st3{fill:#062447;stroke:#333132;stroke-width:4.37;stroke-linecap:round;stroke-linejoin:round;}
	.st4{fill:#FFFFFF;stroke:#333132;stroke-width:0.87;stroke-linejoin:round;}
	.st5{fill:#CABF9E;stroke:#333132;stroke-width:2.3;stroke-linecap:round;stroke-linejoin:round;}
	.st6{fill:none;stroke:#333333;stroke-width:4.37;stroke-linecap:round;stroke-linejoin:round;}
	.st7{fill:none;stroke:#333132;stroke-width:4.37;stroke-linecap:round;stroke-linejoin:round;}
	.st8{fill:#EF77AE;stroke:#333132;stroke-width:4.37;stroke-linecap:round;stroke-linejoin:round;}
	.st9{fill:#CABF9E;stroke:#333132;stroke-width:4.37;stroke-miterlimit:10;}
	.st10{fill:#F2EAB3;}
	.st11{opacity:0.1;enable-background:new    ;}
	.st12{fill:none;stroke:#333132;stroke-width:4.37;stroke-linejoin:round;}
	.st13{fill:#CABF9E;}
	.st14{fill:#CEE4AD;stroke:#333132;stroke-width:3.28;stroke-miterlimit:10;}
	.st15{fill:#333132;}
	.st16{fill:none;stroke:#333132;stroke-width:4.37;stroke-linecap:round;stroke-miterlimit:10;}
	.st17{fill:none;stroke:#333132;stroke-width:3.28;stroke-linecap:round;stroke-miterlimit:10;}
	.st18{fill:#333132;stroke:#333132;stroke-width:6.56;stroke-miterlimit:10;}
	.st19{clip-path:url(#SVGID_5_);}
	.st20{fill:#F57981;}
	.st21{opacity:0.1;clip-path:url(#SVGID_5_);enable-background:new    ;}
	.st22{clip-path:url(#SVGID_5_);fill:#333132;}
	.st23{clip-path:url(#SVGID_5_);fill:#A69A8B;stroke:#333132;stroke-width:3.28;stroke-miterlimit:10;}
	.st24{clip-path:url(#SVGID_5_);fill:none;stroke:#333132;stroke-width:3.28;stroke-linecap:round;stroke-miterlimit:10;}
	.st25{clip-path:url(#SVGID_5_);fill:#E5E5E5;}
	.st26{clip-path:url(#SVGID_5_);fill:#F2F2F2;}
	.st27{opacity:0.74;clip-path:url(#SVGID_5_);fill:#F7F7F7;enable-background:new    ;}
	.st28{clip-path:url(#SVGID_5_);fill:#373737;stroke:#333132;stroke-width:4.37;stroke-linecap:round;stroke-linejoin:round;}
	.st29{clip-path:url(#SVGID_5_);fill:#F57981;stroke:#333132;stroke-width:1.23;stroke-linecap:round;stroke-linejoin:round;}
	.st30{clip-path:url(#SVGID_5_);fill:#F57981;stroke:#333132;stroke-width:2.83;stroke-linecap:round;stroke-linejoin:round;}
	.st31{clip-path:url(#SVGID_5_);fill:#473E30;stroke:#333132;stroke-width:5.99;stroke-miterlimit:10;}
	.st32{clip-path:url(#SVGID_5_);fill:none;stroke:#C69710;stroke-width:4.5;stroke-miterlimit:10;}
	.st33{clip-path:url(#SVGID_5_);fill:#897645;}
	.st34{fill:none;stroke:#FFFFFF;stroke-width:10;stroke-miterlimit:10;}
	.st35{fill:#EF77AE;stroke:#333132;stroke-width:2.63;stroke-linecap:round;stroke-linejoin:round;}
	.st36{fill:#DDAC8A;stroke:#333132;stroke-width:2.63;stroke-miterlimit:10;}
	.st37{fill:#DDAC8A;}
	.st38{fill:none;stroke:#333132;stroke-width:2.63;stroke-linecap:round;stroke-linejoin:round;}
	.st39{fill:#DDAC8A;stroke:#333132;stroke-width:2.63;stroke-linecap:round;stroke-linejoin:round;}
	.st40{fill:#CEE4AD;stroke:#333132;stroke-width:1.97;stroke-miterlimit:10;}
	.st41{fill:none;stroke:#333132;stroke-width:2.63;stroke-linecap:round;stroke-miterlimit:10;}
	.st42{fill:none;stroke:#333132;stroke-width:1.97;stroke-linecap:round;stroke-miterlimit:10;}
	.st43{fill:#333132;stroke:#333132;stroke-width:3.95;stroke-miterlimit:10;}
	.st44{clip-path:url(#SVGID_7_);}
	.st45{fill:#A69A8B;stroke:#333132;stroke-width:1.97;stroke-miterlimit:10;}
	.st46{fill:#E5E5E5;}
	.st47{fill:#F2F2F2;}
	.st48{opacity:0.74;fill:#F7F7F7;enable-background:new    ;}
	.st49{fill:#373737;stroke:#333132;stroke-width:2.63;stroke-linecap:round;stroke-linejoin:round;}
	.st50{fill:#473E30;stroke:#333132;stroke-width:3.61;stroke-miterlimit:10;}
	.st51{fill:none;stroke:#C69710;stroke-width:2.71;stroke-miterlimit:10;}
	.st52{fill:#897645;}
</style>
<title>internsAvatar</title>
<g>
	<g>
		<g>
			
				<image style="overflow:visible;opacity:0.2;enable-background:new    ;" width="453" height="453" xlink:href="5F33A4AD3C937929.png"  transform="matrix(0.9978 0 0 0.9978 0 0)">
			</image>
			
				<linearGradient id="SVGID_1_" gradientUnits="userSpaceOnUse" x1="222.25" y1="-20.26" x2="222.25" y2="365.43" gradientTransform="matrix(1 0 0 -1 0 454)">
				<stop  offset="0" style="stop-color:#9FD6CA"/>
				<stop  offset="1" style="stop-color:#4AB657"/>
			</linearGradient>
			<circle class="st0" cx="222.2" cy="222.3" r="202.5"/>
			<g id="Layer_2_1_">
				<defs>
					<circle id="SVGID_2_" cx="222.2" cy="221.3" r="202.5"/>
				</defs>
				<clipPath id="SVGID_3_">
					<use xlink:href="#SVGID_2_"  style="overflow:visible;"/>
				</clipPath>
				<g id="Layer_1-2" class="st1">
					<path class="st2" d="M190.2,703.1l10.4-109.6h-32.5v69.2c-4.2,0.2-7.5,3.7-7.4,7.9c0.1,4,3.4,7.2,7.4,7.4v24.9h-3.9
						c-2.1-1.8-4.8,1.7-7.8,1.7c-6.7,0-9.8,2-9.8,8.7s3.1,11,9.8,11l36.4-3.5c5.9,0,4.9-1.3,4.9-7.2
						C197.8,708.4,195.2,704.1,190.2,703.1z"/>
					<path class="st2" d="M258,703.1l-3.4-109.6H287v69.2c4.2,0.2,7.5,3.8,7.2,8c-0.2,3.9-3.3,7-7.2,7.2l-3.5,24.9h7.3
						c2.1-1.8,4.8,1.7,7.8,1.7c6.7,0,9.8,2,9.8,8.7s-3.1,11-9.8,11h-42.2c-5.9,0-10.7-4.8-10.7-10.7
						C245.8,708.4,253,704.1,258,703.1z"/>
					<polygon class="st3" points="162,500.2 161.2,536 159.3,549.6 158,595.8 155.3,624.6 157,636.5 153.9,651.9 151.6,694.3 
						167.1,688 178.7,676.5 195.9,682.2 195.9,693.7 206.3,644.2 213.4,629 217.7,608.5 222.2,562.4 229,557.8 234.7,583.4 
						240.3,603.9 246.3,630.3 246.4,694.3 260.7,694.3 269.8,687.7 280.5,692.7 295.2,677.7 297.2,663.7 295.1,608.1 291.3,591.8 
						293.3,577.9 288.7,500.2 					"/>
					<path class="st4" d="M312.8,446.2v-34.9c3.6-0.3,6.4-2.1,6.4-4.4c0-2.5-3.3-4.5-7.3-4.5c-1.2,0-2.5,0.2-3.6,0.6
						c-1.2-0.4-2.4-0.6-3.6-0.6c-4,0-7.3,2-7.3,4.5c0,2.3,2.8,4.1,6.4,4.4v34.9c-3.6,0.3-6.4,2.1-6.4,4.4v0c0,2.3,2.8,4.1,6.4,4.4
						v29.3c-3.6,0.3-6.4,2.1-6.4,4.4c0,2.5,3.3,4.5,7.3,4.5c1.2,0,2.5-0.2,3.6-0.6c1.2,0.4,2.4,0.6,3.6,0.6c4,0,7.3-2,7.3-4.5
						c0-2.3-2.8-4.1-6.4-4.4v-29.3c3.6-0.3,6.4-2.1,6.4-4.4v0C319.2,448.3,316.4,446.5,312.8,446.2z"/>
					<path class="st5" d="M161.2,513.6l-11.3-7.9c-0.4-0.3,0.3-1.2,0-0.9l-0.3,0.3l-0.1-1.2c-0.4-2.7-2.9-4.6-5.6-4.2l-9.2,1.3
						c-2.7,0.4-4.6,2.9-4.2,5.6l-1.1,16.5c0,0.1,0,0.2,0,0.3c0.3,1.6,1.4,3,2.8,3.7c0.3,0.2,0.5,0.5,0.5,0.8l0.6,13.6
						c0.1,1.1,1,1.9,2.1,1.9l1.6-0.1c1-0.1,1.9-0.9,1.9-2l-0.6-13.4c0-0.5,0.3-0.9,0.8-1l0,0c0.5-0.1,1,0.3,1.1,0.8l3.5,24.5
						c0.2,1.2,1.3,2,2.5,1.8l1.2-0.2c1.2-0.2,2-1.3,1.9-2.5l-3.6-24.5c-0.1-0.5,0.3-1,0.8-1.1l0.6-0.1c0.5-0.1,1,0.3,1.1,0.8
						l2.8,19.7c0.2,1.1,1.2,1.9,2.4,1.8l1.4-0.2c1.1-0.2,1.9-1.2,1.8-2.4l-3-20.9c0-0.3,0.1-0.6,0.3-0.8c1.1-1.1,1.6-2.6,1.4-4.1
						c0-0.1,0-0.2-0.1-0.3l-0.6-1.7c-0.1-0.5,0.2-1.1,0.7-1.2c0.3-0.1,0.5,0,0.8,0.1l1,0.8c0.8,0.6,1.9,0.4,2.5-0.4l1.8-2.3
						C161.6,514.4,161.5,513.9,161.2,513.6z"/>
					<path class="st5" d="M286.2,513.6l11.3-7.9c0.4-0.3-0.3-1.2,0-0.9l0.3,0.3l0.2-1.2c0.4-2.7,2.9-4.6,5.6-4.2l9.2,1.3
						c2.7,0.4,4.6,2.9,4.2,5.6l1.1,16.5c0,0.1,0,0.2,0,0.3c-0.3,1.6-1.4,3-2.9,3.7c-0.3,0.2-0.5,0.5-0.5,0.8l-0.6,11.3
						c0,1.1-1,4.2-2,4.2l-1.6-2.4c-1-0.1-1.9-0.9-1.9-2l0.6-11.1c0-0.5-0.3-0.9-0.8-1l0,0c-0.5-0.1-1,0.3-1.1,0.8l-3.5,24.5
						c-0.2,1.2-1.3,2-2.5,1.8l-1.2-0.2c-1.2-0.2-2-1.3-1.9-2.5l3.5-24.5c0.1-0.5-0.3-1-0.8-1.1l-0.7-0.1c-0.5-0.1-1,0.3-1.1,0.8
						l-2.9,19.7c-0.2,1.1-1.2,1.9-2.4,1.8l-1.4-0.2c-1.1-0.2-1.9-1.2-1.8-2.4l3-20.9c0-0.3-0.1-0.6-0.3-0.8
						c-1.1-1.1-1.6-2.6-1.4-4.1c0-0.1,0-0.2,0.1-0.3l0.6-1.7c0.1-0.5-0.2-1.1-0.7-1.2c-0.3-0.1-0.5,0-0.8,0.1l-1,0.8
						c-0.8,0.6-1.9,0.4-2.5-0.4l-1.8-2.3C285.7,514.4,285.8,513.9,286.2,513.6C286.2,513.6,286.2,513.6,286.2,513.6z"/>
					<line class="st6" x1="132.1" y1="467.1" x2="132.1" y2="411.7"/>
					<line class="st7" x1="131.4" y1="454.8" x2="132.9" y2="395.7"/>
					<path class="st8" d="M159.4,203.5c0,0-13.8-10.6-2.2-26c0,0-3.6-18.5,11.5-19.4c0,0,3-17.9,18.1-13.9c0,0,3.9-9.7,13-4.7
						c0,0,2.6-7.4,10.5-4.5c0,0,8.5-6.1,14.7-0.4c0,0,8.5-8.9,21.2,1.8c0,0,13.3-5.7,17.2,6.9c0,0,13.3,2.2,12.3,12c0,0,5.4,0,5,7.5
						c0,0,8.3-1.1,8.3,11.7c0,0,8.3,3.6,2.8,17.5c0,0,5.9,22.1-13.2,24.6c0,0-7.7,22.4-29.2,12.3c0,0-11.7,19.3-31.7,5.9
						c-7.2,1.3-14.4-1.8-18.4-7.9c0,0-18.1,6.1-22.7-8.9C176.8,217.6,157.2,224.5,159.4,203.5z"/>
					<path class="st9" d="M162.3,238.4h2.1c-4.9,0-8.8-4-8.9-8.8l-2-14.2c0-4.9,4-8.8,8.9-8.8l0,0c4.9,0,8.8,4,8.8,8.8v14.2
						C171.2,234.4,167.2,238.4,162.3,238.4z"/>
					<path class="st9" d="M284.1,238.4H282c-4.9,0-6.8-4-6.8-8.8v-14.2c0-4.9,4-8.8,8.9-8.8l0,0c4.9,0,8.8,4,8.8,8.8l-2,14.2
						C290.9,234.4,289,238.4,284.1,238.4z"/>
					<path class="st9" d="M223.2,305c54.3,0,98.3,45.8,98.3,102.2v60H124.9v-60C124.9,350.7,168.9,305,223.2,305z"/>
					<path class="st10" d="M223.2,299c32.7,0,61.8,16.1,80.4,41c0,0-15.1,4.6-7.5,21.8c0,0,6.1,2.7,6.1,2.7l1.9,7.5
						c0.7,10.6,17.7,6.9,17.7,6.9c2,8.4,3.1,17.1,3.1,25.8v96.9H121.5v-96.9C121.5,346.4,167,299,223.2,299z"/>
					<path class="st11" d="M185.5,306.6c-30.8,18.2-51.6,52.5-51.6,126.5v68.5l-12.4,0.1v-96.9C121.5,360.2,148,322.2,185.5,306.6z"
						/>
					<path class="st12" d="M223.2,299c32.7,0,61.8,16.1,80.4,41c0,0-15.1,4.6-7.5,21.8c0,0,6.1,2.7,6.1,2.7l1.9,7.5
						c0.7,10.6,17.7,6.9,17.7,6.9c2,8.4,3.1,17.1,3.1,25.8v96.9H121.5v-96.9C121.5,346.4,167,299,223.2,299z"/>
					<path class="st13" d="M246.2,272.7h-46V311c0,12.7,10.3,23,23,23c0.7,0,8.3,8.4,8.3,8.4l1.7-9.9l7.8,1.8l-1.1-7.4
						c4.1-4.3,6.4-9.9,6.4-15.9V272.7z"/>
					<path class="st7" d="M246.2,272.7h-46V311c0,12.7,10.3,23,23,23c0.7,0,8.3,8.4,8.3,8.4l1.7-9.9l7.8,1.8l-1.1-7.4
						c4.1-4.3,6.4-9.9,6.4-15.9V272.7z"/>
					<ellipse class="st11" cx="222.9" cy="298.8" rx="23.3" ry="10.8"/>
					<path class="st2" d="M156.9,177.2c0,0,6.1,31.7,6.1,49.9s3.6,27.7,10,39l5.4-3.4l1.7,7.5l5,3.6l-3,5.1
						c12,13.7,22.6,22.2,41.2,22.2c20.5,0,32.6-10.4,44.8-26.6l-4.8-8l8.6,2.4c7.3-11.9,11.6-16.4,11.6-41.8s6.2-49.9,6.2-49.9
						L156.9,177.2z"/>
					<line class="st7" x1="288.2" y1="501.7" x2="290.3" y2="387.5"/>
					<line class="st7" x1="158.2" y1="501.7" x2="156.1" y2="387.5"/>
					<path class="st11" d="M230.7,225c0,10,15.7,21.4,25.7,21.4c10,0,15.9-5.7,15.9-15.7s-4.6-16.4-14.6-16.4S230.7,215,230.7,225z"
						/>
					<path class="st14" d="M230.7,218.9c0,10,15.7,21.5,25.7,21.5c10,0,15.9-5.7,15.9-15.7s-4.6-16.4-14.6-16.4
						S230.7,208.8,230.7,218.9z"/>
					<path class="st15" d="M232.4,250.7c0,7.4-4.1,0.6-9.2,0.6s-9.2,6.8-9.2-0.6s4.1-13.5,9.2-13.5S232.4,243.2,232.4,250.7z"/>
					<path class="st16" d="M179,159.1c0,0,1.3-5.6-4.5-12.4"/>
					<path class="st16" d="M248.6,152.9c0,0-0.1-10.3,1.9-15.1"/>
					<path class="st16" d="M214.5,172.6c0,0,2.6,6.9,11.5,17"/>
					<line class="st17" x1="219.8" y1="284.3" x2="221.9" y2="279.1"/>
					<path class="st18" d="M250.5,276.8c0,8.2-16.7,8-26.5,4.4c-13.8-4.9-22.4,2.9-22.4-4.4s9.8-4.7,22.4-11.2
						C238,258.4,250.5,269.4,250.5,276.8z"/>
					<g>
						<defs>
							<path id="SVGID_4_" d="M250.5,276.8c0,8.2-16.7,8-26.5,4.4c-13.8-4.9-22.4,2.9-22.4-4.4s9.8-4.7,22.4-11.2
								C238,258.4,250.5,269.4,250.5,276.8z"/>
						</defs>
						<clipPath id="SVGID_5_">
							<use xlink:href="#SVGID_4_"  style="overflow:visible;"/>
						</clipPath>
						<g class="st19">
							<ellipse class="st20" cx="231.4" cy="282" rx="12.4" ry="5.3"/>
						</g>
						<path class="st21" d="M215.7,225c0,10-15.7,21.4-25.7,21.4s-15.9-5.7-15.9-15.7s4.6-16.4,14.6-16.4S215.7,215,215.7,225z"/>
						<path class="st22" d="M252.3,219.1c-2.1,0-4.2,0.6-5.9,1.9c1,1,1,2.6,0,3.6c-0.5,0.5-1.1,0.7-1.7,0.8c0.6,2.5,3.8,4.4,7.6,4.4
							c4.3,0,7.7-2.4,7.7-5.4S256.6,219.1,252.3,219.1z"/>
						<path class="st23" d="M230.7,218.9c0,10,9.4,0.3,19.4,0.3c10,0,23.2,8.9,21.9,1.6c-1.4-7.5-4.3-12.6-14.4-12.6
							S230.7,208.8,230.7,218.9z"/>
						<path class="st22" d="M194.1,219.1c-2,0-4,0.5-5.6,1.7c0.6,0.5,1,1.2,1,2c0,1.4-1.2,2.6-2.6,2.6l0,0c-0.1,0-0.3,0-0.4-0.1
							c0.6,2.6,3.8,4.5,7.6,4.5c4.3,0,7.7-2.4,7.7-5.4S198.4,219.1,194.1,219.1z"/>
						<line class="st24" x1="206.4" y1="269.4" x2="204.4" y2="266.3"/>
						<line class="st24" x1="242.9" y1="264.6" x2="242.9" y2="261.5"/>
						<path class="st25" d="M213.9,215.1c0,3.3-0.6,11.2-2.9,13.9c-3.9,4.5-18,6-25.5,9c-8.1,3.2-7.6-9.2-7.6-17.9s4-14.2,12.7-14.2
							S213.9,206.4,213.9,215.1z"/>
						
							<rect x="162.9" y="202.4" transform="matrix(0.9946 -0.1038 0.1038 0.9946 -20.3595 24.1718)" class="st25" width="118.1" height="10.5"/>
						<polygon class="st26" points="280.9,202.2 163.4,214.4 164.1,217.6 281.5,205.3 						"/>
						
							<rect x="162.7" y="199.4" transform="matrix(0.9946 -0.1038 0.1038 0.9946 -19.8612 24.1253)" class="st27" width="118.1" height="6.9"/>
						<path class="st28" d="M141.2,200.1c0,0,12.9-3.1,7.2-29.5c7.1,9.3,19.9,5.2,19.9,5.2l5.8-12.9l8.1-2.7l2.9-9.7l10.3-4.6
							c-0.2-8.6-4.2-15.2-9.4-17.5c15.8-4,36.5-1.6,63.2,7.1c0,0,11.5-5,7.9-14.8c0,0,15.4,0.9,12.9,25.9c0,0,22.8-19,33.3,10.6
							c0,0-14.3-4.7-14.3,10.6c0,0,15.6,11,2.1,47.4c0,0-16.3-6.7-17.7-22c-1.2-13.1-10-14.5-10-14.5s7.3,18.6-40.8,26.6
							c0,0,5.1-18.3,0.6-21.3c0.5,0-30.6,42-81.7,30.1c5.1-2.6,8.9-7.1,10.5-12.6C148.2,202.8,144.3,202.2,141.2,200.1z"/>
						<path class="st29" d="M315.2,534.6c0-1.9-1.1-3.4-1.8-3.4s-1.2,1.5-1.2,3.4c0,0.1,0,0.1,0,0.2c-0.2-0.1-0.3-0.1-0.5-0.1
							c-1.2,0-2.2,1.8-2.2,4.1s1,5.3,2.2,5.3s2.2-3,2.2-5.3c0-0.3,0-0.6-0.1-0.9C314.7,536.9,315.2,535.8,315.2,534.6z"/>
						<path class="st30" d="M288.2,441.8c0-6.1,0.6-11.1-0.5-11.1s-7.7,5-7.7,11.1v0.6c-0.3-0.2-0.5-0.5-0.8-0.4
							c-10.6,2.8-4.9,9.3-4.9,16.6s2.9,13.8,4.9,13.8s3.5-9.9,3.5-17.2c0-1,2.3-2,2.2-2.9C285.6,450.9,288.2,446.7,288.2,441.8z"/>
						<path class="st31" d="M284.1,135.9l-13-30.3C269.8,87.5,244,58,228.9,59l-9,9.6l-10.5-12.8c-15.1,1-33.1,40.9-31.8,59.1
							l-11,27.4c-46.9,7.2-78.6,19.5-77.9,29.1c0.7,10.3,38.1,13.5,90.8,13.6c17.6,0,36.9,2.4,57.1,1c14.2-1,27-5.4,38.4-7
							c12.8-1.9,23.8-1.1,33.1-3.6c5.5-1.5,7.3-4.1,11.6-5.7c3-1.1,8.8-1.2,11.3-2.3c13.2-6.1,19.1-12.8,18.7-18.7
							c-0.1-1.9-2-5-2.9-6.4c-1.6-2.6-3.5-1.4-10.2-2.6c-4.1-0.7-9.5-2.7-16.5-3.1C311.1,136.2,299.3,136,284.1,135.9z"/>
						<line class="st32" x1="166.8" y1="142.8" x2="283.7" y2="133.8"/>
						<path class="st32" d="M242.5,137.5c0,0,11.7,2.3,15,4.5c4.9,3.2,15,9,15,9"/>
						<path class="st32" d="M236.5,137.5c0,0-11.7,2.3-15,4.5c-4.9,3.2-15,9-15,9"/>
						<circle class="st33" cx="226" cy="118.1" r="4.5"/>
					</g>
					<circle class="st34" cx="222.2" cy="221.3" r="202.5"/>
				</g>
			</g>
		</g>
	</g>
</g>
<path class="st35" d="M158.9,201c0,0-14-10.8-2.2-26.4c0,0-3.7-18.7,11.8-19.7c0,0,3-18.2,18.3-14.1c0,0,4-9.8,13.1-4.7
	c1.5-4.2,5.9-6.2,10.1-4.9c0.2,0,0.3,0.2,0.5,0.2c0,0,8.6-6.2,15-0.5c0,0,8.6-9.1,21.5,1.9c0,0,13.5-5.7,17.5,6.9
	c0,0,13.5,2.2,12.5,12.1c0,0,5.6,0,5,7.6c0,0,8.4-1.2,8.4,11.8c0,0,8.4,3.5,2.9,17.7c0,0,6.1,22.4-13.5,24.9c0,0-7.9,22.7-29.6,12.5
	c0,0-11.8,19.5-32.1,5.9c-7.2,1.3-14.6-1.9-18.7-8.1c0,0-18.3,6.2-22.9-9.1C176.6,215.3,156.7,222.3,158.9,201z"/>
<path class="st36" d="M161.9,236.3h2c-4.9,0-8.9-4-8.9-8.9l-2-14.3c0-4.9,4-8.9,8.9-8.9l0,0c4.9,0,8.9,4,8.9,8.9v14.3
	C170.9,232.3,166.8,236.3,161.9,236.3z"/>
<path class="st36" d="M285.3,236.3h-2c-4.9,0-6.9-4-6.9-8.9v-14.3c0-4.9,4-8.9,8.9-8.9l0,0c4.9,0,8.9,4,8.9,8.9l-2,14.3
	C292.2,232.3,290.3,236.3,285.3,236.3z"/>
<path class="st37" d="M246.9,271.1h-46.6V310c0,12.8,10.4,23.2,23.2,23.2c0.7,0,8.4,8.4,8.4,8.4l1.7-10.1l7.9,1.9l-1.2-7.6
	c4.2-4.4,6.4-10.1,6.4-16L246.9,271.1z"/>
<path class="st38" d="M246.9,271.1h-46.6V310c0,12.8,10.4,23.2,23.2,23.2c0.7,0,8.4,8.4,8.4,8.4l1.7-10.1l7.9,1.9l-1.2-7.6
	c4.2-4.4,6.4-10.1,6.4-16L246.9,271.1z"/>
<ellipse class="st11" cx="223.3" cy="297.5" rx="23.6" ry="10.9"/>
<path class="st39" d="M156.4,174.4c0,0,6.2,32.1,6.2,50.5s3.7,28.1,10.1,39.5l5.4-3.4l1.7,7.6l5,3.5l-3,5.2
	c12.1,13.8,22.9,22.5,41.7,22.5c20.7,0,33.1-10.4,45.4-26.9l-4.9-8.1l8.7,2.4c7.4-12.1,11.8-16.7,11.8-42.4c0.2-17,2.4-34,6.2-50.5
	H156.4z"/>
<path class="st11" d="M231.3,222.8c0,10.1,15.8,21.7,26.1,21.7c10.3,0,16-5.7,16-16c0-10.3-4.7-16.7-14.8-16.7
	C248.4,211.9,231.3,212.6,231.3,222.8z"/>
<path class="st40" d="M231.3,216.6c0,10.1,15.8,21.7,26.1,21.7c10.3,0,16-5.7,16-16c0-10.3-4.7-16.7-14.8-16.7
	C248.4,205.7,231.3,206.3,231.3,216.6z"/>
<path class="st15" d="M232.9,248.7c0,7.6-4.2,0.7-9.4,0.7s-9.4,6.9-9.4-0.7c0-7.6,4.2-13.6,9.4-13.6S232.9,241.3,232.9,248.7z"/>
<path class="st41" d="M178.8,156c0,0,1.3-5.7-4.5-12.6"/>
<path class="st41" d="M249.3,149.8c0,0-0.2-10.4,2-15.3"/>
<path class="st41" d="M214.8,169.7c0,0,2.5,7.1,11.6,17.2"/>
<line class="st42" x1="220.1" y1="282.9" x2="222.3" y2="277.7"/>
<path class="st43" d="M251.3,275.2c0,8.2-16.8,8.1-26.9,4.5c-14-5-22.7,3-22.7-4.5s9.9-4.7,22.7-11.4
	C238.7,256.6,251.3,267.8,251.3,275.2z"/>
<g>
	<g>
		<defs>
			<path id="SVGID_6_" d="M251.3,275.2c0,8.2-16.8,8.1-26.9,4.5c-14-5-22.7,3-22.7-4.5s9.9-4.7,22.7-11.4
				C238.7,256.6,251.3,267.8,251.3,275.2z"/>
		</defs>
		<clipPath id="SVGID_7_">
			<use xlink:href="#SVGID_6_"  style="overflow:visible;"/>
		</clipPath>
		<g class="st44">
			<ellipse class="st20" cx="231.9" cy="280.5" rx="12.6" ry="5.4"/>
		</g>
	</g>
</g>
<path class="st11" d="M216.1,222.8c0,10.1-15.8,21.7-26.1,21.7s-16-5.7-16-16c0-10.3,4.7-16.7,14.8-16.7S216.1,212.6,216.1,222.8z"
	/>
<path class="st15" d="M253.1,216.9c-2.2,0-4.2,0.7-5.9,2c0.5,0.5,0.8,1.2,0.8,1.9c0,1.3-1.2,2.5-2.5,2.7c0.7,2.5,3.9,4.5,7.6,4.5
	c4.4,0,7.7-2.4,7.7-5.4C260.9,219.6,257.5,216.9,253.1,216.9z"/>
<path class="st45" d="M231.3,216.6c0,10.1,9.6,0.3,19.7,0.3c10.1,0,23.6,9.1,22.2,1.7s-4.4-12.8-14.6-12.8
	C248.2,205.8,231.3,206.3,231.3,216.6z"/>
<path class="st15" d="M194.1,216.9c-2,0-4,0.5-5.7,1.7c0.7,0.5,1,1.2,1,2c0,1.5-1.2,2.7-2.7,2.7c-0.2,0-0.3,0-0.5-0.2
	c0.7,2.5,3.9,4.5,7.7,4.5c4.4,0,7.7-2.4,7.7-5.4C201.6,219.3,198.4,216.9,194.1,216.9z"/>
<line class="st42" x1="206.7" y1="267.8" x2="204.5" y2="264.7"/>
<line class="st42" x1="243.5" y1="262.9" x2="243.5" y2="259.8"/>
<path class="st46" d="M214.3,212.7c0,3.4-0.5,11.3-2.9,14.1c-3.9,4.5-18.2,6.1-25.7,9.1c-8.2,3.2-7.7-9.4-7.7-18.2s4-14.5,12.8-14.5
	S214.3,204,214.3,212.7z"/>
<rect x="162.6" y="200" transform="matrix(0.9946 -0.1038 0.1038 0.9946 -20.1065 24.196)" class="st46" width="119.6" height="10.6"/>
<polygon class="st47" points="282.1,199.6 163.1,212.1 163.8,215.3 282.7,202.8 "/>
<rect x="162.4" y="196.9" transform="matrix(0.9946 -0.1038 0.1038 0.9946 -19.6094 24.1535)" class="st48" width="119.6" height="7.1"/>
<path class="st49" d="M140.6,197.6c0,0,13.1-3,7.4-29.8c7.2,9.4,20.2,5.2,20.2,5.2l5.9-13.1l8.1-2.7l2.9-9.9l10.4-4.7
	c-0.2-8.7-4.4-15.3-9.6-17.7c16-4,37-1.5,63.9,7.2c0,0,11.6-5,8.1-15c0,0,15.6,0.8,13.1,26.2c0,0,23-19.2,33.6,10.8
	c0,0-14.5-4.7-14.5,10.8c0,0,15.8,11.1,2,48c0,0-16.5-6.7-18-22.4c-1.2-13.3-10.1-14.6-10.1-14.6s7.4,18.8-41.4,26.9
	c0,0,5.2-18.5,0.5-21.5c0.5,0-31,42.6-82.8,30.5c5.2-2.7,8.9-7.2,10.6-12.8C147.6,200.3,143.8,199.8,140.6,197.6z"/>
<path class="st50" d="M285.3,132.7L272.1,102c-1.3-18.5-27.4-48.3-42.6-47.3l-9.1,9.8l-10.6-13c-15.5,0.8-33.6,41.2-32.5,59.7
	L166.3,139c-47.4,7.2-79.6,19.9-78.9,29.4c0.7,10.4,38.5,13.8,92,13.8c17.8,0,37.4,2.4,57.7,1c14.5-1,27.3-5.4,38.9-7.1
	c13-1.9,24.1-1.2,33.6-3.7c5.6-1.5,7.4-4,11.8-5.7c3-1.2,8.9-1.2,11.4-2.4c13.5-6.2,19.3-13,19-18.8c-0.5-2.4-1.5-4.5-2.9-6.6
	c-1.7-2.7-3.5-1.3-10.4-2.5c-4.2-0.7-9.6-2.9-16.7-3.2C312.7,132.8,300.7,132.7,285.3,132.7z"/>
<line class="st51" x1="166.5" y1="139.5" x2="284.9" y2="130.5"/>
<path class="st51" d="M243.2,134.2c0,0,11.9,2.4,15.1,4.5c4.9,3.2,15.1,9.1,15.1,9.1"/>
<path class="st51" d="M237.1,134.2c0,0-11.8,2.4-15.1,4.5c-4.9,3.2-15.1,9.1-15.1,9.1"/>
<circle class="st52" cx="226.5" cy="114.5" r="4.5"/>
</svg>
