<?xml version="1.0" encoding="utf-8"?>
<!-- Generator: Adobe Illustrator 22.1.0, SVG Export Plug-In . SVG Version: 6.00 Build 0)  -->
<svg version="1.1" id="Layer_1" xmlns="http://www.w3.org/2000/svg" xmlns:xlink="http://www.w3.org/1999/xlink" x="0px" y="0px"
	 viewBox="0 0 470 470" style="enable-background:new 0 0 470 470;" xml:space="preserve">
<style type="text/css">
	.st0{fill:url(#SVGID_1_);}
	.st1{clip-path:url(#SVGID_3_);}
	.st2{fill:#333132;stroke:#333132;stroke-width:7.33;stroke-linejoin:round;}
	.st3{fill:#6C5B4B;stroke:#333132;stroke-width:7.33;stroke-linecap:round;stroke-linejoin:round;}
	.st4{fill:#8BC540;}
	.st5{fill:#FFFFFF;stroke:#333132;stroke-width:5.49;stroke-miterlimit:10;}
	.st6{opacity:0.1;enable-background:new    ;}
	.st7{fill:none;stroke:#333132;stroke-width:7.33;stroke-linejoin:round;}
	.st8{opacity:0.1;}
	.st9{fill:none;stroke:#333132;stroke-width:7.33;stroke-miterlimit:10;}
	.st10{fill:#CCCBCB;stroke:#333132;stroke-width:7.33;stroke-miterlimit:10;}
	.st11{fill:#333132;}
	.st12{fill:#FFFFFF;}
	.st13{fill:none;stroke:#333132;stroke-width:5.49;stroke-linecap:round;stroke-linejoin:round;}
	.st14{fill:none;stroke:#333132;stroke-width:5.49;stroke-linecap:round;stroke-miterlimit:10;}
	.st15{fill:#88583B;}
	.st16{fill:none;stroke:#333132;stroke-width:7.33;stroke-linecap:round;stroke-linejoin:round;}
	.st17{fill:#333132;stroke:#333132;stroke-width:5.49;stroke-linecap:round;stroke-linejoin:round;}
	.st18{fill:#CCCBCB;stroke:#333132;stroke-width:7.33;stroke-linejoin:round;}
	.st19{fill:#6FCBDC;}
	.st20{fill:#FFFFFF;stroke:#333132;stroke-width:7.33;stroke-miterlimit:10;}
	.st21{fill:#FFFFFF;stroke:#333132;stroke-width:5.49;stroke-linejoin:round;}
	.st22{fill:#A86E51;stroke:#333132;stroke-width:3.07;stroke-linecap:round;stroke-linejoin:round;}
	.st23{fill:none;stroke:#333132;stroke-width:5.49;stroke-linejoin:round;}
	.st24{opacity:0.75;enable-background:new    ;}
	.st25{fill:none;stroke:#FFFFFF;stroke-width:10;stroke-miterlimit:10;}
</style>
<title>inventorAvatar</title>
<g>
	<g id="Layer_2_1_">
		<g id="Layer_1-2">
			
				<linearGradient id="SVGID_1_" gradientUnits="userSpaceOnUse" x1="235" y1="-743.46" x2="235" y2="-357.77" gradientTransform="matrix(1 0 0 -1 0 -256)">
				<stop  offset="0" style="stop-color:#9FD6CA"/>
				<stop  offset="1" style="stop-color:#4AB657"/>
			</linearGradient>
			<circle class="st0" cx="235" cy="235.5" r="202.5"/>
			<g>
				<g>
					<g>
						<defs>
							<circle id="SVGID_2_" cx="235" cy="234.5" r="202.5"/>
						</defs>
						<clipPath id="SVGID_3_">
							<use xlink:href="#SVGID_2_"  style="overflow:visible;"/>
						</clipPath>
						<g class="st1">
							<path class="st2" d="M141.1,700.9l38.4-3.8l41.1-57.3c0,0,41.4-5.7,50.5,4.7l-18.9,45.4l32-3.2c0,0,31.8-38.1,31.4-90.4
								c0,0-40.9,38.3-108.9,7.7L141.1,700.9z"/>
							<rect x="-54.7" y="527.9" class="st3" width="562.6" height="21.1"/>
							<path class="st4" d="M108.8,461.6v-44.2c2.4-1,4-2.2,4-3.7c0-2.9-6.3-5.3-14.1-5.3s-14.1,2.4-14.1,5.3c0,1.4,1.5,2.7,4,3.7
								v44.2c-16.6,5.6-25.5,23.5-19.9,40.1c5.6,16.6,23.5,25.5,40.1,19.9c16.6-5.6,25.5-23.5,19.9-40.1
								C125.6,472.1,118.2,464.7,108.8,461.6L108.8,461.6z"/>
							<path class="st5" d="M120.8,491c-0.3,12.2-10.4,21.9-22.6,21.7c-11.9-0.3-21.4-9.8-21.7-21.7c0-12.2,9.5-1.7,22.9-2
								C111.6,488.6,120.8,478.7,120.8,491z"/>
							<path class="st4" d="M179.8,476.9v-44.3h-0.1c0.1-0.2,0.1-0.3,0.1-0.5c0-2.4-4.2-4.4-9.5-4.4c-5.3,0-9.5,2-9.5,4.4
								c0,0.2,0.1,0.4,0.1,0.5h-0.1v44.3c0,0-22.1,13.7-22.1,30.9c0,9.6,6.9,15.4,15.4,15.4h32.4c8.5,0,15.4-6.9,15.4-15.4
								C202,490.6,179.8,476.9,179.8,476.9z"/>
							<path class="st5" d="M152.7,501.1c-4.2,6.2-1.6,12,5,12h25.2c6.6,0,8.9-6.7,5-12C181.4,492.3,159.2,491.5,152.7,501.1z"/>
							<ellipse class="st4" cx="170.3" cy="431.9" rx="12.3" ry="5.3"/>
							<path class="st6" d="M179.8,476.9v-44.3h-0.1c0.1-0.2,0.1-0.3,0.1-0.5c0-2.4-4.2-4.4-9.5-4.4c-4.7,0-8.6,1.6-9.3,3.7
								c0.8-0.1,1.5-0.1,2.3-0.1c5.2,0,9.5,2,9.5,4.4c0,0.2,0,0.4-0.1,0.5h0.1v44.3c0,0,22.2,13.7,22.2,30.9c0,4.5-2,8.7-5.4,11.6
								c7.2-1.5,12.4-7.8,12.4-15.1C202,490.6,179.8,476.9,179.8,476.9z"/>
							<path class="st7" d="M179.8,476.9v-44.3h-0.1c0.1-0.2,0.1-0.3,0.1-0.5c0-2.4-4.2-4.4-9.5-4.4c-5.3,0-9.5,2-9.5,4.4
								c0,0.2,0.1,0.4,0.1,0.5h-0.1v44.3c0,0-22.1,13.7-22.1,30.9c0,9.6,6.9,15.4,15.4,15.4h32.4c8.5,0,15.4-6.9,15.4-15.4
								C202,490.6,179.8,476.9,179.8,476.9z"/>
							<path class="st4" d="M36.5,476.9v-44.3h-0.1c0.1-0.2,0.1-0.3,0.1-0.5c0-2.4-4.2-4.4-9.5-4.4s-9.5,2-9.5,4.4
								c0,0.2,0.1,0.4,0.1,0.5h-0.1v44.3c0,0-22.2,13.7-22.2,30.9c0,9.6,7,15.4,15.4,15.4h32.5c8.5,0,15.4-6.9,15.4-15.4
								C58.7,490.6,36.5,476.9,36.5,476.9z"/>
							<path class="st5" d="M9.4,501.1c-4.2,6.2-1.6,12,5,12h25.2c6.6,0,8.9-6.7,5-12C38.1,492.3,16,491.5,9.4,501.1z"/>
							<ellipse class="st4" cx="27" cy="431.9" rx="12.3" ry="5.3"/>
							<path class="st4" d="M436.6,476.9v-44.3h-0.1c0.1-0.2,0.1-0.3,0.1-0.5c0-2.4-4.2-4.4-9.5-4.4s-9.5,2-9.5,4.4
								c0,0.2,0.1,0.4,0.1,0.5h-0.1v44.3c0,0-22.1,13.7-22.1,30.9c0,9.6,6.9,15.4,15.4,15.4h32.4c8.5,0,15.4-6.9,15.4-15.4
								C458.8,490.6,436.6,476.9,436.6,476.9z"/>
							<path class="st5" d="M409.6,501.1c-4.2,6.2-1.6,12,5,12h25.2c6.6,0,8.9-6.7,5-12C438.2,492.3,416.1,491.5,409.6,501.1z"/>
							<path class="st4" d="M365.6,461.6v-44.2c2.5-1,4-2.2,4-3.7c0-2.9-6.3-5.3-14.1-5.3s-14.1,2.4-14.1,5.3c0,1.4,1.5,2.7,4,3.7
								v44.2c-16.6,5.6-25.5,23.5-19.9,40.1c5.6,16.6,23.5,25.5,40.1,19.9c16.6-5.6,25.5-23.5,19.9-40.1
								C382.4,472.1,375,464.7,365.6,461.6L365.6,461.6z"/>
							<g class="st8">
								<path d="M365.6,461.6v-47.8c0-1.9-4.5-3.4-10.1-3.4s-10.1,1.5-10.1,3.4v0.3c1-0.1,2-0.2,3-0.2c5.6,0,10.1,1.5,10.1,3.4v47.8
									c16.6,5.6,25.5,23.5,19.9,40c-2.2,6.6-6.6,12.3-12.3,16.2c16.4-5.8,25-23.9,19.2-40.4C382,471.8,374.8,464.7,365.6,461.6
									L365.6,461.6z"/>
								<path d="M338,465.2l0.4-0.1V465L338,465.2z"/>
							</g>
							<path class="st7" d="M436.6,476.9v-44.3h-0.1c0.1-0.2,0.1-0.3,0.1-0.5c0-2.4-4.2-4.4-9.5-4.4s-9.5,2-9.5,4.4
								c0,0.2,0.1,0.4,0.1,0.5h-0.1v44.3c0,0-22.1,13.7-22.1,30.9c0,9.6,6.9,15.4,15.4,15.4h32.4c8.5,0,15.4-6.9,15.4-15.4
								C458.8,490.6,436.6,476.9,436.6,476.9z"/>
							<ellipse class="st4" cx="427.1" cy="431.9" rx="12.3" ry="5.3"/>
							<path class="st6" d="M436.6,476.9v-44.3h-0.1c0.1-0.2,0.1-0.3,0.1-0.5c0-2.4-4.2-4.4-9.5-4.4c-4.7,0-8.6,1.6-9.3,3.7
								c0.8-0.1,1.5-0.1,2.3-0.1c5.2,0,9.5,2,9.5,4.4c0,0.2-0.1,0.4-0.1,0.5h0.1v44.3c0,0,22.1,13.7,22.1,30.9c0,4.5-2,8.7-5.4,11.6
								c7.2-1.5,12.4-7.8,12.4-15.1C458.8,490.6,436.6,476.9,436.6,476.9z"/>
							<path class="st5" d="M377.7,491c0,12.2-9.9,22.1-22.2,22.1c-12.2,0-22.1-9.9-22.1-22.1s9.5-1.7,22.9-2
								C368.4,488.6,377.7,478.7,377.7,491z"/>
							<path class="st6" d="M36.5,476.9v-44.3h-0.1c0.1-0.2,0.1-0.3,0.1-0.5c0-2.4-4.2-4.4-9.5-4.4c-4.7,0-8.6,1.6-9.3,3.7
								c0.8-0.1,1.5-0.2,2.3-0.2c5.2,0,9.5,2,9.5,4.4c0,0.2-0.1,0.4-0.1,0.5h0.1v44.3c0,0,22.2,13.7,22.2,30.9c0,4.5-2,8.7-5.4,11.6
								c7.2-1.5,12.4-7.8,12.4-15.1C58.7,490.6,36.5,476.9,36.5,476.9z"/>
							<ellipse class="st9" cx="427.1" cy="431.9" rx="12.3" ry="5.3"/>
							<ellipse class="st9" cx="170.3" cy="431.9" rx="12.3" ry="5.3"/>
							<ellipse class="st9" cx="27" cy="431.9" rx="12.3" ry="5.3"/>
							<path class="st7" d="M36.5,476.9v-44.3h-0.1c0.1-0.2,0.1-0.3,0.1-0.5c0-2.4-4.2-4.4-9.5-4.4s-9.5,2-9.5,4.4
								c0,0.2,0.1,0.4,0.1,0.5h-0.1v44.3c0,0-22.2,13.7-22.2,30.9c0,9.6,7,15.4,15.4,15.4h32.5c8.5,0,15.4-6.9,15.4-15.4
								C58.7,490.6,36.5,476.9,36.5,476.9z"/>
							<path class="st10" d="M200.3,97.9c-23.7,23.1,6.3,57.8,24,58.4c30.9,1,63,10.1,68-4.4C314.2,87.4,241.6,57.7,200.3,97.9z"/>
							<g class="st8">
								<path d="M108.8,461.6v-47.8c0-1.9-4.5-3.4-10.1-3.4s-10.1,1.5-10.1,3.4v0.3c1-0.1,2-0.2,3-0.2c5.6,0,10.1,1.5,10.1,3.4v47.8
									c16.6,5.6,25.5,23.5,19.9,40.1c-2.2,6.6-6.6,12.3-12.3,16.2c16.5-5.8,25.1-23.9,19.2-40.4
									C125.2,471.8,117.9,464.7,108.8,461.6L108.8,461.6z"/>
								<path d="M81.2,465.2l0.4-0.1V465L81.2,465.2z"/>
							</g>
							<path class="st11" d="M478.2,265.1c8.1,21.8-70,8.9-63.2-3s25.6-54.1,27.1-74.2c0.6-8.5-2.6-5.8-10.5-11
								c-10.9-7.1-16.8-22.4-8-25.9c7.3-2.9,5.9,2.6,10.2,8.8c5,7.2,14,11,14.6-7.6c0.8-16.1-14.8-24.1-7.3-28.6
								c15.5-9.1,25.5,19.6,24.3,31.9c4.1-8.2,4.5-17.7,1.1-26.2c-4.7-11.8,10.3-14,15.1-4.5c4,7.8,6.6,21.6,1.2,37.8
								c0.3,0.3,4.2-0.9,12.2-15.7c5.8-10.8,20-1.6,9.7,12.8c-10.3,14.4-18,17.4-25.5,28.4C474.3,195.2,462,222,478.2,265.1z"/>
							<path class="st12" d="M461.4,269.5l-29.7-4.8c-42.6,105.2-151,53.8-151,53.8s8.8-16.6-6-25.3c-11.8-6.9-27.2-7.8-42.7,2.4
								c-23.8,15.7-9.9,37.4-9.9,37.3C160.3,396.3,100,353.8,100,353.8l-28.1,34.5c19.7,14.4,39.1,20.6,56.7,22.1
								c1.5,7.2,8.5,11.7,15.7,10.2c5.5-1.2,9.7-5.7,10.4-11.2c18.5-3,36-10.2,51.3-21.1l-3.8,222.4c74.8,6.5,106.9,63.5,106.9,63.5
								c20.7-96.4,11.8-311.6,13.2-311.6c28,4.4,50.2,2.8,68.1-2.5c4.3,5.9,12.6,7.2,18.5,2.9c4.2-3,6.2-8.2,5.2-13.3
								C458.2,322.7,461.4,269.5,461.4,269.5z"/>
							<polygon class="st6" points="72,385.6 91.5,353 105,356.7 83.8,396.2 							"/>
							<path class="st9" d="M108.8,461.6v-44.2c2.4-1,4-2.2,4-3.7c0-2.9-6.3-5.3-14.1-5.3s-14.1,2.4-14.1,5.3c0,1.4,1.5,2.7,4,3.7
								v44.2c-16.6,5.6-25.5,23.5-19.9,40.1c5.6,16.6,23.5,25.5,40.1,19.9c16.6-5.6,25.5-23.5,19.9-40.1
								C125.6,472.1,118.2,464.7,108.8,461.6L108.8,461.6z"/>
							<path class="st11" d="M61.4,392.5c10.3,20.9,54.5-44.9,41.1-48.1s-64.4-25.9-80.1-38.6c-6.6-5.3-31,32.7-17.8,34.7
								C13,341.8,41,351.2,61.4,392.5z"/>
							<path class="st13" d="M241.6,347.4c0,0-19.5-8.5-23.3-25.8"/>
							<path class="st13" d="M271.1,328.1c0,0,15.1-12.6,11-26.7"/>
							
								<ellipse transform="matrix(0.9256 -0.3786 0.3786 0.9256 -99.1957 117.6926)" class="st11" cx="249.7" cy="311.1" rx="21" ry="13"/>
							<path class="st14" d="M218.3,360.1c0,0-14,9.7-11.6,47.6"/>
							<path class="st13" d="M212.4,369.8c0,0,45.4,14.1,79.2,0c0,0,17.5,119-17.2,267.8"/>
							<ellipse class="st11" cx="277" cy="403.2" rx="5.8" ry="8.6"/>
							<g class="st8">
								<path d="M431.7,264.7c-1.6,4.2-3.6,8.3-5.9,12.3h33.7l1.8-7.4L431.7,264.7z"/>
								<path d="M313.1,353c-10.1-1.2,2.6,201.5-19.2,301.7c6.6,7.8,15.2,19.5,15.2,19.5c15.8-73.6,14.4-243.5,13.4-311.6
									C322.5,362.7,322.9,354.2,313.1,353z"/>
							</g>
							<ellipse class="st11" cx="277" cy="469.8" rx="5.8" ry="8.6"/>
							<ellipse class="st11" cx="271.1" cy="536.3" rx="5.8" ry="8.6"/>
							<path class="st7" d="M461.4,269.5l-29.7-4.8c-42.6,105.2-151,53.8-151,53.8s8.8-16.6-6-25.3c-11.8-6.9-27.2-7.8-42.7,2.4
								c-23.8,15.7-9.9,37.4-9.9,37.3C160.3,396.3,100,353.8,100,353.8l-28.1,34.5c19.7,14.4,39.1,20.6,56.7,22.1
								c1.5,7.2,8.5,11.7,15.7,10.2c5.5-1.2,9.7-5.7,10.4-11.2c18.5-3,36-10.2,51.3-21.1l-3.8,222.4c74.8,6.5,106.9,63.5,106.9,63.5
								c20.7-96.4,11.8-311.6,13.2-311.6c28,4.4,50.2,2.8,68.1-2.5c4.3,5.9,12.6,7.2,18.5,2.9c4.2-3,6.2-8.2,5.2-13.3
								C458.2,322.7,461.4,269.5,461.4,269.5z"/>
							<path class="st13" d="M137.8,397.8c0,0-15.3,5.4-3.5,20.9"/>
							<path class="st13" d="M403.6,341.4c0,0,16.6,4.3,6.3,20.8"/>
							<path class="st15" d="M321.9,196.1c0-56.5-41.2-102.4-92-102.4S138,139.5,138,196.1s41.2,102.4,91.9,102.4c0.2,0,0.4,0,0.6,0
								l4.9,18.3c0,0,14.3,7.9,27.1-5.7l-4.7-17.4C295,280.5,321.9,241.8,321.9,196.1z"/>
							<g class="st8">
								<path d="M249.1,316.1l13.4-5l-4.7-17.4c33.6-16.5,64-55.6,64-97.6l-6.4-27.6c0,73.8-32.7,101-71.2,120.3L249.1,316.1z"/>
							</g>
							
								<ellipse transform="matrix(9.950092e-02 -0.995 0.995 9.950092e-02 -17.6873 317.4466)" class="st12" cx="166.5" cy="168.5" rx="29.5" ry="15.7"/>
							<path class="st6" d="M169.6,139.2c-0.7-0.1-1.4,0-2.1,0.1c4.1,5.6,6.3,15.2,5.2,26c-1.5,14.9-8.6,26.6-16.5,27.7
								c2.1,2.8,4.6,4.6,7.5,4.9c8.6,0.9,17-11.6,18.6-27.8C183.9,153.9,178.2,140,169.6,139.2z"/>
							<ellipse class="st12" cx="216" cy="176.2" rx="19.4" ry="36.3"/>
							<path class="st16" d="M321.9,196.1c0-56.5-41.2-102.4-92-102.4S138,139.5,138,196.1s41.2,102.4,91.9,102.4c0.2,0,0.4,0,0.6,0
								l4.9,18.3c0,0,14.3,7.9,27.1-5.7l-4.7-17.4C295,280.5,321.9,241.8,321.9,196.1z"/>
							<path class="st11" d="M211.2,165.4c-2.8,0-5-3.5-5-7.8c0-4.3,2.2-7.8,5-7.8c0.7,0,1.3,0.2,1.9,0.6c-0.8-2-1.9-3.4-3.4-3.7
								c-3.8-0.8-8.4,5.1-10.1,13.2s-0.1,15.4,3.8,16.2c3.5,0.8,7.5-4.1,9.5-11.1C212.3,165.2,211.8,165.4,211.2,165.4z"/>
							<path class="st11" d="M161.6,151.6c0-3.8,1.8-7,4.1-7.7c-0.8-2.2-2-3.7-3.5-4c-3.8-0.8-8.4,5.1-10.1,13.2s-0.1,15.4,3.8,16.2
								c3.4,0.7,7.2-3.8,9.3-10.3C163.1,158.1,161.6,155.2,161.6,151.6z"/>
							<path class="st17" d="M242.4,134.1l-7-11.3l6.2-11.4c-29.3-5.4-53.2,22.9-53.2,22.9s-21.8-28.1-50.6-18.5l7.4,8.8l-7.4,12.4
								c26.7-7.6,52.3,23.2,52.3,23.2S212.4,131.2,242.4,134.1z"/>
							<path class="st18" d="M257.7,129.8c-20.9,25.6-3.5,60.6,19.3,56.8c30.5-5.1,0-23.4,15.3-34.8c19.9-14.8,30.1,24.3,30.1,49.9
								c0,0,5.1-6.7,11.6-20.6C358.9,127.4,293.6,85.8,257.7,129.8z"/>
							<path class="st19" d="M17.5,310.8l14-66.2c2.6-0.7,4.4-1.8,4.7-3.4c0.8-3.9-7-8.9-17.4-11.1s-19.5-0.8-20.3,3.1
								c-0.3,1.6,0.8,3.4,2.9,5.1l-14,66.2c-26.4,3.1-45.4,27-42.3,53.4c3.1,26.4,27,45.4,53.4,42.3s45.4-27,42.3-53.4
								C39.2,331.8,30.5,318.5,17.5,310.8L17.5,310.8z"/>
							<path class="st5" d="M26.7,354.5C25.6,373.1,9.5,387.2-9,386.1c-18.6-1.1-32.7-17.2-31.6-35.7c1.2-18.6,11-2.4,29.6-1.2
								S27.9,335.9,26.7,354.5z"/>
							<path class="st11" d="M-24.5,307.2c0.7,5.5,12,15.4,19.6,6.7c6.6-7.5-4.7-15.1-7.8-16.3S-26.3,294.2-24.5,307.2z"/>
							<path class="st11" d="M-35.1,315.1c5.5,10.1,12.5,15.9,19.4,9.5c5.4-4.5-4.4-16.5-7.9-20.5S-40.6,305-35.1,315.1z"/>
							<path class="st11" d="M-45,322c3.5,7.9,10.9,13.7,17,7.4c4.7-5-2.5-16.7-6.1-19.5S-49.3,312.6-45,322z"/>
							<path class="st11" d="M10.4,365.3c1.3,3.2-2,7.6-7.4,9.9s-10.9,1.5-12.2-1.7s4.4-1.8,9.8-4.1S9,362.1,10.4,365.3z"/>
							<circle class="st20" cx="31.4" cy="82.4" r="14.4"/>
							<circle class="st20" cx="45.8" cy="128.2" r="12"/>
							<circle class="st20" cx="28.2" cy="200.5" r="7.2"/>
							<circle class="st20" cx="17.5" cy="164.3" r="9.6"/>
							<path class="st21" d="M179.3,247.8c0,0,27.1,32.1,59.5,21c49.1-16.8,34.9-60.4,34.9-60.4s-12.5,19.8-43.7,31.3
								S179.3,247.8,179.3,247.8z"/>
							<path class="st6" d="M216,139.8L216,139.8c5.8,6.3,9.8,18,9.8,31.5c0,20.1-8.7,36.3-19.4,36.3c2.8,3.1,6.1,4.8,9.6,4.8
								c10.7,0,19.4-16.3,19.4-36.3S226.7,139.8,216,139.8z"/>
							
								<ellipse transform="matrix(9.950092e-02 -0.995 0.995 9.950092e-02 -17.6873 317.4466)" class="st13" cx="166.5" cy="168.5" rx="29.5" ry="15.7"/>
							<path class="st22" d="M187.4,173.4c6.5,1.1,10.5,10.2,8.8,20.5c-1.7,10.3-12.2,37.4-18.7,36.3s-6.6-29.9-5-40.2
								C174.1,179.7,180.9,172.3,187.4,173.4z"/>
							<line class="st23" x1="217.3" y1="244.5" x2="230" y2="271.1"/>
							<line class="st23" x1="246.7" y1="233.1" x2="257.8" y2="257.4"/>
							<path class="st24" d="M17.5,310.8l14-66.2c2.6-0.7,4.4-1.8,4.7-3.4c0.8-3.9-7-8.9-17.4-11.1h-0.2c4.7,2.3,7.5,5.1,7,7.6
								c-0.3,1.6-2.1,2.8-4.7,3.4l-17.3-0.3l-2.4,6.9c7.1,6.1,17.9,6,17.9,6L6.2,314.8c17.3,10.2,25.1,26.9,23.4,44
								c-2.7,26.4-11,34.3-11,34.3c22.5-14.1,29.3-43.8,15.2-66.4C29.7,320.2,24.1,314.8,17.5,310.8L17.5,310.8z"/>
							<path class="st11" d="M19.8,309.9c0,0-18.9,1.1-15.6,13.4c3.1,11.3,28.7-1.2,28.7-1.2L19.8,309.9z"/>
							
								<ellipse transform="matrix(0.2072 -0.9783 0.9783 0.2072 -218.3133 205.1031)" class="st9" cx="17.4" cy="237.2" rx="7.2" ry="19.3"/>
							<path class="st9" d="M17.5,310.8l14-66.2c2.6-0.7,4.4-1.8,4.7-3.4c0.8-3.9-7-8.9-17.4-11.1s-19.5-0.8-20.3,3.1
								c-0.3,1.6,0.8,3.4,2.9,5.1l-14,66.2c-26.4,3.1-45.4,27-42.3,53.4c3.1,26.4,27,45.4,53.4,42.3s45.4-27,42.3-53.4
								C39.2,331.8,30.5,318.5,17.5,310.8L17.5,310.8z"/>
							<ellipse class="st13" cx="216" cy="176.2" rx="19.4" ry="36.3"/>
							<ellipse class="st9" cx="98.7" cy="413.7" rx="14.1" ry="5.3"/>
							<path class="st9" d="M365.6,461.6v-44.2c2.5-1,4-2.2,4-3.7c0-2.9-6.3-5.3-14.1-5.3s-14.1,2.4-14.1,5.3c0,1.4,1.5,2.7,4,3.7
								v44.2c-16.6,5.6-25.5,23.5-19.9,40.1c5.6,16.6,23.5,25.5,40.1,19.9c16.6-5.6,25.5-23.5,19.9-40.1
								C382.4,472.1,375,464.7,365.6,461.6L365.6,461.6z"/>
							<ellipse class="st9" cx="355.5" cy="413.7" rx="14.1" ry="5.3"/>
						</g>
					</g>
				</g>
			</g>
			<circle class="st25" cx="235" cy="234.5" r="202.5"/>
		</g>
	</g>
</g>
<image style="overflow:visible;opacity:0.2;enable-background:new    ;" width="453" height="453" xlink:href="8B59276F2553F87A.png"  transform="matrix(0.9978 0 0 0.9978 9 9)">
</image>
<circle class="st25" cx="235" cy="235" r="202.5"/>
</svg>
