<svg xmlns="http://www.w3.org/2000/svg" viewBox="0 0 329.77 438.54"><defs><style>.cls-1{isolation:isolate;}.cls-2,.cls-6{fill:#77569b;}.cls-12,.cls-14,.cls-15,.cls-16,.cls-17,.cls-18,.cls-19,.cls-2,.cls-21,.cls-22,.cls-23,.cls-24,.cls-25,.cls-26,.cls-28,.cls-29,.cls-3,.cls-30,.cls-32,.cls-33,.cls-34,.cls-5,.cls-7,.cls-9{stroke:#333132;}.cls-12,.cls-14,.cls-15,.cls-17,.cls-19,.cls-2,.cls-25,.cls-26,.cls-28,.cls-29,.cls-3,.cls-34,.cls-5,.cls-7,.cls-9{stroke-linecap:round;}.cls-12,.cls-14,.cls-17,.cls-18,.cls-19,.cls-2,.cls-22,.cls-25,.cls-28,.cls-29,.cls-3,.cls-30,.cls-33,.cls-34,.cls-5,.cls-7,.cls-9{stroke-linejoin:round;}.cls-2,.cls-3,.cls-9{stroke-width:0.3px;}.cls-3{fill:#c594bd;}.cls-4{fill:#dc9fc3;}.cls-15,.cls-16,.cls-22,.cls-23,.cls-25,.cls-26,.cls-28,.cls-5,.cls-9{fill:none;}.cls-12,.cls-14,.cls-15,.cls-16,.cls-17,.cls-5,.cls-7{stroke-width:0.23px;}.cls-7{fill:#ab599a;}.cls-8{opacity:0.1;}.cls-10{fill:#60348a;}.cls-11,.cls-18,.cls-29{fill:#333132;}.cls-12,.cls-13,.cls-21,.cls-32,.cls-33{fill:#fff;}.cls-14{fill:#efb153;}.cls-15,.cls-16,.cls-21,.cls-23,.cls-24,.cls-26,.cls-32{stroke-miterlimit:10;}.cls-17{fill:#483c62;}.cls-18,.cls-19,.cls-22,.cls-23,.cls-24,.cls-28,.cls-30,.cls-32{stroke-width:4.09px;}.cls-19{fill:#6c5b4b;}.cls-20{fill:#8bc540;}.cls-21,.cls-25,.cls-26,.cls-29,.cls-33,.cls-34{stroke-width:3.07px;}.cls-24,.cls-30{fill:#cccbcb;}.cls-27,.cls-34{fill:#c6b198;}.cls-31{fill:#6fcbdc;}.cls-35{opacity:0.75;mix-blend-mode:overlay;}</style></defs><title>inventor</title><g class="cls-1"><g id="Layer_2" data-name="Layer 2"><g id="Layer_1-2" data-name="Layer 1"><g id="Elusive_Pony" data-name="Elusive Pony"><path class="cls-2" d="M-291.27-23.27s-4.38-1.9-6.72-2.67c-3.64-1.22-2.63,6.18-4.5,7.57-1,.71-3.44-1.71-5.25-2.12C-311.48-21.33-312.46-6-312.46-6s4.39-7.3,7.61-7.92c2.57-.49,3.46,2,3.76,4.56.2,1.81,2.38-6.94,4.47-9.61,1.73-2.21,5.33-.75,5.33-.75Z" transform="translate(560 240)"/><path class="cls-3" d="M-282.77-61.33c-1.88-1.71-9.52-2.63-10.32-1.09s3.4,7.43,6.69,8Z" transform="translate(560 240)"/><path class="cls-2" d="M-274.88-61.37s-9.36-1-6.7-9.38c.33-1-10.15-.2-9.57,6.32.82,9.26-10,10.88-4.79,20.31,4.32,7.79,1.21,9.35,1.21,9.35s7.77,3.35,9.4-5.19C-284.11-43.77-275.62-58.85-274.88-61.37Z" transform="translate(560 240)"/><path class="cls-4" d="M-237.67-49.14c-3.06-1.41-16.11-1.89-18,.53s-5.94,11.09-5.94,11.09c-.45-3.49-7.13-5.25-7.13-5.25l.2-1.42c5.07,0,8.43-5.16,9.63-7.47,1.83-3.55.18-6.23-1.66-7a1.36,1.36,0,0,0-1.1-1.25,1.36,1.36,0,0,0-1.6,1.08,1.34,1.34,0,0,0,0,.49,12.05,12.05,0,0,1-6.93-1.17c-7.85-3.9-13.7-3.08-17.39-.23-2.78-.71-6.07-.87-6.63.08s.77,3.61,2.62,5.69c-1.55,4.77-.41,9.86,4.16,12.72L-275.51-34c-7-.63-15,2-16.7,9.6S-287-11.84-287-11.84l-1.36,1.27,3.07,26.16c0,3.33,11,5.34,11.54,2.2.07-1.38-7-24.76-7.07-24.91l3.39.09s7.86,19.15,8.13,21.5,9.43,3.56,10.95,1.6C-256.56,13.37-271-6.71-271-6.71c6.95-3.82,4.64-10.44,4.64-10.44l5.39-5c4.06-.55,9.06-8.9,9.06-8.9l2.87,4.3s-2.21,1.22-5.23,3c-2.44,1.41-3.08,13.76.58,12.27,13.37-6.84,13.59-15.25,11.72-18.06,0,0-6.54-9.07-7.9-9.22s-4.78,2.43-4.78,2.43l4-5.78c1-1.7,8.14-.81,8.14-.81s-1.39,3.28-.11,5c2.47,3.28,11.66,4.85,12.08,2.59C-229.34-41.78-234.6-47.72-237.67-49.14Z" transform="translate(560 240)"/><path class="cls-5" d="M-258.48-33.42c2.33-1.52,5.73-4.17,5.73-4.17" transform="translate(560 240)"/><path class="cls-6" d="M-251.15-25.52s3.91,5.23,2.74,10.81c0,.18-4.27,2.71-4.27,2.71l-1.58-11.74Z" transform="translate(560 240)"/><path class="cls-6" d="M-242.54-42.91c4.23-2.1,10.54-.26,10.62-.06s2,4.69,1.5,6.5-12.78-3.08-12.78-3.08Z" transform="translate(560 240)"/><path class="cls-7" d="M-287.78-57.58c-.74-.76-3.91-1.35-4.28-.73s1.23,3.2,2.59,3.53Z" transform="translate(560 240)"/><path class="cls-8" d="M-275.94-45.83c1.6,2.09,7.18,3.06,7.18,3.06l.2-1.42Z" transform="translate(560 240)"/><path class="cls-9" d="M-285-58.58a27.45,27.45,0,0,0-5.28-1.66" transform="translate(560 240)"/><path class="cls-10" d="M-230.42-36.47c.6,2.83-3.82,2.58-7.13,1.55s-6-3-5.65-4.63c.23-1.19,3.33-1.08,7.16-.24C-232.66-39-230.67-37.66-230.42-36.47Z" transform="translate(560 240)"/><path class="cls-6" d="M-270.24,11.24s7.29,3.06,11.06.93c.07.16,2.67,4.31-.92,4.83s-8.7-.69-9.16-2.53Z" transform="translate(560 240)"/><path class="cls-6" d="M-285.47,13.67s7.66,2.51,11,.83c0,.23.62,2.46.75,3.29-1,3.17-11.05.88-11.48-1.8Z" transform="translate(560 240)"/><ellipse class="cls-11" cx="-261.85" cy="-57.92" rx="0.93" ry="0.45" transform="translate(371.7 -75.82) rotate(-86.55)"/><path class="cls-11" d="M-287.43-27.13a2.25,2.25,0,0,0-.81,3.05,2,2,0,0,0,1.33.88l.36.56a.64.64,0,0,0,.88.19.65.65,0,0,0,.28-.43.63.63,0,0,0,.73,0,.63.63,0,0,0,.27-.68.64.64,0,0,0,.5-.08.63.63,0,0,0,.19-.88l-.36-.56a2,2,0,0,0-.26-1.56A2.23,2.23,0,0,0-287.43-27.13Zm.54,2.68a.7.7,0,0,1-1-.21.7.7,0,0,1,.21-1,.7.7,0,0,1,1,.21A.7.7,0,0,1-286.89-24.45Zm1.86.5-.48.31a.16.16,0,0,1-.27-.12l-.08-.71c0-.15.08-.21.21-.13l.61.35A.16.16,0,0,1-285-23.95Zm-.18-1.58a.72.72,0,0,1-1-.21.72.72,0,0,1,.21-1,.71.71,0,0,1,1,.21A.71.71,0,0,1-285.21-25.53Z" transform="translate(560 240)"/><path class="cls-11" d="M-280.78-23.57a.7.7,0,0,0-.6.8.32.32,0,0,0,0,.14l-1.76.25.94-1.51.12.09a.71.71,0,0,0,1-.23.71.71,0,0,0-.23-1,.68.68,0,0,0-.63-.06.72.72,0,0,0-.33-.55.72.72,0,0,0-1,.23.71.71,0,0,0,.23,1l.13.07-1.33,2.11-2.47.35a.76.76,0,0,0,0-.15.71.71,0,0,0-.8-.61.72.72,0,0,0-.61.81.72.72,0,0,0,.36.53.69.69,0,0,0-.2.6.7.7,0,0,0,.8.61.71.71,0,0,0,.61-.81l0-.13,1.76-.25-.95,1.51a.31.31,0,0,0-.11-.09.71.71,0,0,0-1,.22.72.72,0,0,0,.22,1,.73.73,0,0,0,.64.06.7.7,0,0,0,.33.54.72.72,0,0,0,1-.22.72.72,0,0,0-.23-1l-.13-.06,1.33-2.11,2.47-.35v.14a.72.72,0,0,0,.81.61.71.71,0,0,0,.61-.8.72.72,0,0,0-.37-.53A.7.7,0,0,0-280-23,.7.7,0,0,0-280.78-23.57Z" transform="translate(560 240)"/><path class="cls-12" d="M-276.16-58.62c1.08,1.42-.25,3.48-1.9,4.17-2.24.93-4.28-.11-4.16-1.9C-282-59-277.5-60.36-276.16-58.62Z" transform="translate(560 240)"/><path class="cls-5" d="M-283.7-56.5s3.14-3.8,6.47-2.79" transform="translate(560 240)"/><ellipse class="cls-11" cx="-277.37" cy="-57.77" rx="1.59" ry="1.16" transform="matrix(0.93, -0.36, 0.36, 0.93, 562.15, 135.94)"/><circle class="cls-13" cx="281.48" cy="182.86" r="0.73"/><line class="cls-5" x1="307.39" y1="200.71" x2="304.67" y2="204.37"/><polygon class="cls-14" points="277.7 172.23 272.63 174.03 274.11 174.86 270.66 176.63 276.54 175.93 275.49 174.56 278.13 174.03 277.7 172.23"/><path class="cls-5" d="M-291-40.77s-.34,6.22-3.75,6" transform="translate(560 240)"/><path class="cls-5" d="M-295.34-50.26a8.21,8.21,0,0,0-.6,6.14" transform="translate(560 240)"/><path class="cls-5" d="M-284.73-69.22s1.59-2.11,3.15-1.53" transform="translate(560 240)"/><path class="cls-5" d="M-306.18-16.61a6.27,6.27,0,0,1,4.22,4" transform="translate(560 240)"/><path class="cls-5" d="M-298.35-22.57s1.91,1.74-.11,7.13" transform="translate(560 240)"/><path class="cls-5" d="M-301.11-17a8.22,8.22,0,0,1-3.34-1.78" transform="translate(560 240)"/><path class="cls-10" d="M-253.46-24.2s2.53,4.8.78,12.2c-.06,0-2.45,1.71-3-.9S-256.39-23.35-253.46-24.2Z" transform="translate(560 240)"/><g class="cls-8"><path d="M-275.94-45.83s11.39,6.09,17-5.83c1.69-3.61.13-5.86-.89-6.56C-259.71-43.94-275.94-45.83-275.94-45.83Z" transform="translate(560 240)"/><path d="M-249.86-38.75c-.12,0,5,7,5,7,1.85,2.77,1.66,11-11.18,17.78.33,1.83,1.09,3,2.38,2.5,13.37-6.84,13.59-15.25,11.72-18.06C-242-29.53-249-39-249.86-38.75Z" transform="translate(560 240)"/><path d="M-283.59-9.88s7,24.07,7,25.44c-.33,2.07-5.19,1.91-8.5.61,1.19,3,10.94,4.57,11.42,1.62-.51-2.34-8.45-28.09-8.21-29.37C-281.92-11.58-284-11.37-283.59-9.88Z" transform="translate(560 240)"/><path d="M-237.58-49.09c2.56,2.62,5,7,4.1,11.52-.32,1.71-5.61,1.24-9.27-.5,0,0,7,5.84,12.18,2.73C-230.07-42.92-234.51-47.61-237.58-49.09Z" transform="translate(560 240)"/><path d="M-271-6.71a8.94,8.94,0,0,0,4.64-10.44l5.39-5c4.28-1.34,8.67-8.3,9.06-8.9,0,0-6.92,6.56-13.87,7.64,0,0-3.73,3.17-3.7,5.06,0,1.25,3.57,8.9-4.23,11.58,0,0,13.15,17.66,11.41,20.36-1,1.27-4.11,1.41-7,.57,0,.1,0,.19,0,.26.27,2.35,9.43,3.56,10.95,1.6C-256.56,13.37-271-6.71-271-6.71Z" transform="translate(560 240)"/></g><path class="cls-9" d="M-237.67-49.14c-3.06-1.41-16.11-1.89-18,.53s-5.94,11.09-5.94,11.09c-.45-3.49-7.13-5.25-7.13-5.25l.2-1.42c5.07,0,8.43-5.16,9.63-7.47,1.83-3.55.18-6.23-1.66-7a1.36,1.36,0,0,0-1.1-1.25,1.36,1.36,0,0,0-1.6,1.08,1.34,1.34,0,0,0,0,.49,12.05,12.05,0,0,1-6.93-1.17c-7.85-3.9-13.7-3.08-17.39-.23-2.78-.71-6.07-.87-6.63.08s.77,3.61,2.62,5.69c-1.55,4.77-.41,9.86,4.16,12.72L-275.51-34c-7-.63-15,2-16.7,9.6S-287-11.84-287-11.84l-1.36,1.27,3.07,26.16c0,3.33,11,5.34,11.54,2.2.07-1.38-7-24.76-7.07-24.91l3.39.09s7.86,19.15,8.13,21.5,9.43,3.56,10.95,1.6C-256.56,13.37-271-6.71-271-6.71c6.95-3.82,4.64-10.44,4.64-10.44l5.39-5c4.06-.55,9.06-8.9,9.06-8.9l2.87,4.3s-2.21,1.22-5.23,3c-2.44,1.41-3.08,13.76.58,12.27,13.37-6.84,13.59-15.25,11.72-18.06,0,0-6.54-9.07-7.9-9.22s-4.78,2.43-4.78,2.43l4-5.78c1-1.7,8.14-.81,8.14-.81s-1.39,3.28-.11,5c2.47,3.28,11.66,4.85,12.08,2.59C-229.34-41.78-234.6-47.72-237.67-49.14Z" transform="translate(560 240)"/><path class="cls-5" d="M-243.2-39.55c.23-1.19,3.33-1.08,7.16-.24,3.38.74,5.37,2.13,5.62,3.32" transform="translate(560 240)"/><path class="cls-15" d="M-253.46-24.2s2.68,6.7.78,12.2" transform="translate(560 240)"/><path class="cls-16" d="M-251.15-25.52s3.91,5.23,2.74,10.81" transform="translate(560 240)"/><path class="cls-16" d="M-242.54-42.91s3.7-2.21,10.62-.06" transform="translate(560 240)"/><path class="cls-5" d="M-285.47,13.67s7.66,2.51,11,.83" transform="translate(560 240)"/><path class="cls-5" d="M-270.24,11.24s7.29,3.06,11.06.93" transform="translate(560 240)"/><path class="cls-15" d="M-259.4-50.83a7.46,7.46,0,0,1-5.18.81c-3.05-.57-5.11-3.33-8.36-1.07" transform="translate(560 240)"/><path class="cls-5" d="M-265.77-23.36s3.82,2.16,6.63.57" transform="translate(560 240)"/><path class="cls-5" d="M-274.5-6.73A7.47,7.47,0,0,0-268-9.09" transform="translate(560 240)"/><path class="cls-5" d="M-281.92-11.58a22.54,22.54,0,0,0,1.44,5.63" transform="translate(560 240)"/><path class="cls-5" d="M-275.94-45.83s6.53,2.62,10.84.8" transform="translate(560 240)"/><path class="cls-17" d="M-261.43,14.61a4.1,4.1,0,0,1,.52,2.48" transform="translate(560 240)"/><path class="cls-17" d="M-277.52,17.34a3.51,3.51,0,0,1,.13,2" transform="translate(560 240)"/></g><path class="cls-18" d="M-423.29,183.72l23.44,2.88s-4.07-42.41-2.35-56.42c1.41-11.48,11.09-45.36,11.09-45.36s1.91-5.81,7,0c0,0-1.32,32.81-1.47,43.75-.24,17,9.36,57,9.36,57l18.86-1.76s-8.19-30.27-6.37-56.36c1.86-26.88,9.73-45.81,9.62-60.63,0,0-17.58,1.91-55.6-15.23,0,0-14.06,57.7-15.71,77C-426.59,142.34-423.29,183.72-423.29,183.72Z" transform="translate(560 240)"/><rect class="cls-19" x="2.28" y="259.08" width="314.37" height="11.79"/><path class="cls-20" d="M-466.36-18V-42.68c1.37-.53,2.23-1.25,2.23-2,0-1.63-3.52-3-7.86-3s-7.86,1.32-7.86,3c0,.8.85,1.52,2.22,2V-18A17.68,17.68,0,0,0-489.68-1.25,17.69,17.69,0,0,0-472,16.44,17.69,17.69,0,0,0-454.31-1.25,17.68,17.68,0,0,0-466.36-18Z" transform="translate(560 240)"/><path class="cls-21" d="M-459.62-1.59A12.37,12.37,0,0,1-472,10.79,12.38,12.38,0,0,1-484.37-1.59c0-6.83,5.3-.94,12.77-1.12C-464.76-2.88-459.62-8.42-459.62-1.59Z" transform="translate(560 240)"/><path class="cls-20" d="M-426.67-9.44V-34.2h-.06a1.36,1.36,0,0,0,.06-.29c0-1.34-2.37-2.43-5.3-2.43s-5.31,1.09-5.31,2.43a1,1,0,0,0,.07.29h-.07V-9.44s-12.38,7.68-12.38,17.25A8.27,8.27,0,0,0-441,16.44h18.12a8.66,8.66,0,0,0,8.62-8.63C-414.29-1.76-426.67-9.44-426.67-9.44Z" transform="translate(560 240)"/><path class="cls-21" d="M-441.8,4.08c-2.34,3.48-.91,6.71,2.78,6.71h14.09c3.69,0,5-3.74,2.78-6.71C-425.78-.81-438.16-1.3-441.8,4.08Z" transform="translate(560 240)"/><ellipse class="cls-20" cx="128.03" cy="205.44" rx="6.88" ry="2.95"/><path class="cls-8" d="M-426.67-9.44V-34.2h-.06a1.36,1.36,0,0,0,.06-.29c0-1.34-2.37-2.43-5.3-2.43-2.65,0-4.82.89-5.22,2,.41,0,.84-.08,1.29-.08,2.93,0,5.3,1.09,5.3,2.44a1.5,1.5,0,0,1-.06.29h.06V-7.47S-418.22.2-418.22,9.78a8.58,8.58,0,0,1-3,6.48,8.64,8.64,0,0,0,6.94-8.45C-414.29-1.76-426.67-9.44-426.67-9.44Z" transform="translate(560 240)"/><path class="cls-22" d="M-426.67-9.44V-34.2h-.06a1.36,1.36,0,0,0,.06-.29c0-1.34-2.37-2.43-5.3-2.43s-5.31,1.09-5.31,2.43a1,1,0,0,0,.07.29h-.07V-9.44s-12.38,7.68-12.38,17.25A8.27,8.27,0,0,0-441,16.44h18.12a8.66,8.66,0,0,0,8.62-8.63C-414.29-1.76-426.67-9.44-426.67-9.44Z" transform="translate(560 240)"/><path class="cls-20" d="M-506.73-9.44V-34.2h-.07a1,1,0,0,0,.07-.29c0-1.34-2.38-2.43-5.31-2.43s-5.3,1.09-5.3,2.43a1.36,1.36,0,0,0,.06.29h-.06V-9.44s-12.38,7.68-12.38,17.25a8.26,8.26,0,0,0,8.62,8.63H-503a8.66,8.66,0,0,0,8.63-8.63C-494.35-1.76-506.73-9.44-506.73-9.44Z" transform="translate(560 240)"/><path class="cls-21" d="M-521.86,4.08c-2.35,3.48-.91,6.71,2.78,6.71H-505c3.69,0,5-3.74,2.78-6.71C-505.85-.81-518.23-1.3-521.86,4.08Z" transform="translate(560 240)"/><ellipse class="cls-20" cx="47.96" cy="205.44" rx="6.88" ry="2.95"/><path class="cls-20" d="M-322.84-18V-42.68c1.37-.53,2.22-1.25,2.22-2,0-1.63-3.52-3-7.86-3s-7.86,1.32-7.86,3c0,.8.86,1.52,2.23,2V-18A17.68,17.68,0,0,0-346.16-1.25a17.69,17.69,0,0,0,17.68,17.69A17.69,17.69,0,0,0-310.79-1.25,17.68,17.68,0,0,0-322.84-18Z" transform="translate(560 240)"/><g class="cls-8"><path d="M-322.84-18V-44.73c0-1.06-2.52-1.92-5.64-1.92s-5.63.86-5.63,1.92v.15a15.39,15.39,0,0,1,1.7-.1c3.12,0,5.64.86,5.64,1.91V-16a17.67,17.67,0,0,1,12,16.75,17.65,17.65,0,0,1-7.82,14.67A17.68,17.68,0,0,0-310.79-1.25,17.68,17.68,0,0,0-322.84-18Z" transform="translate(560 240)"/><path d="M-338.26-15.95-338-16v-.07Z" transform="translate(560 240)"/></g><path class="cls-21" d="M-316.1-1.59a12.38,12.38,0,0,1-12.38,12.38A12.37,12.37,0,0,1-340.85-1.59c0-6.83,5.3-.94,12.77-1.12C-321.25-2.88-316.1-8.42-316.1-1.59Z" transform="translate(560 240)"/><path class="cls-8" d="M-506.73-9.44V-34.2h-.07a1,1,0,0,0,.07-.29c0-1.34-2.38-2.43-5.31-2.43-2.64,0-4.81.89-5.22,2,.42,0,.84-.08,1.29-.08,2.93,0,5.31,1.09,5.31,2.44a1,1,0,0,1-.07.29h.07V-7.47S-498.28.2-498.28,9.78a8.56,8.56,0,0,1-3,6.48,8.64,8.64,0,0,0,6.95-8.45C-494.35-1.76-506.73-9.44-506.73-9.44Z" transform="translate(560 240)"/><ellipse class="cls-23" cx="128.03" cy="205.44" rx="6.88" ry="2.95"/><ellipse class="cls-23" cx="47.96" cy="205.44" rx="6.88" ry="2.95"/><path class="cls-22" d="M-506.73-9.44V-34.2h-.07a1,1,0,0,0,.07-.29c0-1.34-2.38-2.43-5.31-2.43s-5.3,1.09-5.3,2.43a1.36,1.36,0,0,0,.06.29h-.06V-9.44s-12.38,7.68-12.38,17.25a8.26,8.26,0,0,0,8.62,8.63H-503a8.66,8.66,0,0,0,8.63-8.63C-494.35-1.76-506.73-9.44-506.73-9.44Z" transform="translate(560 240)"/><path class="cls-24" d="M-415.23-221.25c-13.27,12.89,3.52,32.28,13.39,32.61,17.26.59,35.24,5.65,38-2.45C-351.56-227.12-392.12-243.71-415.23-221.25Z" transform="translate(560 240)"/><g class="cls-8"><path d="M-466.36-18V-44.73c0-1.06-2.52-1.92-5.63-1.92s-5.64.86-5.64,1.92v.15a15.43,15.43,0,0,1,1.71-.1c3.11,0,5.63.86,5.63,1.91V-16A17.67,17.67,0,0,1-458.24.72a17.65,17.65,0,0,1-7.82,14.67A17.68,17.68,0,0,0-454.31-1.25,17.68,17.68,0,0,0-466.36-18Z" transform="translate(560 240)"/><path d="M-481.78-15.95l.22-.08v-.07Z" transform="translate(560 240)"/></g><path class="cls-11" d="M-259.95-127.77c4.56,12.2-39.14,5-35.32-1.67s14.3-30.23,15.16-41.44c.36-4.75-1.47-3.27-5.86-6.13-6.09-4-9.38-12.5-4.46-14.47,4.07-1.63,3.29,1.42,5.7,4.91,2.78,4,7.81,6.14,8.13-4.24.45-9-8.27-13.49-4.08-16,8.63-5.09,14.22,11,13.57,17.85a17.76,17.76,0,0,0,.6-14.63c-2.62-6.6,5.76-7.83,8.43-2.55,2.22,4.39,3.7,12.06.7,21.13.16.15,2.34-.48,6.81-8.77,3.26-6,11.16-.91,5.43,7.14s-10,9.68-14.25,15.82C-262.08-166.88-268.94-151.9-259.95-127.77Z" transform="translate(560 240)"/><path class="cls-13" d="M-269.31-125.32l-16.6-2.7c-23.79,58.79-84.36,30.07-84.36,30.07s4.91-9.26-3.37-14.12c-6.56-3.85-15.22-4.36-23.86,1.33C-410.82-102-403-89.83-403-89.87c-34.55,35.44-68.21,11.66-68.21,11.66l-15.7,19.3c11,8.07,21.84,11.52,31.7,12.35A7.42,7.42,0,0,0-448-40.7a7.41,7.41,0,0,0,7.33-6.44A68.81,68.81,0,0,0-412-58.91l-2.1,124.29c41.74,3.59,59.68,35.45,59.68,35.45,11.57-53.86,6.59-174.1,7.4-174.1,15.61,2.46,28.07,1.54,38-1.41a7.39,7.39,0,0,0,6,3,7.43,7.43,0,0,0,7.43-7.43,7.35,7.35,0,0,0-.15-1.42C-271.09-95.64-269.31-125.32-269.31-125.32Z" transform="translate(560 240)"/><polygon class="cls-8" points="73.08 179.57 83.98 161.33 91.56 163.42 79.69 185.45 73.08 179.57"/><path class="cls-23" d="M-466.36-18V-42.68c1.37-.53,2.23-1.25,2.23-2,0-1.63-3.52-3-7.86-3s-7.86,1.32-7.86,3c0,.8.85,1.52,2.22,2V-18A17.68,17.68,0,0,0-489.68-1.25,17.69,17.69,0,0,0-472,16.44,17.69,17.69,0,0,0-454.31-1.25,17.68,17.68,0,0,0-466.36-18Z" transform="translate(560 240)"/><path class="cls-11" d="M-492.81-56.6c5.79,11.67,30.44-25.12,23-26.9S-505.83-98-514.59-105c-3.71-3-17.31,18.27-9.94,19.4C-519.85-84.93-504.23-79.68-492.81-56.6Z" transform="translate(560 240)"/><path class="cls-25" d="M-392.12-81.8s-10.9-4.72-13-14.44" transform="translate(560 240)"/><path class="cls-25" d="M-375.63-92.57s8.42-7.06,6.13-14.92" transform="translate(560 240)"/><ellipse class="cls-11" cx="-387.61" cy="-102.1" rx="11.76" ry="7.28" transform="translate(569.8 85.61) rotate(-22.25)"/><path class="cls-26" d="M-405.16-74.73s-7.82,5.43-6.47,26.6" transform="translate(560 240)"/><path class="cls-25" d="M-408.42-69.3s25.39,7.87,44.23,0c0,0,9.76,66.48-9.63,149.62" transform="translate(560 240)"/><ellipse class="cls-11" cx="187.63" cy="189.4" rx="3.26" ry="4.81"/><g class="cls-8"><path d="M-285.91-128a49.65,49.65,0,0,1-3.28,6.85h18.85l1-4.14Z" transform="translate(560 240)"/><path d="M-352.17-78.67c-5.63-.68,1.47,112.6-10.75,168.58,3.66,4.37,8.49,10.92,8.49,10.92,8.83-41.1,8-136,7.5-174.1C-346.93-73.27-346.68-78-352.17-78.67Z" transform="translate(560 240)"/></g><ellipse class="cls-11" cx="187.63" cy="226.58" rx="3.26" ry="4.81"/><ellipse class="cls-11" cx="184.37" cy="263.76" rx="3.26" ry="4.81"/><path class="cls-22" d="M-269.31-125.32l-16.6-2.7c-23.79,58.79-84.36,30.07-84.36,30.07s4.91-9.26-3.37-14.12c-6.56-3.85-15.22-4.36-23.86,1.33C-410.82-102-403-89.83-403-89.87c-34.55,35.44-68.21,11.66-68.21,11.66l-15.7,19.3c11,8.07,21.84,11.52,31.7,12.35A7.42,7.42,0,0,0-448-40.7a7.41,7.41,0,0,0,7.33-6.44A68.81,68.81,0,0,0-412-58.91l-2.1,124.29c41.74,3.59,59.68,35.45,59.68,35.45,11.57-53.86,6.59-174.1,7.4-174.1,15.61,2.46,28.07,1.54,38-1.41a7.39,7.39,0,0,0,6,3,7.43,7.43,0,0,0,7.43-7.43,7.35,7.35,0,0,0-.15-1.42C-271.09-95.64-269.31-125.32-269.31-125.32Z" transform="translate(560 240)"/><path class="cls-25" d="M-450.12-53.64s-8.52,3-1.95,11.69" transform="translate(560 240)"/><path class="cls-25" d="M-301.59-85.16s9.23,2.39,3.5,11.62" transform="translate(560 240)"/><path class="cls-27" d="M-347.26-166.36c0-31.59-23-57.21-51.38-57.21S-450-197.95-450-166.36s23,57.22,51.38,57.22l.32,0,2.73,10.25s8,4.43,15.17-3.21l-2.63-9.72C-362.3-119.2-347.26-140.81-347.26-166.36Z" transform="translate(560 240)"/><g class="cls-8"><path d="M-387.93-99.31l7.51-2.81-2.63-9.72c18.79-9.22,35.79-31.09,35.79-54.52l-3.57-15.4c0,41.23-18.28,56.44-39.79,67.21Z" transform="translate(560 240)"/></g><ellipse class="cls-13" cx="-434.04" cy="-181.76" rx="16.48" ry="8.79" transform="translate(350.03 -355.54) rotate(-84.29)"/><path class="cls-8" d="M-432.4-198.15a4.59,4.59,0,0,0-1.17,0c2.29,3.11,3.5,8.53,2.9,14.54-.83,8.32-4.83,14.84-9.22,15.47a6.09,6.09,0,0,0,4.21,2.74c4.83.48,9.49-6.47,10.39-15.52S-427.56-197.67-432.4-198.15Z" transform="translate(560 240)"/><ellipse class="cls-13" cx="153.56" cy="62.5" rx="10.83" ry="20.29"/><path class="cls-28" d="M-347.26-166.36c0-31.59-23-57.21-51.38-57.21S-450-197.95-450-166.36s23,57.22,51.38,57.22l.32,0,2.73,10.25s8,4.43,15.17-3.21l-2.63-9.72C-362.3-119.2-347.26-140.81-347.26-166.36Z" transform="translate(560 240)"/><path class="cls-11" d="M-409.13-183.51c-1.54,0-2.79-2-2.79-4.37s1.25-4.38,2.79-4.38a2,2,0,0,1,1,.32A2.92,2.92,0,0,0-410-194c-2.14-.46-4.67,2.85-5.65,7.4s0,8.6,2.11,9.06c1.95.42,4.2-2.3,5.33-6.22A1.9,1.9,0,0,1-409.13-183.51Z" transform="translate(560 240)"/><path class="cls-11" d="M-436.83-191.2c0-2.14,1-3.91,2.28-4.29a3,3,0,0,0-2-2.23c-2.14-.46-4.66,2.85-5.64,7.4s0,8.6,2.1,9.06c1.88.4,4.05-2.09,5.22-5.78C-436-187.59-436.83-189.23-436.83-191.2Z" transform="translate(560 240)"/><path class="cls-29" d="M-391.71-201l-3.9-6.33,3.49-6.39c-16.36-3-29.73,12.79-29.73,12.79s-12.19-15.69-28.27-10.32l4.15,4.93-4.15,7c14.92-4.26,29.21,13,29.21,13S-408.42-202.62-391.71-201Z" transform="translate(560 240)"/><path class="cls-30" d="M-383.14-203.4c-11.71,14.32-1.94,33.88,10.77,31.75,17-2.86,0-13.06,8.53-19.44,11.1-8.29,16.81,13.59,16.81,27.9a68.46,68.46,0,0,0,6.47-11.52C-326.6-204.75-363.06-228-383.14-203.4Z" transform="translate(560 240)"/><path class="cls-31" d="M-517.35-102.23l7.84-37c1.47-.38,2.46-1,2.65-1.91.46-2.19-3.88-4.95-9.7-6.19s-10.91-.46-11.37,1.72c-.19.89.45,1.88,1.64,2.82l-7.84,37a26.92,26.92,0,0,0-23.23,21.15A26.92,26.92,0,0,0-536.6-52.72a26.92,26.92,0,0,0,31.91-20.76A26.9,26.9,0,0,0-517.35-102.23Z" transform="translate(560 240)"/><path class="cls-21" d="M-512.21-77.84a18.84,18.84,0,0,1-20,17.65,18.85,18.85,0,0,1-17.65-20c.64-10.38,6.14-1.34,16.53-.69S-511.57-88.23-512.21-77.84Z" transform="translate(560 240)"/><path class="cls-11" d="M-540.84-104.28c.41,3.08,6.71,8.59,11,3.75,3.66-4.17-2.63-8.44-4.4-9.09S-541.83-111.56-540.84-104.28Z" transform="translate(560 240)"/><path class="cls-11" d="M-546.74-99.84c3.07,5.66,7,8.88,10.86,5.33,3-2.54-2.47-9.21-4.4-11.43S-549.82-105.49-546.74-99.84Z" transform="translate(560 240)"/><path class="cls-11" d="M-552.31-96c2,4.4,6.12,7.65,9.47,4.15,2.65-2.77-1.38-9.35-3.42-10.89S-554.66-101.28-552.31-96Z" transform="translate(560 240)"/><path class="cls-11" d="M-521.34-71.8c.74,1.79-1.11,4.26-4.14,5.51s-6.09.83-6.83-1,2.45-1,5.48-2.28S-522.09-73.6-521.34-71.8Z" transform="translate(560 240)"/><circle class="cls-32" cx="50.39" cy="10.12" r="8.08"/><circle class="cls-32" cx="58.44" cy="35.7" r="6.73"/><circle class="cls-32" cx="48.6" cy="76.09" r="4.04"/><circle class="cls-32" cx="42.67" cy="55.89" r="5.38"/><path class="cls-33" d="M-426.93-137.47s15.14,17.91,33.24,11.72c27.45-9.38,19.52-33.76,19.52-33.76s-7,11-24.44,17.53S-426.93-137.47-426.93-137.47Z" transform="translate(560 240)"/><path class="cls-8" d="M-406.44-197.79h0c3.26,3.5,5.46,10.06,5.46,17.6,0,11.2-4.85,20.29-10.83,20.29a7.43,7.43,0,0,0,5.38,2.7c6,0,10.83-9.09,10.83-20.3S-400.46-197.79-406.44-197.79Z" transform="translate(560 240)"/><ellipse class="cls-25" cx="-434.04" cy="-181.76" rx="16.48" ry="8.79" transform="translate(350.03 -355.54) rotate(-84.29)"/><path class="cls-34" d="M-422.42-179c3.66.6,5.86,5.73,4.92,11.46s-6.8,20.91-10.46,20.31-3.71-16.74-2.77-22.47S-426.07-179.65-422.42-179Z" transform="translate(560 240)"/><line class="cls-33" x1="154.31" y1="100.68" x2="161.39" y2="115.55"/><line class="cls-33" x1="170.7" y1="94.3" x2="176.91" y2="107.92"/><path class="cls-35" d="M-517.35-102.23l7.84-37c1.47-.38,2.46-1,2.65-1.91.46-2.19-3.88-4.95-9.7-6.19h-.1c2.62,1.3,4.19,2.88,3.9,4.23-.19.89-1.18,1.53-2.64,1.91l-9.65-.16-1.36,3.83c4,3.43,10,3.37,10,3.37L-523.65-100c9.68,5.72,14,15,13.07,24.56-1.5,14.76-6.13,19.2-6.13,19.2a26.85,26.85,0,0,0,12-17.23A26.9,26.9,0,0,0-517.35-102.23Z" transform="translate(560 240)"/><path class="cls-11" d="M-516.11-102.73s-10.58.63-8.73,7.46c1.72,6.33,16.06-.65,16.06-.65Z" transform="translate(560 240)"/><ellipse class="cls-23" cx="-517.4" cy="-143.39" rx="4.04" ry="10.77" transform="translate(290.09 -379.84) rotate(-78.04)"/><path class="cls-23" d="M-517.35-102.23l7.84-37c1.47-.38,2.46-1,2.65-1.91.46-2.19-3.88-4.95-9.7-6.19s-10.91-.46-11.37,1.72c-.19.89.45,1.88,1.64,2.82l-7.84,37a26.92,26.92,0,0,0-23.23,21.15A26.92,26.92,0,0,0-536.6-52.72a26.92,26.92,0,0,0,31.91-20.76A26.9,26.9,0,0,0-517.35-102.23Z" transform="translate(560 240)"/><ellipse class="cls-25" cx="153.56" cy="62.5" rx="10.83" ry="20.29"/><ellipse class="cls-23" cx="88.01" cy="195.27" rx="7.86" ry="2.95"/><path class="cls-23" d="M-322.84-18V-42.68c1.37-.53,2.22-1.25,2.22-2,0-1.63-3.52-3-7.86-3s-7.86,1.32-7.86,3c0,.8.86,1.52,2.23,2V-18A17.68,17.68,0,0,0-346.16-1.25a17.69,17.69,0,0,0,17.68,17.69A17.69,17.69,0,0,0-310.79-1.25,17.68,17.68,0,0,0-322.84-18Z" transform="translate(560 240)"/><ellipse class="cls-23" cx="231.52" cy="195.27" rx="7.86" ry="2.95"/><path class="cls-11" d="M-355.15,179.82h-29.93a5,5,0,0,0-5,5v6.73a5,5,0,0,0,5,5h17a2,2,0,0,0,2,1.92h12a2,2,0,0,0,2-2v-.95a5,5,0,0,0,2-4v-6.73A5,5,0,0,0-355.15,179.82Z" transform="translate(560 240)"/><path class="cls-11" d="M-401.38,177.46l-29.92.73a5,5,0,0,0-4.91,5.16l.16,6.73a5,5,0,0,0,5.16,4.91l17-.42a2,2,0,0,0,2.05,1.87l12-.29a2,2,0,0,0,2-2.07l0-.94a5,5,0,0,0,1.9-4l-.17-6.73A5,5,0,0,0-401.38,177.46Z" transform="translate(560 240)"/></g></g></g></svg>