<svg xmlns="http://www.w3.org/2000/svg" xmlns:xlink="http://www.w3.org/1999/xlink" viewBox="0 0 952 463.58"><defs><style>.cls-1,.cls-10,.cls-105,.cls-107,.cls-110,.cls-111,.cls-112,.cls-116,.cls-124,.cls-16,.cls-17,.cls-23,.cls-24,.cls-26,.cls-27,.cls-29,.cls-41,.cls-42,.cls-46,.cls-51,.cls-52,.cls-6,.cls-63,.cls-64,.cls-68,.cls-70,.cls-71,.cls-82,.cls-88,.cls-89,.cls-93,.cls-97,.cls-98{fill:none;}.cls-2{isolation:isolate;}.cls-3,.cls-7{fill:#77569b;}.cls-10,.cls-101,.cls-102,.cls-103,.cls-104,.cls-105,.cls-107,.cls-108,.cls-110,.cls-111,.cls-112,.cls-113,.cls-114,.cls-115,.cls-116,.cls-118,.cls-119,.cls-120,.cls-122,.cls-123,.cls-124,.cls-125,.cls-13,.cls-15,.cls-16,.cls-17,.cls-18,.cls-19,.cls-20,.cls-22,.cls-23,.cls-24,.cls-25,.cls-26,.cls-27,.cls-29,.cls-3,.cls-30,.cls-31,.cls-33,.cls-34,.cls-35,.cls-37,.cls-38,.cls-39,.cls-4,.cls-40,.cls-42,.cls-43,.cls-44,.cls-46,.cls-49,.cls-50,.cls-51,.cls-52,.cls-53,.cls-56,.cls-57,.cls-58,.cls-59,.cls-6,.cls-60,.cls-61,.cls-62,.cls-64,.cls-65,.cls-66,.cls-68,.cls-69,.cls-70,.cls-71,.cls-72,.cls-74,.cls-78,.cls-79,.cls-8,.cls-80,.cls-81,.cls-84,.cls-85,.cls-86,.cls-87,.cls-89,.cls-90,.cls-91,.cls-93,.cls-94,.cls-95,.cls-96,.cls-97,.cls-98,.cls-99{stroke:#333132;}.cls-10,.cls-103,.cls-104,.cls-105,.cls-108,.cls-110,.cls-111,.cls-112,.cls-113,.cls-118,.cls-119,.cls-120,.cls-122,.cls-13,.cls-15,.cls-16,.cls-18,.cls-20,.cls-26,.cls-27,.cls-29,.cls-3,.cls-30,.cls-35,.cls-37,.cls-38,.cls-4,.cls-40,.cls-41,.cls-42,.cls-43,.cls-50,.cls-51,.cls-52,.cls-57,.cls-58,.cls-59,.cls-6,.cls-60,.cls-62,.cls-63,.cls-64,.cls-65,.cls-70,.cls-71,.cls-78,.cls-79,.cls-8,.cls-80,.cls-84,.cls-85,.cls-87,.cls-88,.cls-89,.cls-90,.cls-94,.cls-96,.cls-97,.cls-98{stroke-linecap:round;}.cls-10,.cls-103,.cls-104,.cls-107,.cls-110,.cls-111,.cls-113,.cls-114,.cls-119,.cls-120,.cls-125,.cls-13,.cls-15,.cls-18,.cls-19,.cls-20,.cls-23,.cls-26,.cls-29,.cls-3,.cls-30,.cls-31,.cls-34,.cls-35,.cls-37,.cls-38,.cls-39,.cls-4,.cls-40,.cls-41,.cls-42,.cls-43,.cls-46,.cls-50,.cls-57,.cls-58,.cls-59,.cls-6,.cls-60,.cls-61,.cls-62,.cls-63,.cls-64,.cls-65,.cls-68,.cls-78,.cls-79,.cls-8,.cls-80,.cls-84,.cls-85,.cls-86,.cls-87,.cls-88,.cls-89,.cls-90,.cls-93,.cls-94,.cls-96{stroke-linejoin:round;}.cls-10,.cls-3,.cls-4{stroke-width:0.3px;}.cls-4{fill:#c594bd;}.cls-5{fill:#dc9fc3;}.cls-13,.cls-15,.cls-16,.cls-17,.cls-18,.cls-6,.cls-8{stroke-width:0.23px;}.cls-8{fill:#ab599a;}.cls-48,.cls-9{opacity:0.1;}.cls-11{fill:#60348a;}.cls-12,.cls-19,.cls-30,.cls-53,.cls-72,.cls-99{fill:#333132;}.cls-118,.cls-123,.cls-13,.cls-14,.cls-22,.cls-33,.cls-34,.cls-39,.cls-61,.cls-86{fill:#fff;}.cls-15{fill:#efb153;}.cls-101,.cls-102,.cls-105,.cls-108,.cls-112,.cls-115,.cls-116,.cls-118,.cls-122,.cls-123,.cls-124,.cls-16,.cls-17,.cls-22,.cls-24,.cls-25,.cls-27,.cls-33,.cls-44,.cls-49,.cls-51,.cls-52,.cls-53,.cls-56,.cls-66,.cls-69,.cls-70,.cls-71,.cls-72,.cls-74,.cls-81,.cls-82,.cls-91,.cls-95,.cls-97,.cls-98,.cls-99{stroke-miterlimit:10;}.cls-18{fill:#483c62;}.cls-19,.cls-20,.cls-23,.cls-24,.cls-25,.cls-29,.cls-31,.cls-33{stroke-width:4.09px;}.cls-20{fill:#6c5b4b;}.cls-21{fill:#8bc540;}.cls-22,.cls-26,.cls-27,.cls-30,.cls-34,.cls-35{stroke-width:3.07px;}.cls-25,.cls-31{fill:#cccbcb;}.cls-28,.cls-35{fill:#c6b198;}.cls-32{fill:#6fcbdc;}.cls-36{opacity:0.75;mix-blend-mode:overlay;}.cls-37,.cls-40,.cls-44,.cls-47,.cls-59,.cls-62,.cls-66,.cls-84,.cls-87,.cls-91{fill:#cabf9e;}.cls-37,.cls-38,.cls-41,.cls-42,.cls-43,.cls-44,.cls-46,.cls-50,.cls-51{stroke-width:2.92px;}.cls-38,.cls-60,.cls-85{fill:#062447;}.cls-39{stroke-width:0.58px;}.cls-40{stroke-width:1.54px;}.cls-41,.cls-63,.cls-88{stroke:#333;}.cls-43,.cls-65,.cls-90{fill:#ef77ae;}.cls-45{fill:#1eb473;}.cls-48{mix-blend-mode:multiply;}.cls-49,.cls-69,.cls-95{fill:#cee4ad;}.cls-49,.cls-52,.cls-56{stroke-width:2.19px;}.cls-50,.cls-78,.cls-96{fill:#373737;}.cls-53{stroke-width:4.38px;}.cls-54{clip-path:url(#clip-path);}.cls-102,.cls-103,.cls-104,.cls-55,.cls-57,.cls-58,.cls-79,.cls-80,.cls-94{fill:#f57981;}.cls-101,.cls-56,.cls-74{fill:#a69a8b;}.cls-57{stroke-width:1.34px;}.cls-58{stroke-width:0.82px;}.cls-59,.cls-60,.cls-63,.cls-64,.cls-65,.cls-66,.cls-68,.cls-70,.cls-78{stroke-width:2.63px;}.cls-61{stroke-width:0.52px;}.cls-62{stroke-width:1.39px;}.cls-67{fill:#f2eab3;}.cls-69,.cls-71,.cls-74{stroke-width:1.97px;}.cls-72{stroke-width:3.95px;}.cls-73{clip-path:url(#clip-path-2);}.cls-75{fill:#e5e5e5;}.cls-76{fill:#f2f2f2;}.cls-77{fill:#f7f7f7;opacity:0.74;}.cls-79{stroke-width:0.74px;}.cls-80{stroke-width:1.7px;}.cls-81{fill:#473e30;stroke-width:3.61px;}.cls-82{stroke:#c69710;stroke-width:2.71px;}.cls-83{fill:#897645;}.cls-84,.cls-85,.cls-88,.cls-89,.cls-90,.cls-91,.cls-93,.cls-96,.cls-97{stroke-width:3.33px;}.cls-86{stroke-width:0.66px;}.cls-87{stroke-width:1.76px;}.cls-92{fill:#00a89c;}.cls-101,.cls-102,.cls-94,.cls-95,.cls-98{stroke-width:2.5px;}.cls-99{stroke-width:5px;}.cls-100{clip-path:url(#clip-path-3);}.cls-103{stroke-width:1.53px;}.cls-104{stroke-width:0.94px;}.cls-105,.cls-107,.cls-110,.cls-114,.cls-115,.cls-116,.cls-119{stroke-width:1.63px;}.cls-106,.cls-108,.cls-114,.cls-115,.cls-119,.cls-120,.cls-125{fill:#c3b29b;}.cls-108,.cls-111,.cls-112,.cls-113,.cls-118,.cls-120,.cls-122,.cls-123,.cls-124,.cls-125{stroke-width:1.22px;}.cls-109{fill:#706459;}.cls-113{fill:#786453;}.cls-117{fill:#c98336;}.cls-121{fill:#6a5d56;}.cls-122{fill:#958677;}</style><clipPath id="clip-path"><path class="cls-1" d="M363.45,127.28c0,5.45-11.12,5.31-17.71,2.95-9.21-3.28-15,1.94-15-2.95s6.53-3.14,15-7.48C355.08,115,363.45,122.39,363.45,127.28Z"/></clipPath><clipPath id="clip-path-2"><path class="cls-1" d="M581.5,146.45c0,4.91-10,4.78-16,2.66-8.31-3-13.51,1.75-13.51-2.66s5.89-2.84,13.51-6.75C574,135.37,581.5,142,581.5,146.45Z"/></clipPath><clipPath id="clip-path-3"><path class="cls-1" d="M477.35,120.62c0,6.22-12.71,6.06-20.24,3.37-10.53-3.75-17.1,2.22-17.1-3.37s7.45-3.6,17.1-8.55C467.79,106.59,477.35,115,477.35,120.62Z"/></clipPath></defs><title>monsters</title><g class="cls-2"><g id="Layer_2" data-name="Layer 2"><g id="Layer_1-2" data-name="Layer 1"><g id="Elusive_Pony" data-name="Elusive Pony"><path class="cls-3" d="M891,219.28s-4.38-1.89-6.72-2.67c-3.65-1.22-2.63,6.19-4.5,7.57-1,.71-3.44-1.71-5.25-2.11-3.75-.84-4.72,14.44-4.72,14.44s4.39-7.3,7.61-7.92c2.57-.49,3.45,2,3.75,4.57.21,1.8,2.38-6.95,4.48-9.62,1.72-2.21,5.33-.74,5.33-.74Z"/><path class="cls-4" d="M899.47,181.22c-1.88-1.71-9.52-2.62-10.32-1.09s3.4,7.43,6.69,8Z"/><path class="cls-3" d="M907.36,181.18s-9.36-1-6.7-9.38c.32-1-10.15-.2-9.58,6.32.83,9.26-10,10.88-4.78,20.31,4.32,7.8,1.21,9.35,1.21,9.35s7.77,3.35,9.4-5.19C898.12,198.78,906.61,183.7,907.36,181.18Z"/><path class="cls-5" d="M944.57,193.42c-3.06-1.42-16.11-1.89-18,.52S920.6,205,920.6,205c-.44-3.49-7.12-5.26-7.12-5.26l.2-1.42c5.07,0,8.43-5.16,9.62-7.47,1.84-3.54.19-6.23-1.66-7a1.36,1.36,0,0,0-2.69-.16,1.29,1.29,0,0,0,0,.48A12,12,0,0,1,912,183c-7.84-3.91-13.69-3.08-17.38-.24-2.78-.71-6.08-.87-6.63.09s.77,3.6,2.62,5.69c-1.55,4.76-.42,9.86,4.15,12.71l12,7.28c-7-.63-15,2-16.71,9.6s5.25,12.54,5.25,12.54L893.92,232,897,258.14c0,3.34,11,5.35,11.53,2.2.08-1.38-7-24.76-7.06-24.91l3.39.1S912.71,254.67,913,257s9.43,3.56,10.95,1.6c1.74-2.7-12.68-22.78-12.68-22.78,6.94-3.82,4.63-10.44,4.63-10.44l5.4-5c4.06-.54,9.06-8.9,9.06-8.9l2.86,4.3s-2.2,1.22-5.22,3c-2.45,1.42-3.09,13.76.58,12.27,13.37-6.84,13.58-15.25,11.71-18.05,0,0-6.53-9.08-7.9-9.22s-4.77,2.42-4.77,2.42l3.95-5.78c1-1.69,8.15-.8,8.15-.8s-1.39,3.28-.12,5c2.48,3.27,11.67,4.84,12.09,2.58C952.9,200.77,947.64,194.84,944.57,193.42Z"/><path class="cls-6" d="M923.76,209.14c2.33-1.52,5.73-4.18,5.73-4.18"/><path class="cls-7" d="M931.09,217s3.91,5.24,2.74,10.82c0,.18-4.27,2.71-4.27,2.71L928,218.81Z"/><path class="cls-7" d="M939.7,199.65c4.23-2.11,10.53-.27,10.62-.07s2,4.7,1.5,6.5S939,203,939,203Z"/><path class="cls-8" d="M894.46,185c-.74-.76-3.91-1.34-4.29-.72s1.24,3.19,2.59,3.53Z"/><path class="cls-9" d="M906.3,196.72c1.59,2.09,7.18,3.06,7.18,3.06l.2-1.42Z"/><path class="cls-10" d="M897.27,184a26.68,26.68,0,0,0-5.28-1.66"/><path class="cls-11" d="M951.82,206.08c.6,2.84-3.82,2.58-7.13,1.55s-6-3-5.66-4.63c.23-1.18,3.34-1.07,7.16-.24C949.58,203.5,951.57,204.9,951.82,206.08Z"/><path class="cls-7" d="M912,253.79s7.29,3.06,11.06.93c.07.16,2.67,4.32-.92,4.84s-8.7-.69-9.16-2.54Z"/><path class="cls-7" d="M896.77,256.22s7.66,2.51,11,.84c.06.22.63,2.46.75,3.28-1,3.17-11,.88-11.47-1.79Z"/><ellipse class="cls-12" cx="920.38" cy="184.63" rx="0.93" ry="0.45" transform="translate(680.77 1092.26) rotate(-86.55)"/><path class="cls-12" d="M894.81,215.43a2.23,2.23,0,0,0-.81,3,2,2,0,0,0,1.33.87l.36.56a.63.63,0,0,0,.88.19.66.66,0,0,0,.28-.43.62.62,0,0,0,.72,0,.64.64,0,0,1,.78-.75.64.64,0,0,0,.19-.88l-.37-.57a2,2,0,0,0-.25-1.56A2.24,2.24,0,0,0,894.81,215.43Zm.54,2.68a.72.72,0,0,1-.78-1.2.72.72,0,0,1,.78,1.2Zm1.86.5-.48.31c-.13.08-.26,0-.27-.13l-.08-.7c0-.16.08-.22.21-.14l.61.36A.16.16,0,0,1,897.21,218.61ZM897,217a.72.72,0,1,1,.21-1A.72.72,0,0,1,897,217Z"/><path class="cls-12" d="M901.46,219a.72.72,0,0,0-.61.81.65.65,0,0,0,0,.13l-1.76.25.94-1.51a.44.44,0,0,0,.11.09.71.71,0,1,0,.12-1.27.71.71,0,0,0-.33-.55.72.72,0,0,0-1,.23.72.72,0,0,0,.23,1l.12.06L898,220.32l-2.47.35a.61.61,0,0,0,0-.14.71.71,0,1,0-1,.72.73.73,0,0,0-.21.61.72.72,0,0,0,1.42-.2l0-.14,1.76-.25-.95,1.51-.11-.09a.71.71,0,1,0-.76,1.21.7.7,0,0,0,.64.06.72.72,0,0,0,.33.55.71.71,0,0,0,.76-1.21l-.13-.07,1.32-2.11,2.48-.35a.38.38,0,0,0,0,.15.72.72,0,1,0,1.42-.2.76.76,0,0,0-.37-.53.69.69,0,0,0,.21-.6A.72.72,0,0,0,901.46,219Z"/><path class="cls-13" d="M906.07,183.94c1.09,1.41-.24,3.48-1.89,4.16-2.25.93-4.28-.11-4.16-1.89C900.19,183.56,904.74,182.19,906.07,183.94Z"/><path class="cls-6" d="M898.54,186.06s3.14-3.81,6.46-2.8"/><ellipse class="cls-12" cx="904.87" cy="184.78" rx="1.59" ry="1.16" transform="matrix(0.93, -0.36, 0.36, 0.93, -5.66, 339.25)"/><circle class="cls-14" cx="903.72" cy="185.41" r="0.73"/><line class="cls-6" x1="929.63" y1="203.27" x2="926.91" y2="206.92"/><polygon class="cls-15" points="899.94 174.79 894.87 176.58 896.35 177.41 892.9 179.18 898.77 178.49 897.72 177.11 900.37 176.58 899.94 174.79"/><path class="cls-6" d="M891.25,201.79s-.33,6.21-3.74,6"/><path class="cls-6" d="M886.9,192.29a8.23,8.23,0,0,0-.6,6.14"/><path class="cls-6" d="M897.5,173.33s1.6-2.1,3.16-1.53"/><path class="cls-6" d="M876.06,225.94a6.3,6.3,0,0,1,4.22,4.05"/><path class="cls-6" d="M883.89,220s1.91,1.75-.11,7.13"/><path class="cls-6" d="M881.13,225.52a8.07,8.07,0,0,1-3.34-1.78"/><path class="cls-11" d="M928.77,218.36s2.54,4.8.79,12.2c-.06,0-2.46,1.71-3-.9S925.85,219.2,928.77,218.36Z"/><g class="cls-9"><path d="M906.3,196.72s11.39,6.09,17-5.83c1.7-3.61.14-5.86-.88-6.55C922.53,198.62,906.3,196.72,906.3,196.72Z"/><path d="M932.37,203.81c-.12,0,5,7,5,7,1.85,2.76,1.65,11-11.18,17.77.33,1.83,1.09,3,2.38,2.5,13.37-6.84,13.58-15.25,11.71-18.05C940.27,213,933.22,203.53,932.37,203.81Z"/><path d="M898.65,232.68s7,24.06,7,25.44c-.33,2.06-5.2,1.91-8.5.61,1.19,3,10.94,4.57,11.41,1.61-.5-2.34-8.44-28.09-8.2-29.36C900.32,231,898.26,231.19,898.65,232.68Z"/><path d="M944.66,193.46c2.56,2.63,5,6.95,4.1,11.53-.32,1.7-5.62,1.23-9.27-.51,0,.05,7,5.85,12.18,2.73C952.16,199.64,947.73,195,944.66,193.46Z"/><path d="M911.25,235.84a8.92,8.92,0,0,0,4.63-10.44l5.4-5c4.28-1.33,8.66-8.3,9.06-8.9,0,0-6.93,6.56-13.87,7.65,0,0-3.73,3.16-3.7,5.05,0,1.26,3.57,8.9-4.24,11.58,0,0,13.16,17.66,11.42,20.37-1,1.26-4.11,1.4-7,.56,0,.1,0,.19.05.26.27,2.35,9.43,3.56,10.95,1.6C925.67,255.92,911.25,235.84,911.25,235.84Z"/></g><path class="cls-10" d="M944.57,193.42c-3.06-1.42-16.11-1.89-18,.52S920.6,205,920.6,205c-.44-3.49-7.12-5.26-7.12-5.26l.2-1.42c5.07,0,8.43-5.16,9.62-7.47,1.84-3.54.19-6.23-1.66-7a1.36,1.36,0,0,0-2.69-.16,1.29,1.29,0,0,0,0,.48A12,12,0,0,1,912,183c-7.84-3.91-13.69-3.08-17.38-.24-2.78-.71-6.08-.87-6.63.09s.77,3.6,2.62,5.69c-1.55,4.76-.42,9.86,4.15,12.71l12,7.28c-7-.63-15,2-16.71,9.6s5.25,12.54,5.25,12.54L893.92,232,897,258.14c0,3.34,11,5.35,11.53,2.2.08-1.38-7-24.76-7.06-24.91l3.39.1S912.71,254.67,913,257s9.43,3.56,10.95,1.6c1.74-2.7-12.68-22.78-12.68-22.78,6.94-3.82,4.63-10.44,4.63-10.44l5.4-5c4.06-.54,9.06-8.9,9.06-8.9l2.86,4.3s-2.2,1.22-5.22,3c-2.45,1.42-3.09,13.76.58,12.27,13.37-6.84,13.58-15.25,11.71-18.05,0,0-6.53-9.08-7.9-9.22s-4.77,2.42-4.77,2.42l3.95-5.78c1-1.69,8.15-.8,8.15-.8s-1.39,3.28-.12,5c2.48,3.27,11.67,4.84,12.09,2.58C952.9,200.77,947.64,194.84,944.57,193.42Z"/><path class="cls-6" d="M939,203c.23-1.18,3.34-1.07,7.16-.24,3.39.74,5.38,2.14,5.63,3.32"/><path class="cls-16" d="M928.77,218.36s2.69,6.7.79,12.2"/><path class="cls-17" d="M931.09,217s3.91,5.24,2.74,10.82"/><path class="cls-17" d="M939.7,199.65s3.69-2.21,10.62-.07"/><path class="cls-6" d="M896.77,256.22s7.66,2.51,11,.84"/><path class="cls-6" d="M912,253.79s7.29,3.06,11.06.93"/><path class="cls-16" d="M922.84,191.73a7.52,7.52,0,0,1-5.18.81c-3-.58-5.11-3.33-8.36-1.08"/><path class="cls-6" d="M916.47,219.2s3.82,2.16,6.63.56"/><path class="cls-6" d="M907.73,235.82a7.48,7.48,0,0,0,6.53-2.36"/><path class="cls-6" d="M900.32,231a22.54,22.54,0,0,0,1.44,5.63"/><path class="cls-6" d="M906.3,196.72s6.52,2.62,10.83.81"/><path class="cls-18" d="M920.8,257.17a4.05,4.05,0,0,1,.53,2.47"/><path class="cls-18" d="M904.72,259.89a3.54,3.54,0,0,1,.13,2"/></g><path class="cls-19" d="M759,426.27l23.43,2.88s-4.06-42.41-2.34-56.42c1.41-11.48,11.08-45.35,11.08-45.35s1.92-5.81,7,0c0,0-1.31,32.8-1.46,43.74-.24,17,9.36,57,9.36,57l18.86-1.77s-8.19-30.27-6.38-56.36c1.87-26.88,9.74-45.81,9.62-60.62,0,0-17.57,1.91-55.59-15.23,0,0-14.07,57.7-15.71,77C755.65,384.89,759,426.27,759,426.27Z"/><rect class="cls-20" x="624.52" y="261.63" width="314.37" height="11.79"/><path class="cls-21" d="M715.88,224.55V199.87c1.37-.53,2.22-1.25,2.22-2.05,0-1.62-3.52-2.94-7.86-2.94s-7.86,1.32-7.86,2.94c0,.8.86,1.52,2.23,2.05v24.68a17.69,17.69,0,1,0,11.27,0Z"/><path class="cls-22" d="M722.62,241a12.38,12.38,0,0,1-24.76,0c0-6.84,5.31-.94,12.78-1.13C717.47,239.67,722.62,234.13,722.62,241Z"/><path class="cls-21" d="M755.57,233.12V208.36h-.07a1.09,1.09,0,0,0,.07-.3c0-1.34-2.38-2.43-5.31-2.43s-5.3,1.09-5.3,2.43a1.59,1.59,0,0,0,.06.3H745v24.76s-12.38,7.67-12.38,17.24A8.26,8.26,0,0,0,741.2,259h18.12a8.65,8.65,0,0,0,8.63-8.63C768,240.79,755.57,233.12,755.57,233.12Z"/><path class="cls-22" d="M740.44,246.64c-2.34,3.47-.91,6.71,2.78,6.71h14.09c3.69,0,5-3.75,2.78-6.71C756.45,241.75,744.07,241.26,740.44,246.64Z"/><ellipse class="cls-21" cx="750.26" cy="207.99" rx="6.88" ry="2.95"/><path class="cls-9" d="M755.57,233.12V208.36h-.07a1.09,1.09,0,0,0,.07-.3c0-1.34-2.38-2.43-5.31-2.43-2.64,0-4.81.89-5.22,2.05a10.9,10.9,0,0,1,1.29-.08c2.93,0,5.31,1.09,5.31,2.43a1,1,0,0,1-.07.29h.07v24.76S764,242.76,764,252.33a8.6,8.6,0,0,1-3,6.49,8.66,8.66,0,0,0,7-8.46C768,240.79,755.57,233.12,755.57,233.12Z"/><path class="cls-23" d="M755.57,233.12V208.36h-.07a1.09,1.09,0,0,0,.07-.3c0-1.34-2.38-2.43-5.31-2.43s-5.3,1.09-5.3,2.43a1.59,1.59,0,0,0,.06.3H745v24.76s-12.38,7.67-12.38,17.24A8.26,8.26,0,0,0,741.2,259h18.12a8.65,8.65,0,0,0,8.63-8.63C768,240.79,755.57,233.12,755.57,233.12Z"/><path class="cls-21" d="M675.5,233.12V208.36h-.06a1.07,1.07,0,0,0,.06-.3c0-1.34-2.37-2.43-5.3-2.43s-5.31,1.09-5.31,2.43a1.09,1.09,0,0,0,.07.3h-.07v24.76s-12.37,7.67-12.37,17.24a8.26,8.26,0,0,0,8.62,8.63h18.12a8.65,8.65,0,0,0,8.62-8.63C687.88,240.79,675.5,233.12,675.5,233.12Z"/><path class="cls-22" d="M660.38,246.64c-2.35,3.47-.92,6.71,2.77,6.71h14.1c3.69,0,5-3.75,2.77-6.71C676.39,241.75,664,241.26,660.38,246.64Z"/><ellipse class="cls-21" cx="670.2" cy="207.99" rx="6.88" ry="2.95"/><path class="cls-21" d="M859.4,224.55V199.87c1.37-.53,2.22-1.25,2.22-2.05,0-1.62-3.52-2.94-7.86-2.94s-7.86,1.32-7.86,2.94c0,.8.86,1.52,2.23,2.05v24.68a17.69,17.69,0,1,0,11.27,0Z"/><g class="cls-9"><path d="M859.4,224.55V197.82c0-1.06-2.53-1.91-5.64-1.91s-5.63.85-5.63,1.91V198a15.24,15.24,0,0,1,1.7-.1c3.11,0,5.64.86,5.64,1.92v26.73a17.67,17.67,0,0,1,4.23,31.42,17.66,17.66,0,0,0-.3-33.39Z"/><path d="M844,226.6l.22-.08v-.07Z"/></g><path class="cls-22" d="M866.14,241a12.38,12.38,0,0,1-24.76,0c0-6.84,5.31-.94,12.78-1.13C861,239.67,866.14,234.13,866.14,241Z"/><path class="cls-9" d="M675.5,233.12V208.36h-.06a1.07,1.07,0,0,0,.06-.3c0-1.34-2.37-2.43-5.3-2.43-2.64,0-4.81.89-5.22,2.05a10.64,10.64,0,0,1,1.29-.08c2.93,0,5.31,1.09,5.31,2.43a1,1,0,0,1-.07.29h.07v24.76S684,242.76,684,252.33a8.59,8.59,0,0,1-3,6.49,8.66,8.66,0,0,0,6.94-8.46C687.88,240.79,675.5,233.12,675.5,233.12Z"/><ellipse class="cls-24" cx="750.26" cy="207.99" rx="6.88" ry="2.95"/><ellipse class="cls-24" cx="670.2" cy="207.99" rx="6.88" ry="2.95"/><path class="cls-23" d="M675.5,233.12V208.36h-.06a1.07,1.07,0,0,0,.06-.3c0-1.34-2.37-2.43-5.3-2.43s-5.31,1.09-5.31,2.43a1.09,1.09,0,0,0,.07.3h-.07v24.76s-12.37,7.67-12.37,17.24a8.26,8.26,0,0,0,8.62,8.63h18.12a8.65,8.65,0,0,0,8.62-8.63C687.88,240.79,675.5,233.12,675.5,233.12Z"/><path class="cls-25" d="M767,21.3c-13.27,12.89,3.51,32.28,13.39,32.62,17.26.58,35.24,5.65,38-2.45C830.67,15.44,790.12-1.16,767,21.3Z"/><g class="cls-9"><path d="M715.88,224.55V197.82c0-1.06-2.53-1.91-5.64-1.91s-5.63.85-5.63,1.91V198a15.39,15.39,0,0,1,1.7-.1c3.11,0,5.64.86,5.64,1.92v26.73a17.67,17.67,0,0,1,4.23,31.42,17.66,17.66,0,0,0-.3-33.39Z"/><path d="M700.46,226.6l.22-.08v-.07Z"/></g><path class="cls-12" d="M922.29,114.78c4.55,12.21-39.14,5-35.32-1.67s14.3-30.23,15.16-41.44c.36-4.75-1.48-3.26-5.86-6.13-6.1-4-9.39-12.5-4.46-14.47,4.06-1.62,3.29,1.43,5.7,4.92,2.78,4,7.81,6.13,8.13-4.25.44-9-8.28-13.49-4.09-16,8.64-5.09,14.23,11,13.58,17.85a17.81,17.81,0,0,0,.6-14.63c-2.62-6.6,5.76-7.83,8.43-2.54,2.22,4.38,3.7,12,.7,21.12.15.16,2.34-.48,6.81-8.77,3.26-6,11.16-.9,5.42,7.14s-10,9.68-14.25,15.82C920.16,75.68,913.29,90.65,922.29,114.78Z"/><path class="cls-14" d="M912.93,117.23l-16.61-2.69C872.54,173.32,812,144.6,812,144.6s4.91-9.25-3.36-14.11c-6.57-3.86-15.22-4.37-23.87,1.32-13.31,8.77-5.5,20.92-5.52,20.87C744.66,188.13,711,164.35,711,164.35l-15.7,19.29c11,8.07,21.84,11.52,31.69,12.35a7.41,7.41,0,0,0,14.59-.58,68.81,68.81,0,0,0,28.65-11.77l-2.1,124.3c41.74,3.59,59.68,35.45,59.68,35.45,11.57-53.86,6.59-174.11,7.39-174.11,15.62,2.47,28.08,1.54,38.06-1.41a7.41,7.41,0,0,0,13.24-5.82C911.15,146.92,912.93,117.23,912.93,117.23Z"/><polygon class="cls-9" points="695.32 182.12 706.22 163.89 713.8 165.97 701.93 188 695.32 182.12"/><path class="cls-24" d="M715.88,224.55V199.87c1.37-.53,2.22-1.25,2.22-2.05,0-1.62-3.52-2.94-7.86-2.94s-7.86,1.32-7.86,2.94c0,.8.86,1.52,2.23,2.05v24.68a17.69,17.69,0,1,0,11.27,0Z"/><path class="cls-12" d="M689.43,186c5.78,11.67,30.44-25.11,23-26.89s-36-14.5-44.75-21.55c-3.71-3-17.31,18.27-9.95,19.4C662.39,157.63,678,162.87,689.43,186Z"/><path class="cls-26" d="M790.12,160.76s-10.9-4.73-13-14.44"/><path class="cls-26" d="M806.61,150s8.41-7.07,6.12-14.92"/><ellipse class="cls-12" cx="794.63" cy="140.45" rx="11.76" ry="7.28" transform="translate(6 311.39) rotate(-22.25)"/><path class="cls-27" d="M777.08,167.82s-7.83,5.43-6.48,26.6"/><path class="cls-26" d="M773.82,173.25s25.39,7.87,44.23,0c0,0,9.76,66.48-9.63,149.63"/><ellipse class="cls-12" cx="809.87" cy="191.96" rx="3.26" ry="4.81"/><g class="cls-9"><path d="M896.32,114.54a49.06,49.06,0,0,1-3.27,6.85H911.9l1-4.15Z"/><path d="M830.07,163.89c-5.63-.69,1.47,112.59-10.75,168.58,3.66,4.37,8.49,10.92,8.49,10.92,8.83-41.11,8-136,7.5-174.11C835.31,169.28,835.56,164.56,830.07,163.89Z"/></g><ellipse class="cls-12" cx="809.87" cy="229.14" rx="3.26" ry="4.81"/><ellipse class="cls-12" cx="806.61" cy="266.32" rx="3.26" ry="4.81"/><path class="cls-23" d="M912.93,117.23l-16.61-2.69C872.54,173.32,812,144.6,812,144.6s4.91-9.25-3.36-14.11c-6.57-3.86-15.22-4.37-23.87,1.32-13.31,8.77-5.5,20.92-5.52,20.87C744.66,188.13,711,164.35,711,164.35l-15.7,19.29c11,8.07,21.84,11.52,31.69,12.35a7.41,7.41,0,0,0,14.59-.58,68.81,68.81,0,0,0,28.65-11.77l-2.1,124.3c41.74,3.59,59.68,35.45,59.68,35.45,11.57-53.86,6.59-174.11,7.39-174.11,15.62,2.47,28.08,1.54,38.06-1.41a7.41,7.41,0,0,0,13.24-5.82C911.15,146.92,912.93,117.23,912.93,117.23Z"/><path class="cls-26" d="M732.12,188.91s-8.52,3.05-2,11.69"/><path class="cls-26" d="M880.65,157.39s9.23,2.39,3.5,11.62"/><path class="cls-28" d="M835,76.2C835,44.6,812,19,783.6,19S732.22,44.6,732.22,76.2s23,57.21,51.38,57.21l.32,0,2.73,10.25s8,4.43,15.16-3.2l-2.62-9.73C819.94,123.36,835,101.74,835,76.2Z"/><g class="cls-9"><path d="M794.31,143.24l7.5-2.8-2.62-9.73C818,121.49,835,99.62,835,76.2L831.4,60.8c0,41.22-18.27,56.43-39.78,67.2Z"/></g><ellipse class="cls-14" cx="748.2" cy="60.8" rx="16.48" ry="8.79" transform="translate(613.21 799.23) rotate(-84.29)"/><path class="cls-9" d="M749.84,44.4a5.1,5.1,0,0,0-1.17,0c2.29,3.12,3.5,8.53,2.9,14.54-.84,8.32-4.83,14.85-9.23,15.48a6.12,6.12,0,0,0,4.22,2.73c4.83.49,9.48-6.46,10.39-15.52S754.67,44.88,749.84,44.4Z"/><ellipse class="cls-14" cx="775.8" cy="65.06" rx="10.83" ry="20.29"/><path class="cls-29" d="M835,76.2C835,44.6,812,19,783.6,19S732.22,44.6,732.22,76.2s23,57.21,51.38,57.21l.32,0,2.73,10.25s8,4.43,15.16-3.2l-2.62-9.73C819.94,123.36,835,101.74,835,76.2Z"/><path class="cls-12" d="M773.11,59.05c-1.55,0-2.79-2-2.79-4.38s1.24-4.37,2.79-4.37a2,2,0,0,1,1,.32,3,3,0,0,0-1.92-2.07c-2.14-.46-4.67,2.85-5.65,7.4s0,8.6,2.11,9.06c2,.42,4.2-2.3,5.33-6.22A1.87,1.87,0,0,1,773.11,59.05Z"/><path class="cls-12" d="M745.41,51.35c0-2.14,1-3.91,2.28-4.29a3.06,3.06,0,0,0-2-2.23c-2.14-.46-4.67,2.85-5.64,7.4s0,8.6,2.1,9.06c1.88.41,4.05-2.09,5.21-5.77C746.25,55,745.41,53.32,745.41,51.35Z"/><path class="cls-30" d="M790.53,41.55l-3.9-6.32,3.49-6.4c-16.36-3-29.73,12.79-29.73,12.79S748.2,25.93,732.12,31.3l4.15,4.94-4.15,6.95c14.92-4.25,29.2,13,29.2,13S773.82,39.94,790.53,41.55Z"/><path class="cls-31" d="M799.09,39.15C787.39,53.48,797.16,73,809.87,70.9c17-2.86,0-13.06,8.53-19.43,11.1-8.3,16.8,13.59,16.8,27.9a68.39,68.39,0,0,0,6.48-11.53C855.63,37.81,819.18,14.56,799.09,39.15Z"/><path class="cls-32" d="M664.89,140.32l7.84-37c1.47-.38,2.46-1,2.64-1.91.47-2.18-3.88-5-9.69-6.18s-10.91-.47-11.38,1.72c-.19.89.46,1.87,1.65,2.82l-7.84,37a26.91,26.91,0,1,0,16.78,3.55Z"/><path class="cls-22" d="M670,164.71a18.85,18.85,0,1,1-37.62-2.32c.64-10.39,6.14-1.34,16.53-.7S670.67,154.32,670,164.71Z"/><path class="cls-12" d="M641.39,138.27c.42,3.08,6.71,8.59,11,3.76,3.67-4.18-2.62-8.45-4.39-9.1S640.41,131,641.39,138.27Z"/><path class="cls-12" d="M635.5,142.71c3.07,5.66,7,8.88,10.86,5.33,3-2.53-2.47-9.21-4.4-11.43S632.42,137.06,635.5,142.71Z"/><path class="cls-12" d="M629.93,146.56c2,4.41,6.11,7.66,9.47,4.15,2.65-2.77-1.38-9.34-3.42-10.89S627.57,141.28,629.93,146.56Z"/><path class="cls-12" d="M660.89,170.75c.75,1.79-1.11,4.26-4.14,5.52s-6.08.82-6.83-1,2.46-1,5.49-2.28S660.15,169,660.89,170.75Z"/><circle class="cls-33" cx="672.63" cy="12.68" r="8.08"/><circle class="cls-33" cx="680.68" cy="38.25" r="6.73"/><circle class="cls-33" cx="670.84" cy="78.64" r="4.04"/><circle class="cls-33" cx="664.91" cy="58.45" r="5.38"/><path class="cls-34" d="M755.31,105.08s15.14,17.92,33.24,11.73C816,107.42,808.07,83,808.07,83s-7,11.06-24.44,17.53S755.31,105.08,755.31,105.08Z"/><path class="cls-9" d="M775.8,44.76h0c3.26,3.5,5.45,10.07,5.45,17.6,0,11.21-4.84,20.29-10.82,20.3a7.45,7.45,0,0,0,5.38,2.69c6,0,10.83-9.08,10.83-20.29S781.78,44.76,775.8,44.76Z"/><ellipse class="cls-26" cx="748.2" cy="60.8" rx="16.48" ry="8.79" transform="translate(613.21 799.23) rotate(-84.29)"/><path class="cls-35" d="M759.82,63.5c3.66.6,5.86,5.73,4.92,11.47s-6.81,20.9-10.46,20.3-3.71-16.73-2.77-22.47S756.17,62.91,759.82,63.5Z"/><line class="cls-34" x1="776.55" y1="103.24" x2="783.63" y2="118.11"/><line class="cls-34" x1="792.93" y1="96.86" x2="799.15" y2="110.47"/><path class="cls-36" d="M664.89,140.32l7.84-37c1.47-.38,2.46-1,2.64-1.91.47-2.18-3.88-5-9.69-6.18l-.1,0c2.62,1.3,4.19,2.88,3.9,4.23-.19.9-1.18,1.54-2.65,1.92l-9.64-.17L655.82,105c4,3.43,10,3.37,10,3.37l-7.25,34.16c9.68,5.72,14,15,13.07,24.57-1.5,14.75-6.14,19.19-6.14,19.19a26.91,26.91,0,0,0-.63-46Z"/><path class="cls-12" d="M666.13,139.82s-10.58.63-8.73,7.46c1.72,6.34,16.05-.64,16.05-.64Z"/><ellipse class="cls-24" cx="664.84" cy="99.17" rx="4.04" ry="10.77" transform="translate(430.06 729.03) rotate(-78.04)"/><path class="cls-24" d="M664.89,140.32l7.84-37c1.47-.38,2.46-1,2.64-1.91.47-2.18-3.88-5-9.69-6.18s-10.91-.47-11.38,1.72c-.19.89.46,1.87,1.65,2.82l-7.84,37a26.91,26.91,0,1,0,16.78,3.55Z"/><ellipse class="cls-26" cx="775.8" cy="65.06" rx="10.83" ry="20.29"/><ellipse class="cls-24" cx="710.24" cy="197.82" rx="7.86" ry="2.95"/><path class="cls-24" d="M859.4,224.55V199.87c1.37-.53,2.22-1.25,2.22-2.05,0-1.62-3.52-2.94-7.86-2.94s-7.86,1.32-7.86,2.94c0,.8.86,1.52,2.23,2.05v24.68a17.69,17.69,0,1,0,11.27,0Z"/><ellipse class="cls-24" cx="853.76" cy="197.82" rx="7.86" ry="2.95"/><path class="cls-12" d="M827.09,422.38H797.16a5,5,0,0,0-5,5v6.73a5,5,0,0,0,5,5h17a2,2,0,0,0,2,1.92h12a2,2,0,0,0,2-2v-.95a5,5,0,0,0,2-4v-6.73A5,5,0,0,0,827.09,422.38Z"/><path class="cls-12" d="M780.85,420l-29.91.74A5,5,0,0,0,746,425.9l.17,6.73a5,5,0,0,0,5.16,4.91l17-.42a2,2,0,0,0,2,1.87l12-.29a2,2,0,0,0,2-2.06l0-.95a5,5,0,0,0,1.9-4l-.17-6.73A5,5,0,0,0,780.85,420Z"/><path class="cls-37" d="M323.25,411.79l6.92-73.13H308.5v46.17a5.1,5.1,0,0,0,0,10.19v16.64h-2.57c-1.4-1.19-3.19,1.15-5.17,1.15-4.47,0-6.55,1.31-6.55,5.78s2.08,7.32,6.55,7.32L325,423.6c3.92,0,3.28-.9,3.28-4.82C328.31,415.31,326.56,412.4,323.25,411.79Z"/><path class="cls-37" d="M368.44,411.79l-2.31-73.13H387.8v46.17a5.1,5.1,0,0,1,0,10.19l-2.31,16.64h4.88c1.4-1.19,3.19,1.15,5.17,1.15,4.47,0,6.55,1.31,6.55,5.78s-2.08,7.32-6.55,7.32H367.43a7.15,7.15,0,0,1-7.13-7.13C360.3,415.31,365.13,412.4,368.44,411.79Z"/><polygon class="cls-38" points="304.38 276.4 303.87 300.27 302.62 309.36 301.74 340.15 299.94 359.39 301.06 367.34 298.97 377.6 298.63 392.88 308.63 394.88 314.63 385.88 317.63 390.88 329.63 388.88 335.97 374.47 338.72 362.34 341.59 348.64 344.57 317.9 349.11 314.83 352.89 331.86 356.65 345.58 356.2 363.17 360.71 405.9 396.6 405.9 394.62 385.45 393.19 348.37 391.77 337.48 391.99 328.21 388.92 276.4 304.38 276.4"/><path class="cls-39" d="M405,240.33V217c2.4-.19,4.26-1.44,4.26-3s-2.18-3-4.86-3a7.21,7.21,0,0,0-2.44.42,7.11,7.11,0,0,0-2.43-.42c-2.69,0-4.87,1.34-4.87,3s1.87,2.77,4.26,3v23.3c-2.39.19-4.26,1.43-4.26,3h0v0c0,1.53,1.87,2.77,4.26,3v19.56c-2.39.18-4.26,1.43-4.26,3s2.18,3,4.87,3a7.36,7.36,0,0,0,2.43-.41,7.47,7.47,0,0,0,2.44.41c2.68,0,4.86-1.34,4.86-3s-1.86-2.78-4.26-3V246.28c2.4-.19,4.26-1.43,4.26-3v0h0C409.27,241.76,407.41,240.52,405,240.33Z"/><path class="cls-40" d="M303.85,285.34l-7.53-5.29c-.24-.18.17-.82,0-.57l-.22.21-.1-.81a3.33,3.33,0,0,0-3.76-2.8l-6.15.89a3.33,3.33,0,0,0-2.81,3.76l-.74,11a1,1,0,0,0,0,.17,3.3,3.3,0,0,0,1.9,2.44.63.63,0,0,1,.36.56l.43,9.09a1.31,1.31,0,0,0,1.36,1.25l1.1-.06a1.31,1.31,0,0,0,1.24-1.36l-.42-8.94a.64.64,0,0,1,.55-.67h0a.66.66,0,0,1,.73.55l2.36,16.31a1.47,1.47,0,0,0,1.66,1.24l.78-.12a1.46,1.46,0,0,0,1.23-1.65l-2.37-16.31a.65.65,0,0,1,.55-.73l.44-.07a.64.64,0,0,1,.72.55l1.91,13.16a1.4,1.4,0,0,0,1.58,1.18l.91-.13a1.4,1.4,0,0,0,1.18-1.58l-2-13.94a.68.68,0,0,1,.2-.57,3.31,3.31,0,0,0,1-2.72,1.54,1.54,0,0,0-.05-.17l-.41-1.11a.64.64,0,0,1,1-.74l.69.52a1.21,1.21,0,0,0,1.68-.23l1.17-1.56A.56.56,0,0,0,303.85,285.34Z"/><path class="cls-40" d="M387.27,285.34l7.53-5.29c.24-.18-.18-.82,0-.57l.22.21.1-.81a3.32,3.32,0,0,1,3.75-2.8L405,277a3.33,3.33,0,0,1,2.8,3.76l.74,11a.48.48,0,0,1,0,.17,3.34,3.34,0,0,1-1.9,2.44.63.63,0,0,0-.36.56l-.43,7.56c0,.71-.65,2.81-1.36,2.78l-1.1-1.59a1.31,1.31,0,0,1-1.24-1.37l.42-7.4a.65.65,0,0,0-.55-.67h0a.65.65,0,0,0-.73.55L399,311.1a1.46,1.46,0,0,1-1.65,1.24l-.78-.12a1.46,1.46,0,0,1-1.23-1.65l2.36-16.31a.64.64,0,0,0-.54-.73l-.44-.07a.65.65,0,0,0-.73.55L394,307.17a1.39,1.39,0,0,1-1.57,1.18l-.92-.13a1.39,1.39,0,0,1-1.17-1.58l2-13.94a.68.68,0,0,0-.2-.57,3.28,3.28,0,0,1-1-2.72,1.36,1.36,0,0,1,0-.17l.42-1.11a.64.64,0,0,0-1-.74l-.69.52a1.2,1.2,0,0,1-1.68-.23l-1.18-1.56A.57.57,0,0,1,387.27,285.34Z"/><line class="cls-41" x1="406.02" y1="254.26" x2="406.02" y2="217.3"/><line class="cls-42" x1="284" y1="246.07" x2="285.02" y2="206.67"/><path class="cls-43" d="M302.65,78.37s-9.2-7.06-1.46-17.36c0,0-2.41-12.32,7.7-13,0,0,2-12,12.1-9.27,0,0,2.63-6.47,8.68-3.12a5.22,5.22,0,0,1,7-3s5.66-4.1,9.82-.3c0,0,5.69-5.95,14.17,1.17,0,0,8.88-3.8,11.51,4.59,0,0,8.88,1.46,8.19,8,0,0,3.61,0,3.32,5,0,0,5.56-.74,5.56,7.8,0,0,5.53,2.38,1.89,11.69,0,0,4,14.74-8.81,16.4,0,0-5.17,14.92-19.51,8.19,0,0-7.8,12.88-21.17,3.91a12.09,12.09,0,0,1-12.28-5.27s-12.1,4.09-15.12-6C314.26,87.83,301.19,92.41,302.65,78.37Z"/><path class="cls-44" d="M304.61,101.68H306a5.93,5.93,0,0,1-5.91-5.91l-1.37-9.44a5.92,5.92,0,0,1,5.91-5.9h0a5.92,5.92,0,0,1,5.9,5.9v9.44A5.93,5.93,0,0,1,304.61,101.68Z"/><path class="cls-44" d="M385.88,101.68h-1.37c-3.25,0-4.53-2.66-4.53-5.91V86.33a5.91,5.91,0,0,1,5.9-5.9h0a5.91,5.91,0,0,1,5.9,5.9l-1.37,9.44C390.41,99,389.13,101.68,385.88,101.68Z"/><path class="cls-44" d="M345.24,146.09c-36.24,0-65.62,30.53-65.62,68.19v40H410.86v-40C410.86,176.62,381.48,146.09,345.24,146.09Z"/><path class="cls-45" d="M345.24,142.15c-21.83,0-41.23,10.72-53.65,27.36,0,0,10.1,3,5,14.55,0,0-4.09,1.83-4.08,1.81s-1.29,5-1.29,5c-.47,7.09-11.82,4.62-11.82,4.62a73,73,0,0,0-2,17.18v64.67H413.12V212.69C413.12,173.73,382.73,142.15,345.24,142.15Z"/><path class="cls-9" d="M370.42,147.19c20.54,12.12,34.4,35.05,34.4,84.41v45.71l8.3.05V212.69C413.12,183,395.44,157.58,370.42,147.19Z"/><path class="cls-46" d="M345.24,142.15c-21.83,0-41.23,10.72-53.65,27.36,0,0,10.1,3,5,14.55,0,0-4.09,1.83-4.08,1.81s-1.29,5-1.29,5c-.47,7.09-11.82,4.62-11.82,4.62a73,73,0,0,0-2,17.18v64.67H413.12V212.69C413.12,173.73,382.73,142.15,345.24,142.15Z"/><path class="cls-47" d="M360.59,124.54H329.9v25.58a15.34,15.34,0,0,0,15.34,15.35c.46,0,5.55,5.58,5.55,5.58l1.12-6.61,5.2,1.22-.76-5a15.29,15.29,0,0,0,4.24-10.58Z"/><path class="cls-42" d="M360.59,124.54H329.9v25.58a15.34,15.34,0,0,0,15.34,15.35c.46,0,5.55,5.58,5.55,5.58l1.12-6.61,5.2,1.22-.76-5a15.29,15.29,0,0,0,4.24-10.58Z"/><ellipse class="cls-48" cx="345.05" cy="141.96" rx="15.54" ry="7.19"/><path class="cls-37" d="M301,60.88s4.12,21.14,4.12,33.26,2.43,18.46,6.64,26l3.59-2.24,1.11,5,3.32,2.38-2,3.39c8,9.14,15.11,14.82,27.49,14.82,13.67,0,21.78-6.92,29.9-17.78l-3.21-5.33,5.73,1.61c4.88-7.93,7.74-10.94,7.74-27.88a155.09,155.09,0,0,1,4.11-33.26Z"/><line class="cls-42" x1="301.86" y1="277.36" x2="300.49" y2="201.18"/><line class="cls-42" x1="388.63" y1="277.36" x2="390" y2="201.18"/><path class="cls-48" d="M350.23,92.75c0,6.7,10.46,14.32,17.16,14.32S378,103.27,378,96.57s-3.07-10.95-9.77-10.95S350.23,86.05,350.23,92.75Z"/><path class="cls-49" d="M350.23,88.64c0,6.7,10.46,14.31,17.16,14.31S378,99.16,378,92.46s-3.07-10.95-9.77-10.95S350.23,81.94,350.23,88.64Z"/><path class="cls-50" d="M398.6,76.14s-8.63-2-4.83-19.67c-4.72,6.19-13.28,3.45-13.28,3.45l-3.85-8.59-5.37-1.78-1.92-6.49L362.46,40c.14-5.7,2.84-10.11,6.29-11.66-10.54-2.69-24.36-1-42.16,4.73,0,0-7.67-3.35-5.25-9.84,0,0-10.29.58-8.61,17.31,0,0-15.19-12.65-22.21,7.09,0,0,9.56-3.15,9.56,7.08,0,0-10.41,7.35-1.38,31.65,0,0,10.91-4.46,11.81-14.7.77-8.71,6.69-9.67,6.69-9.67s-4.87,12.38,27.25,17.73c0,0-3.38-12.23-.36-14.24-.34,0,20.38,28,54.51,20.07a13.82,13.82,0,0,1-7-8.41A8.08,8.08,0,0,0,398.6,76.14Z"/><path class="cls-12" d="M351.41,109.88c0,5-2.76.43-6.17.43s-6.17,4.53-6.17-.43,2.76-9,6.17-9S351.41,104.91,351.41,109.88Z"/><path class="cls-51" d="M315.73,48.79s.88-3.77-3-8.28"/><path class="cls-51" d="M362.16,44.65s-.09-6.85,1.29-10.07"/><path class="cls-51" d="M339.41,57.77s1.71,4.64,7.7,11.35"/><line class="cls-52" x1="342.99" y1="132.29" x2="344.37" y2="128.86"/><path class="cls-53" d="M363.45,127.28c0,5.45-11.12,5.31-17.71,2.95-9.21-3.28-15,1.94-15-2.95s6.53-3.14,15-7.48C355.08,115,363.45,122.39,363.45,127.28Z"/><g class="cls-54"><ellipse class="cls-55" cx="350.73" cy="130.79" rx="8.26" ry="3.54"/></g><path class="cls-48" d="M340.26,92.75c0,6.7-10.46,14.32-17.16,14.32s-10.57-3.8-10.57-10.5,3.07-10.95,9.77-10.95S340.26,86.05,340.26,92.75Z"/><path class="cls-49" d="M340.26,88.64c0,6.7-10.46,14.31-17.16,14.31s-10.57-3.79-10.57-10.49,3.07-10.95,9.77-10.95S340.26,81.94,340.26,88.64Z"/><path class="cls-12" d="M364.66,88.83a6.2,6.2,0,0,0-3.9,1.27A1.73,1.73,0,0,1,359.61,93c.43,1.68,2.52,3,5.05,3,2.84,0,5.15-1.61,5.15-3.59S367.5,88.83,364.66,88.83Z"/><path class="cls-56" d="M350.23,88.64c0,6.7,6.26.19,13,.19s15.49,5.94,14.6,1.07-2.9-8.39-9.6-8.39S350.23,81.94,350.23,88.64Z"/><path class="cls-12" d="M325.83,88.83A6.28,6.28,0,0,0,322.1,90a1.72,1.72,0,0,1,.7,1.36,1.74,1.74,0,0,1-1.74,1.74,1.5,1.5,0,0,1-.29-.06c.41,1.7,2.51,3,5.06,3,2.84,0,5.14-1.61,5.14-3.59S328.67,88.83,325.83,88.83Z"/><path class="cls-56" d="M340.26,88.64c0,6.7-8.38-1-18.09.19-6.65.85-9.64,7.74-9.64,3.63,0-6.7,3.07-10.95,9.77-10.95S340.26,81.94,340.26,88.64Z"/><line class="cls-52" x1="334.05" y1="122.37" x2="332.68" y2="120.32"/><line class="cls-52" x1="358.39" y1="119.15" x2="358.39" y2="117.1"/><path class="cls-57" d="M390.93,318.41c0-2.05-1.16-3.71-1.89-3.71s-1.33,1.66-1.33,3.71c0,.07,0,.14,0,.21a1.39,1.39,0,0,0-.56-.13c-1.3,0-2.35,2-2.35,4.42s1.05,5.75,2.35,5.75,2.35-3.31,2.35-5.75a7.82,7.82,0,0,0-.06-1A5.22,5.22,0,0,0,390.93,318.41Z"/><path class="cls-58" d="M406.66,299.3c0-1.26-.71-2.28-1.16-2.28s-.82,1-.82,2.28v.14a.81.81,0,0,0-.34-.08c-.8,0-1.45,1.21-1.45,2.71s.65,3.54,1.45,3.54,1.45-2,1.45-3.54a5.66,5.66,0,0,0,0-.6A3.26,3.26,0,0,0,406.66,299.3Z"/><path class="cls-59" d="M545.23,403.17l6.24-66H531.92v41.66a4.6,4.6,0,1,0,0,9.19v15H529.6c-1.27-1.07-2.88,1-4.67,1-4,0-5.91,1.18-5.91,5.21s1.88,6.61,5.91,6.61l21.9-2.08c3.54,0,3-.82,3-4.35C549.79,406.34,548.21,403.72,545.23,403.17Z"/><path class="cls-59" d="M586,403.17l-2.08-66h19.55v41.66a4.6,4.6,0,1,1,0,9.19l-2.08,15h4.4c1.27-1.07,2.88,1,4.67,1,4,0,5.91,1.18,5.91,5.21s-1.88,6.61-5.91,6.61H585.09a6.45,6.45,0,0,1-6.43-6.43C578.66,406.34,583,403.72,586,403.17Z"/><polygon class="cls-60" points="528.2 281 527.74 302.54 526.61 310.74 525.82 338.53 524.2 355.89 525.2 363.06 523.32 372.32 521.96 397.86 531.32 394.04 538.25 387.11 548.65 390.57 548.65 397.51 554.89 367.69 559.19 358.55 561.77 346.19 564.46 318.45 568.56 315.68 571.97 331.04 575.36 343.42 578.96 359.29 579.03 397.86 587.63 397.86 593.13 393.86 599.58 396.86 608.41 387.86 609.62 379.4 608.33 345.95 606.06 336.12 607.25 327.76 604.48 281 528.2 281"/><path class="cls-61" d="M619,248.45v-21c2.17-.17,3.85-1.3,3.85-2.67s-2-2.71-4.39-2.71a6.53,6.53,0,0,1-4.39,0c-2.43,0-4.4,1.21-4.4,2.71s1.68,2.5,3.85,2.67v21c-2.17.17-3.85,1.3-3.85,2.67v0h0c0,1.38,1.68,2.5,3.85,2.67v17.65c-2.17.17-3.85,1.29-3.85,2.67s2,2.7,4.4,2.7a6.7,6.7,0,0,1,4.39,0c2.42,0,4.39-1.21,4.39-2.7s-1.68-2.5-3.85-2.67V253.82c2.17-.17,3.85-1.29,3.85-2.67h0v0C622.85,249.75,621.17,248.62,619,248.45Z"/><path class="cls-62" d="M527.72,289.07l-6.79-4.77c-.22-.17.15-.74,0-.52l-.19.19-.09-.73a3,3,0,0,0-3.39-2.53l-5.56.81a3,3,0,0,0-2.53,3.39l-.67,9.95a.92.92,0,0,0,0,.16,3,3,0,0,0,1.72,2.2.57.57,0,0,1,.32.5l.39,8.21a1.18,1.18,0,0,0,1.23,1.12l1-.05a1.18,1.18,0,0,0,1.12-1.23l-.38-8.07a.58.58,0,0,1,.49-.6h0a.59.59,0,0,1,.66.49l2.14,14.72a1.32,1.32,0,0,0,1.49,1.12l.7-.1a1.32,1.32,0,0,0,1.11-1.5l-2.13-14.72a.57.57,0,0,1,.49-.65l.4-.06a.57.57,0,0,1,.65.49l1.73,11.88a1.26,1.26,0,0,0,1.42,1.06l.82-.12a1.25,1.25,0,0,0,1.06-1.42l-1.82-12.58a.6.6,0,0,1,.18-.51,2.94,2.94,0,0,0,.86-2.45.41.41,0,0,0,0-.16l-.38-1a.58.58,0,0,1,.9-.66l.62.47a1.08,1.08,0,0,0,1.51-.21l1.06-1.41A.5.5,0,0,0,527.72,289.07Z"/><path class="cls-62" d="M603,289.07l6.79-4.77c.22-.17-.15-.74,0-.52l.19.19.09-.73a3,3,0,0,1,3.39-2.53l5.56.81a3,3,0,0,1,2.53,3.39l.67,9.95a.92.92,0,0,1,0,.16,3,3,0,0,1-1.72,2.2.57.57,0,0,0-.32.5l-.39,6.82c0,.65-.58,2.54-1.23,2.51l-1-1.44a1.18,1.18,0,0,1-1.12-1.23l.38-6.68a.58.58,0,0,0-.49-.6h0a.59.59,0,0,0-.66.49l-2.14,14.72a1.32,1.32,0,0,1-1.49,1.12l-.7-.1a1.33,1.33,0,0,1-1.12-1.5l2.14-14.72a.57.57,0,0,0-.49-.65l-.4-.06a.57.57,0,0,0-.65.49l-1.73,11.88a1.26,1.26,0,0,1-1.42,1.06l-.82-.12a1.27,1.27,0,0,1-1.07-1.42l1.83-12.58a.6.6,0,0,0-.18-.51,3,3,0,0,1-.87-2.45.75.75,0,0,1,0-.16l.38-1a.58.58,0,0,0-.9-.66l-.62.47a1.08,1.08,0,0,1-1.51-.21l-1.06-1.41A.5.5,0,0,1,603,289.07Z"/><line class="cls-63" x1="510.23" y1="261.02" x2="510.23" y2="227.68"/><line class="cls-64" x1="509.81" y1="253.64" x2="510.73" y2="218.08"/><path class="cls-65" d="M526.64,102.31s-8.3-6.36-1.32-15.66c0,0-2.17-11.12,6.95-11.71,0,0,1.79-10.79,10.91-8.36,0,0,2.38-5.84,7.84-2.82A4.71,4.71,0,0,1,557.35,61s5.11-3.7,8.86-.27c0,0,5.14-5.37,12.79,1.06,0,0,8-3.43,10.39,4.13,0,0,8,1.33,7.39,7.22,0,0,3.26,0,3,4.49,0,0,5-.67,5,7,0,0,5,2.14,1.71,10.54,0,0,3.57,13.31-8,14.81,0,0-4.66,13.46-17.6,7.39,0,0-7,11.61-19.1,3.52a10.92,10.92,0,0,1-11.09-4.75s-10.91,3.69-13.64-5.37C537.11,110.85,525.32,115,526.64,102.31Z"/><path class="cls-66" d="M528.4,123.34h1.24a5.35,5.35,0,0,1-5.33-5.32l-1.23-8.53a5.33,5.33,0,0,1,5.32-5.32h0a5.34,5.34,0,0,1,5.33,5.32V118A5.35,5.35,0,0,1,528.4,123.34Z"/><path class="cls-66" d="M601.74,123.34H600.5c-2.93,0-4.09-2.4-4.09-5.32v-8.53a5.34,5.34,0,0,1,5.33-5.32h0a5.34,5.34,0,0,1,5.33,5.32L605.83,118C605.83,120.94,604.67,123.34,601.74,123.34Z"/><path class="cls-66" d="M565.07,163.42c32.7,0,59.21,27.54,59.21,61.53v36.12H505.86V225C505.86,191,532.37,163.42,565.07,163.42Z"/><path class="cls-67" d="M565.07,159.87a60.37,60.37,0,0,1,48.42,24.68s-9.12,2.75-4.52,13.13c0,0,3.69,1.65,3.69,1.64l1.16,4.53c.42,6.39,10.66,4.16,10.66,4.16a66,66,0,0,1,1.84,15.51v58.35H503.82V223.52C503.82,188.36,531.24,159.87,565.07,159.87Z"/><path class="cls-9" d="M542.35,164.41c-18.53,10.94-31,31.63-31,76.17v41.25l-7.49,0V223.52C503.82,196.71,519.78,173.79,542.35,164.41Z"/><path class="cls-68" d="M565.07,159.87a60.37,60.37,0,0,1,48.42,24.68s-9.12,2.75-4.52,13.13c0,0,3.69,1.65,3.69,1.64l1.16,4.53c.42,6.39,10.66,4.16,10.66,4.16a66,66,0,0,1,1.84,15.51v58.35H503.82V223.52C503.82,188.36,531.24,159.87,565.07,159.87Z"/><path class="cls-47" d="M578.92,144h-27.7v23.08a13.85,13.85,0,0,0,13.85,13.84c.41,0,5,5,5,5l1-6,4.7,1.09-.69-4.47a13.77,13.77,0,0,0,3.83-9.54Z"/><path class="cls-64" d="M578.92,144h-27.7v23.08a13.85,13.85,0,0,0,13.85,13.84c.41,0,5,5,5,5l1-6,4.7,1.09-.69-4.47a13.77,13.77,0,0,0,3.83-9.54Z"/><ellipse class="cls-48" cx="564.89" cy="159.69" rx="14.03" ry="6.49"/><path class="cls-59" d="M525.12,86.53s3.72,19.07,3.72,30,2.2,16.66,6,23.48l3.24-2,1,4.52,3,2.14-1.81,3.06c7.25,8.25,13.64,13.38,24.81,13.38,12.34,0,19.65-6.24,27-16l-2.9-4.81,5.17,1.45c4.41-7.16,7-9.87,7-25.16a139.92,139.92,0,0,1,3.71-30Z"/><line class="cls-64" x1="604.22" y1="281.87" x2="605.46" y2="213.13"/><line class="cls-64" x1="525.92" y1="281.87" x2="524.69" y2="213.13"/><path class="cls-48" d="M569.57,115.29c0,6,9.44,12.92,15.48,12.92s9.54-3.43,9.54-9.47-2.77-9.88-8.81-9.88S569.57,109.25,569.57,115.29Z"/><path class="cls-69" d="M569.57,111.58c0,6,9.44,12.91,15.48,12.91s9.54-3.42,9.54-9.47-2.77-9.88-8.81-9.88S569.57,105.53,569.57,111.58Z"/><path class="cls-12" d="M570.64,130.74c0,4.49-2.49.39-5.57.39s-5.57,4.1-5.57-.39,2.5-8.11,5.57-8.11S570.64,126.26,570.64,130.74Z"/><path class="cls-70" d="M538.44,75.62s.79-3.4-2.71-7.47"/><path class="cls-70" d="M580.34,71.89s-.08-6.18,1.16-9.09"/><path class="cls-70" d="M559.81,83.73s1.54,4.18,6.94,10.24"/><line class="cls-71" x1="563.04" y1="150.97" x2="564.28" y2="147.87"/><path class="cls-72" d="M581.5,146.45c0,4.91-10,4.78-16,2.66-8.31-3-13.51,1.75-13.51-2.66s5.89-2.84,13.51-6.75C574,135.37,581.5,142,581.5,146.45Z"/><g class="cls-73"><ellipse class="cls-55" cx="570.02" cy="149.61" rx="7.46" ry="3.2"/></g><path class="cls-48" d="M560.57,115.29c0,6-9.43,12.92-15.48,12.92s-9.54-3.43-9.54-9.47,2.77-9.88,8.82-9.88S560.57,109.25,560.57,115.29Z"/><path class="cls-12" d="M582.59,111.75a5.58,5.58,0,0,0-3.52,1.15,1.54,1.54,0,0,1,.45,1.09,1.57,1.57,0,0,1-1.48,1.56c.38,1.51,2.27,2.67,4.55,2.67,2.57,0,4.64-1.45,4.64-3.24S585.16,111.75,582.59,111.75Z"/><path class="cls-74" d="M569.57,111.58c0,6,5.65.17,11.7.17s14,5.37,13.17,1-2.62-7.58-8.66-7.58S569.57,105.53,569.57,111.58Z"/><path class="cls-12" d="M547.55,111.75a5.64,5.64,0,0,0-3.36,1,1.54,1.54,0,0,1,.63,1.22,1.58,1.58,0,0,1-1.57,1.58,1.22,1.22,0,0,1-.26-.06c.37,1.54,2.26,2.71,4.56,2.71,2.57,0,4.64-1.45,4.64-3.24S550.12,111.75,547.55,111.75Z"/><line class="cls-71" x1="554.97" y1="142.02" x2="553.74" y2="140.16"/><line class="cls-71" x1="576.94" y1="139.11" x2="576.94" y2="137.26"/><path class="cls-75" d="M559.48,109.29c0,2-.33,6.73-1.73,8.37-2.35,2.72-10.83,3.61-15.34,5.41-4.86,1.94-4.58-5.56-4.58-10.79s2.4-8.56,7.63-8.56S559.48,104.06,559.48,109.29Z"/><rect class="cls-75" x="528.78" y="101.65" width="71.1" height="6.34" transform="translate(-7.83 59.18) rotate(-5.96)"/><polygon class="cls-76" points="599.79 101.54 529.07 108.92 529.46 110.82 600.18 103.44 599.79 101.54"/><rect class="cls-77" x="528.67" y="99.85" width="71.1" height="4.15" transform="translate(-7.53 59.15) rotate(-5.96)"/><path class="cls-78" d="M515.69,100.3s7.78-1.85,4.36-17.74c4.26,5.58,12,3.1,12,3.1l3.48-7.75,4.84-1.6,1.73-5.86,6.22-2.78c-.12-5.15-2.56-9.13-5.68-10.53,9.52-2.42,22-.93,38,4.27,0,0,6.92-3,4.75-8.88,0,0,9.27.53,7.76,15.62,0,0,13.71-11.41,20.05,6.4,0,0-8.63-2.85-8.63,6.39,0,0,9.39,6.63,1.24,28.55,0,0-9.84-4-10.65-13.26-.7-7.86-6-8.73-6-8.73s4.4,11.17-24.59,16c0,0,3.06-11,.34-12.85.3,0-18.4,25.28-49.19,18.11a12.49,12.49,0,0,0,6.31-7.6A7.27,7.27,0,0,1,515.69,100.3Z"/><path class="cls-79" d="M620.49,301.67c0-1.14-.65-2.06-1-2.06s-.74.92-.74,2.06c0,0,0,.08,0,.12a.7.7,0,0,0-.31-.07c-.73,0-1.31,1.09-1.31,2.44s.58,3.2,1.31,3.2,1.3-1.84,1.3-3.2a4.89,4.89,0,0,0,0-.54A2.91,2.91,0,0,0,620.49,301.67Z"/><path class="cls-80" d="M604.21,245.83c0-3.68.34-6.66-.32-6.66s-4.67,3-4.67,6.66c0,.13,0,.26,0,.39-.17-.15-.34-.28-.51-.24-6.39,1.71-2.92,5.61-2.92,10s1.75,8.28,2.92,8.28,2.12-5.95,2.12-10.33c0-.61,1.37-1.2,1.33-1.76A13.07,13.07,0,0,0,604.21,245.83Z"/><path class="cls-81" d="M601.72,61.65l-7.85-18.22c-.76-11-16.26-28.71-25.35-28.08l-5.39,5.77-6.34-7.74C547.7,14,536.86,38,537.62,49L531,65.48C502.78,69.81,483.73,77.23,484.13,83c.43,6.18,22.94,8.15,54.65,8.22,10.58,0,22.19,1.45,34.35.61,8.57-.6,16.25-3.23,23.09-4.24,7.7-1.13,14.33-.68,19.95-2.18,3.3-.88,4.37-2.45,7-3.41,1.79-.66,5.31-.71,6.79-1.4,8-3.69,11.51-7.7,11.26-11.24a11.3,11.3,0,0,0-1.73-3.86c-1-1.59-2.13-.84-6.15-1.55-2.48-.44-5.71-1.65-9.91-1.86C618,61.83,610.9,61.71,601.72,61.65Z"/><line class="cls-82" x1="531.13" y1="65.77" x2="601.51" y2="60.36"/><path class="cls-82" d="M576.69,62.61s7.06,1.41,9,2.71c2.94,1.94,9,5.42,9,5.42"/><path class="cls-82" d="M573.08,62.61s-7.05,1.41-9,2.71c-2.94,1.94-9,5.42-9,5.42"/><circle class="cls-83" cx="566.77" cy="50.88" r="2.71"/><path class="cls-84" d="M431.41,445.77l7.91-83.57H414.55V415a5.82,5.82,0,1,0,0,11.64v19h-2.93c-1.61-1.35-3.65,1.32-5.92,1.32-5.1,0-7.48,1.5-7.48,6.6s2.38,8.37,7.48,8.37l27.74-2.64c4.48,0,3.76-1,3.76-5.51C437.2,449.79,435.19,446.47,431.41,445.77Z"/><path class="cls-84" d="M483.05,445.77l-2.63-83.57h24.76V415a5.82,5.82,0,1,1,0,11.64l-2.63,19h5.56c1.61-1.35,3.66,1.32,5.92,1.32,5.1,0,7.49,1.5,7.49,6.6s-2.39,8.37-7.49,8.37H481.9a8.18,8.18,0,0,1-8.15-8.15C473.75,449.79,479.27,446.47,483.05,445.77Z"/><polygon class="cls-85" points="409.84 291.05 409.26 318.32 407.83 328.71 406.83 363.9 404.78 385.89 406.05 394.98 403.67 406.7 401.94 439.04 413.79 434.21 422.58 425.43 435.75 429.82 435.75 438.6 443.66 400.84 449.09 389.26 452.37 373.6 455.77 338.48 460.97 334.96 465.29 354.42 469.58 370.1 469.07 390.2 474.23 439.04 515.24 439.04 512.98 415.67 511.34 373.3 509.72 360.85 509.97 350.26 506.46 291.05 409.84 291.05"/><path class="cls-86" d="M524.86,249.82V223.19c2.74-.22,4.86-1.64,4.86-3.39s-2.49-3.42-5.56-3.42a8.35,8.35,0,0,0-2.78.47,8.35,8.35,0,0,0-2.78-.47c-3.07,0-5.56,1.53-5.56,3.42s2.13,3.17,4.86,3.39v26.63c-2.73.21-4.86,1.63-4.86,3.38v0c0,1.74,2.13,3.16,4.86,3.38V279c-2.73.21-4.86,1.64-4.86,3.38s2.49,3.43,5.56,3.43a8.34,8.34,0,0,0,2.78-.48,8.34,8.34,0,0,0,2.78.48c3.07,0,5.56-1.54,5.56-3.43s-2.12-3.17-4.86-3.38V256.62c2.74-.22,4.86-1.64,4.86-3.38v0C529.72,251.45,527.6,250,524.86,249.82Z"/><path class="cls-87" d="M409.23,301.26l-8.6-6c-.27-.21.2-.94,0-.66l-.25.24-.11-.92a3.82,3.82,0,0,0-4.3-3.21l-7,1a3.8,3.8,0,0,0-3.21,4.29l-.84,12.6a.67.67,0,0,0,0,.2,3.79,3.79,0,0,0,2.18,2.79.76.76,0,0,1,.41.64l.48,10.39a1.5,1.5,0,0,0,1.56,1.42l1.26-.06a1.5,1.5,0,0,0,1.42-1.56l-.48-10.21a.74.74,0,0,1,.62-.77h0a.75.75,0,0,1,.84.63l2.7,18.64a1.67,1.67,0,0,0,1.89,1.41l.89-.13a1.67,1.67,0,0,0,1.41-1.89l-2.7-18.64a.73.73,0,0,1,.62-.83l.5-.08a.73.73,0,0,1,.83.62l2.19,15a1.58,1.58,0,0,0,1.8,1.34l1-.15a1.59,1.59,0,0,0,1.35-1.8l-2.32-15.93a.76.76,0,0,1,.24-.65,3.76,3.76,0,0,0,1.09-3.1,1.17,1.17,0,0,0-.05-.2l-.47-1.27a.74.74,0,0,1,1.13-.85l.79.6a1.37,1.37,0,0,0,1.91-.27l1.35-1.78A.64.64,0,0,0,409.23,301.26Z"/><path class="cls-87" d="M504.58,301.26l8.6-6c.28-.21-.2-.94,0-.66l.25.24.12-.92a3.81,3.81,0,0,1,4.29-3.21l7,1a3.79,3.79,0,0,1,3.21,4.29l.85,12.6a1.27,1.27,0,0,1,0,.2,3.79,3.79,0,0,1-2.18,2.79.76.76,0,0,0-.41.64l-.48,8.64c0,.81-.74,3.21-1.56,3.17L523,322.22a1.49,1.49,0,0,1-1.41-1.56l.48-8.46a.76.76,0,0,0-.63-.77h0a.73.73,0,0,0-.83.63l-2.71,18.64a1.67,1.67,0,0,1-1.89,1.41l-.89-.13a1.67,1.67,0,0,1-1.41-1.89l2.7-18.64a.73.73,0,0,0-.62-.83l-.5-.08a.73.73,0,0,0-.83.62l-2.18,15a1.6,1.6,0,0,1-1.81,1.34l-1-.15a1.58,1.58,0,0,1-1.34-1.8l2.31-15.93a.79.79,0,0,0-.23-.65,3.74,3.74,0,0,1-1.1-3.1,1.17,1.17,0,0,1,.05-.2l.47-1.27a.74.74,0,0,0-1.13-.85l-.79.6a1.37,1.37,0,0,1-1.91-.27l-1.35-1.78A.64.64,0,0,1,504.58,301.26Z"/><line class="cls-88" x1="526" y1="265.74" x2="526" y2="223.5"/><line class="cls-89" x1="386.55" y1="256.38" x2="387.71" y2="211.34"/><path class="cls-90" d="M407.87,64.72s-10.51-8.06-1.67-19.84c0,0-2.75-14.08,8.8-14.83,0,0,2.27-13.67,13.83-10.58,0,0,3-7.4,9.92-3.57a6,6,0,0,1,8-3.46s6.47-4.68,11.22-.33c0,0,6.5-6.8,16.2,1.34,0,0,10.15-4.35,13.15,5.24,0,0,10.15,1.67,9.37,9.14,0,0,4.12,0,3.79,5.68,0,0,6.35-.85,6.35,8.92,0,0,6.33,2.71,2.16,13.35,0,0,4.53,16.85-10.07,18.75,0,0-5.91,17-22.3,9.36,0,0-8.91,14.72-24.18,4.46a13.82,13.82,0,0,1-14-6s-13.82,4.68-17.28-6.8C421.13,75.53,406.2,80.77,407.87,64.72Z"/><path class="cls-91" d="M410.1,91.36h1.57a6.77,6.77,0,0,1-6.75-6.75l-1.56-10.79a6.76,6.76,0,0,1,6.74-6.75h0a6.77,6.77,0,0,1,6.75,6.75V84.61A6.77,6.77,0,0,1,410.1,91.36Z"/><path class="cls-91" d="M503,91.36h-1.57c-3.71,0-5.18-3-5.18-6.75V73.82A6.77,6.77,0,0,1,503,67.07h0a6.76,6.76,0,0,1,6.74,6.75l-1.56,10.79C508.17,88.32,506.7,91.36,503,91.36Z"/><path class="cls-91" d="M456.55,142.11c-41.42,0-75,34.89-75,77.93v45.75h150V220C531.54,177,498,142.11,456.55,142.11Z"/><path class="cls-92" d="M456.55,137.62c-24.95,0-47.13,12.25-61.32,31.26,0,0,11.54,3.48,5.72,16.63,0,0-4.68,2.09-4.67,2.07s-1.47,5.74-1.47,5.74c-.54,8.09-13.51,5.28-13.51,5.28A83.4,83.4,0,0,0,379,218.23v73.91H534.12V218.23C534.12,173.71,499.39,137.62,456.55,137.62Z"/><path class="cls-9" d="M485.32,143.37c23.47,13.86,39.32,40.06,39.32,96.47v52.25l9.48.05V218.23C534.12,184.28,513.91,155.25,485.32,143.37Z"/><path class="cls-93" d="M456.55,137.62c-24.95,0-47.13,12.25-61.32,31.26,0,0,11.54,3.48,5.72,16.63,0,0-4.68,2.09-4.67,2.07s-1.47,5.74-1.47,5.74c-.54,8.09-13.51,5.28-13.51,5.28A83.4,83.4,0,0,0,379,218.23v73.91H534.12V218.23C534.12,173.71,499.39,137.62,456.55,137.62Z"/><path class="cls-47" d="M474.09,117.49H439v29.23a17.54,17.54,0,0,0,17.54,17.54c.52,0,6.33,6.38,6.33,6.38l1.28-7.55,5.95,1.39-.88-5.67a17.48,17.48,0,0,0,4.86-12.09Z"/><path class="cls-89" d="M474.09,117.49H439v29.23a17.54,17.54,0,0,0,17.54,17.54c.52,0,6.33,6.38,6.33,6.38l1.28-7.55,5.95,1.39-.88-5.67a17.48,17.48,0,0,0,4.86-12.09Z"/><ellipse class="cls-48" cx="456.32" cy="137.4" rx="17.76" ry="8.21"/><path class="cls-84" d="M406,44.73s4.7,24.16,4.7,38,2.79,21.1,7.6,29.74l4.1-2.56,1.27,5.73,3.79,2.71-2.29,3.88c9.19,10.44,17.27,16.93,31.43,16.93,15.62,0,24.88-7.9,34.16-20.31L487,112.77l6.56,1.84c5.57-9.07,8.84-12.5,8.84-31.87a177.26,177.26,0,0,1,4.7-38Z"/><line class="cls-89" x1="406.96" y1="292.14" x2="405.4" y2="205.08"/><line class="cls-89" x1="506.13" y1="292.14" x2="507.7" y2="205.08"/><path class="cls-48" d="M462.25,81.16c0,7.65,11.95,16.36,19.6,16.36s12.09-4.34,12.09-12S490.43,73,482.77,73,462.25,73.5,462.25,81.16Z"/><path class="cls-94" d="M487.73,183.87c0-5.55-3.11-8.49-7-8.49s-6.95,4.5-6.95,10.06,3.11,8.5,6.95,8.5l.16,0c0,.17,0,.33,0,.49a3.91,3.91,0,0,0,.76,7.74,4.36,4.36,0,0,0,.52-.05c1.24,2.87,3.26,4.75,5.54,4.75,3.79,0,6.86-5.14,6.86-11.49S491.52,183.87,487.73,183.87Z"/><path class="cls-95" d="M462.25,76.46c0,7.65,11.95,16.36,19.6,16.36s12.09-4.34,12.09-12-3.51-12.51-11.17-12.51S462.25,68.8,462.25,76.46Z"/><path class="cls-96" d="M517.52,62.17S507.66,59.83,512,39.7c-5.39,7.07-15.18,3.93-15.18,3.93l-4.4-9.81-6.13-2-2.19-7.42-7.88-3.53c.16-6.52,3.24-11.56,7.19-13.33-12.05-3.07-27.84-1.18-48.18,5.4,0,0-8.76-3.82-6-11.24,0,0-11.75.67-9.84,19.79,0,0-17.35-14.46-25.38,8.1,0,0,10.93-3.61,10.93,8.09,0,0-11.9,8.4-1.57,36.17,0,0,12.46-5.1,13.49-16.8.88-10,7.65-11.05,7.65-11.05s-5.57,14.14,31.14,20.26c0,0-3.86-14-.42-16.27-.38,0,23.3,32,62.3,22.94a15.83,15.83,0,0,1-8-9.62A9.2,9.2,0,0,0,517.52,62.17Z"/><path class="cls-12" d="M463.6,100.73c0,5.68-3.16.49-7.05.49s-7.06,5.19-7.06-.49,3.16-10.27,7.06-10.27S463.6,95.06,463.6,100.73Z"/><path class="cls-97" d="M422.82,30.92s1-4.31-3.44-9.46"/><path class="cls-97" d="M475.88,26.19s-.1-7.83,1.47-11.51"/><path class="cls-97" d="M449.88,41.18s1.95,5.3,8.8,13"/><line class="cls-98" x1="453.98" y1="126.35" x2="455.54" y2="122.43"/><path class="cls-99" d="M477.35,120.62c0,6.22-12.71,6.06-20.24,3.37-10.53-3.75-17.1,2.22-17.1-3.37s7.45-3.6,17.1-8.55C467.79,106.59,477.35,115,477.35,120.62Z"/><g class="cls-100"><ellipse class="cls-55" cx="462.81" cy="124.63" rx="9.44" ry="4.05"/></g><path class="cls-48" d="M450.85,81.16c0,7.65-12,16.36-19.61,16.36s-12.08-4.34-12.08-12S422.67,73,430.33,73,450.85,73.5,450.85,81.16Z"/><path class="cls-95" d="M450.85,76.46c0,7.65-12,16.36-19.61,16.36s-12.08-4.34-12.08-12,3.51-12.51,11.17-12.51S450.85,68.8,450.85,76.46Z"/><path class="cls-12" d="M478.74,76.67a7.06,7.06,0,0,0-4.46,1.46A2,2,0,0,1,473,81.49c.49,1.92,2.88,3.37,5.77,3.37,3.25,0,5.88-1.83,5.88-4.09S482,76.67,478.74,76.67Z"/><path class="cls-101" d="M462.25,76.46c0,7.65,7.15.21,14.81.21s17.7,6.8,16.68,1.23-3.31-9.59-11-9.59S462.25,68.8,462.25,76.46Z"/><path class="cls-12" d="M434.36,76.67A7.26,7.26,0,0,0,430.09,78a2,2,0,0,1,.8,1.56,2,2,0,0,1-2,2,1.83,1.83,0,0,1-.32-.07c.46,1.94,2.86,3.42,5.78,3.42,3.24,0,5.88-1.83,5.88-4.09S437.6,76.67,434.36,76.67Z"/><path class="cls-101" d="M450.85,76.46c0,7.65-9.58-1.21-20.68.21-7.59,1-11,8.85-11,4.15,0-7.65,3.51-12.51,11.17-12.51S450.85,68.8,450.85,76.46Z"/><line class="cls-98" x1="443.76" y1="115.01" x2="442.19" y2="112.66"/><line class="cls-98" x1="471.57" y1="111.33" x2="471.57" y2="108.98"/><path class="cls-102" d="M472.05,214.29c0-1.94,1.57-5.08,3.5-5.08s3.51,3.14,3.51,5.08a3.51,3.51,0,1,1-7,0Z"/><path class="cls-103" d="M508.76,339.05c0-2.34-1.33-4.24-2.16-4.24s-1.52,1.9-1.52,4.24c0,.08,0,.17,0,.25a1.46,1.46,0,0,0-.64-.15c-1.49,0-2.69,2.26-2.69,5s1.2,6.58,2.69,6.58,2.69-3.79,2.69-6.58a10,10,0,0,0-.07-1.11A6,6,0,0,0,508.76,339.05Z"/><path class="cls-104" d="M526.74,317.22c0-1.44-.82-2.61-1.33-2.61s-.93,1.17-.93,2.61v.15a.93.93,0,0,0-.4-.09c-.91,0-1.65,1.39-1.65,3.1s.74,4,1.65,4,1.66-2.33,1.66-4a5.09,5.09,0,0,0,0-.69A3.63,3.63,0,0,0,526.74,317.22Z"/><g id="Caveman_Coder" data-name="Caveman Coder"><ellipse class="cls-105" cx="287.17" cy="200.35" rx="19.38" ry="22.58"/><path class="cls-105" d="M271.32,212a5.16,5.16,0,0,1-4.17-5.95l1.63-9.19a5.14,5.14,0,0,1,6-4.16h0a5.15,5.15,0,0,1,4.16,6l-1.42,10.09"/><path class="cls-106" d="M299.62,216.86l-28.3-4.9s5.33,30.5-10.25,33.79c-21.59,4.57-40.16-56.8-40.63-56.6s3,73.21,3,73.21,13.52,31.52,39.41,28.24a24.4,24.4,0,0,0,3.26-.63,8.74,8.74,0,0,0,14.6-9.53C298.33,260.08,299.62,216.86,299.62,216.86Z"/><g class="cls-9"><path d="M299.62,216.86l-10.92-1.44c-1.26,81.49-50.88,65.11-57,60.32,6.58,8.13,17,16.64,31.08,14.86a24.4,24.4,0,0,0,3.26-.63,8.74,8.74,0,0,0,14.6-9.53C298.33,260.08,299.62,216.86,299.62,216.86Z"/></g><path class="cls-107" d="M299.62,216.86l-28.3-4.9s5.33,30.5-10.25,33.79c-21.59,4.57-40.16-56.8-40.63-56.6s3,73.21,3,73.21,13.52,31.52,39.41,28.24a24.4,24.4,0,0,0,3.26-.63,8.74,8.74,0,0,0,14.6-9.53C298.33,260.08,299.62,216.86,299.62,216.86Z"/><rect class="cls-105" x="280.04" y="171.94" width="9.62" height="18.36" rx="1.41" ry="1.41" transform="translate(49.59 -60.95) rotate(13.37)"/><rect class="cls-105" x="289.4" y="174.17" width="9.62" height="18.36" rx="1.41" ry="1.41" transform="translate(50.36 -63.06) rotate(13.37)"/><rect class="cls-105" x="298.76" y="176.39" width="9.62" height="18.36" rx="1.41" ry="1.41" transform="translate(51.13 -65.16) rotate(13.37)"/><ellipse class="cls-108" cx="287.17" cy="200.35" rx="19.38" ry="22.58"/><path class="cls-109" d="M330.58,204.47c13.14,1.8,14.51-2.49,13.11-5.07-2.63-4.84-63.78-19.91-126.23-34.17-3.73-.85-14.86-1.69-18.59-2.53-19-4.31-36.74-6.88-52.74-10.6-5-1.17-10.19-3.89-14.76-5C104.3,140.81,85.7,136.37,83,135.83c-9.72-1.94-19.13-2.36-22.36,3.21,0,0-4.2-.46-12.87-1.6-2.43-.31-12.74-2.19-15.33-2.4-7.52-.61-10.21,0-15.42,1.71-12,4-21.44,20.66-12.87,29.85,2.47,2.64,5,3.72,10.87,5.4,2.47.71,10.1,1.86,12.62,2.41,8.94,1.94,14.79,3.39,14.79,3.39S38,183.46,43.86,186c1.67.72,25.32,2.86,58.46,5.63,5.48.45,11.58,2.53,17.51,3,32.18,2.64,70,4.08,105.13,6.93,5.54.45,11.37,2.49,16.73,2.91,36.61,2.89,68,5.07,83,5.49C331.47,210.15,329.84,204.36,330.58,204.47Z"/><g class="cls-9"><path d="M343.69,199.4c-2.63-4.84-63.78-19.91-126.23-34.17-3.73-.85-14.86-1.69-18.59-2.53-19-4.31-36.74-6.88-52.74-10.6-5-1.17-10.19-3.89-14.76-5C104.3,140.81,85.7,136.37,83,135.83c-9.09-1.81-17.84-2.23-21.59,2.27,8.52,2,21.91,7.79,38.5,11.67,4.57,1.07,9.75,1.16,14.77,2.33,16,3.72,33.72,6.29,52.74,10.6,3.72.84,14.85,1.68,18.58,2.53,62.45,14.26,111.64,43.32,111.64,43.32,11.41.73,20.75,1.23,27.11,1.41,6.75.19,5.12-5.6,5.86-5.5C343.72,206.27,345.09,202,343.69,199.4Z"/></g><path class="cls-110" d="M330.58,204.47c13.14,1.8,14.51-2.49,13.11-5.07-2.63-4.84-63.78-19.91-126.23-34.17-3.73-.85-14.86-1.69-18.59-2.53-19-4.31-36.74-6.88-52.74-10.6-5-1.17-10.19-3.89-14.76-5C104.3,140.81,85.7,136.37,83,135.83c-9.72-1.94-19.13-2.36-22.36,3.21,0,0-4.2-.46-12.87-1.6-2.43-.31-12.74-2.19-15.33-2.4-7.52-.61-10.21,0-15.42,1.71-12,4-21.44,20.66-12.87,29.85,2.47,2.64,5,3.72,10.87,5.4,2.47.71,10.1,1.86,12.62,2.41,8.94,1.94,14.79,3.39,14.79,3.39S38,183.46,43.86,186c1.67.72,25.32,2.86,58.46,5.63,5.48.45,11.58,2.53,17.51,3,32.18,2.64,70,4.08,105.13,6.93,5.54.45,11.37,2.49,16.73,2.91,36.61,2.89,68,5.07,83,5.49C331.47,210.15,329.84,204.36,330.58,204.47Z"/><path class="cls-111" d="M66.26,179.43c-23.86-1.63-38.65-5-38.65-5"/><line class="cls-111" x1="78.88" y1="143.15" x2="47.74" y2="137.44"/><path class="cls-112" d="M25.78,157S2.87,153.55,4.58,146.7"/><path class="cls-112" d="M43.59,149.33s-34.75-4.16-32.52-9.45"/><path class="cls-113" d="M310.56,199.51s20,5,27.46,5.32"/><path class="cls-114" d="M96.62,193.42a35.87,35.87,0,0,0-10,1.38,33.08,33.08,0,0,0-6,2.38,31.28,31.28,0,0,0-7.76,5.67,30.9,30.9,0,0,0-4.12,5.08A33.79,33.79,0,0,0,65.64,214a38.09,38.09,0,0,0-2,7,44.45,44.45,0,0,0-.69,7.91v67.51a9,9,0,0,0,0,17.24v67.37c-6.46,3-4.15,14.29-4.15,14.29a7.87,7.87,0,0,0,7.84,7.84,7.75,7.75,0,0,0,4.66-1.58,7.7,7.7,0,0,0,10.76-1.4A7.8,7.8,0,0,0,96,395.35s1.34-11.3-4.77-14.63V246.23a41.45,41.45,0,0,0,5.39.37A39.26,39.26,0,0,0,118,240.53a30.41,30.41,0,0,0,6.5-5.65A22.75,22.75,0,0,0,130.27,220C130.27,205.33,142.26,193.42,96.62,193.42Z"/><line class="cls-111" x1="69.79" y1="392.11" x2="71.31" y2="401.61"/><line class="cls-111" x1="80.07" y1="387.95" x2="82.07" y2="400.21"/><path class="cls-111" d="M63,330.91s8.15-5.82,14.46,0"/><path class="cls-111" d="M63,339.82s8.15-5.82,14.46,0"/><path class="cls-111" d="M63,348.72s8.15-5.82,14.46,0"/><path class="cls-111" d="M287.44,237.49s7.49-3.62,10,3.36"/><path class="cls-111" d="M284.59,245.92s7.49-3.61,10,3.37"/><path class="cls-111" d="M281.74,254.36s7.48-3.61,10,3.37"/><path class="cls-106" d="M250.82,274.28c.63-40.44-14.17-77-39.86-97.2L114,178.73c-22.8,19.39-36,52.62-36.59,90.54-.37,23.85,4.33,45.27,13.38,62.56l-5.7,42.57,16.23-4.29,9.42,14.14,19.12-7.17L154.28,388l21-9.63,22.33,8,21.09-15.74L242.27,375l-5.53-42.85C245.5,316.2,250.48,296.52,250.82,274.28Z"/><path class="cls-110" d="M250.82,274.28c.63-40.44-14.17-77-39.86-97.2L114,178.73c-22.8,19.39-36,52.62-36.59,90.54-.37,23.85,4.33,45.27,13.38,62.56l-5.7,42.57,16.23-4.29,9.42,14.14,19.12-7.17L154.28,388l21-9.63,22.33,8,21.09-15.74L242.27,375l-5.53-42.85C245.5,316.2,250.48,296.52,250.82,274.28Z"/><path class="cls-106" d="M179.08,439.54V344.39h28.2v60.07a6.63,6.63,0,1,1,0,13.25v21.65h3.34a10.5,10.5,0,1,1,6.73,18.55H180.77a9.26,9.26,0,0,1-1.69-18.37Z"/><g class="cls-9"><path d="M199.41,441.91h7.87v-24.2a6.63,6.63,0,1,0,0-13.25V344.39h-7.87Z"/><path d="M217.35,436.86a10.31,10.31,0,0,0-3.89.79,10.52,10.52,0,0,1-4,20.26h7.87a10.53,10.53,0,1,0,0-21.05Z"/></g><path class="cls-115" d="M149.18,439.54V344.39H121v60.07a6.63,6.63,0,1,0,0,13.25v21.65h-3.34a10.5,10.5,0,1,0-6.74,18.55H147.5a9.26,9.26,0,0,0,1.68-18.37Z"/><path class="cls-116" d="M179.08,439.54V344.39h28.2v60.07a6.63,6.63,0,1,1,0,13.25v21.65h3.34a10.5,10.5,0,1,1,6.73,18.55H180.77a9.26,9.26,0,0,1-1.69-18.37Z"/><path class="cls-117" d="M250.82,274.28c.63-40.44-14.17-77-39.86-97.2,0,0-29.55,125.54-120.13,154.75l-5.7,42.57,16.23-4.29,9.42,14.14,19.12-7.17L154.28,388l21-9.63,22.33,8,21.09-15.74L242.27,375l-5.53-42.85C245.5,316.2,250.48,296.52,250.82,274.28Z"/><path class="cls-9" d="M250.82,274.28c.63-40.44-14.17-77-39.86-97.2,0,0-.19.82-.58,2.31,16.21,20.9,25.19,50.14,24.7,81.77-.35,22.24-5.32,41.92-14.08,57.91l5.53,42.85-20.91-4.43L192.4,373.23l-25-8L149,374.83,114.15,364l-12.79,6.15,9.42,14.14,19.12-7.17L154.28,388l21-9.63,22.33,8,21.09-15.74L242.27,375l-5.53-42.85C245.5,316.2,250.48,296.52,250.82,274.28Z"/><line class="cls-112" x1="112.08" y1="364.26" x2="101.36" y2="370.11"/><line class="cls-112" x1="124.76" y1="370.11" x2="129.9" y2="377.08"/><line class="cls-112" x1="181.41" y1="370.11" x2="175.32" y2="378.32"/><line class="cls-112" x1="212.33" y1="364.26" x2="218.74" y2="370.61"/><path class="cls-12" d="M228.36,236.22c.8,3.52-2.86,7.34-8.18,8.55s-10.28-.66-11.07-4.18,3.31-5.36,8.63-6.56S227.57,232.71,228.36,236.22Z"/><path class="cls-12" d="M191.54,294.5c-1.48,2.79-6.13,3.22-10.4,1s-4.2-5.13-2.72-7.92,3.82-4.44,8.08-2.18S193,291.71,191.54,294.5Z"/><path class="cls-12" d="M216,337.23c-.59,2.65-2.06,4.58-6.45,3.6s-7.46-3.92-6.87-6.57,4.63-4,9-3S216.54,334.58,216,337.23Z"/><path class="cls-12" d="M155.49,322.63c.95,2.45,1.15,4.65-2.56,6.09s-7.5.62-8.45-1.83,1.3-5.6,5-7S154.55,320.18,155.49,322.63Z"/><path class="cls-12" d="M176,356c0,3.1-4.15,5.62-9.27,5.62S160,359.12,160,356s1.53-5.61,6.66-5.61S176,352.92,176,356Z"/><path class="cls-12" d="M219.58,296.78a6.22,6.22,0,0,1-4.11-7.78c1-3.28,4.47-7.49,7.75-6.48s5.15,6.86,4.13,10.14A6.21,6.21,0,0,1,219.58,296.78Z"/><path class="cls-12" d="M104.59,352.25c-1.41-1.54,1.19-6.07,3.47-8.16s5.28-2.53,6.7-1,.71,4.5-1.57,6.59S106,353.8,104.59,352.25Z"/><path class="cls-111" d="M250.82,274.28c.63-40.44-14.17-77-39.86-97.2,0,0-29.55,125.54-120.13,154.75l-5.7,42.57,16.23-4.29,9.42,14.14,19.12-7.17L154.28,388l21-9.63,22.33,8,21.09-15.74L242.27,375l-5.53-42.85C245.5,316.2,250.48,296.52,250.82,274.28Z"/><line class="cls-118" x1="152.25" y1="241.03" x2="152.25" y2="245.75"/><line class="cls-118" x1="175.39" y1="241.03" x2="175.39" y2="245.75"/><line class="cls-118" x1="163.82" y1="250.32" x2="163.82" y2="255.04"/><line class="cls-118" x1="140.68" y1="250.32" x2="140.68" y2="255.04"/><line class="cls-118" x1="150.17" y1="259.71" x2="150.17" y2="264.44"/><line class="cls-118" x1="123.36" y1="264.44" x2="123.36" y2="269.16"/><line class="cls-118" x1="112.82" y1="244.78" x2="112.82" y2="249.5"/><line class="cls-118" x1="104.19" y1="262.07" x2="104.19" y2="266.8"/><line class="cls-118" x1="96.62" y1="241.36" x2="96.62" y2="246.08"/><line class="cls-118" x1="107.1" y1="224.3" x2="107.1" y2="229.02"/><line class="cls-118" x1="127.33" y1="236.84" x2="127.33" y2="241.56"/><line class="cls-118" x1="131.82" y1="419.56" x2="131.82" y2="424.29"/><line class="cls-118" x1="137.87" y1="397.12" x2="137.87" y2="401.84"/><line class="cls-118" x1="196.45" y1="424.81" x2="196.45" y2="429.53"/><line class="cls-118" x1="190.41" y1="402.37" x2="190.41" y2="407.09"/><ellipse class="cls-119" cx="98.28" cy="106.79" rx="10.95" ry="16.06"/><ellipse class="cls-120" cx="100.9" cy="107.75" rx="5.03" ry="6.14"/><ellipse class="cls-106" cx="229.98" cy="106.79" rx="10.95" ry="16.06"/><ellipse class="cls-120" cx="227.36" cy="107.75" rx="5.03" ry="6.14"/><ellipse class="cls-9" cx="229.98" cy="106.79" rx="10.95" ry="16.06"/><ellipse class="cls-110" cx="229.98" cy="106.79" rx="10.95" ry="16.06"/><path class="cls-116" d="M235,162.1a70.89,70.89,0,1,1-141.78,0c0-39.15,18-107.95,70.89-107.95S235,123,235,162.1Z"/><path class="cls-110" d="M169.08,35.61s-10.28,2-6.21,11.39-3.69,11.39-3.69,11.39"/><path class="cls-110" d="M179.19,41s-9.4,3.57-5.93,10.64,0,11.77,0,11.77"/><path class="cls-110" d="M147.76,37.93s7.3,3.06,5.85,10C151,60.54,157,60.7,157,60.7"/><path class="cls-106" d="M235,162.1a70.89,70.89,0,1,1-141.78,0c0-39.15,18-107.95,70.89-107.95S235,123,235,162.1Z"/><path class="cls-121" d="M172,159.17c-28.57,0-55.29-3.4-78.22-9.29-.36,4.29-.54,8.4-.54,12.22a70.89,70.89,0,1,0,141.78,0c0-2.77-.1-5.71-.29-8.74A331.25,331.25,0,0,1,172,159.17Z"/><line class="cls-112" x1="152.88" y1="214.54" x2="152.88" y2="219.17"/><line class="cls-122" x1="133.28" y1="192.31" x2="197.19" y2="202.36"/><path class="cls-9" d="M180.23,56.53c28.52,20.63,39.05,67.8,39.05,97.7a70.9,70.9,0,0,1-94.46,66.86,70.89,70.89,0,0,0,110.2-59C235,127.23,220.71,68.88,180.23,56.53Z"/><line class="cls-112" x1="174.69" y1="214.54" x2="174.69" y2="219.17"/><path class="cls-123" d="M188.59,201l-15.51-2.43V193c0-10.36,15.51-10.58,15.51,0Z"/><line class="cls-118" x1="111.29" y1="165.55" x2="111.29" y2="170.28"/><line class="cls-118" x1="133.28" y1="174.72" x2="133.28" y2="179.45"/><line class="cls-118" x1="217.61" y1="165.55" x2="217.61" y2="170.28"/><line class="cls-118" x1="116.94" y1="189.15" x2="116.94" y2="193.87"/><line class="cls-118" x1="193.45" y1="170.28" x2="193.45" y2="175"/><line class="cls-118" x1="210.46" y1="194.97" x2="210.46" y2="199.69"/><line class="cls-118" x1="161.48" y1="174.72" x2="161.48" y2="179.45"/><line class="cls-118" x1="131.35" y1="207.51" x2="131.35" y2="212.23"/><path class="cls-124" d="M172,159.17c-28.57,0-55.29-3.4-78.22-9.29-.36,4.29-.54,8.4-.54,12.22a70.89,70.89,0,1,0,141.78,0c0-2.77-.1-5.71-.29-8.74A331.25,331.25,0,0,1,172,159.17Z"/><line class="cls-118" x1="190.91" y1="212.86" x2="190.91" y2="217.58"/><path class="cls-125" d="M190.91,157.91c-.06,7.79-12.28,9.66-27.33,9.53s-27.24-2.21-27.17-10,12.32-14,27.37-13.87S191,150.12,190.91,157.91Z"/><ellipse class="cls-12" cx="152.63" cy="163.48" rx="3.82" ry="5.89" transform="translate(-17.15 309.07) rotate(-87.58)"/><ellipse class="cls-12" cx="174.69" cy="163.48" rx="3.82" ry="5.89" transform="translate(3.98 331.12) rotate(-87.58)"/><path class="cls-124" d="M235,162.1a70.89,70.89,0,1,1-141.78,0c0-39.15,18-107.95,70.89-107.95S235,123,235,162.1Z"/><ellipse class="cls-123" cx="144.76" cy="115.64" rx="18.73" ry="12.38"/><ellipse class="cls-123" cx="182.86" cy="115.64" rx="18.73" ry="12.38"/><ellipse class="cls-12" cx="182.86" cy="115.64" rx="8.17" ry="6.45"/><circle class="cls-14" cx="190.42" cy="111.79" r="3.92"/><ellipse class="cls-12" cx="144.76" cy="115.64" rx="8.17" ry="6.45"/><circle class="cls-14" cx="137.2" cy="111.79" r="3.92"/><path class="cls-12" d="M205.7,107.8l-42.21,5.25-40.92-5.25a5.68,5.68,0,0,1-5.67-5.67h0a5.69,5.69,0,0,1,5.67-5.67H205.7a5.69,5.69,0,0,1,5.66,5.67h0A5.68,5.68,0,0,1,205.7,107.8Z"/><line class="cls-112" x1="139.18" y1="87.01" x2="189.1" y2="87.01"/><line class="cls-112" x1="151.77" y1="75.7" x2="176.5" y2="75.7"/><rect class="cls-108" x="280.04" y="171.94" width="9.62" height="18.36" rx="1.41" ry="1.41" transform="translate(49.59 -60.95) rotate(13.37)"/><path class="cls-108" d="M271.32,212a5.16,5.16,0,0,1-4.17-5.95l1.63-9.19a5.14,5.14,0,0,1,6-4.16h0a5.15,5.15,0,0,1,4.16,6l-1.42,10.09"/><rect class="cls-108" x="289.4" y="174.17" width="9.62" height="18.36" rx="1.41" ry="1.41" transform="translate(50.36 -63.06) rotate(13.37)"/><rect class="cls-108" x="298.76" y="176.39" width="9.62" height="18.36" rx="1.41" ry="1.41" transform="translate(51.13 -65.16) rotate(13.37)"/></g></g></g></g></svg>