<svg xmlns="http://www.w3.org/2000/svg" xmlns:xlink="http://www.w3.org/1999/xlink" viewBox="0 0 498.67 273.67"><defs><style>.cls-1{fill:url(#New_Gradient_Swatch_11);}.cls-2,.cls-3{fill:#fff;opacity:0.18;}.cls-3{fill-rule:evenodd;}</style><linearGradient id="New_Gradient_Swatch_11" x1="249.33" y1="273.67" x2="249.33" gradientUnits="userSpaceOnUse"><stop offset="0" stop-color="#afdab6"/><stop offset="1" stop-color="#00b3ba"/></linearGradient></defs><title>monstersbg</title><g id="Layer_2" data-name="Layer 2"><g id="Layer_1-2" data-name="Layer 1"><rect id="Background" class="cls-1" width="498.67" height="273.67"/><path class="cls-2" d="M251.4,236.76l-22.33-72.45-9.61,42.15-11.64-32.64-42.65,55.63,20.21-76.68-32.2,11.47,21.27-33.39-32.94-21,42.68-11.61-34.56-55,55.86,42.83-1.34-64.52,33.24,52.9,10-44L259.52,85l63.66-66.34-21,55.76,32.4-.68L313.23,96l43.56,31.28-53.24,11.8,45.15,85.83-55.2-42.32.89,43.17-22.47-32.25ZM228.84,158l22.89,74.27,19.91-42,21,30.13-.85-41.16,52,39.84L301.09,138l51.75-11.47-42.1-30.24,19.93-20.77-30.86.64,19-50.54L258.58,88.36,247.41,37.94l-9.3,40.76L205.92,27.47l1.28,62L155.89,50.13l30.87,49.13-41.23,11.22,31.19,19.87-19.58,30.74,30.62-10.92L168.84,222l39.51-51.54,10.76,30.17Z"/><polygon class="cls-3" points="326.11 198.13 292.31 133.89 338.74 123.6 301.81 97.08 316.61 81.65 291.26 82.17 303.24 50.31 255.23 100.36 247.33 64.72 240.69 93.83 212.23 48.56 213.33 101.57 178.26 74.69 195.96 102.85 159.89 112.66 184.84 128.55 171.29 149.8 196.28 140.9 181.98 195.16 210.26 158.27 217.87 179.61 227.99 135.26 252.9 216.08 270.67 178.6 286.37 201.11 285.66 167.12 326.11 198.13 326.11 198.13"/></g></g></svg>