<?xml version="1.0" encoding="utf-8"?>
<!-- Generator: Adobe Illustrator 22.1.0, SVG Export Plug-In . SVG Version: 6.00 Build 0)  -->
<svg version="1.1" id="Layer_1" xmlns="http://www.w3.org/2000/svg" xmlns:xlink="http://www.w3.org/1999/xlink" x="0px" y="0px"
	 viewBox="0 0 952 463.6" style="enable-background:new 0 0 952 463.6;" xml:space="preserve">
<style type="text/css">
	.st0{fill:#77569B;stroke:#333132;stroke-width:0.3;stroke-linecap:round;stroke-linejoin:round;}
	.st1{fill:#C594BD;stroke:#333132;stroke-width:0.3;stroke-linecap:round;stroke-linejoin:round;}
	.st2{fill:#DC9FC3;}
	.st3{fill:none;stroke:#333132;stroke-width:0.23;stroke-linecap:round;stroke-linejoin:round;}
	.st4{fill:#77569B;}
	.st5{fill:#AB599A;stroke:#333132;stroke-width:0.23;stroke-linecap:round;stroke-linejoin:round;}
	.st6{opacity:0.1;enable-background:new    ;}
	.st7{fill:none;stroke:#333132;stroke-width:0.3;stroke-linecap:round;stroke-linejoin:round;}
	.st8{fill:#60348A;}
	.st9{fill:#333132;}
	.st10{fill:#FFFFFF;stroke:#333132;stroke-width:0.23;stroke-linecap:round;stroke-linejoin:round;}
	.st11{fill:#FFFFFF;}
	.st12{fill:#EFB153;stroke:#333132;stroke-width:0.23;stroke-linecap:round;stroke-linejoin:round;}
	.st13{opacity:0.1;}
	.st14{fill:none;stroke:#333132;stroke-width:0.23;stroke-linecap:round;stroke-miterlimit:10;}
	.st15{fill:none;stroke:#333132;stroke-width:0.23;stroke-miterlimit:10;}
	.st16{fill:#483C62;stroke:#333132;stroke-width:0.23;stroke-linecap:round;stroke-linejoin:round;}
	.st17{fill:#333132;stroke:#333132;stroke-width:4.09;stroke-linejoin:round;}
	.st18{fill:#6C5B4B;stroke:#333132;stroke-width:4.09;stroke-linecap:round;stroke-linejoin:round;}
	.st19{fill:#8BC540;}
	.st20{fill:#FFFFFF;stroke:#333132;stroke-width:3.07;stroke-miterlimit:10;}
	.st21{fill:none;stroke:#333132;stroke-width:4.09;stroke-linejoin:round;}
	.st22{fill:none;stroke:#333132;stroke-width:4.09;stroke-miterlimit:10;}
	.st23{fill:#CCCBCB;stroke:#333132;stroke-width:4.09;stroke-miterlimit:10;}
	.st24{fill:none;stroke:#333132;stroke-width:3.07;stroke-linecap:round;stroke-linejoin:round;}
	.st25{fill:none;stroke:#333132;stroke-width:3.07;stroke-linecap:round;stroke-miterlimit:10;}
	.st26{fill:#88583B;}
	.st27{fill:none;stroke:#333132;stroke-width:4.09;stroke-linecap:round;stroke-linejoin:round;}
	.st28{fill:#333132;stroke:#333132;stroke-width:3.07;stroke-linecap:round;stroke-linejoin:round;}
	.st29{fill:#CCCBCB;stroke:#333132;stroke-width:4.09;stroke-linejoin:round;}
	.st30{fill:#6FCBDC;}
	.st31{fill:#FFFFFF;stroke:#333132;stroke-width:4.09;stroke-miterlimit:10;}
	.st32{fill:#FFFFFF;stroke:#333132;stroke-width:3.07;stroke-linejoin:round;}
	.st33{fill:#A86E51;stroke:#333132;stroke-width:3.07;stroke-linecap:round;stroke-linejoin:round;}
	.st34{fill:none;stroke:#333132;stroke-width:3.07;stroke-linejoin:round;}
	.st35{opacity:0.75;enable-background:new    ;}
	.st36{fill:#A88C82;stroke:#333132;stroke-width:2.92;stroke-linecap:round;stroke-linejoin:round;}
	.st37{fill:#062447;stroke:#333132;stroke-width:2.92;stroke-linecap:round;stroke-linejoin:round;}
	.st38{fill:#FFFFFF;stroke:#333132;stroke-width:0.58;stroke-linejoin:round;}
	.st39{fill:#A88C82;stroke:#333132;stroke-width:1.54;stroke-linecap:round;stroke-linejoin:round;}
	.st40{fill:#CABF9E;stroke:#333132;stroke-width:1.54;stroke-linecap:round;stroke-linejoin:round;}
	.st41{fill:none;stroke:#333333;stroke-width:2.92;stroke-linecap:round;stroke-linejoin:round;}
	.st42{fill:none;stroke:#333132;stroke-width:2.92;stroke-linecap:round;stroke-linejoin:round;}
	.st43{fill:#EF77AE;stroke:#333132;stroke-width:2.92;stroke-linecap:round;stroke-linejoin:round;}
	.st44{fill:#A88C82;stroke:#333132;stroke-width:2.92;stroke-miterlimit:10;}
	.st45{fill:#CABF9E;stroke:#333132;stroke-width:2.92;stroke-miterlimit:10;}
	.st46{fill:#1EB473;}
	.st47{fill:none;stroke:#333132;stroke-width:2.92;stroke-linejoin:round;}
	.st48{fill:#A88C82;}
	.st49{fill:#CEE4AD;stroke:#333132;stroke-width:2.19;stroke-miterlimit:10;}
	.st50{fill:#373737;stroke:#333132;stroke-width:2.92;stroke-linecap:round;stroke-linejoin:round;}
	.st51{fill:none;stroke:#333132;stroke-width:2.92;stroke-linecap:round;stroke-miterlimit:10;}
	.st52{fill:none;stroke:#333132;stroke-width:2.19;stroke-linecap:round;stroke-miterlimit:10;}
	.st53{fill:#333132;stroke:#333132;stroke-width:4.38;stroke-miterlimit:10;}
	.st54{clip-path:url(#SVGID_2_);}
	.st55{fill:#F57981;}
	.st56{fill:#A69A8B;stroke:#333132;stroke-width:2.19;stroke-miterlimit:10;}
	.st57{fill:#F57981;stroke:#333132;stroke-width:1.34;stroke-linecap:round;stroke-linejoin:round;}
	.st58{fill:#F57981;stroke:#333132;stroke-width:0.82;stroke-linecap:round;stroke-linejoin:round;}
	.st59{fill:#DDAC8A;stroke:#333132;stroke-width:2.63;stroke-linecap:round;stroke-linejoin:round;}
	.st60{fill:#11273D;stroke:#333132;stroke-width:2.63;stroke-linecap:round;stroke-linejoin:round;}
	.st61{fill:#FFFFFF;stroke:#333132;stroke-width:0.52;stroke-linejoin:round;}
	.st62{fill:#CABF9E;stroke:#333132;stroke-width:1.39;stroke-linecap:round;stroke-linejoin:round;}
	.st63{fill:#DDAC8A;stroke:#333132;stroke-width:1.39;stroke-linecap:round;stroke-linejoin:round;}
	.st64{fill:none;stroke:#333333;stroke-width:2.63;stroke-linecap:round;stroke-linejoin:round;}
	.st65{fill:none;stroke:#333132;stroke-width:2.63;stroke-linecap:round;stroke-linejoin:round;}
	.st66{fill:#EF77AE;stroke:#333132;stroke-width:2.63;stroke-linecap:round;stroke-linejoin:round;}
	.st67{fill:#DDAC8A;stroke:#333132;stroke-width:2.63;stroke-miterlimit:10;}
	.st68{fill:#F2EAB3;}
	.st69{fill:none;stroke:#333132;stroke-width:2.63;stroke-linejoin:round;}
	.st70{fill:#DDAC8A;}
	.st71{fill:#CEE4AD;stroke:#333132;stroke-width:1.97;stroke-miterlimit:10;}
	.st72{fill:none;stroke:#333132;stroke-width:2.63;stroke-linecap:round;stroke-miterlimit:10;}
	.st73{fill:none;stroke:#333132;stroke-width:1.97;stroke-linecap:round;stroke-miterlimit:10;}
	.st74{fill:#333132;stroke:#333132;stroke-width:3.95;stroke-miterlimit:10;}
	.st75{clip-path:url(#SVGID_4_);}
	.st76{fill:#A69A8B;stroke:#333132;stroke-width:1.97;stroke-miterlimit:10;}
	.st77{fill:#E5E5E5;}
	.st78{fill:#F2F2F2;}
	.st79{opacity:0.74;fill:#F7F7F7;enable-background:new    ;}
	.st80{fill:#373737;stroke:#333132;stroke-width:2.63;stroke-linecap:round;stroke-linejoin:round;}
	.st81{fill:#F57981;stroke:#333132;stroke-width:0.74;stroke-linecap:round;stroke-linejoin:round;}
	.st82{fill:#F57981;stroke:#333132;stroke-width:1.7;stroke-linecap:round;stroke-linejoin:round;}
	.st83{fill:#473E30;stroke:#333132;stroke-width:3.61;stroke-miterlimit:10;}
	.st84{fill:none;stroke:#C69710;stroke-width:2.71;stroke-miterlimit:10;}
	.st85{fill:#897645;}
	.st86{fill:#CABF9E;stroke:#333132;stroke-width:3.33;stroke-linecap:round;stroke-linejoin:round;}
	.st87{fill:#162335;stroke:#333132;stroke-width:3.33;stroke-linecap:round;stroke-linejoin:round;}
	.st88{fill:#FFFFFF;stroke:#333132;stroke-width:0.66;stroke-linejoin:round;}
	.st89{fill:#CABF9E;stroke:#333132;stroke-width:1.76;stroke-linecap:round;stroke-linejoin:round;}
	.st90{fill:none;stroke:#333333;stroke-width:3.33;stroke-linecap:round;stroke-linejoin:round;}
	.st91{fill:none;stroke:#333132;stroke-width:3.33;stroke-linecap:round;stroke-linejoin:round;}
	.st92{fill:#EF77AE;stroke:#333132;stroke-width:3.33;stroke-linecap:round;stroke-linejoin:round;}
	.st93{fill:#CABF9E;stroke:#333132;stroke-width:3.33;stroke-miterlimit:10;}
	.st94{fill:#373737;stroke:#333132;stroke-width:3.33;stroke-linecap:round;stroke-linejoin:round;}
	.st95{fill:#00A89C;}
	.st96{fill:none;stroke:#333132;stroke-width:3.33;stroke-linejoin:round;}
	.st97{fill:#CABF9E;}
	.st98{fill:#F57981;stroke:#333132;stroke-width:2.5;stroke-linecap:round;stroke-linejoin:round;}
	.st99{fill:#CEE4AD;stroke:#333132;stroke-width:2.5;stroke-miterlimit:10;}
	.st100{fill:none;stroke:#333132;stroke-width:3.33;stroke-linecap:round;stroke-miterlimit:10;}
	.st101{fill:none;stroke:#333132;stroke-width:2.5;stroke-linecap:round;stroke-miterlimit:10;}
	.st102{fill:#333132;stroke:#333132;stroke-width:5;stroke-miterlimit:10;}
	.st103{clip-path:url(#SVGID_6_);}
	.st104{fill:#A69A8B;stroke:#333132;stroke-width:2.5;stroke-miterlimit:10;}
	.st105{fill:#F57981;stroke:#333132;stroke-width:2.5;stroke-miterlimit:10;}
	.st106{fill:#F57981;stroke:#333132;stroke-width:1.53;stroke-linecap:round;stroke-linejoin:round;}
	.st107{fill:#F57981;stroke:#333132;stroke-width:0.94;stroke-linecap:round;stroke-linejoin:round;}
	.st108{fill:none;stroke:#333132;stroke-width:1.63;stroke-linecap:round;stroke-miterlimit:10;}
	.st109{fill:#DD9F83;}
	.st110{fill:none;stroke:#333132;stroke-width:1.63;stroke-linejoin:round;}
	.st111{fill:#DD9F83;stroke:#333132;stroke-width:1.22;stroke-linecap:round;stroke-miterlimit:10;}
	.st112{fill:#706459;}
	.st113{fill:none;stroke:#333132;stroke-width:1.63;stroke-linecap:round;stroke-linejoin:round;}
	.st114{fill:none;stroke:#333132;stroke-width:1.22;stroke-linecap:round;stroke-linejoin:round;}
	.st115{fill:none;stroke:#333132;stroke-width:1.22;stroke-linecap:round;stroke-miterlimit:10;}
	.st116{fill:#786453;stroke:#333132;stroke-width:1.22;stroke-linecap:round;stroke-linejoin:round;}
	.st117{fill:#DD9F83;stroke:#333132;stroke-width:1.63;stroke-linejoin:round;}
	.st118{fill:#DD9F83;stroke:#333132;stroke-width:1.63;stroke-miterlimit:10;}
	.st119{fill:none;stroke:#333132;stroke-width:1.63;stroke-miterlimit:10;}
	.st120{fill:#C98336;}
	.st121{fill:#DD9F83;stroke:#333132;stroke-width:1.63;stroke-linecap:round;stroke-linejoin:round;}
	.st122{fill:#DD9F83;stroke:#333132;stroke-width:1.22;stroke-linecap:round;stroke-linejoin:round;}
	.st123{fill:#6A5D56;}
	.st124{fill:#FFFFFF;stroke:#333132;stroke-width:1.22;stroke-miterlimit:10;}
	.st125{fill:none;stroke:#333132;stroke-width:1.22;stroke-miterlimit:10;}
	.st126{fill:#DD9F83;stroke:#333132;stroke-width:1.22;stroke-linejoin:round;}
</style>
<title>monsters</title>
<g id="Layer_1-2">
	<g>
		<g id="Layer_2_1_">
			<g id="Layer_1-2_1_">
				<g id="Elusive_Pony_1_">
					<path class="st0" d="M890.3,223.6c0,0-4.4-1.9-6.7-2.7c-3.6-1.2-2.6,6.2-4.5,7.6c-1,0.7-3.4-1.7-5.2-2.1
						c-3.7-0.8-4.7,14.5-4.7,14.5s4.4-7.3,7.6-7.9c2.6-0.5,3.5,2,3.8,4.6c0.2,1.8,2.4-6.9,4.5-9.6c1.7-2.2,5.3-0.8,5.3-0.8
						L890.3,223.6z"/>
					<path class="st1" d="M898.8,185.5c-1.9-1.7-9.5-2.6-10.3-1.1s3.4,7.4,6.7,8L898.8,185.5z"/>
					<path class="st0" d="M906.7,185.5c0,0-9.4-1-6.7-9.4c0.3-1-10.2-0.2-9.6,6.3c0.8,9.3-10,10.9-4.8,20.3c4.3,7.8,1.2,9.3,1.2,9.3
						s7.8,3.4,9.4-5.2C897.5,203.1,906,188,906.7,185.5z"/>
					<path class="st2" d="M943.9,197.7c-3.1-1.4-16.1-1.9-18,0.5s-5.9,11.1-5.9,11.1c-0.5-3.5-7.1-5.2-7.1-5.2l0.2-1.4
						c5.1,0,8.4-5.2,9.6-7.5c1.8-3.6,0.2-6.2-1.7-7c0-0.6-0.5-1.1-1.1-1.2c-0.7-0.1-1.5,0.3-1.6,1.1l0,0c0,0.2,0,0.3,0,0.5
						c-2.4,0.3-4.8-0.1-6.9-1.2c-7.8-3.9-13.7-3.1-17.4-0.2c-2.8-0.7-6.1-0.9-6.6,0.1s0.8,3.6,2.6,5.7c-1.5,4.8-0.4,9.9,4.2,12.7
						l11.9,7.2c-7-0.6-15,2-16.7,9.6s5.2,12.6,5.2,12.6l-1.4,1.3l3.1,26.2c0,3.3,11,5.3,11.5,2.2c0.1-1.4-7-24.8-7.1-24.9l3.4,0.1
						c0,0,7.9,19.2,8.1,21.5c0.3,2.3,9.4,3.6,11,1.6c1.8-2.7-12.7-22.8-12.7-22.8c7-3.8,4.6-10.4,4.6-10.4l5.4-5
						c4.1-0.6,9.1-8.9,9.1-8.9l2.9,4.3c0,0-2.2,1.2-5.2,3c-2.4,1.4-3.1,13.8,0.6,12.3c13.4-6.8,13.6-15.2,11.7-18.1
						c0,0-6.5-9.1-7.9-9.2c-1.4-0.1-4.8,2.4-4.8,2.4l4-5.8c1-1.7,8.1-0.8,8.1-0.8s-1.4,3.3-0.1,5c2.5,3.3,11.7,4.9,12.1,2.6
						C952.3,205.1,947,199.1,943.9,197.7z"/>
					<path class="st3" d="M923.1,213.4c2.3-1.5,5.7-4.2,5.7-4.2"/>
					<path class="st4" d="M930.5,221.3c0,0,3.9,5.2,2.7,10.8c0,0.2-4.3,2.7-4.3,2.7l-1.6-11.7L930.5,221.3z"/>
					<path class="st4" d="M939.1,204c4.2-2.1,10.5-0.3,10.6-0.1s2,4.7,1.5,6.5s-12.8-3.1-12.8-3.1L939.1,204z"/>
					<path class="st5" d="M893.8,189.3c-0.7-0.8-3.9-1.3-4.3-0.7s1.2,3.2,2.6,3.5L893.8,189.3z"/>
					<path class="st6" d="M905.7,201c1.6,2.1,7.2,3.1,7.2,3.1l0.2-1.4L905.7,201z"/>
					<path class="st7" d="M896.6,188.3c-1.7-0.7-3.5-1.3-5.3-1.7"/>
					<path class="st8" d="M951.2,210.4c0.6,2.8-3.8,2.6-7.1,1.6s-6-3-5.7-4.6c0.2-1.2,3.3-1.1,7.2-0.2
						C948.9,207.9,950.9,209.2,951.2,210.4z"/>
					<path class="st4" d="M911.4,258.1c0,0,7.3,3.1,11.1,0.9c0.1,0.2,2.7,4.3-0.9,4.8c-3.6,0.5-8.7-0.7-9.2-2.5L911.4,258.1z"/>
					<path class="st4" d="M896.1,260.5c0,0,7.7,2.5,11,0.8c0,0.2,0.6,2.5,0.8,3.3c-1,3.2-11,0.9-11.5-1.8L896.1,260.5z"/>
					
						<ellipse transform="matrix(6.017669e-02 -0.9982 0.9982 6.017669e-02 675.7421 1095.6124)" class="st9" cx="919.7" cy="189" rx="0.9" ry="0.5"/>
					<path class="st9" d="M894.2,219.7c-1.1,0.6-1.4,2-0.8,3c0.3,0.5,0.8,0.8,1.3,0.9l0.4,0.6c0.2,0.3,0.6,0.4,0.9,0.2
						c0.1-0.1,0.2-0.3,0.3-0.4c0.2,0.2,0.5,0.2,0.7,0c0.2-0.1,0.3-0.4,0.3-0.7c0.2,0,0.4,0,0.5-0.1c0.3-0.2,0.4-0.6,0.2-0.9l0,0
						l-0.4-0.6c0.1-0.5,0-1.1-0.3-1.6C896.6,219.2,895.2,219,894.2,219.7z M894.7,222.4c-0.3,0.2-0.8,0.1-1-0.2l0,0
						c-0.2-0.3-0.1-0.8,0.2-1l0,0c0.3-0.2,0.8-0.1,1,0.2l0,0C895.1,221.7,895.1,222.2,894.7,222.4L894.7,222.4L894.7,222.4z
						 M896.6,222.9l-0.5,0.3c-0.1,0.1-0.2,0.1-0.2,0v-0.1l-0.1-0.7c0-0.1,0.1-0.2,0.2-0.1l0.6,0.3c0.1,0,0.1,0.1,0.1,0.2
						C896.7,222.9,896.6,222.9,896.6,222.9L896.6,222.9z M896.4,221.3c-0.3,0.2-0.8,0.1-1-0.2l0,0c-0.2-0.3-0.1-0.8,0.2-1l0,0
						c0.3-0.2,0.8-0.1,1,0.2l0,0C896.8,220.7,896.7,221.1,896.4,221.3L896.4,221.3z"/>
					<path class="st9" d="M900.8,223.3c-0.4,0.1-0.7,0.4-0.6,0.8l0,0v0.1l-1.8,0.2l0.9-1.5l0.1,0.1c0.3,0.2,0.8,0.1,1-0.2l0,0
						c0.2-0.3,0.1-0.8-0.2-1l0,0c-0.2-0.1-0.4-0.1-0.6-0.1c0-0.2-0.1-0.4-0.3-0.6c-0.3-0.2-0.8-0.1-1,0.2l0,0
						c-0.2,0.3-0.1,0.8,0.2,1l0,0l0.1,0.1l-1.3,2.1l-2.5,0.4c0,0,0-0.1,0-0.2c-0.1-0.4-0.4-0.7-0.8-0.6l0,0
						c-0.4,0.1-0.7,0.4-0.6,0.8c0,0.2,0.2,0.4,0.4,0.5c-0.2,0.2-0.2,0.4-0.2,0.6c0,0.4,0.4,0.7,0.8,0.6l0,0c0.4-0.1,0.7-0.4,0.6-0.8
						l0,0v-0.1l1.8-0.2l-1,1.5l-0.1-0.1c-0.3-0.2-0.8-0.1-1,0.2l0,0c-0.2,0.3-0.1,0.8,0.2,1l0,0c0.2,0.1,0.4,0.1,0.6,0.1
						c0,0.2,0.1,0.4,0.3,0.5c0.3,0.2,0.8,0.1,1-0.2l0,0c0.2-0.3,0.1-0.8-0.2-1l0,0l-0.1-0.1l1.3-2.1l2.5-0.4v0.1
						c0.1,0.4,0.4,0.7,0.8,0.6c0.4-0.1,0.7-0.4,0.6-0.8l0,0c0-0.2-0.2-0.4-0.4-0.5c0.2-0.2,0.2-0.4,0.2-0.6S901.2,223.2,900.8,223.3
						z"/>
					<path class="st10" d="M905.4,188.2c1.1,1.4-0.2,3.5-1.9,4.2c-2.2,0.9-4.3-0.1-4.2-1.9C899.6,187.9,904.1,186.5,905.4,188.2z"/>
					<path class="st3" d="M897.9,190.4c0,0,3.1-3.8,6.5-2.8"/>
					<ellipse transform="matrix(0.9326 -0.361 0.361 0.9326 -7.1669 339.439)" class="st9" cx="905" cy="188.9" rx="1.6" ry="1.2"/>
					<circle class="st11" cx="903.1" cy="189.7" r="0.7"/>
					<line class="st3" x1="929" y1="207.6" x2="926.3" y2="211.2"/>
					<polygon class="st12" points="899.3,179.1 894.2,180.9 895.7,181.7 892.3,183.5 898.1,182.8 897.1,181.4 899.7,180.9 					"/>
					<path class="st3" d="M890.6,206.1c0,0-0.3,6.2-3.8,6"/>
					<path class="st3" d="M886.3,196.6c-1,1.9-1.2,4.1-0.6,6.1"/>
					<path class="st3" d="M896.9,177.6c0,0,1.6-2.1,3.2-1.5"/>
					<path class="st3" d="M875.4,230.3c2,0.6,3.6,2.1,4.2,4"/>
					<path class="st3" d="M883.3,224.3c0,0,1.9,1.7-0.1,7.1"/>
					<path class="st3" d="M880.5,229.9c-1.2-0.3-2.4-0.9-3.3-1.8"/>
					<path class="st8" d="M928.1,222.7c0,0,2.5,4.8,0.8,12.2c-0.1,0-2.5,1.7-3-0.9C925.4,231.4,925.2,223.5,928.1,222.7z"/>
					<g class="st13">
						<path d="M905.7,201c0,0,11.4,6.1,17-5.8c1.7-3.6,0.1-5.9-0.9-6.6C921.9,202.9,905.7,201,905.7,201z"/>
						<path d="M931.7,208.1c-0.1,0,5,7,5,7c1.8,2.8,1.7,11-11.2,17.8c0.3,1.8,1.1,3,2.4,2.5c13.4-6.8,13.6-15.2,11.7-18.1
							C939.6,217.3,932.6,207.9,931.7,208.1z"/>
						<path d="M898,237c0,0,7,24.1,7,25.4c-0.3,2.1-5.2,1.9-8.5,0.6c1.2,3,10.9,4.6,11.4,1.6c-0.5-2.3-8.5-28.1-8.2-29.4
							C899.7,235.3,897.6,235.5,898,237z"/>
						<path d="M944,197.8c2.6,2.6,5,7,4.1,11.5c-0.3,1.7-5.6,1.2-9.3-0.5c0,0,7,5.8,12.2,2.7C951.5,203.9,947.1,199.3,944,197.8z"/>
						<path d="M910.6,240.2c3.9-1.9,5.8-6.3,4.6-10.4l5.4-5c4.3-1.3,8.7-8.3,9.1-8.9c0,0-6.9,6.6-13.9,7.6c0,0-3.7,3.2-3.7,5.1
							c0,1.2,3.6,8.9-4.2,11.6c0,0,13.2,17.7,11.4,20.4c-1,1.3-4.1,1.4-7,0.6c0,0.1,0,0.2,0,0.3c0.3,2.4,9.4,3.6,11,1.6
							C925,260.2,910.6,240.2,910.6,240.2z"/>
					</g>
					<path class="st7" d="M943.9,197.7c-3.1-1.4-16.1-1.9-18,0.5s-5.9,11.1-5.9,11.1c-0.5-3.5-7.1-5.2-7.1-5.2l0.2-1.4
						c5.1,0,8.4-5.2,9.6-7.5c1.8-3.6,0.2-6.2-1.7-7c0-0.6-0.5-1.1-1.1-1.2c-0.7-0.1-1.5,0.3-1.6,1.1l0,0c0,0.2,0,0.3,0,0.5
						c-2.4,0.3-4.8-0.1-6.9-1.2c-7.8-3.9-13.7-3.1-17.4-0.2c-2.8-0.7-6.1-0.9-6.6,0.1s0.8,3.6,2.6,5.7c-1.5,4.8-0.4,9.9,4.2,12.7
						l11.9,7.2c-7-0.6-15,2-16.7,9.6s5.2,12.6,5.2,12.6l-1.4,1.3l3.1,26.2c0,3.3,11,5.3,11.5,2.2c0.1-1.4-7-24.8-7.1-24.9l3.4,0.1
						c0,0,7.9,19.2,8.1,21.5c0.3,2.3,9.4,3.6,11,1.6c1.8-2.7-12.7-22.8-12.7-22.8c7-3.8,4.6-10.4,4.6-10.4l5.4-5
						c4.1-0.6,9.1-8.9,9.1-8.9l2.9,4.3c0,0-2.2,1.2-5.2,3c-2.4,1.4-3.1,13.8,0.6,12.3c13.4-6.8,13.6-15.2,11.7-18.1
						c0,0-6.5-9.1-7.9-9.2c-1.4-0.1-4.8,2.4-4.8,2.4l4-5.8c1-1.7,8.1-0.8,8.1-0.8s-1.4,3.3-0.1,5c2.5,3.3,11.7,4.9,12.1,2.6
						C952.3,205.1,947,199.1,943.9,197.7z"/>
					<path class="st3" d="M938.4,207.3c0.2-1.2,3.3-1.1,7.2-0.2c3.4,0.7,5.4,2.1,5.6,3.3"/>
					<path class="st14" d="M928.1,222.7c0,0,2.7,6.7,0.8,12.2"/>
					<path class="st15" d="M930.5,221.3c0,0,3.9,5.2,2.7,10.8"/>
					<path class="st15" d="M939.1,204c0,0,3.7-2.2,10.6-0.1"/>
					<path class="st3" d="M896.1,260.5c0,0,7.7,2.5,11,0.8"/>
					<path class="st3" d="M911.4,258.1c0,0,7.3,3.1,11.1,0.9"/>
					<path class="st14" d="M922.2,196c-1.6,0.9-3.4,1.2-5.2,0.8c-3-0.6-5.1-3.3-8.4-1.1"/>
					<path class="st3" d="M915.8,223.5c0,0,3.8,2.2,6.6,0.6"/>
					<path class="st3" d="M907.1,240.1c2.4,0.3,4.8-0.6,6.5-2.4"/>
					<path class="st3" d="M899.7,235.3c0.2,1.9,0.7,3.8,1.4,5.6"/>
					<path class="st3" d="M905.7,201c0,0,6.5,2.6,10.8,0.8"/>
					<path class="st16" d="M920.2,261.5c0.4,0.8,0.6,1.6,0.5,2.5"/>
					<path class="st16" d="M904.1,264.2c0.2,0.6,0.3,1.3,0.1,2"/>
				</g>
				<path class="st17" d="M758.3,430.6l23.4,2.9c0,0-4.1-42.4-2.3-56.4c1.4-11.5,11.1-45.4,11.1-45.4s1.9-5.8,7,0
					c0,0-1.3,32.8-1.5,43.8c-0.2,17,9.4,57,9.4,57l18.9-1.8c0,0-8.2-30.3-6.4-56.4c1.9-26.9,9.7-45.8,9.6-60.6
					c0,0-17.6,1.9-55.6-15.2c0,0-14.1,57.7-15.7,77C755,389.2,758.3,430.6,758.3,430.6z"/>
				<rect x="623.9" y="265.9" class="st18" width="314.4" height="11.8"/>
				<path class="st19" d="M715.2,228.9v-24.7c1.4-0.5,2.2-1.2,2.2-2c0-1.6-3.5-3-7.9-3c-4.3,0-7.9,1.3-7.9,3c0,0.8,0.9,1.5,2.2,2
					v24.7c-7.2,2.4-12,9.2-12.1,16.8c0,9.8,7.9,17.7,17.7,17.7s17.7-7.9,17.7-17.7l0,0C727.3,238,722.4,231.3,715.2,228.9z"/>
				<path class="st20" d="M722,245.3c0,6.8-5.5,12.4-12.4,12.4l0,0c-6.8,0-12.4-5.5-12.4-12.4c0-6.8,5.3-0.9,12.8-1.1
					C716.8,244,722,238.4,722,245.3z"/>
				<path class="st19" d="M754.9,237.4v-24.8h-0.1c0-0.1,0.1-0.2,0.1-0.3c0-1.3-2.4-2.4-5.3-2.4s-5.3,1.1-5.3,2.4
					c0,0.1,0,0.2,0.1,0.3h-0.1v24.8c0,0-12.4,7.7-12.4,17.2c-0.2,4.6,3.3,8.4,7.9,8.6c0.3,0,0.5,0,0.8,0h18.1c4.8,0,8.6-3.9,8.6-8.6
					C767.3,245.1,754.9,237.4,754.9,237.4z"/>
				<path class="st20" d="M739.8,250.9c-2.3,3.5-0.9,6.7,2.8,6.7h14.1c3.7,0,5-3.7,2.8-6.7C755.8,246.1,743.4,245.6,739.8,250.9z"/>
				<ellipse class="st19" cx="749.6" cy="212.3" rx="6.9" ry="2.9"/>
				<path class="st6" d="M754.9,237.4v-24.8h-0.1c0-0.1,0.1-0.2,0.1-0.3c0-1.3-2.4-2.4-5.3-2.4c-2.6,0-4.8,0.9-5.2,2
					c0.4,0,0.8-0.1,1.3-0.1c2.9,0,5.3,1.1,5.3,2.4c0,0.1,0,0.2-0.1,0.3h0.1v24.8c0,0,12.4,7.7,12.4,17.3c0,2.5-1.1,4.9-3,6.5
					c4-0.8,6.9-4.3,6.9-8.4C767.3,245.1,754.9,237.4,754.9,237.4z"/>
				<path class="st21" d="M754.9,237.4v-24.8h-0.1c0-0.1,0.1-0.2,0.1-0.3c0-1.3-2.4-2.4-5.3-2.4s-5.3,1.1-5.3,2.4
					c0,0.1,0,0.2,0.1,0.3h-0.1v24.8c0,0-12.4,7.7-12.4,17.2c-0.2,4.6,3.3,8.4,7.9,8.6c0.3,0,0.5,0,0.8,0h18.1c4.8,0,8.6-3.9,8.6-8.6
					C767.3,245.1,754.9,237.4,754.9,237.4z"/>
				<path class="st19" d="M674.9,237.4v-24.8h-0.1c0-0.1,0.1-0.2,0.1-0.3c0-1.3-2.4-2.4-5.3-2.4c-2.9,0-5.3,1.1-5.3,2.4
					c0,0.1,0,0.2,0.1,0.3h-0.1v24.8c0,0-12.4,7.7-12.4,17.2c-0.2,4.6,3.3,8.4,7.9,8.6c0.2,0,0.5,0,0.7,0h18.1c4.8,0,8.6-3.9,8.6-8.6
					C687.3,245.1,674.9,237.4,674.9,237.4z"/>
				<path class="st20" d="M659.7,250.9c-2.3,3.5-0.9,6.7,2.8,6.7h14.1c3.7,0,5-3.7,2.8-6.7C675.8,246.1,663.4,245.6,659.7,250.9z"/>
				<ellipse class="st19" cx="669.6" cy="212.3" rx="6.9" ry="2.9"/>
				<path class="st19" d="M858.8,228.9v-24.7c1.4-0.5,2.2-1.2,2.2-2c0-1.6-3.5-3-7.9-3c-4.3,0-7.9,1.3-7.9,3c0,0.8,0.9,1.5,2.2,2
					v24.7c-7.2,2.4-12,9.2-12.1,16.8c0,9.8,7.9,17.7,17.7,17.7s17.7-7.9,17.7-17.7l0,0C870.8,238,866,231.3,858.8,228.9z"/>
				<g class="st13">
					<path d="M858.8,228.9v-26.7c0-1.1-2.5-1.9-5.6-1.9s-5.6,0.9-5.6,1.9v0.2c0.6-0.1,1.1-0.1,1.7-0.1c3.1,0,5.6,0.9,5.6,1.9V231
						c7.2,2.4,12,9.2,12,16.8c0,5.9-2.9,11.4-7.8,14.7c7.1-2.5,11.8-9.2,11.8-16.7C870.8,238,866,231.3,858.8,228.9z"/>
					<path d="M843.3,230.9l0.3-0.1v-0.1L843.3,230.9z"/>
				</g>
				<path class="st20" d="M865.5,245.3c0,6.8-5.5,12.4-12.4,12.4l0,0c-6.8,0-12.4-5.5-12.4-12.4l0,0c0-6.8,5.3-0.9,12.8-1.1
					C860.4,244,865.5,238.4,865.5,245.3z"/>
				<path class="st6" d="M674.9,237.4v-24.8h-0.1c0-0.1,0.1-0.2,0.1-0.3c0-1.3-2.4-2.4-5.3-2.4c-2.6,0-4.8,0.9-5.2,2
					c0.4,0,0.8-0.1,1.3-0.1c2.9,0,5.3,1.1,5.3,2.4c0,0.1,0,0.2-0.1,0.3h0.1v24.8c0,0,12.4,7.7,12.4,17.3c0,2.5-1.1,4.9-3,6.5
					c4-0.8,6.9-4.3,7-8.4C687.3,245.1,674.9,237.4,674.9,237.4z"/>
				<ellipse class="st22" cx="749.6" cy="212.3" rx="6.9" ry="2.9"/>
				<ellipse class="st22" cx="669.6" cy="212.3" rx="6.9" ry="2.9"/>
				<path class="st21" d="M674.9,237.4v-24.8h-0.1c0-0.1,0.1-0.2,0.1-0.3c0-1.3-2.4-2.4-5.3-2.4c-2.9,0-5.3,1.1-5.3,2.4
					c0,0.1,0,0.2,0.1,0.3h-0.1v24.8c0,0-12.4,7.7-12.4,17.2c-0.2,4.6,3.3,8.4,7.9,8.6c0.2,0,0.5,0,0.7,0h18.1c4.8,0,8.6-3.9,8.6-8.6
					C687.3,245.1,674.9,237.4,674.9,237.4z"/>
				<path class="st23" d="M766.4,25.6c-13.3,12.9,3.5,32.3,13.4,32.6c17.3,0.6,35.2,5.6,38-2.4C830,19.7,789.5,3.2,766.4,25.6z"/>
				<g class="st13">
					<path d="M715.2,228.9v-26.7c0-1.1-2.5-1.9-5.6-1.9s-5.6,0.9-5.6,1.9v0.2c0.6-0.1,1.1-0.1,1.7-0.1c3.1,0,5.6,0.9,5.6,1.9V231
						c7.2,2.4,12,9.1,12.1,16.7c0,5.9-2.9,11.4-7.8,14.7c7-2.5,11.7-9.2,11.8-16.6C727.3,238,722.4,231.3,715.2,228.9z"/>
					<path d="M699.8,230.9l0.2-0.1v-0.1L699.8,230.9z"/>
				</g>
				<path class="st9" d="M921.7,119.1c4.6,12.2-39.1,5-35.3-1.7s14.3-30.2,15.2-41.4c0.4-4.8-1.5-3.3-5.9-6.1
					c-6.1-4-9.4-12.5-4.5-14.5c4.1-1.6,3.3,1.4,5.7,4.9c2.8,4,7.8,6.1,8.1-4.2c0.5-9-8.3-13.5-4.1-16c8.6-5.1,14.2,11,13.6,17.9
					c2.3-4.6,2.5-9.9,0.6-14.6c-2.6-6.6,5.8-7.8,8.4-2.6c2.2,4.4,3.7,12.1,0.7,21.1c0.2,0.1,2.3-0.5,6.8-8.8c3.3-6,11.2-0.9,5.4,7.1
					c-5.7,8.1-10,9.7-14.2,15.8C919.5,80,912.7,95,921.7,119.1z"/>
				<path class="st11" d="M912.3,121.5l-16.6-2.7c-23.8,58.8-84.4,30.1-84.4,30.1s4.9-9.3-3.4-14.1c-6.6-3.8-15.2-4.4-23.9,1.3
					c-13.3,8.7-5.5,20.9-5.5,20.9c-34.5,35.4-68.2,11.7-68.2,11.7L694.7,188c11,8.1,21.8,11.5,31.7,12.4c0.7,3.4,3.7,5.8,7.2,5.9
					c3.7,0,6.8-2.8,7.3-6.4c10.3-1.7,20.1-5.7,28.7-11.8l-2.1,124.3c41.7,3.6,59.7,35.4,59.7,35.4c11.6-53.9,6.6-174.1,7.4-174.1
					c15.6,2.5,28.1,1.5,38-1.4c1.4,1.9,3.6,3,6,3c4.1,0,7.4-3.3,7.4-7.4c0-0.5-0.1-1-0.2-1.4C910.5,151.2,912.3,121.5,912.3,121.5z"
					/>
				<polygon class="st6" points="694.7,186.4 705.6,168.2 713.2,170.3 701.3,192.3 				"/>
				<path class="st22" d="M715.2,228.9v-24.7c1.4-0.5,2.2-1.2,2.2-2c0-1.6-3.5-3-7.9-3c-4.3,0-7.9,1.3-7.9,3c0,0.8,0.9,1.5,2.2,2
					v24.7c-7.2,2.4-12,9.2-12.1,16.8c0,9.8,7.9,17.7,17.7,17.7s17.7-7.9,17.7-17.7l0,0C727.3,238,722.4,231.3,715.2,228.9z"/>
				<path class="st9" d="M688.8,190.3c5.8,11.7,30.4-25.1,23-26.9s-36-14.5-44.8-21.5c-3.7-3-17.3,18.3-9.9,19.4
					C661.8,161.9,677.4,167.2,688.8,190.3z"/>
				<path class="st24" d="M789.5,165.1c0,0-10.9-4.7-13-14.4"/>
				<path class="st24" d="M806,154.3c0,0,8.4-7.1,6.1-14.9"/>
				
					<ellipse transform="matrix(0.9256 -0.3786 0.3786 0.9256 4.3083 311.379)" class="st9" cx="793.9" cy="144.7" rx="11.8" ry="7.3"/>
				<path class="st25" d="M776.4,172.1c0,0-7.8,5.4-6.5,26.6"/>
				<path class="st24" d="M773.2,177.6c0,0,25.4,7.9,44.2,0c0,0,9.8,66.5-9.6,149.6"/>
				<ellipse class="st9" cx="809.2" cy="196.3" rx="3.3" ry="4.8"/>
				<g class="st13">
					<path d="M895.7,118.9c-0.9,2.4-2,4.7-3.3,6.8h18.8l1-4.1L895.7,118.9z"/>
					<path d="M829.4,168.2c-5.6-0.7,1.5,112.6-10.8,168.6c3.7,4.4,8.5,10.9,8.5,10.9c8.8-41.1,8-136,7.5-174.1
						C834.7,173.6,834.9,168.9,829.4,168.2z"/>
				</g>
				<ellipse class="st9" cx="809.2" cy="233.4" rx="3.3" ry="4.8"/>
				<ellipse class="st9" cx="806" cy="270.6" rx="3.3" ry="4.8"/>
				<path class="st21" d="M912.3,121.5l-16.6-2.7c-23.8,58.8-84.4,30.1-84.4,30.1s4.9-9.3-3.4-14.1c-6.6-3.8-15.2-4.4-23.9,1.3
					c-13.3,8.7-5.5,20.9-5.5,20.9c-34.5,35.4-68.2,11.7-68.2,11.7L694.7,188c11,8.1,21.8,11.5,31.7,12.4c0.7,3.4,3.7,5.8,7.2,5.9
					c3.7,0,6.8-2.8,7.3-6.4c10.3-1.7,20.1-5.7,28.7-11.8l-2.1,124.3c41.7,3.6,59.7,35.4,59.7,35.4c11.6-53.9,6.6-174.1,7.4-174.1
					c15.6,2.5,28.1,1.5,38-1.4c1.4,1.9,3.6,3,6,3c4.1,0,7.4-3.3,7.4-7.4c0-0.5-0.1-1-0.2-1.4C910.5,151.2,912.3,121.5,912.3,121.5z"
					/>
				<path class="st24" d="M731.5,193.2c0,0-8.5,3-2,11.7"/>
				<path class="st24" d="M880,161.7c0,0,9.2,2.4,3.5,11.6"/>
				<path class="st26" d="M834.3,80.5c0-31.6-23-57.2-51.4-57.2s-51.4,25.6-51.4,57.2s23,57.2,51.4,57.2h0.3L786,148
					c0,0,8,4.4,15.2-3.2l-2.6-9.7C819.3,127.7,834.3,106.1,834.3,80.5z"/>
				<g class="st13">
					<path d="M793.7,147.6l7.5-2.8l-2.6-9.7c18.8-9.2,35.8-31.1,35.8-54.5l-3.6-15.4c0,41.2-18.3,56.4-39.8,67.2L793.7,147.6z"/>
				</g>
				
					<ellipse transform="matrix(9.949718e-02 -0.995 0.995 9.949718e-02 608.3605 802.5162)" class="st11" cx="747.6" cy="65.1" rx="16.5" ry="8.8"/>
				<path class="st6" d="M749.2,48.7c-0.4,0-0.8,0-1.2,0c2.3,3.1,3.5,8.5,2.9,14.5c-0.8,8.3-4.8,14.8-9.2,15.5
					c0.9,1.5,2.5,2.5,4.2,2.7c4.8,0.5,9.5-6.5,10.4-15.5S754,49.2,749.2,48.7z"/>
				<ellipse class="st11" cx="775.2" cy="69.4" rx="10.8" ry="20.3"/>
				<path class="st27" d="M834.3,80.5c0-31.6-23-57.2-51.4-57.2s-51.4,25.6-51.4,57.2s23,57.2,51.4,57.2h0.3L786,148
					c0,0,8,4.4,15.2-3.2l-2.6-9.7C819.3,127.7,834.3,106.1,834.3,80.5z"/>
				<path class="st9" d="M772.5,63.4c-1.5,0-2.8-2-2.8-4.4s1.2-4.4,2.8-4.4c0.4,0,0.7,0.1,1,0.3c-0.2-1-0.9-1.7-1.9-2.1
					c-2.1-0.5-4.7,2.9-5.7,7.4s0,8.6,2.1,9.1c2,0.4,4.2-2.3,5.3-6.2C773.1,63.3,772.8,63.4,772.5,63.4z"/>
				<path class="st9" d="M744.8,55.7c0-2.1,1-3.9,2.3-4.3c-0.2-1-1-1.9-2-2.2c-2.1-0.5-4.7,2.9-5.6,7.4c-1,4.5,0,8.6,2.1,9.1
					c1.9,0.4,4-2.1,5.2-5.8C745.6,59.3,744.8,57.6,744.8,55.7z"/>
				<path class="st28" d="M789.9,45.9l-3.9-6.3l3.5-6.4c-16.4-3-29.7,12.8-29.7,12.8s-12.2-15.7-28.3-10.3l4.1,4.9l-4.1,7
					c14.9-4.3,29.2,13,29.2,13S773.2,44.2,789.9,45.9z"/>
				<path class="st29" d="M798.5,43.5c-11.7,14.3-1.9,33.9,10.8,31.8c17-2.9,0-13.1,8.5-19.4c11.1-8.3,16.8,13.6,16.8,27.9
					c2.5-3.6,4.7-7.5,6.5-11.5C855,42.1,818.5,18.9,798.5,43.5z"/>
				<path class="st30" d="M664.3,144.6l7.8-37c1.5-0.4,2.5-1,2.7-1.9c0.5-2.2-3.9-4.9-9.7-6.2s-10.9-0.5-11.4,1.7
					c-0.2,0.9,0.5,1.9,1.6,2.8l-7.8,37c-11.5,1.3-20.8,9.8-23.2,21.2c-3.1,14.5,6.2,28.8,20.8,31.9l0,0c14.5,3.1,28.8-6.2,31.9-20.8
					C679.3,162.1,674.2,150.5,664.3,144.6z"/>
				<path class="st20" d="M669.4,169c-0.6,10.4-9.6,18.3-20,17.7l0,0c-10.4-0.6-18.3-9.6-17.7-20l0,0c0.6-10.4,6.1-1.3,16.5-0.7
					S670,158.6,669.4,169z"/>
				<path class="st9" d="M640.8,142.6c0.4,3.1,6.7,8.6,11,3.8c3.7-4.2-2.6-8.4-4.4-9.1S639.8,135.3,640.8,142.6z"/>
				<path class="st9" d="M634.9,147c3.1,5.7,7,8.9,10.9,5.3c3-2.5-2.5-9.2-4.4-11.4S631.8,141.4,634.9,147z"/>
				<path class="st9" d="M629.3,150.9c2,4.4,6.1,7.7,9.5,4.2c2.7-2.8-1.4-9.4-3.4-10.9C633.3,142.6,626.9,145.6,629.3,150.9z"/>
				<path class="st9" d="M660.3,175.1c0.7,1.8-1.1,4.3-4.1,5.5s-6.1,0.8-6.8-1s2.5-1,5.5-2.3S659.5,173.3,660.3,175.1z"/>
				<circle class="st31" cx="672" cy="17" r="8.1"/>
				<circle class="st31" cx="680" cy="42.6" r="6.7"/>
				<circle class="st31" cx="670.2" cy="83" r="4"/>
				<circle class="st31" cx="664.3" cy="62.8" r="5.4"/>
				<path class="st32" d="M754.7,109.4c0,0,15.1,17.9,33.2,11.7c27.5-9.4,19.5-33.8,19.5-33.8s-7,11-24.4,17.5
					S754.7,109.4,754.7,109.4z"/>
				<path class="st6" d="M775.2,49.1L775.2,49.1c3.3,3.5,5.5,10.1,5.5,17.6c0,11.2-4.8,20.3-10.8,20.3c1.3,1.6,3.3,2.6,5.4,2.7
					c6,0,10.8-9.1,10.8-20.3S781.1,49.1,775.2,49.1z"/>
				
					<ellipse transform="matrix(9.949718e-02 -0.995 0.995 9.949718e-02 608.3605 802.5162)" class="st24" cx="747.6" cy="65.1" rx="16.5" ry="8.8"/>
				<path class="st33" d="M759.2,67.9c3.7,0.6,5.9,5.7,4.9,11.5c-0.9,5.7-6.8,20.9-10.5,20.3c-3.7-0.6-3.7-16.7-2.8-22.5
					S755.5,67.2,759.2,67.9z"/>
				<line class="st34" x1="775.9" y1="107.5" x2="783" y2="122.4"/>
				<line class="st34" x1="792.3" y1="101.2" x2="798.5" y2="114.8"/>
				<path class="st35" d="M664.3,144.6l7.8-37c1.5-0.4,2.5-1,2.7-1.9c0.5-2.2-3.9-4.9-9.7-6.2H665c2.6,1.3,4.2,2.9,3.9,4.2
					c-0.2,0.9-1.2,1.5-2.6,1.9l-9.7-0.2l-1.4,3.8c4,3.4,10,3.4,10,3.4l-7.2,34.2c9.7,5.7,14,15,13.1,24.6
					c-1.5,14.8-6.1,19.2-6.1,19.2c6.2-3.9,10.5-10.1,12-17.2C679.3,162.1,674.2,150.5,664.3,144.6z"/>
				<path class="st9" d="M665.5,144.1c0,0-10.6,0.6-8.7,7.5c1.7,6.3,16.1-0.6,16.1-0.6L665.5,144.1z"/>
				
					<ellipse transform="matrix(0.2072 -0.9783 0.9783 0.2072 425.351 731.8177)" class="st22" cx="664.2" cy="103.5" rx="4" ry="10.8"/>
				<path class="st22" d="M664.3,144.6l7.8-37c1.5-0.4,2.5-1,2.7-1.9c0.5-2.2-3.9-4.9-9.7-6.2s-10.9-0.5-11.4,1.7
					c-0.2,0.9,0.5,1.9,1.6,2.8l-7.8,37c-11.5,1.3-20.8,9.8-23.2,21.2c-3.1,14.5,6.2,28.8,20.8,31.9l0,0c14.5,3.1,28.8-6.2,31.9-20.8
					C679.3,162.1,674.2,150.5,664.3,144.6z"/>
				<ellipse class="st24" cx="775.2" cy="69.4" rx="10.8" ry="20.3"/>
				<ellipse class="st22" cx="709.6" cy="202.1" rx="7.9" ry="2.9"/>
				<path class="st22" d="M858.8,228.9v-24.7c1.4-0.5,2.2-1.2,2.2-2c0-1.6-3.5-3-7.9-3c-4.3,0-7.9,1.3-7.9,3c0,0.8,0.9,1.5,2.2,2
					v24.7c-7.2,2.4-12,9.2-12.1,16.8c0,9.8,7.9,17.7,17.7,17.7s17.7-7.9,17.7-17.7l0,0C870.8,238,866,231.3,858.8,228.9z"/>
				<ellipse class="st22" cx="853.1" cy="202.1" rx="7.9" ry="2.9"/>
				<path class="st9" d="M826.5,426.7h-29.9c-2.8,0-5,2.2-5,5v6.7c0,2.8,2.2,5,5,5h17c0,1.1,0.9,1.9,2,1.9h12c1.1,0,2-0.9,2-2v-1
					c1.3-0.9,2-2.4,2-4v-6.7C831.5,428.9,829.3,426.7,826.5,426.7L826.5,426.7z"/>
				<path class="st9" d="M780.2,424.3l-29.9,0.7c-2.8,0-5,2.3-4.9,5.1c0,0,0,0,0,0.1l0.2,6.7c0,2.8,2.3,5,5.1,4.9c0,0,0,0,0.1,0
					l17-0.4c0.1,1.1,1,1.9,2,1.9l12-0.3c1.1,0,2-0.9,2-2c0,0,0,0,0-0.1V440c1.2-1,1.9-2.4,1.9-4l-0.2-6.7c0-2.8-2.3-5-5-5
					C780.4,424.3,780.3,424.3,780.2,424.3z"/>
			</g>
		</g>
	</g>
	<path class="st36" d="M323.2,411.8l6.9-73.1h-21.7v46.2c-2.8,0.1-5,2.5-4.9,5.3c0.1,2.6,2.2,4.8,4.9,4.9v16.6h-2.6
		c-1.4-1.2-3.2,1.1-5.2,1.1c-4.5,0-6.5,1.3-6.5,5.8s2.1,7.3,6.5,7.3l24.2-2.3c3.9,0,3.3-0.9,3.3-4.8
		C328.3,415.3,326.6,412.4,323.2,411.8z"/>
	<path class="st36" d="M368.4,411.8l-2.3-73.1h21.7v46.2c2.8,0.1,5,2.5,4.9,5.3c-0.1,2.6-2.2,4.8-4.9,4.9l-2.3,16.6h4.9
		c1.4-1.2,3.2,1.1,5.2,1.1c4.5,0,6.5,1.3,6.5,5.8s-2.1,7.3-6.5,7.3h-28.1c-3.9,0-7.1-3.2-7.1-7.1
		C360.3,415.3,365.1,412.4,368.4,411.8z"/>
	<polygon class="st37" points="304.4,276.4 303.9,300.3 302.6,309.4 301.7,340.1 299.9,359.4 301.1,367.3 299,377.6 298.6,392.9 
		308.6,394.9 314.6,385.9 317.6,390.9 329.6,388.9 336,374.5 338.7,362.3 341.6,348.6 344.6,317.9 349.1,314.8 352.9,331.9 
		356.6,345.6 356.2,363.2 360.7,405.9 396.6,405.9 394.6,385.5 393.2,348.4 391.8,337.5 392,328.2 388.9,276.4 	"/>
	<path class="st38" d="M405,240.3V217c2.4-0.2,4.3-1.4,4.3-3s-2.2-3-4.9-3c-0.8,0-1.7,0.1-2.4,0.4c-0.8-0.3-1.6-0.4-2.4-0.4
		c-2.7,0-4.9,1.3-4.9,3s1.9,2.8,4.3,3v23.3c-2.4,0.2-4.3,1.4-4.3,3l0,0l0,0c0,1.5,1.9,2.8,4.3,3v19.6c-2.4,0.2-4.3,1.4-4.3,3
		s2.2,3,4.9,3c0.8,0,1.6-0.1,2.4-0.4c0.8,0.3,1.6,0.4,2.4,0.4c2.7,0,4.9-1.3,4.9-3s-1.9-2.8-4.3-3v-19.6c2.4-0.2,4.3-1.4,4.3-3l0,0
		l0,0C409.3,241.8,407.4,240.5,405,240.3z"/>
	<path class="st39" d="M303.9,285.3l-7.5-5.3c-0.2-0.2,0.2-0.8,0-0.6l-0.2,0.2l-0.1-0.8c-0.3-1.8-2-3.1-3.8-2.8l-6.1,0.9
		c-1.8,0.3-3.1,1.9-2.8,3.8l-0.7,11c0,0.1,0,0.1,0,0.2c0.2,1.1,0.9,2,1.9,2.4c0.2,0.1,0.4,0.3,0.4,0.6l0.4,9.1
		c0,0.7,0.6,1.3,1.4,1.2l1.1-0.1c0.7,0,1.3-0.6,1.2-1.4l-0.4-8.9c0-0.3,0.2-0.6,0.5-0.7l0,0c0.4,0,0.7,0.2,0.7,0.5l2.4,16.3
		c0.1,0.8,0.9,1.4,1.7,1.2l0.8-0.1c0.8-0.1,1.3-0.9,1.2-1.6l-2.4-16.3c0-0.4,0.2-0.7,0.5-0.7l0.4-0.1c0.4,0,0.7,0.2,0.7,0.5l0,0
		l1.9,13.2c0.1,0.8,0.8,1.3,1.6,1.2l0.9-0.1c0.8-0.1,1.3-0.8,1.2-1.6l-2-13.9c0-0.2,0-0.4,0.2-0.6c0.7-0.7,1.1-1.7,1-2.7
		c0-0.1,0-0.1,0-0.2l-0.4-1.1c-0.1-0.3,0-0.7,0.3-0.8c0.2-0.1,0.5-0.1,0.7,0.1l0.7,0.5c0.5,0.4,1.3,0.3,1.7-0.2l1.2-1.6
		C304.2,285.8,304.1,285.5,303.9,285.3z"/>
	<path class="st40" d="M387.3,285.3l7.5-5.3c0.2-0.2-0.2-0.8,0-0.6l0.2,0.2l0.1-0.8c0.3-1.8,1.9-3.1,3.8-2.8l6.1,0.9
		c1.8,0.3,3.1,2,2.8,3.8l0.7,11c0,0.1,0,0.1,0,0.2c-0.2,1.1-0.9,2-1.9,2.4c-0.2,0.1-0.4,0.3-0.4,0.6l-0.4,7.6c0,0.7-0.6,2.8-1.4,2.8
		l-1.1-1.6c-0.7,0-1.3-0.6-1.2-1.4l0.4-7.4c0-0.3-0.2-0.6-0.5-0.7l0,0c-0.4,0-0.7,0.2-0.7,0.5L399,311c-0.1,0.8-0.9,1.4-1.6,1.2
		l-0.8-0.1c-0.8-0.1-1.3-0.9-1.2-1.6l2.4-16.3c0.1-0.3-0.2-0.7-0.5-0.7l0,0l-0.4-0.1c-0.4,0-0.7,0.2-0.7,0.5l-2,13.2
		c-0.1,0.8-0.8,1.3-1.6,1.2l-0.9-0.1c-0.8-0.1-1.3-0.8-1.2-1.6l0,0l2-13.9c0-0.2,0-0.4-0.2-0.6c-0.7-0.7-1.1-1.7-1-2.7
		c0-0.1,0-0.1,0-0.2l0.4-1.1c0.1-0.3,0-0.7-0.3-0.8c-0.2-0.1-0.5-0.1-0.7,0.1l-0.7,0.5c-0.5,0.4-1.3,0.3-1.7-0.2l-1.2-1.6
		C386.9,285.8,387,285.5,387.3,285.3L387.3,285.3z"/>
	<line class="st41" x1="406" y1="254.3" x2="406" y2="217.3"/>
	<line class="st42" x1="284" y1="246.1" x2="285" y2="206.7"/>
	<path class="st43" d="M302.6,78.4c0,0-9.2-7.1-1.5-17.4c0,0-2.4-12.3,7.7-13c0,0,2-12,12.1-9.3c0,0,2.6-6.5,8.7-3.1
		c1-2.7,4-4.1,6.7-3.1c0.1,0,0.2,0.1,0.3,0.1c0,0,5.7-4.1,9.8-0.3c0,0,5.7-6,14.2,1.2c0,0,8.9-3.8,11.5,4.6c0,0,8.9,1.5,8.2,8
		c0,0,3.6,0,3.3,5c0,0,5.6-0.7,5.6,7.8c0,0,5.5,2.4,1.9,11.7c0,0,4,14.7-8.8,16.4c0,0-5.2,14.9-19.5,8.2c0,0-7.8,12.9-21.2,3.9
		c-4.8,0.9-9.6-1.2-12.3-5.3c0,0-12.1,4.1-15.1-6C314.3,87.8,301.2,92.4,302.6,78.4z"/>
	<path class="st44" d="M304.6,101.7h1.4c-3.3,0-5.9-2.7-5.9-5.9l-1.4-9.4c0-3.3,2.7-5.9,5.9-5.9l0,0c3.3,0,5.9,2.6,5.9,5.9v9.4
		C310.5,99,307.9,101.7,304.6,101.7z"/>
	<path class="st44" d="M385.9,101.7h-1.4c-3.2,0-4.5-2.7-4.5-5.9v-9.4c0-3.3,2.6-5.9,5.9-5.9l0,0c3.3,0,5.9,2.6,5.9,5.9l-1.4,9.4
		C390.4,99,389.1,101.7,385.9,101.7z"/>
	<path class="st45" d="M345.2,146.1c-36.2,0-65.6,30.5-65.6,68.2v40h131.2v-40C410.9,176.6,381.5,146.1,345.2,146.1z"/>
	<path class="st46" d="M345.2,142.1c-21.8,0-41.2,10.7-53.6,27.4c0,0,10.1,3,5,14.6l-4.1,1.8l-1.3,5c-0.5,7.1-11.8,4.6-11.8,4.6
		c-1.3,5.6-2,11.4-2,17.2v64.7h135.7v-64.6C413.1,173.7,382.7,142.1,345.2,142.1z"/>
	<path class="st6" d="M370.4,147.2c20.5,12.1,34.4,35.1,34.4,84.4v45.7h8.3v-64.7C413.1,183,395.4,157.6,370.4,147.2z"/>
	<path class="st47" d="M345.2,142.1c-21.8,0-41.2,10.7-53.6,27.4c0,0,10.1,3,5,14.6l-4.1,1.8l-1.3,5c-0.5,7.1-11.8,4.6-11.8,4.6
		c-1.3,5.6-2,11.4-2,17.2v64.7h135.7v-64.6C413.1,173.7,382.7,142.1,345.2,142.1z"/>
	<path class="st48" d="M360.6,124.5h-30.7v25.6c0,8.5,6.9,15.3,15.3,15.4l0,0c0.5,0,5.5,5.6,5.5,5.6l1.1-6.6l5.2,1.2l-0.8-5
		c2.7-2.8,4.2-6.6,4.2-10.6L360.6,124.5z"/>
	<path class="st42" d="M360.6,124.5h-30.7v25.6c0,8.5,6.9,15.3,15.3,15.4l0,0c0.5,0,5.5,5.6,5.5,5.6l1.1-6.6l5.2,1.2l-0.8-5
		c2.7-2.8,4.2-6.6,4.2-10.6L360.6,124.5z"/>
	<ellipse class="st6" cx="345" cy="142" rx="15.5" ry="7.2"/>
	<path class="st36" d="M301,60.9c0,0,4.1,21.1,4.1,33.3s2.4,18.5,6.6,26l3.6-2.2l1.1,5l3.3,2.4l-2,3.4c8,9.1,15.1,14.8,27.5,14.8
		c13.7,0,21.8-6.9,29.9-17.8l-3.2-5.3l5.7,1.6c4.9-7.9,7.7-10.9,7.7-27.9c0.2-11.2,1.5-22.4,4.1-33.3L301,60.9z"/>
	<line class="st42" x1="301.9" y1="277.4" x2="300.5" y2="201.2"/>
	<line class="st42" x1="388.6" y1="277.4" x2="390" y2="201.2"/>
	<path class="st6" d="M350.2,92.8c0,6.7,10.5,14.3,17.2,14.3s10.6-3.8,10.6-10.5s-3.1-10.9-9.8-10.9S350.2,86.1,350.2,92.8z"/>
	<path class="st49" d="M350.2,88.6c0,6.7,10.5,14.3,17.2,14.3S378,99.2,378,92.5s-3.1-10.9-9.8-10.9S350.2,81.9,350.2,88.6z"/>
	<path class="st50" d="M398.6,76.1c0,0-8.6-2-4.8-19.7c-4.7,6.2-13.3,3.5-13.3,3.5l-3.9-8.6l-5.4-1.8l-1.9-6.5l-6.9-3.1
		c0.1-5.7,2.8-10.1,6.3-11.7c-10.5-2.7-24.4-1-42.2,4.7c0,0-7.7-3.4-5.2-9.8c0,0-10.3,0.6-8.6,17.3c0,0-15.2-12.6-22.2,7.1
		c0,0,9.6-3.2,9.6,7.1c0,0-10.4,7.3-1.4,31.7c0,0,10.9-4.5,11.8-14.7c0.8-8.7,6.7-9.7,6.7-9.7s-4.9,12.4,27.2,17.7
		c0,0-3.4-12.2-0.4-14.2c-0.3,0,20.4,28,54.5,20.1c-3.4-1.7-5.9-4.8-7-8.4C394,77.9,396.5,77.5,398.6,76.1z"/>
	<path class="st9" d="M351.4,109.9c0,5-2.8,0.4-6.2,0.4s-6.2,4.5-6.2-0.4s2.8-9,6.2-9S351.4,104.9,351.4,109.9z"/>
	<path class="st51" d="M315.7,48.8c0,0,0.9-3.8-3-8.3"/>
	<path class="st51" d="M362.2,44.7c0,0-0.1-6.8,1.3-10.1"/>
	<path class="st51" d="M339.4,57.8c0,0,1.7,4.6,7.7,11.4"/>
	<line class="st52" x1="343" y1="132.3" x2="344.4" y2="128.9"/>
	<path class="st53" d="M363.5,127.3c0,5.4-11.1,5.3-17.7,2.9c-9.2-3.3-15,1.9-15-2.9s6.5-3.1,15-7.5
		C355.1,115,363.5,122.4,363.5,127.3z"/>
	<g>
		<g>
			<defs>
				<path id="SVGID_1_" d="M363.5,127.3c0,5.4-11.1,5.3-17.7,2.9c-9.2-3.3-15,1.9-15-2.9s6.5-3.1,15-7.5
					C355.1,115,363.5,122.4,363.5,127.3z"/>
			</defs>
			<clipPath id="SVGID_2_">
				<use xlink:href="#SVGID_1_"  style="overflow:visible;"/>
			</clipPath>
			<g class="st54">
				<ellipse class="st55" cx="350.7" cy="130.8" rx="8.3" ry="3.5"/>
			</g>
		</g>
	</g>
	<path class="st6" d="M340.3,92.8c0,6.7-10.5,14.3-17.2,14.3s-10.6-3.8-10.6-10.5s3.1-10.9,9.8-10.9S340.3,86.1,340.3,92.8z"/>
	<path class="st49" d="M340.3,88.6c0,6.7-10.5,14.3-17.2,14.3s-10.6-3.8-10.6-10.5s3.1-10.9,9.8-10.9S340.3,81.9,340.3,88.6z"/>
	<path class="st9" d="M364.7,88.8c-1.4,0-2.8,0.4-3.9,1.3c0.6,0.7,0.6,1.8-0.1,2.4c-0.3,0.3-0.7,0.4-1.1,0.5c0.4,1.7,2.5,3,5,3
		c2.8,0,5.1-1.6,5.1-3.6S367.5,88.8,364.7,88.8z"/>
	<path class="st56" d="M350.2,88.6c0,6.7,6.3,0.2,13,0.2s15.5,5.9,14.6,1.1s-2.9-8.4-9.6-8.4S350.2,81.9,350.2,88.6z"/>
	<path class="st9" d="M325.8,88.8c-1.3,0-2.6,0.4-3.7,1.2c0.4,0.3,0.7,0.8,0.7,1.4c0,1-0.8,1.7-1.7,1.7c-0.1,0-0.2,0-0.3-0.1
		c0.4,1.7,2.5,3,5.1,3c2.8,0,5.1-1.6,5.1-3.6S328.7,88.8,325.8,88.8z"/>
	<path class="st56" d="M340.3,88.6c0,6.7-8.4-1-18.1,0.2c-6.6,0.8-9.6,7.7-9.6,3.6c0-6.7,3.1-10.9,9.8-10.9S340.3,81.9,340.3,88.6z"
		/>
	<line class="st52" x1="334" y1="122.4" x2="332.7" y2="120.3"/>
	<line class="st52" x1="358.4" y1="119.2" x2="358.4" y2="117.1"/>
	<path class="st57" d="M390.9,318.4c0-2-1.2-3.7-1.9-3.7s-1.3,1.7-1.3,3.7c0,0.1,0,0.1,0,0.2c-0.2-0.1-0.4-0.1-0.6-0.1
		c-1.3,0-2.4,2-2.4,4.4s1,5.8,2.4,5.8s2.4-3.3,2.4-5.8c0-0.3,0-0.7-0.1-1C390.4,321,390.9,319.7,390.9,318.4z"/>
	<path class="st58" d="M406.7,299.3c0-1.3-0.7-2.3-1.2-2.3s-0.8,1-0.8,2.3v0.1c-0.1-0.1-0.2-0.1-0.3-0.1c-0.8,0-1.5,1.2-1.5,2.7
		s0.6,3.5,1.5,3.5s1.5-2,1.5-3.5c0-0.2,0-0.4,0-0.6C406.3,300.9,406.6,300.1,406.7,299.3z"/>
	<path class="st59" d="M545.2,403.2l6.2-66h-19.5v41.7c-2.5-0.1-4.7,1.8-4.8,4.4s1.8,4.7,4.4,4.8c0.1,0,0.3,0,0.4,0v15h-2.3
		c-1.3-1.1-2.9,1-4.7,1c-4,0-5.9,1.2-5.9,5.2s1.9,6.6,5.9,6.6l21.9-2.1c3.5,0,3-0.8,3-4.4C549.8,406.3,548.2,403.7,545.2,403.2z"/>
	<path class="st59" d="M586,403.2l-2.1-66h19.5v41.7c2.5-0.1,4.7,1.8,4.8,4.4s-1.8,4.7-4.4,4.8c-0.1,0-0.3,0-0.4,0l-2.1,15h4.4
		c1.3-1.1,2.9,1,4.7,1c4,0,5.9,1.2,5.9,5.2s-1.9,6.6-5.9,6.6H585c-3.5,0-6.4-2.9-6.4-6.4C578.7,406.3,583,403.7,586,403.2z"/>
	<polygon class="st60" points="528.2,281 527.7,302.5 526.6,310.7 525.8,338.5 524.2,355.9 525.2,363.1 523.3,372.3 522,397.9 
		531.3,394 538.2,387.1 548.7,390.6 548.7,397.5 554.9,367.7 559.2,358.5 561.8,346.2 564.5,318.5 568.6,315.7 572,331 575.4,343.4 
		579,359.3 579,397.9 587.6,397.9 593.1,393.9 599.6,396.9 608.4,387.9 609.6,379.4 608.3,346 606.1,336.1 607.2,327.8 604.5,281 	
		"/>
	<path class="st61" d="M619,248.4v-21c2.2-0.2,3.8-1.3,3.8-2.7s-2-2.7-4.4-2.7c-1.4,0.5-3,0.5-4.4,0c-2.4,0-4.4,1.2-4.4,2.7
		s1.7,2.5,3.8,2.7v21c-2.2,0.2-3.8,1.3-3.8,2.7l0,0l0,0c0,1.4,1.7,2.5,3.8,2.7v17.7c-2.2,0.2-3.8,1.3-3.8,2.7s2,2.7,4.4,2.7
		c1.4-0.5,3-0.5,4.4,0c2.4,0,4.4-1.2,4.4-2.7s-1.7-2.5-3.8-2.7v-17.6c2.2-0.2,3.8-1.3,3.8-2.7l0,0l0,0
		C622.8,249.8,621.2,248.6,619,248.4z"/>
	<path class="st62" d="M527.7,289.1l-6.8-4.8c-0.2-0.2,0.2-0.7,0-0.5l-0.2,0.2l-0.1-0.7c-0.2-1.6-1.8-2.8-3.4-2.5l-5.6,0.8
		c-1.6,0.2-2.8,1.8-2.5,3.4l-0.7,10c0,0.1,0,0.1,0,0.2c0.2,1,0.8,1.8,1.7,2.2c0.2,0.1,0.3,0.3,0.3,0.5l0.4,8.2
		c0,0.6,0.6,1.1,1.2,1.1h1c0.6,0,1.1-0.6,1.1-1.2l-0.4-8.1c0-0.3,0.2-0.6,0.5-0.6l0,0c0.3,0,0.6,0.2,0.7,0.5l2.1,14.7
		c0.1,0.7,0.8,1.2,1.5,1.1l0.7-0.1c0.7-0.1,1.2-0.8,1.1-1.5l-2.1-14.7c0-0.3,0.2-0.6,0.5-0.6l0,0l0.4-0.1c0.3,0,0.6,0.2,0.6,0.5l0,0
		l1.7,11.9c0.1,0.7,0.7,1.2,1.4,1.1l0.8-0.1c0.7-0.1,1.2-0.7,1.1-1.4l0,0l-1.8-12.6c0-0.2,0-0.4,0.2-0.5c0.7-0.6,1-1.5,0.9-2.5
		c0-0.1,0-0.1,0-0.2l-0.4-1c-0.1-0.3,0-0.6,0.3-0.7c0.2-0.1,0.4,0,0.6,0.1l0.6,0.5c0.5,0.4,1.2,0.3,1.5-0.2l1.1-1.4
		C528,289.6,528,289.2,527.7,289.1L527.7,289.1z"/>
	<path class="st63" d="M603,289.1l6.8-4.8c0.2-0.2-0.2-0.7,0-0.5l0.2,0.2l0.1-0.7c0.2-1.6,1.8-2.8,3.4-2.5l5.6,0.8
		c1.6,0.2,2.8,1.8,2.5,3.4l0.7,10c0,0.1,0,0.1,0,0.2c-0.2,1-0.8,1.8-1.7,2.2c-0.2,0.1-0.3,0.3-0.3,0.5l-0.4,6.8
		c0,0.6-0.6,2.5-1.2,2.5l-1-1.4c-0.6,0-1.1-0.6-1.1-1.2l0.4-6.7c0-0.3-0.2-0.6-0.5-0.6l0,0c-0.3,0-0.6,0.2-0.7,0.5l-2.1,14.7
		c-0.1,0.7-0.8,1.2-1.5,1.1l-0.7-0.1c-0.7-0.1-1.2-0.8-1.1-1.5l2.1-14.7c0-0.3-0.2-0.6-0.5-0.6l0,0l-0.4-0.1c-0.3,0-0.6,0.2-0.6,0.5
		l0,0l-1.7,11.9c-0.1,0.7-0.7,1.2-1.4,1.1l-0.8-0.1c-0.7-0.1-1.2-0.7-1.1-1.4l1.8-12.6c0-0.2,0-0.4-0.2-0.5c-0.6-0.6-1-1.5-0.9-2.5
		c0-0.1,0-0.1,0-0.2l0.4-1c0.1-0.3,0-0.6-0.3-0.7c-0.2-0.1-0.4,0-0.6,0.1l-0.6,0.5c-0.5,0.4-1.2,0.3-1.5-0.2l-1.1-1.4
		C602.7,289.6,602.8,289.2,603,289.1L603,289.1z"/>
	<line class="st64" x1="510.2" y1="261" x2="510.2" y2="227.7"/>
	<line class="st65" x1="509.8" y1="253.6" x2="510.7" y2="218.1"/>
	<path class="st66" d="M526.6,102.3c0,0-8.3-6.4-1.3-15.7c0,0-2.2-11.1,7-11.7c0,0,1.8-10.8,10.9-8.4c0,0,2.4-5.8,7.8-2.8
		c0.9-2.5,3.5-3.7,6-2.9c0.1,0,0.2,0.1,0.3,0.1c0,0,5.1-3.7,8.9-0.3c0,0,5.1-5.4,12.8,1.1c0,0,8-3.4,10.4,4.1c0,0,8,1.3,7.4,7.2
		c0,0,3.3,0,3,4.5c0,0,5-0.7,5,7c0,0,5,2.1,1.7,10.5c0,0,3.6,13.3-8,14.8c0,0-4.7,13.5-17.6,7.4c0,0-7,11.6-19.1,3.5
		c-4.3,0.8-8.7-1.1-11.1-4.8c0,0-10.9,3.7-13.6-5.4C537.1,110.8,525.3,115,526.6,102.3z"/>
	<path class="st67" d="M528.4,123.3h1.2c-2.9,0-5.3-2.4-5.3-5.3l-1.2-8.5c0-2.9,2.4-5.3,5.3-5.3l0,0c2.9,0,5.3,2.4,5.3,5.3v8.5
		C533.7,120.9,531.3,123.3,528.4,123.3z"/>
	<path class="st67" d="M601.7,123.3h-1.2c-2.9,0-4.1-2.4-4.1-5.3v-8.5c0-2.9,2.4-5.3,5.3-5.3l0,0c2.9,0,5.3,2.4,5.3,5.3l-1.2,8.5
		C605.8,120.9,604.7,123.3,601.7,123.3z"/>
	<path class="st67" d="M565.1,163.4c32.7,0,59.2,27.5,59.2,61.5V261H505.9v-36C505.9,191,532.4,163.4,565.1,163.4z"/>
	<path class="st68" d="M565.1,159.9c19.1,0.1,37.1,9.2,48.4,24.7c0,0-9.1,2.8-4.5,13.1l3.7,1.6l1.2,4.5c0.4,6.4,10.7,4.2,10.7,4.2
		c1.2,5.1,1.8,10.3,1.8,15.5v58.4H503.8v-58.3C503.8,188.4,531.2,159.9,565.1,159.9z"/>
	<path class="st6" d="M542.3,164.4c-18.5,10.9-31,31.6-31,76.2v41.3h-7.5v-58.3C503.8,196.7,519.8,173.8,542.3,164.4z"/>
	<path class="st69" d="M565.1,159.9c19.1,0.1,37.1,9.2,48.4,24.7c0,0-9.1,2.8-4.5,13.1l3.7,1.6l1.2,4.5c0.4,6.4,10.7,4.2,10.7,4.2
		c1.2,5.1,1.8,10.3,1.8,15.5v58.4H503.8v-58.3C503.8,188.4,531.2,159.9,565.1,159.9z"/>
	<path class="st70" d="M578.9,144h-27.7v23.1c0,7.6,6.2,13.8,13.8,13.8c0.4,0,5,5,5,5l1-6l4.7,1.1l-0.7-4.5c2.5-2.6,3.8-6,3.8-9.5
		L578.9,144z"/>
	<path class="st65" d="M578.9,144h-27.7v23.1c0,7.6,6.2,13.8,13.8,13.8c0.4,0,5,5,5,5l1-6l4.7,1.1l-0.7-4.5c2.5-2.6,3.8-6,3.8-9.5
		L578.9,144z"/>
	<ellipse class="st6" cx="564.9" cy="159.7" rx="14" ry="6.5"/>
	<path class="st59" d="M525.1,86.5c0,0,3.7,19.1,3.7,30s2.2,16.7,6,23.5l3.2-2l1,4.5l3,2.1l-1.8,3.1c7.2,8.2,13.6,13.4,24.8,13.4
		c12.3,0,19.7-6.2,27-16l-2.9-4.8l5.2,1.4c4.4-7.2,7-9.9,7-25.2c0.1-10.1,1.4-20.2,3.7-30H525.1z"/>
	<line class="st65" x1="604.2" y1="281.9" x2="605.5" y2="213.1"/>
	<line class="st65" x1="525.9" y1="281.9" x2="524.7" y2="213.1"/>
	<path class="st6" d="M569.6,115.3c0,6,9.4,12.9,15.5,12.9s9.5-3.4,9.5-9.5s-2.8-9.9-8.8-9.9S569.6,109.2,569.6,115.3z"/>
	<path class="st71" d="M569.6,111.6c0,6,9.4,12.9,15.5,12.9s9.5-3.4,9.5-9.5s-2.8-9.9-8.8-9.9S569.6,105.5,569.6,111.6z"/>
	<path class="st9" d="M570.6,130.7c0,4.5-2.5,0.4-5.6,0.4s-5.6,4.1-5.6-0.4s2.5-8.1,5.6-8.1S570.6,126.3,570.6,130.7z"/>
	<path class="st72" d="M538.4,75.6c0,0,0.8-3.4-2.7-7.5"/>
	<path class="st72" d="M580.3,71.9c0,0-0.1-6.2,1.2-9.1"/>
	<path class="st72" d="M559.8,83.7c0,0,1.5,4.2,6.9,10.2"/>
	<line class="st73" x1="563" y1="151" x2="564.3" y2="147.9"/>
	<path class="st74" d="M581.5,146.4c0,4.9-10,4.8-16,2.7c-8.3-3-13.5,1.8-13.5-2.7s5.9-2.8,13.5-6.8
		C574,135.4,581.5,142,581.5,146.4z"/>
	<g>
		<g>
			<defs>
				<path id="SVGID_3_" d="M581.5,146.4c0,4.9-10,4.8-16,2.7c-8.3-3-13.5,1.8-13.5-2.7s5.9-2.8,13.5-6.8
					C574,135.4,581.5,142,581.5,146.4z"/>
			</defs>
			<clipPath id="SVGID_4_">
				<use xlink:href="#SVGID_3_"  style="overflow:visible;"/>
			</clipPath>
			<g class="st75">
				<ellipse class="st55" cx="570" cy="149.6" rx="7.5" ry="3.2"/>
			</g>
		</g>
	</g>
	<path class="st6" d="M560.6,115.3c0,6-9.4,12.9-15.5,12.9s-9.5-3.4-9.5-9.5s2.8-9.9,8.8-9.9S560.6,109.2,560.6,115.3z"/>
	<path class="st9" d="M582.6,111.8c-1.3,0-2.5,0.4-3.5,1.2c0.3,0.3,0.5,0.7,0.5,1.1c0,0.8-0.7,1.5-1.5,1.6c0.4,1.5,2.3,2.7,4.5,2.7
		c2.6,0,4.6-1.4,4.6-3.2S585.2,111.8,582.6,111.8z"/>
	<path class="st76" d="M569.6,111.6c0,6,5.7,0.2,11.7,0.2s14,5.4,13.2,1s-2.6-7.6-8.7-7.6S569.6,105.5,569.6,111.6z"/>
	<path class="st9" d="M547.5,111.8c-1.2,0-2.4,0.3-3.4,1c0.4,0.3,0.6,0.7,0.6,1.2c0,0.9-0.7,1.6-1.6,1.6c-0.1,0-0.2,0-0.3-0.1
		c0.4,1.5,2.3,2.7,4.6,2.7c2.6,0,4.6-1.4,4.6-3.2S550.1,111.8,547.5,111.8z"/>
	<line class="st73" x1="555" y1="142" x2="553.7" y2="140.2"/>
	<line class="st73" x1="576.9" y1="139.1" x2="576.9" y2="137.3"/>
	<path class="st77" d="M559.5,109.3c0,2-0.3,6.7-1.7,8.4c-2.3,2.7-10.8,3.6-15.3,5.4c-4.9,1.9-4.6-5.6-4.6-10.8s2.4-8.6,7.6-8.6
		S559.5,104.1,559.5,109.3z"/>
	
		<rect x="528.8" y="101.7" transform="matrix(0.9946 -0.1038 0.1038 0.9946 -7.8368 59.146)" class="st77" width="71.1" height="6.3"/>
	<polygon class="st78" points="599.8,101.5 529.1,108.9 529.5,110.8 600.2,103.4 	"/>
	
		<rect x="528.7" y="99.9" transform="matrix(0.9946 -0.1038 0.1038 0.9946 -7.5413 59.1207)" class="st79" width="71.1" height="4.2"/>
	<path class="st80" d="M515.7,100.3c0,0,7.8-1.8,4.4-17.7c4.3,5.6,12,3.1,12,3.1l3.5-7.8l4.8-1.6l1.7-5.9l6.2-2.8
		c-0.1-5.2-2.6-9.1-5.7-10.5c9.5-2.4,22-0.9,38,4.3c0,0,6.9-3,4.8-8.9c0,0,9.3,0.5,7.8,15.6c0,0,13.7-11.4,20,6.4
		c0,0-8.6-2.8-8.6,6.4c0,0,9.4,6.6,1.2,28.5c0,0-9.8-4-10.7-13.3c-0.7-7.9-6-8.7-6-8.7s4.4,11.2-24.6,16c0,0,3.1-11,0.3-12.8
		c0.3,0-18.4,25.3-49.2,18.1c3.1-1.6,5.3-4.3,6.3-7.6C519.9,101.9,517.6,101.6,515.7,100.3z"/>
	<path class="st81" d="M620.5,301.7c0-1.1-0.7-2.1-1-2.1s-0.7,0.9-0.7,2.1v0.1c-0.1,0-0.2-0.1-0.3-0.1c-0.7,0-1.3,1.1-1.3,2.4
		s0.6,3.2,1.3,3.2s1.3-1.8,1.3-3.2c0-0.2,0-0.4,0-0.5C620.2,303.1,620.5,302.4,620.5,301.7z"/>
	<path class="st82" d="M604.2,245.8c0-3.7,0.3-6.7-0.3-6.7s-4.7,3-4.7,6.7c0,0.1,0,0.3,0,0.4c-0.2-0.1-0.3-0.3-0.5-0.2
		c-6.4,1.7-2.9,5.6-2.9,10s1.8,8.3,2.9,8.3s2.1-6,2.1-10.3c0-0.6,1.4-1.2,1.3-1.8C603.4,250.3,604.1,248.1,604.2,245.8z"/>
	<path class="st83" d="M601.7,61.7l-7.8-18.2c-0.8-11-16.3-28.7-25.3-28.1l-5.4,5.8l-6.3-7.7c-9.2,0.5-20,24.5-19.3,35.5L531,65.5
		c-28.2,4.3-47.3,11.8-46.9,17.5c0.4,6.2,22.9,8.2,54.7,8.2c10.6,0,22.2,1.4,34.3,0.6c8.6-0.6,16.2-3.2,23.1-4.2
		c7.7-1.1,14.3-0.7,20-2.2c3.3-0.9,4.4-2.4,7-3.4c1.8-0.7,5.3-0.7,6.8-1.4c8-3.7,11.5-7.7,11.3-11.2c-0.3-1.4-0.9-2.7-1.7-3.9
		c-1-1.6-2.1-0.8-6.2-1.5c-2.5-0.4-5.7-1.7-9.9-1.9C618,61.8,610.9,61.7,601.7,61.7z"/>
	<line class="st84" x1="531.1" y1="65.8" x2="601.5" y2="60.4"/>
	<path class="st84" d="M576.7,62.6c0,0,7.1,1.4,9,2.7c2.9,1.9,9,5.4,9,5.4"/>
	<path class="st84" d="M573.1,62.6c0,0-7,1.4-9,2.7c-2.9,1.9-9,5.4-9,5.4"/>
	<circle class="st85" cx="566.8" cy="50.9" r="2.7"/>
	<path class="st86" d="M431.4,445.8l7.9-83.6h-24.8V415c-3.2,0-5.8,2.6-5.8,5.8s2.6,5.8,5.8,5.8v19h-2.9c-1.6-1.4-3.6,1.3-5.9,1.3
		c-5.1,0-7.5,1.5-7.5,6.6s2.4,8.4,7.5,8.4l27.7-2.6c4.5,0,3.8-1,3.8-5.5C437.2,449.8,435.2,446.5,431.4,445.8z"/>
	<path class="st86" d="M483,445.8l-2.6-83.6h24.8V415c3.2,0,5.8,2.6,5.8,5.8s-2.6,5.8-5.8,5.8l0,0l-2.6,19h5.6
		c1.6-1.4,3.7,1.3,5.9,1.3c5.1,0,7.5,1.5,7.5,6.6s-2.4,8.4-7.5,8.4H482c-4.5,0-8.1-3.7-8.1-8.1C473.8,449.8,479.3,446.5,483,445.8z"
		/>
	<polygon class="st87" points="409.8,291 409.3,318.3 407.8,328.7 406.8,363.9 404.8,385.9 406,395 403.7,406.7 401.9,439 
		413.8,434.2 422.6,425.4 435.8,429.8 435.8,438.6 443.7,400.8 449.1,389.3 452.4,373.6 455.8,338.5 461,335 465.3,354.4 
		469.6,370.1 469.1,390.2 474.2,439 515.2,439 513,415.7 511.3,373.3 509.7,360.9 510,350.3 506.5,291 	"/>
	<path class="st88" d="M524.9,249.8v-26.6c2.7-0.2,4.9-1.6,4.9-3.4s-2.5-3.4-5.6-3.4c-0.9,0-1.9,0.2-2.8,0.5
		c-0.9-0.3-1.8-0.5-2.8-0.5c-3.1,0-5.6,1.5-5.6,3.4s2.1,3.2,4.9,3.4v26.6c-2.7,0.2-4.9,1.6-4.9,3.4l0,0c0,1.7,2.1,3.2,4.9,3.4V279
		c-2.7,0.2-4.9,1.6-4.9,3.4s2.5,3.4,5.6,3.4c0.9,0,1.9-0.2,2.8-0.5c0.9,0.3,1.8,0.5,2.8,0.5c3.1,0,5.6-1.5,5.6-3.4s-2.1-3.2-4.9-3.4
		v-22.4c2.7-0.2,4.9-1.6,4.9-3.4l0,0C529.7,251.4,527.6,250,524.9,249.8z"/>
	<path class="st89" d="M409.2,301.3l-8.6-6c-0.3-0.2,0.2-0.9,0-0.7l-0.2,0.2l-0.1-0.9c-0.3-2.1-2.2-3.5-4.3-3.2l-7,1
		c-2.1,0.3-3.5,2.2-3.2,4.3l-0.8,12.6c0,0.1,0,0.1,0,0.2c0.2,1.2,1,2.3,2.2,2.8c0.2,0.1,0.4,0.4,0.4,0.6l0.5,10.4
		c0,0.8,0.7,1.5,1.6,1.4l1.3-0.1c0.8,0,1.5-0.7,1.4-1.6l-0.5-10.2c0-0.4,0.2-0.7,0.6-0.8l0,0c0.4-0.1,0.8,0.2,0.8,0.6l2.7,18.6
		c0.1,0.9,1,1.5,1.9,1.4l0.9-0.1c0.9-0.1,1.5-1,1.4-1.9l-2.7-18.6c-0.1-0.4,0.2-0.8,0.6-0.8l0,0l0.5-0.1c0.4-0.1,0.8,0.2,0.8,0.6
		l0,0l2.2,15c0.1,0.9,0.9,1.5,1.8,1.3l0,0l1-0.1c0.9-0.1,1.5-0.9,1.4-1.8l0,0l-2.3-15.9c0-0.2,0.1-0.5,0.2-0.6
		c0.8-0.8,1.2-2,1.1-3.1c0-0.1,0-0.1,0-0.2l-0.5-1.3c-0.1-0.4,0.1-0.8,0.4-0.9c0.2-0.1,0.5,0,0.7,0.1l0.8,0.6
		c0.6,0.4,1.5,0.3,1.9-0.3l1.4-1.8C409.5,301.8,409.5,301.5,409.2,301.3z"/>
	<path class="st89" d="M504.6,301.3l8.6-6c0.3-0.2-0.2-0.9,0-0.7l0.2,0.2l0.1-0.9c0.3-2.1,2.2-3.5,4.3-3.2l7,1
		c2.1,0.3,3.5,2.2,3.2,4.3l0.8,12.6c0,0.1,0,0.1,0,0.2c-0.2,1.2-1,2.3-2.2,2.8c-0.2,0.1-0.4,0.4-0.4,0.6l-0.5,8.6
		c0,0.8-0.7,3.2-1.6,3.2l-1.3-1.8c-0.8,0-1.4-0.7-1.4-1.6l0.5-8.5c0-0.4-0.3-0.7-0.6-0.8l0,0c-0.4-0.1-0.8,0.2-0.8,0.6l0,0
		l-2.7,18.6c-0.1,0.9-1,1.5-1.9,1.4l-0.9-0.1c-0.9-0.1-1.5-1-1.4-1.9l2.7-18.6c0.1-0.4-0.2-0.8-0.6-0.8l0,0l-0.5-0.1
		c-0.4-0.1-0.8,0.2-0.8,0.6l0,0l-2.2,15c-0.1,0.9-0.9,1.5-1.8,1.3l-1-0.1c-0.9-0.1-1.5-0.9-1.3-1.8l0,0l2.3-15.9
		c0-0.2-0.1-0.5-0.2-0.6c-0.8-0.8-1.2-2-1.1-3.1c0-0.1,0-0.1,0-0.2l0.5-1.3c0.1-0.4-0.1-0.8-0.4-0.9c-0.2-0.1-0.5,0-0.7,0.1
		l-0.8,0.6c-0.6,0.4-1.5,0.3-1.9-0.3l-1.4-1.8C504.3,301.8,504.3,301.5,504.6,301.3z"/>
	<line class="st90" x1="526" y1="265.7" x2="526" y2="223.5"/>
	<line class="st91" x1="386.5" y1="256.4" x2="387.7" y2="211.3"/>
	<path class="st92" d="M407.9,64.7c0,0-10.5-8.1-1.7-19.8c0,0-2.8-14.1,8.8-14.8c0,0,2.3-13.7,13.8-10.6c0,0,3-7.4,9.9-3.6
		c1.1-3.1,4.6-4.7,7.7-3.6c0.1,0,0.2,0.1,0.3,0.1c0,0,6.5-4.7,11.2-0.3c0,0,6.5-6.8,16.2,1.3c0,0,10.1-4.3,13.1,5.2
		c0,0,10.1,1.7,9.4,9.1c0,0,4.1,0,3.8,5.7c0,0,6.4-0.8,6.4,8.9c0,0,6.3,2.7,2.2,13.3c0,0,4.5,16.8-10.1,18.8c0,0-5.9,17-22.3,9.4
		c0,0-8.9,14.7-24.2,4.5c-5.4,1-11-1.4-14-6c0,0-13.8,4.7-17.3-6.8C421.1,75.5,406.2,80.8,407.9,64.7z"/>
	<path class="st93" d="M410.1,91.4h1.6c-3.7,0-6.7-3-6.8-6.8l-1.6-10.8c0-3.7,3-6.7,6.7-6.8l0,0c3.7,0,6.7,3,6.8,6.8v10.8
		C416.8,88.3,413.8,91.3,410.1,91.4z"/>
	<path class="st94" d="M416.5,125.6c0,0,2.5,2.7,4.1,6.6c1.8,4.4,2.5,9.1,3.7,7.9c4.7-5.1,2.9-10.3,4.3-16.3s3.6,0.8,6.6,5.9
		c3,5.1,11.1-4.6,11.1-4.6s-34.5-42.4-37.4-31.4C406,104.7,416.5,125.6,416.5,125.6z"/>
	<path class="st94" d="M501.5,116.1c0,0-1.8,8.4-2.7,12.3c-0.9,4.4-2.4,17.5-2.6,16.2c-1.6-9.7-8-3.1-8.7-9.2c-0.7-6-2-6.8-3.5-1.7
		s-5.6-8.6-5.6-8.6s7.8-32.4,18.8-31.4C503.5,94.3,501.5,116.1,501.5,116.1z"/>
	<path class="st94" d="M416.5,136.8c0,0-25.1-37.7-13.5-70.3c0,0,12.1-9.3,13.5-15C416.5,51.5,411.6,126.5,416.5,136.8z"/>
	<path class="st94" d="M501.3,147.8c0,0,17.4-15,8.4-80.8c0,0-11,1.2-12.7-4.4C497,62.6,505.6,137.3,501.3,147.8z"/>
	<path class="st93" d="M503,91.4h-1.6c-3.7,0-5.2-3-5.2-6.8V73.8c0-3.7,3-6.7,6.8-6.8l0,0c3.7,0,6.7,3,6.7,6.8l-1.6,10.8
		C508.2,88.3,506.7,91.4,503,91.4z"/>
	<path class="st93" d="M456.5,142.1c-41.4,0-75,34.9-75,77.9v45.8h150V220C531.5,177,498,142.1,456.5,142.1z"/>
	<path class="st95" d="M456.5,137.6c-25,0-47.1,12.2-61.3,31.3c0,0,11.5,3.5,5.7,16.6l-4.7,2.1l-1.5,5.7c-0.5,8.1-13.5,5.3-13.5,5.3
		c-1.5,6.4-2.3,13-2.3,19.6v73.9H534v-73.9C534.1,173.7,499.4,137.6,456.5,137.6z"/>
	<path class="st6" d="M485.3,143.4c23.5,13.9,39.3,40.1,39.3,96.5v52.2h9.5v-73.9C534.1,184.3,513.9,155.2,485.3,143.4z"/>
	<path class="st96" d="M456.5,137.6c-25,0-47.1,12.2-61.3,31.3c0,0,11.5,3.5,5.7,16.6l-4.7,2.1l-1.5,5.7c-0.5,8.1-13.5,5.3-13.5,5.3
		c-1.5,6.4-2.3,13-2.3,19.6v73.9H534v-73.9C534.1,173.7,499.4,137.6,456.5,137.6z"/>
	<path class="st97" d="M474.1,117.5H439v29.2c0,9.7,7.9,17.5,17.5,17.5l0,0c0.5,0,6.3,6.4,6.3,6.4l1.3-7.6l6,1.4l-0.9-5.7
		c3.1-3.3,4.9-7.6,4.9-12.1L474.1,117.5z"/>
	<path class="st91" d="M474.1,117.5H439v29.2c0,9.7,7.9,17.5,17.5,17.5l0,0c0.5,0,6.3,6.4,6.3,6.4l1.3-7.6l6,1.4l-0.9-5.7
		c3.1-3.3,4.9-7.6,4.9-12.1L474.1,117.5z"/>
	<ellipse class="st6" cx="456.3" cy="137.4" rx="17.8" ry="8.2"/>
	<path class="st86" d="M406,44.7c0,0,4.7,24.2,4.7,38s2.8,21.1,7.6,29.7l4.1-2.6l1.3,5.7l3.8,2.7l-2.3,3.9
		c9.2,10.4,17.3,16.9,31.4,16.9c15.6,0,24.9-7.9,34.2-20.3l-3.8-6.1l6.6,1.8c5.6-9.1,8.8-12.5,8.8-31.9c0.2-12.8,1.8-25.5,4.7-38
		L406,44.7z"/>
	<line class="st91" x1="407" y1="292.1" x2="405.4" y2="205.1"/>
	<line class="st91" x1="506.1" y1="292.1" x2="507.7" y2="205.1"/>
	<path class="st6" d="M462.2,81.2c0,7.7,12,16.4,19.6,16.4s12.1-4.3,12.1-12S490.4,73,482.8,73S462.2,73.5,462.2,81.2z"/>
	<path class="st98" d="M487.7,183.9c0-5.6-3.1-8.5-7-8.5s-7,4.5-7,10.1s3.1,8.5,7,8.5h0.2c0,0.2,0,0.3,0,0.5c-2.1,0.4-3.5,2.5-3,4.6
		c0.4,1.8,2,3.1,3.8,3.1c0.2,0,0.3,0,0.5-0.1c1.2,2.9,3.3,4.8,5.5,4.8c3.8,0,6.9-5.1,6.9-11.5S491.5,183.9,487.7,183.9z"/>
	<path class="st99" d="M462.2,76.5c0,7.7,12,16.4,19.6,16.4s12.1-4.3,12.1-12s-3.5-12.5-11.2-12.5S462.2,68.8,462.2,76.5z"/>
	<path class="st94" d="M511.6,37.1c-5.4,7.1-15.2,3.9-15.2,3.9l-4.4-9.8l-6.1-2l-2.2-7.4l-7.9-3.5c0.2-6.5,3.2-11.6,7.2-13.3
		c-12-3.1-27.8-1.2-48.2,5.4c0,0-14.1-6.8-15.8,8.6c0,0-14.5,4.5-14.5,16.2c0,0-10.3,19.2,0,46.9c0,0,10.9-15.9,11.9-27.6
		c0.9-10,7.6-11,7.6-11s1,10.5,37.7,16.6c0,0-10.5-10.3-7-12.6c-0.4,0,23.3,32,62.3,22.9c-3.9-2-1.9-5.7-3.2-9.9
		C513.8,52.2,510.1,58.5,511.6,37.1z"/>
	<path class="st9" d="M463.6,100.7c0,5.7-3.2,0.5-7,0.5s-7.1,5.2-7.1-0.5s3.2-10.3,7.1-10.3S463.6,95.1,463.6,100.7z"/>
	<path class="st100" d="M422.8,30.9c0,0,1-4.3-3.4-9.5"/>
	<path class="st100" d="M475.9,26.2c0,0-0.1-7.8,1.5-11.5"/>
	<path class="st100" d="M449.9,41.2c0,0,2,5.3,8.8,13"/>
	<line class="st101" x1="454" y1="126.3" x2="455.5" y2="122.4"/>
	<path class="st102" d="M477.4,120.6c0,6.2-12.7,6.1-20.2,3.4c-10.5-3.8-17.1,2.2-17.1-3.4s7.5-3.6,17.1-8.6
		C467.8,106.6,477.4,115,477.4,120.6z"/>
	<g>
		<g>
			<defs>
				<path id="SVGID_5_" d="M477.4,120.6c0,6.2-12.7,6.1-20.2,3.4c-10.5-3.8-17.1,2.2-17.1-3.4s7.5-3.6,17.1-8.6
					C467.8,106.6,477.4,115,477.4,120.6z"/>
			</defs>
			<clipPath id="SVGID_6_">
				<use xlink:href="#SVGID_5_"  style="overflow:visible;"/>
			</clipPath>
			<g class="st103">
				<ellipse class="st55" cx="462.8" cy="124.6" rx="9.4" ry="4"/>
			</g>
		</g>
	</g>
	<path class="st6" d="M450.9,81.2c0,7.7-12,16.4-19.6,16.4s-12.1-4.3-12.1-12S422.7,73,430.3,73S450.9,73.5,450.9,81.2z"/>
	<path class="st99" d="M450.9,76.5c0,7.7-12,16.4-19.6,16.4s-12.1-4.3-12.1-12s3.5-12.5,11.2-12.5S450.9,68.8,450.9,76.5z"/>
	<path class="st9" d="M478.7,76.7c-1.6,0-3.2,0.5-4.5,1.5c0.8,0.8,0.7,2.1-0.1,2.8c-0.3,0.3-0.7,0.5-1.2,0.5
		c0.5,1.9,2.9,3.4,5.8,3.4c3.2,0,5.9-1.8,5.9-4.1S482,76.7,478.7,76.7z"/>
	<path class="st104" d="M462.2,76.5c0,7.7,7.1,0.2,14.8,0.2s17.7,6.8,16.7,1.2s-3.3-9.6-11-9.6S462.2,68.8,462.2,76.5z"/>
	<path class="st9" d="M434.4,76.7c-1.5,0-3,0.4-4.3,1.3c0.5,0.4,0.8,0.9,0.8,1.6c0,1.1-0.9,2-2,2c-0.1,0-0.2,0-0.3-0.1
		c0.5,1.9,2.9,3.4,5.8,3.4c3.2,0,5.9-1.8,5.9-4.1S437.6,76.7,434.4,76.7z"/>
	<path class="st104" d="M450.9,76.5c0,7.7-9.6-1.2-20.7,0.2c-7.6,1-11,8.8-11,4.2c0-7.7,3.5-12.5,11.2-12.5S450.9,68.8,450.9,76.5z"
		/>
	<line class="st101" x1="443.8" y1="115" x2="442.2" y2="112.7"/>
	<line class="st101" x1="471.6" y1="111.3" x2="471.6" y2="109"/>
	<path class="st105" d="M472,214.3c0-1.9,1.6-5.1,3.5-5.1s3.5,3.1,3.5,5.1c0.1,1.9-1.3,3.6-3.2,3.8c-1.9,0.1-3.6-1.3-3.8-3.2
		C472,214.6,472,214.5,472,214.3L472,214.3z"/>
	<path class="st106" d="M508.8,339c0-2.3-1.3-4.2-2.2-4.2s-1.5,1.9-1.5,4.2c0,0.1,0,0.2,0,0.2c-0.2-0.1-0.4-0.1-0.6-0.1
		c-1.5,0-2.7,2.3-2.7,5s1.2,6.6,2.7,6.6s2.7-3.8,2.7-6.6c0-0.4,0-0.7-0.1-1.1C508.1,342,508.7,340.5,508.8,339z"/>
	<path class="st107" d="M526.7,317.2c0-1.4-0.8-2.6-1.3-2.6s-0.9,1.2-0.9,2.6v0.1c-0.1-0.1-0.3-0.1-0.4-0.1c-0.9,0-1.7,1.4-1.7,3.1
		s0.7,4,1.7,4s1.7-2.3,1.7-4c0-0.2,0-0.5,0-0.7C526.4,319,526.7,318.1,526.7,317.2z"/>
	<g id="Caveman_Coder">
		<ellipse class="st108" cx="287.2" cy="200.4" rx="19.4" ry="22.6"/>
		<path class="st108" d="M271.3,212c-2.8-0.5-4.6-3.2-4.2-5.9l1.6-9.2c0.5-2.8,3.2-4.7,6-4.2l0,0l0,0c2.8,0.5,4.7,3.2,4.2,6l0,0
			l-1.4,10.1"/>
		<path class="st109" d="M299.6,216.9l-28.3-4.9c0,0,5.3,30.5-10.2,33.8c-21.6,4.6-40.2-56.8-40.6-56.6s3,73.2,3,73.2
			s13.5,31.5,39.4,28.2c1.1-0.1,2.2-0.3,3.3-0.6c2.9,3.8,8.4,4.6,12.2,1.7c3.5-2.6,4.5-7.4,2.4-11.2
			C298.3,260.1,299.6,216.9,299.6,216.9z"/>
		<g class="st13">
			<path d="M299.6,216.9l-10.9-1.4c-1.3,81.5-50.9,65.1-57,60.3c6.6,8.1,17,16.6,31.1,14.9c1.1-0.1,2.2-0.3,3.3-0.6
				c2.9,3.8,8.4,4.6,12.2,1.7c3.5-2.6,4.5-7.4,2.4-11.2C298.3,260.1,299.6,216.9,299.6,216.9z"/>
		</g>
		<path class="st110" d="M299.6,216.9l-28.3-4.9c0,0,5.3,30.5-10.2,33.8c-21.6,4.6-40.2-56.8-40.6-56.6s3,73.2,3,73.2
			s13.5,31.5,39.4,28.2c1.1-0.1,2.2-0.3,3.3-0.6c2.9,3.8,8.4,4.6,12.2,1.7c3.5-2.6,4.5-7.4,2.4-11.2
			C298.3,260.1,299.6,216.9,299.6,216.9z"/>
		<path class="st108" d="M283.7,171.4l6.6,1.6c0.8,0.2,1.2,0.9,1,1.7l-3.6,15.1c-0.2,0.8-0.9,1.2-1.7,1l-6.6-1.6
			c-0.8-0.2-1.2-0.9-1-1.7l3.6-15.1C282.1,171.7,282.9,171.2,283.7,171.4z"/>
		<path class="st108" d="M293,173.6l6.6,1.6c0.8,0.2,1.2,0.9,1,1.7L297,192c-0.2,0.8-0.9,1.2-1.7,1l-6.6-1.6c-0.8-0.2-1.2-0.9-1-1.7
			l3.6-15.1C291.5,173.9,292.3,173.5,293,173.6z"/>
		<path class="st108" d="M302.4,175.9l6.6,1.6c0.8,0.2,1.2,0.9,1,1.7l-3.6,15.1c-0.2,0.8-0.9,1.2-1.7,1l-6.6-1.6
			c-0.8-0.2-1.2-0.9-1-1.7l3.6-15.1C300.9,176.1,301.6,175.7,302.4,175.9z"/>
		<ellipse class="st111" cx="287.2" cy="200.4" rx="19.4" ry="22.6"/>
		<path class="st112" d="M330.6,204.5c13.1,1.8,14.5-2.5,13.1-5.1c-2.6-4.8-63.8-19.9-126.2-34.2c-3.7-0.9-14.9-1.7-18.6-2.5
			c-19-4.3-36.7-6.9-52.7-10.6c-5-1.2-10.2-3.9-14.8-5c-27.1-6.3-45.7-10.7-48.4-11.3c-9.7-1.9-19.1-2.4-22.4,3.2
			c0,0-4.2-0.5-12.9-1.6c-2.4-0.3-12.7-2.2-15.3-2.4c-7.5-0.6-10.2,0-15.4,1.7c-12,4-21.4,20.7-12.9,29.9c2.5,2.6,5,3.7,10.9,5.4
			c2.5,0.7,10.1,1.9,12.6,2.4c8.9,1.9,14.8,3.4,14.8,3.4s-4.4,5.7,1.4,8.2c1.7,0.7,25.3,2.9,58.5,5.6c5.5,0.4,11.6,2.5,17.5,3
			c32.2,2.6,70,4.1,105.1,6.9c5.5,0.4,11.4,2.5,16.7,2.9c36.6,2.9,68,5.1,83,5.5C331.5,210.1,329.8,204.4,330.6,204.5z"/>
		<g class="st13">
			<path d="M343.7,199.4c-2.6-4.8-63.8-19.9-126.2-34.2c-3.7-0.9-14.9-1.7-18.6-2.5c-19-4.3-36.7-6.9-52.7-10.6
				c-5-1.2-10.2-3.9-14.8-5c-27.1-6.3-45.7-10.7-48.4-11.3c-9.1-1.8-17.8-2.2-21.6,2.3c8.5,2,21.9,7.8,38.5,11.7
				c4.6,1.1,9.8,1.2,14.8,2.3c16,3.7,33.7,6.3,52.7,10.6c3.7,0.8,14.9,1.7,18.6,2.5c62.4,14.3,111.6,43.3,111.6,43.3
				c11.4,0.7,20.8,1.2,27.1,1.4c6.8,0.2,5.1-5.6,5.9-5.5C343.7,206.3,345.1,202,343.7,199.4z"/>
		</g>
		<path class="st113" d="M330.6,204.5c13.1,1.8,14.5-2.5,13.1-5.1c-2.6-4.8-63.8-19.9-126.2-34.2c-3.7-0.9-14.9-1.7-18.6-2.5
			c-19-4.3-36.7-6.9-52.7-10.6c-5-1.2-10.2-3.9-14.8-5c-27.1-6.3-45.7-10.7-48.4-11.3c-9.7-1.9-19.1-2.4-22.4,3.2
			c0,0-4.2-0.5-12.9-1.6c-2.4-0.3-12.7-2.2-15.3-2.4c-7.5-0.6-10.2,0-15.4,1.7c-12,4-21.4,20.7-12.9,29.9c2.5,2.6,5,3.7,10.9,5.4
			c2.5,0.7,10.1,1.9,12.6,2.4c8.9,1.9,14.8,3.4,14.8,3.4s-4.4,5.7,1.4,8.2c1.7,0.7,25.3,2.9,58.5,5.6c5.5,0.4,11.6,2.5,17.5,3
			c32.2,2.6,70,4.1,105.1,6.9c5.5,0.4,11.4,2.5,16.7,2.9c36.6,2.9,68,5.1,83,5.5C331.5,210.1,329.8,204.4,330.6,204.5z"/>
		<path class="st114" d="M66.3,179.4c-23.9-1.6-38.7-5-38.7-5"/>
		<line class="st114" x1="78.9" y1="143.1" x2="47.7" y2="137.4"/>
		<path class="st115" d="M25.8,157c0,0-22.9-3.4-21.2-10.3"/>
		<path class="st115" d="M43.6,149.3c0,0-34.8-4.2-32.5-9.4"/>
		<path class="st116" d="M310.6,199.5c0,0,20,5,27.5,5.3"/>
		<path class="st117" d="M96.6,193.4c-3.4,0-6.7,0.5-10,1.4c-2.1,0.6-4.1,1.4-6,2.4c-2.9,1.5-5.5,3.4-7.8,5.7
			c-1.5,1.5-2.9,3.2-4.1,5.1c-1.2,1.9-2.3,3.9-3.1,6.1c-0.9,2.3-1.6,4.6-2,7c-0.5,2.6-0.7,5.3-0.7,7.9v67.5c-4.8,1.4-7.5,6.4-6,11.2
			c0.9,2.9,3.1,5.2,6,6V381c-6.5,3-4.2,14.3-4.2,14.3c0,4.3,3.5,7.8,7.8,7.8c1.7,0,3.3-0.6,4.7-1.6c3.4,2.6,8.2,1.9,10.8-1.4
			c2.7,3.4,7.6,4,11,1.3c1.9-1.5,3-3.8,3-6.2c0,0,1.3-11.3-4.8-14.6V246.2c1.8,0.2,3.6,0.4,5.4,0.4c7.6,0.1,15-2,21.4-6.1
			c2.4-1.6,4.6-3.5,6.5-5.6c3.7-4.1,5.7-9.4,5.8-14.9C130.3,205.3,142.3,193.4,96.6,193.4z"/>
		<line class="st114" x1="69.8" y1="392.1" x2="71.3" y2="401.6"/>
		<line class="st114" x1="80.1" y1="388" x2="82.1" y2="400.2"/>
		<path class="st114" d="M63,330.9c0,0,8.2-5.8,14.5,0"/>
		<path class="st114" d="M63,339.8c0,0,8.2-5.8,14.5,0"/>
		<path class="st114" d="M63,348.7c0,0,8.2-5.8,14.5,0"/>
		<path class="st114" d="M287.4,237.5c0,0,7.5-3.6,10,3.4"/>
		<path class="st114" d="M284.6,245.9c0,0,7.5-3.6,10,3.4"/>
		<path class="st114" d="M281.7,254.4c0,0,7.5-3.6,10,3.4"/>
		<path class="st109" d="M250.8,274.3c0.6-40.4-14.2-77-39.9-97.2l-97,1.6c-22.8,19.4-36,52.6-36.6,90.5
			c-0.4,23.9,4.3,45.3,13.4,62.6L85,374.4l16.2-4.3l9.4,14.1l19.1-7.2l24.4,10.9l21-9.6l22.3,8l21.1-15.7l23.6,4.4l-5.5-42.9
			C245.5,316.2,250.5,296.5,250.8,274.3z"/>
		<path class="st113" d="M250.8,274.3c0.6-40.4-14.2-77-39.9-97.2l-97,1.6c-22.8,19.4-36,52.6-36.6,90.5
			c-0.4,23.9,4.3,45.3,13.4,62.6L85,374.4l16.2-4.3l9.4,14.1l19.1-7.2l24.4,10.9l21-9.6l22.3,8l21.1-15.7l23.6,4.4l-5.5-42.9
			C245.5,316.2,250.5,296.5,250.8,274.3z"/>
		<path class="st109" d="M179.1,439.5v-95.1h28.2v60.1c3.7-0.1,6.7,2.7,6.9,6.4c0.1,3.7-2.7,6.7-6.4,6.9c-0.2,0-0.3,0-0.5,0v21.6
			h3.3c4.4-3.7,11.1-3.1,14.8,1.3s3.1,11.1-1.3,14.8c-1.9,1.6-4.3,2.5-6.8,2.5h-36.6c-5.1,0-9.3-4.1-9.3-9.2
			C171.5,444.2,174.7,440.3,179.1,439.5z"/>
		<g class="st13">
			<path d="M199.4,441.9h7.9v-24.2c3.7,0.1,6.7-2.7,6.9-6.4c0.1-3.7-2.7-6.7-6.4-6.9c-0.2,0-0.3,0-0.5,0v-60.1h-7.9V441.9z"/>
			<path d="M217.4,436.9c-1.3,0-2.7,0.3-3.9,0.8c5.4,2.2,8,8.3,5.8,13.7c-1.6,4-5.5,6.6-9.8,6.5h7.9c5.8,0.2,10.7-4.4,10.8-10.2
				c0.2-5.8-4.4-10.7-10.2-10.8C217.8,436.9,217.5,436.9,217.4,436.9L217.4,436.9z"/>
		</g>
		<path class="st118" d="M149.2,439.5v-95.1H121v60.1c-3.7-0.1-6.7,2.7-6.9,6.4c-0.1,3.7,2.7,6.7,6.4,6.9c0.2,0,0.3,0,0.5,0v21.6
			h-3.3c-4.4-3.7-11.1-3.1-14.8,1.3c-3.7,4.4-3.1,11.1,1.3,14.8c1.9,1.6,4.3,2.5,6.7,2.5h36.6c5.1,0,9.3-4.1,9.3-9.2
			C156.8,444.2,153.6,440.3,149.2,439.5z"/>
		<path class="st119" d="M179.1,439.5v-95.1h28.2v60.1c3.7-0.1,6.7,2.7,6.9,6.4c0.1,3.7-2.7,6.7-6.4,6.9c-0.2,0-0.3,0-0.5,0v21.6
			h3.3c4.4-3.7,11.1-3.1,14.8,1.3s3.1,11.1-1.3,14.8c-1.9,1.6-4.3,2.5-6.8,2.5h-36.6c-5.1,0-9.3-4.1-9.3-9.2
			C171.5,444.2,174.7,440.3,179.1,439.5z"/>
		<path class="st120" d="M250.8,274.3c0.6-40.4-14.2-77-39.9-97.2c0,0-29.6,125.5-120.1,154.8l-5.7,42.6l16.2-4.3l9.4,14.1l19.1-7.2
			l24.4,10.9l21-9.6l22.3,8l21.1-15.7l23.6,4.4l-5.5-42.9C245.5,316.2,250.5,296.5,250.8,274.3z"/>
		<path class="st6" d="M250.8,274.3c0.6-40.4-14.2-77-39.9-97.2c0,0-0.2,0.8-0.6,2.3c16.2,20.9,25.2,50.1,24.7,81.8
			c-0.4,22.2-5.3,41.9-14.1,57.9l5.5,42.9l-20.9-4.4l-13.2,15.7l-25-8l-18.4,9.6L114.2,364l-12.8,6.1l9.4,14.1l19.1-7.2l24.4,10.9
			l21-9.6l22.3,8l21.1-15.7l23.6,4.4l-5.5-42.9C245.5,316.2,250.5,296.5,250.8,274.3z"/>
		<line class="st115" x1="112.1" y1="364.3" x2="101.4" y2="370.1"/>
		<line class="st115" x1="124.8" y1="370.1" x2="129.9" y2="377.1"/>
		<line class="st115" x1="181.4" y1="370.1" x2="175.3" y2="378.3"/>
		<line class="st115" x1="212.3" y1="364.3" x2="218.7" y2="370.6"/>
		<path class="st9" d="M228.4,236.2c0.8,3.5-2.9,7.3-8.2,8.6s-10.3-0.7-11.1-4.2s3.3-5.4,8.6-6.6S227.6,232.7,228.4,236.2z"/>
		<path class="st9" d="M191.5,294.5c-1.5,2.8-6.1,3.2-10.4,1s-4.2-5.1-2.7-7.9s3.8-4.4,8.1-2.2S193,291.7,191.5,294.5z"/>
		<path class="st9" d="M216,337.2c-0.6,2.6-2.1,4.6-6.4,3.6s-7.5-3.9-6.9-6.6s4.6-4,9-3S216.5,334.6,216,337.2z"/>
		<path class="st9" d="M155.5,322.6c0.9,2.5,1.1,4.6-2.6,6.1s-7.5,0.6-8.4-1.8s1.3-5.6,5-7S154.6,320.2,155.5,322.6z"/>
		<path class="st9" d="M176,356c0,3.1-4.1,5.6-9.3,5.6s-6.7-2.5-6.7-5.6s1.5-5.6,6.7-5.6S176,352.9,176,356z"/>
		<path class="st9" d="M219.6,296.8c-3.3-1-5.1-4.5-4.1-7.8l0,0c1-3.3,4.5-7.5,7.8-6.5s5.1,6.9,4.1,10.1
			C226.3,295.9,222.9,297.8,219.6,296.8L219.6,296.8z"/>
		<path class="st9" d="M104.6,352.2c-1.4-1.5,1.2-6.1,3.5-8.2s5.3-2.5,6.7-1s0.7,4.5-1.6,6.6S106,353.8,104.6,352.2z"/>
		<path class="st114" d="M250.8,274.3c0.6-40.4-14.2-77-39.9-97.2c0,0-29.6,125.5-120.1,154.8l-5.7,42.6l16.2-4.3l9.4,14.1l19.1-7.2
			l24.4,10.9l21-9.6l22.3,8l21.1-15.7l23.6,4.4l-5.5-42.9C245.5,316.2,250.5,296.5,250.8,274.3z"/>
		<line class="st115" x1="152.2" y1="241" x2="152.2" y2="245.8"/>
		<line class="st115" x1="175.4" y1="241" x2="175.4" y2="245.8"/>
		<line class="st115" x1="163.8" y1="250.3" x2="163.8" y2="255"/>
		<line class="st115" x1="140.7" y1="250.3" x2="140.7" y2="255"/>
		<line class="st115" x1="150.2" y1="259.7" x2="150.2" y2="264.4"/>
		<line class="st115" x1="123.4" y1="264.4" x2="123.4" y2="269.2"/>
		<line class="st115" x1="112.8" y1="244.8" x2="112.8" y2="249.5"/>
		<line class="st115" x1="104.2" y1="262.1" x2="104.2" y2="266.8"/>
		<line class="st115" x1="96.6" y1="241.4" x2="96.6" y2="246.1"/>
		<line class="st115" x1="107.1" y1="224.3" x2="107.1" y2="229"/>
		<line class="st115" x1="127.3" y1="236.8" x2="127.3" y2="241.6"/>
		<line class="st115" x1="131.8" y1="419.6" x2="131.8" y2="424.3"/>
		<line class="st115" x1="137.9" y1="397.1" x2="137.9" y2="401.8"/>
		<line class="st115" x1="196.4" y1="424.8" x2="196.4" y2="429.5"/>
		<line class="st115" x1="190.4" y1="402.4" x2="190.4" y2="407.1"/>
		<ellipse class="st121" cx="98.3" cy="106.8" rx="10.9" ry="16.1"/>
		<ellipse class="st122" cx="100.9" cy="107.8" rx="5" ry="6.1"/>
		<ellipse class="st109" cx="230" cy="106.8" rx="10.9" ry="16.1"/>
		<ellipse class="st122" cx="227.4" cy="107.8" rx="5" ry="6.1"/>
		<ellipse class="st6" cx="230" cy="106.8" rx="10.9" ry="16.1"/>
		<ellipse class="st113" cx="230" cy="106.8" rx="10.9" ry="16.1"/>
		<path class="st119" d="M235,162.1c0,39.2-31.7,70.9-70.9,70.9s-70.9-31.7-70.9-70.9l0,0c0-39.2,18-107.9,70.9-107.9
			S235,123,235,162.1z"/>
		<path class="st113" d="M169.1,35.6c0,0-10.3,2-6.2,11.4s-3.7,11.4-3.7,11.4"/>
		<path class="st113" d="M179.2,41c0,0-9.4,3.6-5.9,10.6s0,11.8,0,11.8"/>
		<path class="st113" d="M147.8,37.9c0,0,7.3,3.1,5.9,10C151,60.5,157,60.7,157,60.7"/>
		<path class="st109" d="M235,162.1c0,39.2-31.7,70.9-70.9,70.9s-70.9-31.7-70.9-70.9l0,0c0-39.2,18-107.9,70.9-107.9
			S235,123,235,162.1z"/>
		<path class="st123" d="M172,159.2c-28.6,0-55.3-3.4-78.2-9.3c-0.4,4.3-0.5,8.4-0.5,12.2c0,39.2,31.7,70.9,70.9,70.9
			s70.9-31.7,70.9-70.9l0,0c0-2.8-0.1-5.7-0.3-8.7C214.1,157.3,193,159.2,172,159.2z"/>
		<line class="st115" x1="152.9" y1="214.5" x2="152.9" y2="219.2"/>
		<line class="st115" x1="133.3" y1="192.3" x2="197.2" y2="202.4"/>
		<path class="st6" d="M180.2,56.5c28.5,20.6,39.1,67.8,39.1,97.7c0,39.2-31.8,70.9-70.9,70.9c-8,0-16-1.4-23.5-4
			c32.6,21.7,76.6,12.9,98.3-19.7c7.8-11.6,11.9-25.3,11.9-39.3C235,127.2,220.7,68.9,180.2,56.5z"/>
		<line class="st115" x1="174.7" y1="214.5" x2="174.7" y2="219.2"/>
		<path class="st124" d="M188.6,201l-15.5-2.4V193c0-10.4,15.5-10.6,15.5,0V201z"/>
		<line class="st115" x1="111.3" y1="165.6" x2="111.3" y2="170.3"/>
		<line class="st115" x1="133.3" y1="174.7" x2="133.3" y2="179.4"/>
		<line class="st115" x1="217.6" y1="165.6" x2="217.6" y2="170.3"/>
		<line class="st115" x1="116.9" y1="189.1" x2="116.9" y2="193.9"/>
		<line class="st115" x1="193.4" y1="170.3" x2="193.4" y2="175"/>
		<line class="st115" x1="210.5" y1="195" x2="210.5" y2="199.7"/>
		<line class="st115" x1="161.5" y1="174.7" x2="161.5" y2="179.4"/>
		<line class="st115" x1="131.4" y1="207.5" x2="131.4" y2="212.2"/>
		<path class="st125" d="M172,159.2c-28.6,0-55.3-3.4-78.2-9.3c-0.4,4.3-0.5,8.4-0.5,12.2c0,39.2,31.7,70.9,70.9,70.9
			s70.9-31.7,70.9-70.9l0,0c0-2.8-0.1-5.7-0.3-8.7C214.1,157.3,193,159.2,172,159.2z"/>
		<line class="st115" x1="190.9" y1="212.9" x2="190.9" y2="217.6"/>
		<path class="st126" d="M190.9,157.9c-0.1,7.8-12.3,9.7-27.3,9.5s-27.2-2.2-27.2-10s12.3-14,27.4-13.9S191,150.1,190.9,157.9z"/>
		
			<ellipse transform="matrix(4.222472e-02 -0.9991 0.9991 4.222472e-02 -17.1622 309.117)" class="st9" cx="152.6" cy="163.5" rx="3.8" ry="5.9"/>
		
			<ellipse transform="matrix(4.222472e-02 -0.9991 0.9991 4.222472e-02 3.9891 331.123)" class="st9" cx="174.7" cy="163.5" rx="3.8" ry="5.9"/>
		<path class="st125" d="M235,162.1c0,39.2-31.7,70.9-70.9,70.9s-70.9-31.7-70.9-70.9l0,0c0-39.2,18-107.9,70.9-107.9
			S235,123,235,162.1z"/>
		<ellipse class="st124" cx="144.8" cy="115.6" rx="18.7" ry="12.4"/>
		<ellipse class="st124" cx="182.9" cy="115.6" rx="18.7" ry="12.4"/>
		<ellipse class="st9" cx="182.9" cy="115.6" rx="8.2" ry="6.4"/>
		<circle class="st11" cx="190.4" cy="111.8" r="3.9"/>
		<ellipse class="st9" cx="144.8" cy="115.6" rx="8.2" ry="6.4"/>
		<circle class="st11" cx="137.2" cy="111.8" r="3.9"/>
		<path class="st9" d="M205.7,107.8l-42.2,5.2l-40.9-5.2c-3.1,0-5.7-2.5-5.7-5.7l0,0c0-3.1,2.5-5.7,5.7-5.7h83.1
			c3.1,0,5.6,2.5,5.7,5.7l0,0C211.4,105.3,208.8,107.8,205.7,107.8z"/>
		<line class="st115" x1="139.2" y1="87" x2="189.1" y2="87"/>
		<line class="st115" x1="151.8" y1="75.7" x2="176.5" y2="75.7"/>
		<path class="st111" d="M283.7,171.4l6.6,1.6c0.8,0.2,1.2,0.9,1,1.7l-3.6,15.1c-0.2,0.8-0.9,1.2-1.7,1l-6.6-1.6
			c-0.8-0.2-1.2-0.9-1-1.7l3.6-15.1C282.1,171.7,282.9,171.2,283.7,171.4z"/>
		<path class="st111" d="M271.3,212c-2.8-0.5-4.6-3.2-4.2-5.9l1.6-9.2c0.5-2.8,3.2-4.7,6-4.2l0,0l0,0c2.8,0.5,4.7,3.2,4.2,6l0,0
			l-1.4,10.1"/>
		<path class="st111" d="M293,173.6l6.6,1.6c0.8,0.2,1.2,0.9,1,1.7L297,192c-0.2,0.8-0.9,1.2-1.7,1l-6.6-1.6c-0.8-0.2-1.2-0.9-1-1.7
			l3.6-15.1C291.5,173.9,292.3,173.5,293,173.6z"/>
		<path class="st111" d="M302.4,175.9l6.6,1.6c0.8,0.2,1.2,0.9,1,1.7l-3.6,15.1c-0.2,0.8-0.9,1.2-1.7,1l-6.6-1.6
			c-0.8-0.2-1.2-0.9-1-1.7l3.6-15.1C300.9,176.1,301.6,175.7,302.4,175.9z"/>
	</g>
</g>
</svg>
