<svg xmlns="http://www.w3.org/2000/svg" viewBox="0 0 1920 1080"><defs><style>.cls-1{opacity:0.75;}.cls-2{fill:#232323;}.cls-3{fill:#282828;}.cls-4{fill:#383838;}.cls-5{fill:#2b2b2b;}.cls-6{fill:#2d2d2d;}</style></defs><title>cavemanbg2</title><g id="Layer_2" data-name="Layer 2"><g id="Layer_1-2" data-name="Layer 1"><g class="cls-1"><path d="M1592.19,1065.76q9.93-.13,19.87-.2a454.66,454.66,0,0,0-61.93-3A241.33,241.33,0,0,0,1592.19,1065.76Z"/></g><g class="cls-1"><path d="M173.38,870a36.54,36.54,0,0,1,9.1,1.47c1.48.41,3,.76,4.41,1l-3.73-1A35.84,35.84,0,0,0,173.38,870Z"/></g><path class="cls-2" d="M6.68,460c25.6-17.93,33.15-47.28,46.58-72.93,24.82-47.42,16.54-91.62,45.82-136.46,9.6-14.7,57.13,10.62,69.42-2.4,12.62-13.36,58.48-2.3,70.62,12,26.54,31.2,3,10.06,18.86,48,11.95,28.59,27.09,55.85,40.8,83.7,2.8,5.69,90.49,1,96.83,2.33,27.18,5.89,1.62,30.23,27.81,38.3,12.4,3.83,25.8,28.18,34.68,35.91,56.47,49.11,70.88-56.73,127.61-7.94C602.55,475,623,485.41,641.93,497.34c32.72,20.57,65.88,40.46,98.2,61.63l13.36,10.84-7.75-8.51c9.54-4.72,32.35-68.3,37.49-73.88,51.18-55.58,79.91,109.85,130,53.35,19-21.43,58,18.52,76.88-3.07,12.49-14.3,15-78.48,34-82.24,7.65-1.52,9,7.06,11.57,12.23,16.7,33.19,43.85,7.81,59.35,41.56,4.27,9.3,80.34,21.28,114.55,59.16-21.06,119.63,78,68.64,131.93,95.35,81.41,20.73,99.36-14.9,166.37,18.46,39.25,19.53,37.1-24.81,75.54-3.77,27.4,15,48,39.07,71.32,59.34,42.6,37,210.94,78.39,265.26,236.75V0H0V471.88C.58,467.34,2.2,463.18,6.68,460Z"/><g class="cls-1"><path d="M1665.17,1078.7a6.52,6.52,0,0,0,.83,1.3h16.39q-5.39-1.61-10.81-3Q1668.33,1077.76,1665.17,1078.7Z"/></g><g class="cls-1"><path d="M199.79,658C217,673.05,239.37,677.33,260,683.19c25.3,7.18,48,16.09,66.39,35.63,20.83,22.13,48.89,29,77.79,31.31,57.37,4.54,110.85,21.77,161.91,47.37a47.18,47.18,0,0,0,21.51,4.93,47.25,47.25,0,0,1-21.49-4.93c-51.06-25.6-104.54-42.83-161.91-47.37-28.9-2.29-57-9.18-77.79-31.31-18.4-19.54-41.08-28.45-66.39-35.63-20.66-5.86-43-10.14-60.24-25.21A380.78,380.78,0,0,0,118,603.24c-39.23-19.5-77.29-41.39-118-57.78H0c40.75,16.39,78.79,38.28,118,57.77A381.15,381.15,0,0,1,199.79,658Z"/></g><g class="cls-1"><path d="M826.25,838.09h0A542.19,542.19,0,0,0,770.07,822c-49-10.88-98.61-20.59-149.16-20.72,50.54.13,100.15,9.84,149.14,20.72A545.58,545.58,0,0,1,826.25,838.09Z"/></g><g class="cls-1"><path d="M459.3,925.37c1,.13,2,.25,2.93.34,60.5,5.67,118.52,17.47,172.71,45.19l.52,0h.06c-54.16-27.69-112.14-39.48-172.61-45.14Z"/></g><g class="cls-1"><path d="M1691.22,1080h5.89C1695,1078.84,1693,1078.71,1691.22,1080Z"/></g><g class="cls-1"><path d="M0,864.11v93.36l.57-.31Q.32,910.63,0,864.11Z"/></g><g class="cls-1"><path d="M895,863.17c21.08,7.81,30,30.09,45,45.39h0c-15-15.3-24-37.58-45-45.39-11.75-4.35-23.5-8.8-35.3-13.16h0C871.5,854.38,883.25,858.83,895,863.17Z"/></g><path class="cls-3" d="M1654.74,737.79c-23.36-20.27-43.92-44.34-71.32-59.34-38.44-21-36.29,23.3-75.54,3.77-67-33.36-85,2.27-166.37-18.46-54-26.71-153,24.28-131.93-95.35-34.21-37.88-110.28-49.86-114.55-59.16-15.5-33.75-42.65-8.37-59.35-41.56-2.6-5.17-3.92-13.75-11.57-12.23-19,3.76-21.47,67.94-34,82.24-18.86,21.59-57.87-18.36-76.88,3.07-50.13,56.5-78.86-108.93-130-53.35-5.14,5.58-28,69.16-37.49,73.88l7.75,8.51L740.13,559c-32.32-21.17-65.48-41.06-98.2-61.63-19-11.93-39.38-22.31-56.22-36.79C529,411.76,514.57,517.6,458.1,468.49c-8.88-7.73-22.28-32.08-34.68-35.91-26.19-8.07-.63-32.41-27.81-38.3-6.34-1.37-94,3.36-96.83-2.33-13.71-27.85-28.85-55.11-40.8-83.7-15.88-38,7.68-16.83-18.86-48-12.14-14.27-58-25.33-70.62-12-12.29,13-59.82-12.3-69.42,2.4-29.28,44.84-21,89-45.82,136.46-13.43,25.65-21,55-46.58,72.93C2.2,463.18.58,467.34,0,471.88v73.58c40.75,16.39,78.81,38.28,118,57.78A380.78,380.78,0,0,1,199.81,658c17.21,15.07,39.58,19.35,60.24,25.21,25.31,7.18,48,16.09,66.39,35.63,20.84,22.13,48.89,29,77.79,31.31,57.37,4.54,110.85,21.77,161.91,47.37a47.25,47.25,0,0,0,21.49,4.93c1.69,0,3.39-.06,5.1-.18,9.43-.69,18.82-1,28.18-1,50.55.13,100.16,9.84,149.16,20.72a542.19,542.19,0,0,1,56.19,16.08,43.2,43.2,0,0,1,13-.38c9.85.89,16.1,5.6,20.47,12.3,11.8,4.36,23.55,8.81,35.3,13.16,21.08,7.81,30,30.09,45,45.39a62.82,62.82,0,0,1,6.39-1.13c13-1.59,24.63-.71,37.29,4,72.48,27,301.74-80.15,377.22-62.36,82.11,23.44,125.8,134.06,183.89,212.6q2.64.48,5.29.9a454.66,454.66,0,0,1,61.93,3c30.88-.22,61.77,0,92.65.09,6.89,0,14.56-1.51,20.39,1.91-17.85,3.16-36.58,5.12-53.52,9.39q5.42,1.44,10.81,3h8.83c1.82-1.29,3.8-1.16,5.89,0H1920V974.54C1865.68,816.18,1697.34,774.76,1654.74,737.79Z"/><path class="cls-4" d="M895,863.17c-11.74-4.34-23.49-8.79-35.27-13.15,14,21.41,8.79,63.1,40.3,65.31,14.09,2.3,26.77-3.81,40-6.77C925,893.26,916.07,871,895,863.17Z"/><path class="cls-5" d="M155.08,875c6.27-3.38,11.95-5.21,18.3-5a35.84,35.84,0,0,1,9.78,1.47l3.73,1c39.21,7.64,73-31,112.94-20.79,50.14,12.83,108.08,67,159.47,73.68l3.61.34c60.47,5.66,118.45,17.45,172.61,45.14q15.68-1.44,31.25-2.35c60.2-34.14,46.08-137.75,110.65-111.26,4,1.62,8.16,2.83,11.79,5,12.45,7.46,20.19,4.11,23.73-9.71,2.3-9,6.88-13,13.31-14.44A545.58,545.58,0,0,0,770.05,822c-49-10.88-98.6-20.59-149.14-20.72-9.36,0-18.75.27-28.18,1-1.71.12-3.41.19-5.1.18a47.18,47.18,0,0,1-21.51-4.93c-51.06-25.6-104.54-42.83-161.91-47.37-28.9-2.29-57-9.18-77.79-31.31C308,699.28,285.33,690.37,260,683.19c-20.66-5.86-43-10.14-60.24-25.21A381.15,381.15,0,0,0,118,603.24C78.79,583.75,40.75,561.86,0,545.47V864.11q.27,46.53.57,93C52.11,929.84,103.74,902.7,155.08,875Z"/><path class="cls-4" d="M1.9,1015.38c56.88-12.64,298.22-16.11,354.21-29.77,23.88-5.82,112.32-18,137.71-18,60.36-.15,82.33,8.64,141.12,3.33-54.19-27.72-112.21-39.52-172.71-45.19-1-.09-2-.21-2.93-.34-51.39-6.64-109.33-60.85-159.47-73.68-39.9-10.21-73.73,28.43-112.94,20.79-1.46-.28-2.93-.63-4.41-1a36.54,36.54,0,0,0-9.1-1.47c-6.35-.17-12,1.66-18.3,5C103.74,902.7,52.11,929.84.57,957.16l-.57.31V1080H2.78C4.18,1045.53,4.92,1016,1.9,1015.38Z"/><path class="cls-6" d="M812.94,852.53c-3.54,13.82-11.28,17.17-23.73,9.71-3.63-2.17-7.84-3.38-11.79-5C712.85,830.75,727,934.36,666.77,968.5a997.52,997.52,0,0,1,141.69,1.69c68.15,5.58,136.59,10.9,204.06-2.58,17.48-3.49,35-1.44,53-.53,71.51,3.59,136,16.47,198,35.4,51.58,15.75,109.9,24.18,165.39,35.65q54.22,11.2,108.64,22.16,3.65.74,7.31,1.39c-58.09-78.54-101.78-189.16-183.89-212.6-75.48-17.79-304.74,89.36-377.22,62.36-12.66-4.72-24.28-5.6-37.29-4a62.82,62.82,0,0,0-6.39,1.13h0c-13.24,3-25.92,9.07-40,6.77-31.51-2.21-26.33-43.9-40.3-65.31h0c-4.37-6.7-10.62-11.41-20.47-12.3a43.2,43.2,0,0,0-13,.38h0C819.82,839.54,815.24,843.56,812.94,852.53Z"/><path class="cls-6" d="M1671.58,1077c16.94-4.27,35.67-6.23,53.52-9.39-5.83-3.42-13.5-1.89-20.39-1.91-30.88-.1-61.77-.31-92.65-.09q-9.93.07-19.87.2a241.33,241.33,0,0,1-42.06-3.18q-2.66-.42-5.29-.9-3.66-.66-7.31-1.39-54.35-11.05-108.64-22.16c-55.49-11.47-113.81-19.9-165.39-35.65-62-18.93-126.45-31.81-198-35.4-18-.91-35.54-3-53,.53-67.47,13.48-135.91,8.16-204.06,2.58a997.52,997.52,0,0,0-141.69-1.69q-15.59.91-31.25,2.35h-.06l-.52,0c-58.79,5.31-80.76-3.48-141.12-3.33-25.39.06-113.83,12.22-137.71,18-56,13.66-297.33,17.13-354.21,29.77,3,.66,2.28,30.15.88,64.62H1666a6.52,6.52,0,0,1-.83-1.3Q1668.32,1077.75,1671.58,1077Z"/></g></g></svg>