<svg xmlns="http://www.w3.org/2000/svg" viewBox="0 0 259.55 318.31"><defs><style>.cls-1,.cls-13,.cls-22,.cls-4,.cls-7,.cls-8,.cls-9{fill:none;}.cls-1,.cls-10,.cls-11,.cls-12,.cls-13,.cls-16,.cls-17,.cls-18,.cls-20,.cls-21,.cls-22,.cls-23,.cls-4,.cls-5,.cls-7,.cls-8,.cls-9{stroke:#333132;}.cls-1,.cls-10,.cls-16,.cls-17,.cls-18,.cls-20,.cls-5,.cls-7,.cls-8,.cls-9{stroke-linecap:round;}.cls-1,.cls-12,.cls-13,.cls-16,.cls-20,.cls-21,.cls-22,.cls-5,.cls-9{stroke-miterlimit:10;}.cls-1,.cls-11,.cls-12,.cls-13,.cls-17,.cls-4,.cls-7{stroke-width:4.13px;}.cls-11,.cls-12,.cls-17,.cls-18,.cls-2,.cls-23,.cls-5{fill:#c6b198;}.cls-3{opacity:0.1;}.cls-10,.cls-11,.cls-17,.cls-18,.cls-23,.cls-4,.cls-7,.cls-8{stroke-linejoin:round;}.cls-10,.cls-16,.cls-18,.cls-20,.cls-21,.cls-22,.cls-23,.cls-5,.cls-8,.cls-9{stroke-width:3.1px;}.cls-6{fill:#736457;}.cls-10{fill:#786453;}.cls-14{fill:#d5801b;}.cls-15{fill:#333132;}.cls-16,.cls-21,.cls-24{fill:#fff;}.cls-19{fill:#6d5d55;}.cls-20{fill:#988575;}</style></defs><title>caveman</title><g id="Layer_2" data-name="Layer 2"><g id="Layer_1-2" data-name="Layer 1"><g id="Caveman_Coder" data-name="Caveman Coder"><ellipse class="cls-1" cx="215.11" cy="124.63" rx="14.42" ry="16.8"/><path class="cls-1" d="M203.32,133.27a3.84,3.84,0,0,1-3.1-4.43l1.21-6.83a3.83,3.83,0,0,1,4.42-3.1h0a3.83,3.83,0,0,1,3.1,4.43l-1.06,7.51"/><path class="cls-2" d="M224.37,136.91l-21.05-3.64s4,22.69-7.62,25.14c-16.07,3.39-29.88-42.26-30.24-42.12s2.21,54.48,2.21,54.48,10.06,23.44,29.33,21a20.71,20.71,0,0,0,2.42-.47,6.52,6.52,0,0,0,11.7-4,6.43,6.43,0,0,0-.84-3.14C223.42,169.07,224.37,136.91,224.37,136.91Z"/><g class="cls-3"><path d="M224.37,136.91l-8.12-1.07c-.93,60.63-37.85,48.44-42.37,44.88,4.89,6.05,12.64,12.38,23.12,11.06a20.71,20.71,0,0,0,2.42-.47,6.52,6.52,0,0,0,11.7-4,6.43,6.43,0,0,0-.84-3.14C223.42,169.07,224.37,136.91,224.37,136.91Z"/></g><path class="cls-4" d="M224.37,136.91l-21.05-3.64s4,22.69-7.62,25.14c-16.07,3.39-29.88-42.26-30.24-42.12s2.21,54.48,2.21,54.48,10.06,23.44,29.33,21a20.71,20.71,0,0,0,2.42-.47,6.52,6.52,0,0,0,11.7-4,6.43,6.43,0,0,0-.84-3.14C223.42,169.07,224.37,136.91,224.37,136.91Z"/><rect class="cls-1" x="209.81" y="103.49" width="7.16" height="13.66" rx="3.58" ry="3.58" transform="translate(31.29 -46.35) rotate(13.37)"/><rect class="cls-1" x="216.77" y="105.15" width="7.16" height="13.66" rx="3.58" ry="3.58" transform="translate(31.86 -47.91) rotate(13.37)"/><rect class="cls-1" x="223.74" y="106.8" width="7.16" height="13.66" rx="3.58" ry="3.58" transform="translate(32.43 -49.48) rotate(13.37)"/><ellipse class="cls-5" cx="215.11" cy="124.63" rx="14.42" ry="16.8"/><path class="cls-6" d="M247.41,127.69c9.77,1.34,10.8-1.85,9.75-3.77-2-3.6-47.45-14.81-93.91-25.42-2.78-.63-11.05-1.26-13.83-1.89-14.15-3.2-27.34-5.11-39.24-7.88-3.73-.87-7.58-2.89-11-3.69-20.13-4.71-34-8-36-8.42C56,75.18,49,74.87,46.55,79c0,0-3.12-.35-9.58-1.2-1.8-.23-9.47-1.63-11.4-1.78C20,75.59,18,76,14.1,77.31c-8.92,3-15.95,15.37-9.57,22.21,1.83,2,3.73,2.77,8.08,4,1.84.52,7.51,1.38,9.39,1.79,6.65,1.44,11,2.52,11,2.52s-3.24,4.21,1.09,6.09c1.25.54,18.84,2.13,43.5,4.19,4.07.34,8.61,1.88,13,2.25,23.94,2,52,3,78.21,5.15,4.12.33,8.46,1.85,12.45,2.16,27.23,2.15,50.62,3.77,61.77,4.09C248.07,131.92,246.86,127.61,247.41,127.69Z"/><g class="cls-3"><path d="M257.16,123.92c-2-3.6-47.45-14.81-93.91-25.42-2.78-.63-11.05-1.26-13.83-1.89-14.15-3.2-27.34-5.11-39.24-7.88-3.73-.87-7.58-2.89-11-3.69-20.13-4.71-34-8-36-8.42-6.77-1.34-13.27-1.66-16.07,1.7C53.47,79.8,63.43,84.11,75.77,87c3.4.8,7.25.87,11,1.74,11.91,2.77,25.09,4.68,39.24,7.88,2.78.63,11,1.26,13.83,1.89,46.46,10.61,83.06,32.23,83.06,32.23,8.49.54,15.44.91,20.17,1.05,5,.14,3.81-4.17,4.36-4.09C257.18,129,258.21,125.84,257.16,123.92Z"/></g><path class="cls-7" d="M247.41,127.69c9.77,1.34,10.8-1.85,9.75-3.77-2-3.6-47.45-14.81-93.91-25.42-2.78-.63-11.05-1.26-13.83-1.89-14.15-3.2-27.34-5.11-39.24-7.88-3.73-.87-7.58-2.89-11-3.69-20.13-4.71-34-8-36-8.42C56,75.18,49,74.87,46.55,79c0,0-3.12-.35-9.58-1.2-1.8-.23-9.47-1.63-11.4-1.78C20,75.59,18,76,14.1,77.31c-8.92,3-15.95,15.37-9.57,22.21,1.83,2,3.73,2.77,8.08,4,1.84.52,7.51,1.38,9.39,1.79,6.65,1.44,11,2.52,11,2.52s-3.24,4.21,1.09,6.09c1.25.54,18.84,2.13,43.5,4.19,4.07.34,8.61,1.88,13,2.25,23.94,2,52,3,78.21,5.15,4.12.33,8.46,1.85,12.45,2.16,27.23,2.15,50.62,3.77,61.77,4.09C248.07,131.92,246.86,127.61,247.41,127.69Z"/><path class="cls-8" d="M50.76,109.06A204.28,204.28,0,0,1,22,105.33"/><line class="cls-8" x1="60.15" y1="82.07" x2="36.97" y2="77.82"/><path class="cls-9" d="M20.64,92.37s-17-2.57-15.77-7.66"/><path class="cls-9" d="M33.89,86.67S8,83.57,9.7,79.64"/><path class="cls-10" d="M232.52,124s14.89,3.69,20.42,4"/><path class="cls-11" d="M73.34,119.47a26.88,26.88,0,0,0-7.4,1,24.32,24.32,0,0,0-4.48,1.78,23.23,23.23,0,0,0-5.78,4.21,23.6,23.6,0,0,0-3.06,3.79,24.36,24.36,0,0,0-2.32,4.52A27.44,27.44,0,0,0,48.83,140a32.7,32.7,0,0,0-.51,5.89v50.22a6.68,6.68,0,0,0,0,12.83v50.12c-4.81,2.23-3.09,10.63-3.09,10.63a5.86,5.86,0,0,0,5.84,5.84,5.73,5.73,0,0,0,3.46-1.18,5.73,5.73,0,0,0,8-1,5.79,5.79,0,0,0,4.53,2.22,5.85,5.85,0,0,0,5.83-5.84s1-8.4-3.55-10.88V158.76a31,31,0,0,0,4,.28,29.27,29.27,0,0,0,15.93-4.52,22.41,22.41,0,0,0,4.84-4.2,17,17,0,0,0,4.27-11.06C98.38,128.33,107.3,119.47,73.34,119.47Z"/><line class="cls-8" x1="53.39" y1="267.29" x2="54.51" y2="274.36"/><line class="cls-8" x1="61.03" y1="264.2" x2="62.52" y2="273.32"/><path class="cls-8" d="M48.31,221.76s6.06-4.32,10.75,0"/><path class="cls-8" d="M48.31,228.39s6.06-4.33,10.75,0"/><path class="cls-8" d="M48.31,235s6.06-4.32,10.75,0"/><path class="cls-8" d="M215.32,152.26s5.56-2.69,7.41,2.5"/><path class="cls-8" d="M213.19,158.53s5.57-2.68,7.42,2.51"/><path class="cls-8" d="M211.07,164.81s5.57-2.69,7.42,2.51"/><path class="cls-2" d="M188.07,179.63c.47-30.09-10.54-57.32-29.65-72.31L86.3,108.54c-17,14.43-26.78,39.15-27.22,67.36-.28,17.75,3.22,33.69,10,46.55L64.8,254.12l12.07-3.19,7,10.51,14.22-5.33,18.15,8.09L131.9,257l16.61,6L164.2,251.3l17.51,3.3-4.11-31.89C184.11,210.82,187.81,196.18,188.07,179.63Z"/><path class="cls-7" d="M188.07,179.63c.47-30.09-10.54-57.32-29.65-72.31L86.3,108.54c-17,14.43-26.78,39.15-27.22,67.36-.28,17.75,3.22,33.69,10,46.55L64.8,254.12l12.07-3.19,7,10.51,14.22-5.33,18.15,8.09L131.9,257l16.61,6L164.2,251.3l17.51,3.3-4.11-31.89C184.11,210.82,187.81,196.18,188.07,179.63Z"/><path class="cls-2" d="M134.7,302.58V231.79h21v44.69a4.94,4.94,0,0,1,0,9.87v16.1h2.49a7.81,7.81,0,1,1,5,13.8H136a6.89,6.89,0,0,1-1.25-13.67Z"/><g class="cls-3"><path d="M149.82,304.35h5.85v-18a4.94,4.94,0,0,0,0-9.87V231.79h-5.85Z"/><path d="M163.17,300.59a7.59,7.59,0,0,0-2.9.59,7.82,7.82,0,0,1-3,15.07h5.86a7.83,7.83,0,0,0,0-15.66Z"/></g><path class="cls-12" d="M112.45,302.58V231.79h-21v44.69a4.94,4.94,0,0,0,0,9.87v16.1H89a7.81,7.81,0,1,0-5,13.8H111.2a6.89,6.89,0,0,0,1.25-13.67Z"/><path class="cls-13" d="M134.7,302.58V231.79h21v44.69a4.94,4.94,0,0,1,0,9.87v16.1h2.49a7.81,7.81,0,1,1,5,13.8H136a6.89,6.89,0,0,1-1.25-13.67Z"/><path class="cls-14" d="M188.07,179.63c.47-30.09-10.54-57.32-29.65-72.31,0,0-22,93.39-89.38,115.13L64.8,254.12l12.07-3.19,7,10.51,14.22-5.33,18.15,8.09L131.9,257l16.61,6L164.2,251.3l17.51,3.3-4.11-31.89C184.11,210.82,187.81,196.18,188.07,179.63Z"/><path class="cls-3" d="M188.07,179.63c.47-30.09-10.54-57.32-29.65-72.31,0,0-.15.6-.44,1.71,12.06,15.55,18.74,37.31,18.38,60.84-.26,16.55-4,31.19-10.48,43.08L170,244.83l-15.55-3.29-9.83,11.71-18.57-6-13.7,7.17-25.95-8.09-9.52,4.58,7,10.51,14.22-5.33,18.15,8.09L131.9,257l16.61,6L164.2,251.3l17.51,3.3-4.11-31.89C184.11,210.82,187.81,196.18,188.07,179.63Z"/><line class="cls-9" x1="84.84" y1="246.58" x2="76.87" y2="250.93"/><line class="cls-9" x1="94.28" y1="250.93" x2="98.1" y2="256.11"/><line class="cls-9" x1="136.42" y1="250.93" x2="131.9" y2="257.03"/><line class="cls-9" x1="159.43" y1="246.58" x2="164.2" y2="251.3"/><path class="cls-15" d="M171.36,151.32c.59,2.61-2.13,5.46-6.09,6.35s-7.64-.49-8.24-3.1,2.47-4,6.43-4.89S170.77,148.7,171.36,151.32Z"/><path class="cls-15" d="M144,194.67c-1.1,2.08-4.57,2.4-7.74.72s-3.13-3.82-2-5.89,2.84-3.31,6-1.63S145.07,192.6,144,194.67Z"/><path class="cls-15" d="M162.13,226.47c-.44,2-1.54,3.4-4.8,2.68s-5.55-2.92-5.11-4.9,3.44-3,6.7-2.25S162.57,224.49,162.13,226.47Z"/><path class="cls-15" d="M117.15,215.6c.7,1.82.85,3.46-1.91,4.53s-5.58.46-6.29-1.36,1-4.17,3.73-5.24S116.44,213.78,117.15,215.6Z"/><path class="cls-15" d="M132.37,240.45c0,2.3-3.09,4.17-6.9,4.17s-5-1.87-5-4.17,1.13-4.18,5-4.18S132.37,238.14,132.37,240.45Z"/><path class="cls-15" d="M164.82,196.37a4.64,4.64,0,0,1-3.06-5.79c.76-2.44,3.33-5.57,5.78-4.82s3.82,5.11,3.07,7.55A4.63,4.63,0,0,1,164.82,196.37Z"/><path class="cls-15" d="M79.28,237.64c-1.06-1.15.88-4.51,2.57-6.07s3.93-1.89,5-.74.53,3.35-1.17,4.9S80.33,238.79,79.28,237.64Z"/><path class="cls-8" d="M188.07,179.63c.47-30.09-10.54-57.32-29.65-72.31,0,0-22,93.39-89.38,115.13L64.8,254.12l12.07-3.19,7,10.51,14.22-5.33,18.15,8.09L131.9,257l16.61,6L164.2,251.3l17.51,3.3-4.11-31.89C184.11,210.82,187.81,196.18,188.07,179.63Z"/><line class="cls-16" x1="114.73" y1="154.89" x2="114.73" y2="158.41"/><line class="cls-16" x1="131.95" y1="154.89" x2="131.95" y2="158.41"/><line class="cls-16" x1="123.34" y1="161.8" x2="123.34" y2="165.32"/><line class="cls-16" x1="106.12" y1="161.8" x2="106.12" y2="165.32"/><line class="cls-16" x1="113.19" y1="168.79" x2="113.19" y2="172.31"/><line class="cls-16" x1="93.24" y1="172.31" x2="93.24" y2="175.82"/><line class="cls-16" x1="85.4" y1="157.68" x2="85.4" y2="161.2"/><line class="cls-16" x1="78.98" y1="170.55" x2="78.98" y2="174.06"/><line class="cls-16" x1="73.34" y1="155.14" x2="73.34" y2="158.65"/><line class="cls-16" x1="81.14" y1="142.44" x2="81.14" y2="145.96"/><line class="cls-16" x1="96.19" y1="151.77" x2="96.19" y2="155.29"/><line class="cls-16" x1="99.53" y1="287.72" x2="99.53" y2="291.23"/><line class="cls-16" x1="104.03" y1="271.02" x2="104.03" y2="274.54"/><line class="cls-16" x1="147.62" y1="291.62" x2="147.62" y2="295.14"/><line class="cls-16" x1="143.12" y1="274.93" x2="143.12" y2="278.44"/><ellipse class="cls-17" cx="74.58" cy="55.02" rx="8.15" ry="11.95"/><ellipse class="cls-18" cx="76.53" cy="55.74" rx="3.74" ry="4.57"/><ellipse class="cls-2" cx="172.57" cy="55.02" rx="8.15" ry="11.95"/><ellipse class="cls-18" cx="170.61" cy="55.74" rx="3.74" ry="4.57"/><ellipse class="cls-3" cx="172.57" cy="55.02" rx="8.15" ry="11.95"/><ellipse class="cls-7" cx="172.57" cy="55.02" rx="8.15" ry="11.95"/><path class="cls-13" d="M176.31,96.17a52.74,52.74,0,0,1-105.48,0c0-29.13,13.4-80.32,52.74-80.32S176.31,67,176.31,96.17Z"/><path class="cls-7" d="M127.26,2.07s-7.65,1.45-4.63,8.47S119.89,19,119.89,19"/><path class="cls-7" d="M134.77,6.07s-7,2.65-4.4,7.91,0,8.75,0,8.75"/><path class="cls-7" d="M111.39,3.79s5.43,2.28,4.36,7.44c-2,9.38,2.54,9.5,2.54,9.5"/><path class="cls-2" d="M176.31,96.17a52.74,52.74,0,0,1-105.48,0c0-29.13,13.4-80.32,52.74-80.32S176.31,67,176.31,96.17Z"/><path class="cls-19" d="M129.42,94a236.72,236.72,0,0,1-58.19-6.91c-.27,3.19-.4,6.25-.4,9.09a52.74,52.74,0,0,0,105.48,0c0-2.06-.07-4.25-.21-6.51A245.54,245.54,0,0,1,129.42,94Z"/><line class="cls-9" x1="115.2" y1="135.19" x2="115.2" y2="138.63"/><line class="cls-20" x1="100.62" y1="118.64" x2="148.17" y2="126.12"/><path class="cls-3" d="M135.55,17.62c21.22,15.35,29,50.44,29,72.69a52.75,52.75,0,0,1-70.28,49.74,52.73,52.73,0,0,0,82-43.88C176.31,70.23,165.67,26.81,135.55,17.62Z"/><line class="cls-9" x1="131.43" y1="135.19" x2="131.43" y2="138.63"/><path class="cls-21" d="M141.77,125.11l-11.54-1.81v-4.11c0-7.71,11.54-7.88,11.54,0Z"/><line class="cls-16" x1="84.26" y1="98.74" x2="84.26" y2="102.25"/><line class="cls-16" x1="100.62" y1="105.56" x2="100.62" y2="109.07"/><line class="cls-16" x1="163.36" y1="98.74" x2="163.36" y2="102.25"/><line class="cls-16" x1="88.46" y1="116.29" x2="88.46" y2="119.81"/><line class="cls-16" x1="145.39" y1="102.25" x2="145.39" y2="105.77"/><line class="cls-16" x1="158.04" y1="120.62" x2="158.04" y2="124.14"/><line class="cls-16" x1="121.6" y1="105.56" x2="121.6" y2="109.07"/><line class="cls-16" x1="99.18" y1="129.95" x2="99.18" y2="133.47"/><path class="cls-22" d="M129.42,94a236.72,236.72,0,0,1-58.19-6.91c-.27,3.19-.4,6.25-.4,9.09a52.74,52.74,0,0,0,105.48,0c0-2.06-.07-4.25-.21-6.51A245.54,245.54,0,0,1,129.42,94Z"/><line class="cls-16" x1="143.5" y1="133.93" x2="143.5" y2="137.45"/><path class="cls-23" d="M143.5,93.05c-.05,5.8-9.14,7.19-20.34,7.09S102.9,98.5,103,92.7s9.17-10.41,20.36-10.32S143.55,87.26,143.5,93.05Z"/><ellipse class="cls-15" cx="115.01" cy="97.2" rx="2.84" ry="4.38" transform="translate(13.05 208.01) rotate(-87.58)"/><ellipse class="cls-15" cx="131.43" cy="97.2" rx="2.84" ry="4.38" transform="translate(28.77 224.41) rotate(-87.58)"/><path class="cls-22" d="M176.31,96.17a52.74,52.74,0,0,1-105.48,0c0-29.13,13.4-80.32,52.74-80.32S176.31,67,176.31,96.17Z"/><ellipse class="cls-21" cx="109.16" cy="61.61" rx="13.93" ry="9.21"/><ellipse class="cls-21" cx="137.51" cy="61.61" rx="13.93" ry="9.21"/><ellipse class="cls-15" cx="137.51" cy="61.61" rx="6.08" ry="4.8"/><circle class="cls-24" cx="143.13" cy="58.74" r="2.91"/><ellipse class="cls-15" cx="109.16" cy="61.61" rx="6.08" ry="4.8"/><circle class="cls-24" cx="103.53" cy="58.74" r="2.91"/><path class="cls-15" d="M154.5,55.77l-31.41,3.91L92.65,55.77a4.23,4.23,0,0,1-4.22-4.22h0a4.23,4.23,0,0,1,4.22-4.21H154.5a4.22,4.22,0,0,1,4.21,4.21h0A4.23,4.23,0,0,1,154.5,55.77Z"/><line class="cls-9" x1="105.01" y1="40.3" x2="142.15" y2="40.3"/><line class="cls-9" x1="114.38" y1="31.89" x2="132.78" y2="31.89"/><rect class="cls-5" x="209.81" y="103.49" width="7.16" height="13.66" rx="3.58" ry="3.58" transform="translate(31.29 -46.35) rotate(13.37)"/><path class="cls-5" d="M203.32,133.27a3.84,3.84,0,0,1-3.1-4.43l1.21-6.83a3.83,3.83,0,0,1,4.42-3.1h0a3.83,3.83,0,0,1,3.1,4.43l-1.06,7.51"/><rect class="cls-5" x="216.77" y="105.15" width="7.16" height="13.66" rx="3.58" ry="3.58" transform="translate(31.86 -47.91) rotate(13.37)"/><rect class="cls-5" x="223.74" y="106.8" width="7.16" height="13.66" rx="3.58" ry="3.58" transform="translate(32.43 -49.48) rotate(13.37)"/></g></g></g></svg>