<svg xmlns="http://www.w3.org/2000/svg" xmlns:xlink="http://www.w3.org/1999/xlink" viewBox="0 0 367.13 463.58"><defs><style>.cls-1,.cls-13,.cls-19,.cls-20,.cls-31,.cls-32,.cls-36,.cls-38,.cls-39,.cls-50,.cls-56,.cls-57,.cls-61,.cls-65,.cls-66,.cls-7,.cls-8{fill:none;}.cls-2{isolation:isolate;}.cls-10,.cls-14,.cls-27,.cls-3,.cls-30,.cls-34,.cls-52,.cls-55,.cls-59,.cls-6{fill:#cabf9e;}.cls-10,.cls-13,.cls-16,.cls-17,.cls-19,.cls-20,.cls-21,.cls-24,.cls-25,.cls-26,.cls-27,.cls-28,.cls-29,.cls-3,.cls-30,.cls-32,.cls-33,.cls-34,.cls-36,.cls-37,.cls-38,.cls-39,.cls-4,.cls-40,.cls-42,.cls-46,.cls-47,.cls-48,.cls-49,.cls-5,.cls-52,.cls-53,.cls-54,.cls-55,.cls-57,.cls-58,.cls-59,.cls-6,.cls-61,.cls-62,.cls-63,.cls-64,.cls-65,.cls-66,.cls-67,.cls-69,.cls-70,.cls-71,.cls-72,.cls-8,.cls-9{stroke:#333132;}.cls-17,.cls-19,.cls-20,.cls-25,.cls-26,.cls-27,.cls-28,.cls-3,.cls-30,.cls-31,.cls-32,.cls-33,.cls-38,.cls-39,.cls-4,.cls-46,.cls-47,.cls-48,.cls-52,.cls-53,.cls-55,.cls-56,.cls-57,.cls-58,.cls-6,.cls-62,.cls-64,.cls-65,.cls-66,.cls-7,.cls-71,.cls-72,.cls-8,.cls-9{stroke-linecap:round;}.cls-13,.cls-17,.cls-25,.cls-26,.cls-27,.cls-28,.cls-29,.cls-3,.cls-30,.cls-31,.cls-32,.cls-33,.cls-36,.cls-4,.cls-46,.cls-47,.cls-48,.cls-5,.cls-52,.cls-53,.cls-54,.cls-55,.cls-56,.cls-57,.cls-58,.cls-6,.cls-61,.cls-62,.cls-64,.cls-7,.cls-71,.cls-72,.cls-8,.cls-9{stroke-linejoin:round;}.cls-10,.cls-13,.cls-17,.cls-19,.cls-3,.cls-4,.cls-7,.cls-8,.cls-9{stroke-width:2.92px;}.cls-28,.cls-4,.cls-53{fill:#062447;}.cls-29,.cls-5,.cls-54{fill:#fff;}.cls-5{stroke-width:0.58px;}.cls-6{stroke-width:1.54px;}.cls-31,.cls-56,.cls-7{stroke:#333;}.cls-33,.cls-58,.cls-9{fill:#ef77ae;}.cls-10,.cls-16,.cls-19,.cls-20,.cls-21,.cls-24,.cls-34,.cls-37,.cls-38,.cls-39,.cls-40,.cls-42,.cls-49,.cls-50,.cls-59,.cls-63,.cls-65,.cls-66,.cls-67,.cls-69,.cls-70{stroke-miterlimit:10;}.cls-11{fill:#1eb473;}.cls-12,.cls-15{opacity:0.1;}.cls-15{mix-blend-mode:multiply;}.cls-16,.cls-37,.cls-63{fill:#cee4ad;}.cls-16,.cls-20,.cls-24{stroke-width:2.19px;}.cls-17,.cls-46,.cls-64{fill:#373737;}.cls-18,.cls-21,.cls-40,.cls-67{fill:#333132;}.cls-21{stroke-width:4.38px;}.cls-22{clip-path:url(#clip-path);}.cls-23,.cls-25,.cls-26,.cls-47,.cls-48,.cls-62,.cls-70,.cls-71,.cls-72{fill:#f57981;}.cls-24,.cls-42,.cls-69{fill:#a69a8b;}.cls-25{stroke-width:1.34px;}.cls-26{stroke-width:0.82px;}.cls-27,.cls-28,.cls-31,.cls-32,.cls-33,.cls-34,.cls-36,.cls-38,.cls-46{stroke-width:2.63px;}.cls-29{stroke-width:0.52px;}.cls-30{stroke-width:1.39px;}.cls-35{fill:#f2eab3;}.cls-37,.cls-39,.cls-42{stroke-width:1.97px;}.cls-40{stroke-width:3.95px;}.cls-41{clip-path:url(#clip-path-2);}.cls-43{fill:#e5e5e5;}.cls-44{fill:#f2f2f2;}.cls-45{fill:#f7f7f7;opacity:0.74;}.cls-47{stroke-width:0.74px;}.cls-48{stroke-width:1.7px;}.cls-49{fill:#473e30;stroke-width:3.61px;}.cls-50{stroke:#c69710;stroke-width:2.71px;}.cls-51{fill:#897645;}.cls-52,.cls-53,.cls-56,.cls-57,.cls-58,.cls-59,.cls-61,.cls-64,.cls-65{stroke-width:3.33px;}.cls-54{stroke-width:0.66px;}.cls-55{stroke-width:1.76px;}.cls-60{fill:#00a89c;}.cls-62,.cls-63,.cls-66,.cls-69,.cls-70{stroke-width:2.5px;}.cls-67{stroke-width:5px;}.cls-68{clip-path:url(#clip-path-3);}.cls-71{stroke-width:1.53px;}.cls-72{stroke-width:0.94px;}</style><clipPath id="clip-path"><path class="cls-1" d="M87.54,127.28c0,5.45-11.12,5.31-17.71,2.95-9.21-3.28-15,1.94-15-2.95s6.52-3.14,15-7.48C79.18,115,87.54,122.39,87.54,127.28Z"/></clipPath><clipPath id="clip-path-2"><path class="cls-1" d="M305.59,146.45c0,4.91-10,4.78-16,2.66-8.31-3-13.5,1.75-13.5-2.66s5.89-2.84,13.5-6.75C298,135.37,305.59,142,305.59,146.45Z"/></clipPath><clipPath id="clip-path-3"><path class="cls-1" d="M201.45,120.62c0,6.22-12.71,6.06-20.24,3.37-10.53-3.75-17.11,2.22-17.11-3.37s7.46-3.6,17.11-8.55C191.89,106.59,201.45,115,201.45,120.62Z"/></clipPath></defs><title>interns</title><g class="cls-2"><g id="Layer_2" data-name="Layer 2"><g id="Layer_1-2" data-name="Layer 1"><path class="cls-3" d="M47.35,411.79l6.92-73.13H32.6v46.17a5.1,5.1,0,1,0,0,10.19v16.64H30c-1.41-1.19-3.2,1.15-5.18,1.15-4.46,0-6.55,1.31-6.55,5.78s2.09,7.32,6.55,7.32l24.28-2.31c3.92,0,3.28-.9,3.28-4.82C52.41,415.31,50.65,412.4,47.35,411.79Z"/><path class="cls-3" d="M92.53,411.79l-2.3-73.13H111.9v46.17a5.1,5.1,0,0,1,0,10.19l-2.31,16.64h4.87c1.41-1.19,3.2,1.15,5.18,1.15,4.47,0,6.55,1.31,6.55,5.78s-2.08,7.32-6.55,7.32H91.52a7.14,7.14,0,0,1-7.12-7.13C84.4,415.31,89.23,412.4,92.53,411.79Z"/><polygon class="cls-4" points="28.48 276.4 27.97 300.27 26.71 309.36 25.84 340.15 24.04 359.39 25.16 367.34 23.07 377.6 22.72 392.88 32.72 394.88 38.72 385.88 41.72 390.88 53.72 388.88 60.06 374.47 62.82 362.34 65.69 348.64 68.66 317.9 73.21 314.83 76.99 331.86 80.74 345.58 80.3 363.17 84.81 405.9 120.7 405.9 118.72 385.45 117.28 348.37 115.87 337.48 116.09 328.21 113.01 276.4 28.48 276.4"/><path class="cls-5" d="M129.11,240.33V217c2.4-.19,4.26-1.44,4.26-3s-2.18-3-4.87-3a7.15,7.15,0,0,0-2.43.42,7.15,7.15,0,0,0-2.43-.42c-2.69,0-4.87,1.34-4.87,3s1.86,2.77,4.26,3v23.3c-2.4.19-4.26,1.43-4.26,3h0v0c0,1.53,1.86,2.77,4.26,3v19.56c-2.4.18-4.26,1.43-4.26,3s2.18,3,4.87,3a7.41,7.41,0,0,0,2.43-.41,7.41,7.41,0,0,0,2.43.41c2.69,0,4.87-1.34,4.87-3s-1.86-2.78-4.26-3V246.28c2.4-.19,4.26-1.43,4.26-3v0h0C133.37,241.76,131.51,240.52,129.11,240.33Z"/><path class="cls-6" d="M27.94,285.34l-7.52-5.29c-.25-.18.17-.82,0-.57l-.22.21-.1-.81a3.34,3.34,0,0,0-3.76-2.8l-6.16.89a3.33,3.33,0,0,0-2.8,3.76l-.74,11a1,1,0,0,0,0,.17,3.3,3.3,0,0,0,1.9,2.44.65.65,0,0,1,.36.56L9.32,304a1.32,1.32,0,0,0,1.37,1.25l1.09-.06A1.31,1.31,0,0,0,13,303.85l-.42-8.94a.64.64,0,0,1,.55-.67h0a.64.64,0,0,1,.72.55l2.37,16.31a1.47,1.47,0,0,0,1.65,1.24l.78-.12a1.46,1.46,0,0,0,1.24-1.65l-2.37-16.31a.64.64,0,0,1,.54-.73l.44-.07a.65.65,0,0,1,.73.55l1.91,13.16a1.4,1.4,0,0,0,1.58,1.18l.91-.13a1.4,1.4,0,0,0,1.18-1.58l-2-13.94a.65.65,0,0,1,.2-.57,3.28,3.28,0,0,0,.95-2.72.59.59,0,0,0,0-.17l-.41-1.11a.64.64,0,0,1,1-.74l.69.52a1.21,1.21,0,0,0,1.68-.23l1.17-1.56A.55.55,0,0,0,27.94,285.34Z"/><path class="cls-6" d="M111.37,285.34l7.52-5.29c.25-.18-.17-.82,0-.57l.21.21.11-.81a3.32,3.32,0,0,1,3.75-2.8l6.16.89a3.33,3.33,0,0,1,2.8,3.76l.74,11a.5.5,0,0,1,0,.17,3.3,3.3,0,0,1-1.9,2.44.67.67,0,0,0-.36.56l-.42,7.56c0,.71-.65,2.81-1.37,2.78l-1.09-1.59a1.31,1.31,0,0,1-1.24-1.37l.42-7.4a.66.66,0,0,0-.55-.67h0a.65.65,0,0,0-.73.55l-2.37,16.31a1.46,1.46,0,0,1-1.65,1.24l-.78-.12a1.46,1.46,0,0,1-1.24-1.65l2.37-16.31a.64.64,0,0,0-.54-.73l-.44-.07a.65.65,0,0,0-.73.55l-1.91,13.16a1.4,1.4,0,0,1-1.58,1.18l-.91-.13a1.4,1.4,0,0,1-1.18-1.58l2-13.94a.68.68,0,0,0-.21-.57,3.28,3.28,0,0,1-1-2.72.59.59,0,0,1,0-.17l.41-1.11a.64.64,0,0,0-1-.74l-.69.52a1.19,1.19,0,0,1-1.67-.23l-1.18-1.56A.56.56,0,0,1,111.37,285.34Z"/><line class="cls-7" x1="130.12" y1="254.26" x2="130.12" y2="217.3"/><line class="cls-8" x1="8.1" y1="246.07" x2="9.11" y2="206.67"/><path class="cls-9" d="M26.75,78.37S17.55,71.31,25.29,61c0,0-2.41-12.32,7.7-13,0,0,2-12,12.1-9.27,0,0,2.63-6.47,8.68-3.12a5.22,5.22,0,0,1,7-3s5.66-4.1,9.82-.3c0,0,5.69-5.95,14.17,1.17,0,0,8.88-3.8,11.51,4.59,0,0,8.87,1.46,8.19,8,0,0,3.61,0,3.32,5,0,0,5.56-.74,5.56,7.8,0,0,5.53,2.38,1.89,11.69,0,0,4,14.74-8.82,16.4,0,0-5.17,14.92-19.5,8.19,0,0-7.81,12.88-21.17,3.91a12.1,12.1,0,0,1-12.29-5.27s-12.09,4.09-15.11-6C38.36,87.83,25.29,92.41,26.75,78.37Z"/><path class="cls-10" d="M28.7,101.68h1.37a5.93,5.93,0,0,1-5.9-5.91L22.8,86.33a5.92,5.92,0,0,1,5.9-5.9h0a5.92,5.92,0,0,1,5.91,5.9v9.44A5.93,5.93,0,0,1,28.7,101.68Z"/><path class="cls-10" d="M110,101.68h-1.37c-3.25,0-4.53-2.66-4.53-5.91V86.33a5.91,5.91,0,0,1,5.9-5.9h0a5.92,5.92,0,0,1,5.9,5.9l-1.37,9.44C114.51,99,113.22,101.68,110,101.68Z"/><path class="cls-10" d="M69.34,146.09c-36.24,0-65.62,30.53-65.62,68.19v40H135v-40C135,176.62,105.58,146.09,69.34,146.09Z"/><path class="cls-11" d="M69.34,142.15c-21.83,0-41.24,10.72-53.65,27.36,0,0,10.09,3,5,14.55,0,0-4.09,1.83-4.09,1.81l-1.28,5C14.85,198,3.5,195.51,3.5,195.51a73,73,0,0,0-2,17.18v64.67H137.22V212.69C137.22,173.73,106.83,142.15,69.34,142.15Z"/><path class="cls-12" d="M94.52,147.19c20.54,12.12,34.4,35.05,34.4,84.41v45.71l8.3.05V212.69C137.22,183,119.54,157.58,94.52,147.19Z"/><path class="cls-13" d="M69.34,142.15c-21.83,0-41.24,10.72-53.65,27.36,0,0,10.09,3,5,14.55,0,0-4.09,1.83-4.09,1.81l-1.28,5C14.85,198,3.5,195.51,3.5,195.51a73,73,0,0,0-2,17.18v64.67H137.22V212.69C137.22,173.73,106.83,142.15,69.34,142.15Z"/><path class="cls-14" d="M84.69,124.54H54v25.58a15.35,15.35,0,0,0,15.35,15.35c.46,0,5.54,5.58,5.54,5.58L76,164.44l5.21,1.22-.77-5a15.25,15.25,0,0,0,4.25-10.58Z"/><path class="cls-8" d="M84.69,124.54H54v25.58a15.35,15.35,0,0,0,15.35,15.35c.46,0,5.54,5.58,5.54,5.58L76,164.44l5.21,1.22-.77-5a15.25,15.25,0,0,0,4.25-10.58Z"/><ellipse class="cls-15" cx="69.14" cy="141.96" rx="15.54" ry="7.19"/><path class="cls-3" d="M25.07,60.88S29.18,82,29.18,94.14s2.44,18.46,6.65,26l3.59-2.24,1.11,5,3.32,2.38-2,3.39c8,9.14,15.11,14.82,27.49,14.82,13.67,0,21.78-6.92,29.9-17.78L96,120.41l5.73,1.61c4.88-7.93,7.74-10.94,7.74-27.88a155.09,155.09,0,0,1,4.11-33.26Z"/><line class="cls-8" x1="25.96" y1="277.36" x2="24.58" y2="201.18"/><line class="cls-8" x1="112.73" y1="277.36" x2="114.1" y2="201.18"/><path class="cls-15" d="M74.33,92.75c0,6.7,10.46,14.32,17.16,14.32s10.57-3.8,10.57-10.5S99,85.62,92.29,85.62,74.33,86.05,74.33,92.75Z"/><path class="cls-16" d="M74.33,88.64c0,6.7,10.46,14.31,17.16,14.31s10.57-3.79,10.57-10.49S99,81.51,92.29,81.51,74.33,81.94,74.33,88.64Z"/><path class="cls-17" d="M122.7,76.14s-8.63-2-4.83-19.67c-4.73,6.19-13.29,3.45-13.29,3.45l-3.85-8.59-5.36-1.78-1.92-6.49L86.56,40c.13-5.7,2.83-10.11,6.29-11.66-10.55-2.69-24.36-1-42.16,4.73,0,0-7.67-3.35-5.26-9.84,0,0-10.28.58-8.61,17.31,0,0-15.18-12.65-22.21,7.09,0,0,9.57-3.15,9.57,7.08,0,0-10.41,7.35-1.38,31.65,0,0,10.9-4.46,11.81-14.7C35.37,62.92,41.3,62,41.3,62S36.43,74.34,68.55,79.69c0,0-3.38-12.23-.37-14.24-.33,0,20.39,28,54.52,20.07a13.82,13.82,0,0,1-7-8.41A8.08,8.08,0,0,0,122.7,76.14Z"/><path class="cls-18" d="M75.51,109.88c0,5-2.76.43-6.17.43s-6.17,4.53-6.17-.43,2.76-9,6.17-9S75.51,104.91,75.51,109.88Z"/><path class="cls-19" d="M39.83,48.79s.88-3.77-3-8.28"/><path class="cls-19" d="M86.26,44.65s-.09-6.85,1.28-10.07"/><path class="cls-19" d="M63.51,57.77s1.71,4.64,7.7,11.35"/><line class="cls-20" x1="67.09" y1="132.29" x2="68.46" y2="128.86"/><path class="cls-21" d="M87.54,127.28c0,5.45-11.12,5.31-17.71,2.95-9.21-3.28-15,1.94-15-2.95s6.52-3.14,15-7.48C79.18,115,87.54,122.39,87.54,127.28Z"/><g class="cls-22"><ellipse class="cls-23" cx="74.83" cy="130.79" rx="8.26" ry="3.54"/></g><path class="cls-15" d="M64.36,92.75c0,6.7-10.46,14.32-17.16,14.32s-10.57-3.8-10.57-10.5S39.7,85.62,46.4,85.62,64.36,86.05,64.36,92.75Z"/><path class="cls-16" d="M64.36,88.64C64.36,95.34,53.9,103,47.2,103S36.63,99.16,36.63,92.46,39.7,81.51,46.4,81.51,64.36,81.94,64.36,88.64Z"/><path class="cls-18" d="M88.76,88.83a6.2,6.2,0,0,0-3.9,1.27A1.73,1.73,0,0,1,83.71,93c.43,1.68,2.52,3,5.05,3,2.84,0,5.14-1.61,5.14-3.59S91.6,88.83,88.76,88.83Z"/><path class="cls-24" d="M74.33,88.64c0,6.7,6.26.19,13,.19s15.49,5.94,14.6,1.07-2.9-8.39-9.6-8.39S74.33,81.94,74.33,88.64Z"/><path class="cls-18" d="M49.93,88.83A6.24,6.24,0,0,0,46.2,90a1.72,1.72,0,0,1,.7,1.36,1.74,1.74,0,0,1-1.75,1.74,1.4,1.4,0,0,1-.28-.06c.41,1.7,2.51,3,5.06,3,2.84,0,5.14-1.61,5.14-3.59S52.77,88.83,49.93,88.83Z"/><path class="cls-24" d="M64.36,88.64c0,6.7-8.38-1-18.1.19-6.64.85-9.63,7.74-9.63,3.63,0-6.7,3.07-10.95,9.77-10.95S64.36,81.94,64.36,88.64Z"/><line class="cls-20" x1="58.15" y1="122.37" x2="56.78" y2="120.32"/><line class="cls-20" x1="82.49" y1="119.15" x2="82.49" y2="117.1"/><path class="cls-25" d="M115,318.41c0-2.05-1.16-3.71-1.89-3.71s-1.33,1.66-1.33,3.71a1.48,1.48,0,0,0,0,.21,1.39,1.39,0,0,0-.56-.13c-1.3,0-2.36,2-2.36,4.42s1.06,5.75,2.36,5.75,2.35-3.31,2.35-5.75c0-.34,0-.66-.06-1A5.22,5.22,0,0,0,115,318.41Z"/><path class="cls-26" d="M130.76,299.3c0-1.26-.72-2.28-1.17-2.28s-.81,1-.81,2.28v.14a.81.81,0,0,0-.34-.08c-.8,0-1.45,1.21-1.45,2.71s.65,3.54,1.45,3.54,1.44-2,1.44-3.54a5.74,5.74,0,0,0,0-.6A3.26,3.26,0,0,0,130.76,299.3Z"/><path class="cls-27" d="M269.32,403.17l6.25-66H256v41.66a4.6,4.6,0,0,0,0,9.19v15H253.7c-1.27-1.07-2.89,1-4.67,1-4,0-5.91,1.18-5.91,5.21s1.88,6.61,5.91,6.61l21.9-2.08c3.54,0,3-.82,3-4.35C273.89,406.34,272.31,403.72,269.32,403.17Z"/><path class="cls-27" d="M310.1,403.17l-2.08-66h19.55v41.66a4.6,4.6,0,0,1,0,9.19l-2.08,15h4.39c1.27-1.07,2.89,1,4.68,1,4,0,5.91,1.18,5.91,5.21s-1.89,6.61-5.91,6.61H309.18a6.46,6.46,0,0,1-6.43-6.43C302.75,406.34,307.11,403.72,310.1,403.17Z"/><polygon class="cls-28" points="252.29 281 251.84 302.54 250.71 310.74 249.91 338.53 248.29 355.89 249.3 363.06 247.42 372.32 246.05 397.86 255.41 394.04 262.35 387.11 272.75 390.57 272.75 397.51 278.99 367.69 283.29 358.55 285.87 346.19 288.56 318.45 292.66 315.68 296.07 331.04 299.46 343.42 303.05 359.29 303.13 397.86 311.72 397.86 317.22 393.86 323.67 396.86 332.51 387.86 333.72 379.4 332.43 345.95 330.15 336.12 331.35 327.76 328.58 281 252.29 281"/><path class="cls-29" d="M343.1,248.45v-21c2.16-.17,3.84-1.3,3.84-2.67s-2-2.71-4.39-2.71a6.32,6.32,0,0,0-2.19.38,6.34,6.34,0,0,0-2.2-.38c-2.42,0-4.39,1.21-4.39,2.71s1.68,2.5,3.84,2.67v21c-2.16.17-3.84,1.3-3.84,2.67v0h0c0,1.38,1.68,2.5,3.84,2.67v17.65c-2.16.17-3.84,1.29-3.84,2.67s2,2.7,4.39,2.7a6.59,6.59,0,0,0,2.2-.37,6.57,6.57,0,0,0,2.19.37c2.43,0,4.39-1.21,4.39-2.7s-1.68-2.5-3.84-2.67V253.82c2.16-.17,3.84-1.29,3.84-2.67h0v0C346.94,249.75,345.26,248.62,343.1,248.45Z"/><path class="cls-30" d="M251.81,289.07,245,284.3c-.22-.17.16-.74,0-.52l-.19.19-.1-.73a3,3,0,0,0-3.38-2.53l-5.56.81a3,3,0,0,0-2.53,3.39l-.67,9.95a.92.92,0,0,0,0,.16,3,3,0,0,0,1.71,2.2.56.56,0,0,1,.33.5l.38,8.21a1.19,1.19,0,0,0,1.23,1.12l1-.05a1.17,1.17,0,0,0,1.12-1.23L238,297.7a.59.59,0,0,1,.5-.6h0a.59.59,0,0,1,.66.49l2.13,14.72a1.33,1.33,0,0,0,1.5,1.12l.7-.1a1.32,1.32,0,0,0,1.11-1.5l-2.13-14.72a.57.57,0,0,1,.49-.65l.39-.06a.58.58,0,0,1,.66.49l1.72,11.88a1.26,1.26,0,0,0,1.43,1.06l.82-.12a1.26,1.26,0,0,0,1.06-1.42l-1.82-12.58a.57.57,0,0,1,.18-.51,3,3,0,0,0,.86-2.45.42.42,0,0,0,0-.16l-.37-1a.58.58,0,0,1,.89-.66l.63.47a1.08,1.08,0,0,0,1.51-.21l1.06-1.41A.5.5,0,0,0,251.81,289.07Z"/><path class="cls-30" d="M327.09,289.07l6.79-4.77c.22-.17-.15-.74,0-.52l.2.19.09-.73a3,3,0,0,1,3.39-2.53l5.55.81a3,3,0,0,1,2.53,3.39l.67,9.95a.85.85,0,0,1,0,.16,3,3,0,0,1-1.72,2.2.57.57,0,0,0-.32.5l-.39,6.82c0,.65-.58,2.54-1.23,2.51l-1-1.44a1.18,1.18,0,0,1-1.12-1.23l.38-6.68a.59.59,0,0,0-.5-.6h0a.58.58,0,0,0-.65.49l-2.14,14.72a1.32,1.32,0,0,1-1.49,1.12l-.7-.1a1.33,1.33,0,0,1-1.12-1.5l2.14-14.72a.58.58,0,0,0-.49-.65l-.4-.06a.57.57,0,0,0-.65.49l-1.73,11.88a1.26,1.26,0,0,1-1.42,1.06l-.83-.12a1.26,1.26,0,0,1-1.06-1.42l1.83-12.58a.58.58,0,0,0-.19-.51,3,3,0,0,1-.86-2.45.75.75,0,0,1,0-.16l.37-1a.58.58,0,0,0-.89-.66l-.62.47a1.09,1.09,0,0,1-1.52-.21L327,289.77A.51.51,0,0,1,327.09,289.07Z"/><line class="cls-31" x1="234.33" y1="261.02" x2="234.33" y2="227.68"/><line class="cls-32" x1="233.91" y1="253.64" x2="234.82" y2="218.08"/><path class="cls-33" d="M250.74,102.31s-8.3-6.36-1.32-15.66c0,0-2.17-11.12,7-11.71,0,0,1.79-10.79,10.91-8.36,0,0,2.38-5.84,7.83-2.82A4.73,4.73,0,0,1,281.45,61s5.11-3.7,8.86-.27c0,0,5.13-5.37,12.79,1.06,0,0,8-3.43,10.39,4.13,0,0,8,1.33,7.39,7.22,0,0,3.25,0,3,4.49,0,0,5-.67,5,7,0,0,5,2.14,1.7,10.54,0,0,3.58,13.31-7.95,14.81,0,0-4.67,13.46-17.6,7.39,0,0-7,11.61-19.1,3.52a10.92,10.92,0,0,1-11.09-4.75s-10.91,3.69-13.64-5.37C261.21,110.85,249.42,115,250.74,102.31Z"/><path class="cls-34" d="M252.5,123.34h1.24a5.35,5.35,0,0,1-5.33-5.32l-1.24-8.53a5.34,5.34,0,0,1,5.33-5.32h0a5.34,5.34,0,0,1,5.33,5.32V118A5.35,5.35,0,0,1,252.5,123.34Z"/><path class="cls-34" d="M325.84,123.34H324.6c-2.93,0-4.09-2.4-4.09-5.32v-8.53a5.34,5.34,0,0,1,5.33-5.32h0a5.33,5.33,0,0,1,5.32,5.32L329.93,118C329.93,120.94,328.77,123.34,325.84,123.34Z"/><path class="cls-34" d="M289.17,163.42c32.7,0,59.21,27.54,59.21,61.53v36.12H230V225C230,191,256.47,163.42,289.17,163.42Z"/><path class="cls-35" d="M289.17,159.87a60.34,60.34,0,0,1,48.41,24.68s-9.11,2.75-4.51,13.13l3.68,1.64s1.16,4.53,1.16,4.53c.43,6.39,10.67,4.16,10.67,4.16a66,66,0,0,1,1.84,15.51v58.35H227.92V223.52C227.92,188.36,255.34,159.87,289.17,159.87Z"/><path class="cls-12" d="M266.45,164.41c-18.53,10.94-31,31.63-31,76.17v41.25l-7.49,0V223.52C227.92,196.71,243.87,173.79,266.45,164.41Z"/><path class="cls-36" d="M289.17,159.87a60.34,60.34,0,0,1,48.41,24.68s-9.11,2.75-4.51,13.13l3.68,1.64s1.16,4.53,1.16,4.53c.43,6.39,10.67,4.16,10.67,4.16a66,66,0,0,1,1.84,15.51v58.35H227.92V223.52C227.92,188.36,255.34,159.87,289.17,159.87Z"/><path class="cls-14" d="M303,144h-27.7v23.08a13.85,13.85,0,0,0,13.85,13.84c.41,0,5,5,5,5l1-6,4.7,1.09-.69-4.47a13.81,13.81,0,0,0,3.83-9.54Z"/><path class="cls-32" d="M303,144h-27.7v23.08a13.85,13.85,0,0,0,13.85,13.84c.41,0,5,5,5,5l1-6,4.7,1.09-.69-4.47a13.81,13.81,0,0,0,3.83-9.54Z"/><ellipse class="cls-15" cx="288.99" cy="159.69" rx="14.03" ry="6.49"/><path class="cls-27" d="M249.22,86.53s3.71,19.07,3.71,30,2.2,16.66,6,23.48l3.24-2,1,4.52,3,2.14-1.81,3.06C271.61,156,278,161.1,289.17,161.1c12.33,0,19.65-6.24,27-16l-2.9-4.81,5.17,1.45c4.4-7.16,7-9.87,7-25.16a139.57,139.57,0,0,1,3.72-30Z"/><line class="cls-32" x1="328.32" y1="281.87" x2="329.55" y2="213.13"/><line class="cls-32" x1="250.02" y1="281.87" x2="248.78" y2="213.13"/><path class="cls-15" d="M293.67,115.29c0,6,9.44,12.92,15.48,12.92s9.54-3.43,9.54-9.47-2.77-9.88-8.81-9.88S293.67,109.25,293.67,115.29Z"/><path class="cls-37" d="M293.67,111.58c0,6,9.44,12.91,15.48,12.91s9.54-3.42,9.54-9.47-2.77-9.88-8.81-9.88S293.67,105.53,293.67,111.58Z"/><path class="cls-18" d="M294.74,130.74c0,4.49-2.5.39-5.57.39s-5.57,4.1-5.57-.39,2.49-8.11,5.57-8.11S294.74,126.26,294.74,130.74Z"/><path class="cls-38" d="M262.54,75.62s.79-3.4-2.71-7.47"/><path class="cls-38" d="M304.44,71.89s-.09-6.18,1.15-9.09"/><path class="cls-38" d="M283.91,83.73s1.54,4.18,6.94,10.24"/><line class="cls-39" x1="287.14" y1="150.97" x2="288.38" y2="147.87"/><path class="cls-40" d="M305.59,146.45c0,4.91-10,4.78-16,2.66-8.31-3-13.5,1.75-13.5-2.66s5.89-2.84,13.5-6.75C298,135.37,305.59,142,305.59,146.45Z"/><g class="cls-41"><ellipse class="cls-23" cx="294.12" cy="149.61" rx="7.46" ry="3.2"/></g><path class="cls-15" d="M284.67,115.29c0,6-9.43,12.92-15.48,12.92s-9.54-3.43-9.54-9.47,2.77-9.88,8.82-9.88S284.67,109.25,284.67,115.29Z"/><path class="cls-18" d="M306.69,111.75a5.56,5.56,0,0,0-3.52,1.15,1.54,1.54,0,0,1,.45,1.09,1.57,1.57,0,0,1-1.49,1.56c.39,1.51,2.28,2.67,4.56,2.67,2.56,0,4.64-1.45,4.64-3.24S309.25,111.75,306.69,111.75Z"/><path class="cls-42" d="M293.67,111.58c0,6,5.65.17,11.7.17s14,5.37,13.17,1-2.62-7.58-8.66-7.58S293.67,105.53,293.67,111.58Z"/><path class="cls-18" d="M271.65,111.75a5.69,5.69,0,0,0-3.37,1,1.52,1.52,0,0,1,.64,1.22,1.58,1.58,0,0,1-1.58,1.58,1,1,0,0,1-.25-.06c.36,1.54,2.26,2.71,4.56,2.71,2.56,0,4.64-1.45,4.64-3.24S274.21,111.75,271.65,111.75Z"/><line class="cls-39" x1="279.07" y1="142.02" x2="277.83" y2="140.16"/><line class="cls-39" x1="301.03" y1="139.11" x2="301.03" y2="137.26"/><path class="cls-43" d="M283.58,109.29c0,2-.33,6.73-1.74,8.37-2.34,2.72-10.83,3.61-15.34,5.41-4.85,1.94-4.57-5.56-4.57-10.79s2.39-8.56,7.62-8.56S283.58,104.06,283.58,109.29Z"/><rect class="cls-43" x="252.88" y="101.65" width="71.1" height="6.34" transform="translate(-9.33 30.52) rotate(-5.96)"/><polygon class="cls-44" points="323.89 101.54 253.17 108.92 253.56 110.82 324.27 103.44 323.89 101.54"/><rect class="cls-45" x="252.77" y="99.85" width="71.1" height="4.15" transform="translate(-9.03 30.5) rotate(-5.96)"/><path class="cls-46" d="M239.79,100.3s7.78-1.85,4.35-17.74c4.27,5.58,12,3.1,12,3.1l3.47-7.75,4.85-1.6,1.73-5.86,6.22-2.78c-.13-5.15-2.56-9.13-5.68-10.53,9.51-2.42,22-.93,38,4.27,0,0,6.92-3,4.74-8.88,0,0,9.28.53,7.77,15.62,0,0,13.7-11.41,20,6.4,0,0-8.63-2.85-8.63,6.39,0,0,9.4,6.63,1.25,28.55,0,0-9.84-4-10.66-13.26-.69-7.86-6-8.73-6-8.73s4.4,11.17-24.59,16c0,0,3.05-11,.34-12.85.3,0-18.4,25.28-49.19,18.11a12.49,12.49,0,0,0,6.31-7.6A7.27,7.27,0,0,1,239.79,100.3Z"/><path class="cls-47" d="M344.59,301.67c0-1.14-.65-2.06-1-2.06s-.74.92-.74,2.06v.12a.67.67,0,0,0-.31-.07c-.72,0-1.3,1.09-1.3,2.44s.58,3.2,1.3,3.2,1.31-1.84,1.31-3.2a3.27,3.27,0,0,0,0-.54A2.87,2.87,0,0,0,344.59,301.67Z"/><path class="cls-48" d="M328.3,245.83c0-3.68.34-6.66-.32-6.66s-4.66,3-4.66,6.66v.39c-.16-.15-.33-.28-.5-.24-6.39,1.71-2.92,5.61-2.92,10s1.75,8.28,2.92,8.28,2.12-5.95,2.12-10.33c0-.61,1.37-1.2,1.33-1.76A13.09,13.09,0,0,0,328.3,245.83Z"/><path class="cls-49" d="M325.82,61.65,318,43.43c-.76-11-16.26-28.71-25.35-28.08l-5.4,5.77-6.33-7.74C271.8,14,261,38,261.72,49l-6.6,16.52C226.87,69.81,207.83,77.23,208.23,83c.43,6.18,22.93,8.15,54.64,8.22,10.59,0,22.2,1.45,34.35.61,8.57-.6,16.26-3.23,23.1-4.24,7.7-1.13,14.32-.68,19.95-2.18,3.3-.88,4.37-2.45,7-3.41,1.79-.66,5.31-.71,6.78-1.4,8-3.69,11.51-7.7,11.27-11.24a11.31,11.31,0,0,0-1.74-3.86c-1-1.59-2.12-.84-6.14-1.55-2.48-.44-5.71-1.65-9.91-1.86C342.07,61.83,335,61.71,325.82,61.65Z"/><line class="cls-50" x1="255.22" y1="65.77" x2="325.61" y2="60.36"/><path class="cls-50" d="M300.79,62.61s7.06,1.41,9,2.71c2.94,1.94,9,5.42,9,5.42"/><path class="cls-50" d="M297.18,62.61s-7.06,1.41-9,2.71c-2.94,1.94-9,5.42-9,5.42"/><circle class="cls-51" cx="290.87" cy="50.88" r="2.71"/><path class="cls-52" d="M155.51,445.77l7.91-83.57H138.65V415a5.82,5.82,0,1,0,0,11.64v19h-2.93c-1.61-1.35-3.66,1.32-5.92,1.32-5.1,0-7.48,1.5-7.48,6.6s2.38,8.37,7.48,8.37l27.74-2.64c4.48,0,3.75-1,3.75-5.51C161.29,449.79,159.29,446.47,155.51,445.77Z"/><path class="cls-52" d="M207.15,445.77l-2.64-83.57h24.77V415a5.82,5.82,0,0,1,0,11.64l-2.64,19h5.57c1.61-1.35,3.65,1.32,5.92,1.32,5.1,0,7.48,1.5,7.48,6.6s-2.38,8.37-7.48,8.37H206a8.18,8.18,0,0,1-8.15-8.15C197.85,449.79,203.37,446.47,207.15,445.77Z"/><polygon class="cls-53" points="133.94 291.05 133.36 318.32 131.93 328.71 130.93 363.9 128.87 385.89 130.15 394.98 127.76 406.7 126.03 439.04 137.89 434.21 146.68 425.43 159.85 429.82 159.85 438.6 167.75 400.84 173.19 389.26 176.47 373.6 179.87 338.48 185.06 334.96 189.38 354.42 193.68 370.1 193.16 390.2 198.32 439.04 239.34 439.04 237.07 415.67 235.44 373.3 233.82 360.85 234.07 350.26 230.56 291.05 133.94 291.05"/><path class="cls-54" d="M249,249.82V223.19c2.74-.22,4.87-1.64,4.87-3.39s-2.49-3.42-5.56-3.42a8.35,8.35,0,0,0-2.78.47,8.35,8.35,0,0,0-2.78-.47c-3.07,0-5.56,1.53-5.56,3.42s2.12,3.17,4.86,3.39v26.63c-2.74.21-4.86,1.63-4.86,3.38v0c0,1.74,2.12,3.16,4.86,3.38V279c-2.74.21-4.86,1.64-4.86,3.38s2.49,3.43,5.56,3.43a8.34,8.34,0,0,0,2.78-.48,8.34,8.34,0,0,0,2.78.48c3.07,0,5.56-1.54,5.56-3.43s-2.13-3.17-4.87-3.38V256.62c2.74-.22,4.87-1.64,4.87-3.38v0C253.82,251.45,251.69,250,249,249.82Z"/><path class="cls-55" d="M133.33,301.26l-8.6-6c-.28-.21.2-.94,0-.66l-.25.24-.12-.92a3.81,3.81,0,0,0-4.29-3.21l-7,1a3.79,3.79,0,0,0-3.2,4.29l-.85,12.6a1.27,1.27,0,0,0,0,.2,3.8,3.8,0,0,0,2.17,2.79.72.72,0,0,1,.41.64l.49,10.39a1.5,1.5,0,0,0,1.56,1.42l1.25-.06a1.5,1.5,0,0,0,1.42-1.56l-.48-10.21a.76.76,0,0,1,.63-.77h0a.74.74,0,0,1,.83.63L120,330.7a1.67,1.67,0,0,0,1.89,1.41l.89-.13a1.67,1.67,0,0,0,1.41-1.89l-2.71-18.64a.73.73,0,0,1,.63-.83l.5-.08a.73.73,0,0,1,.83.62l2.18,15a1.6,1.6,0,0,0,1.8,1.34l1-.15a1.58,1.58,0,0,0,1.34-1.8l-2.31-15.93a.79.79,0,0,1,.23-.65,3.74,3.74,0,0,0,1.1-3.1,1.17,1.17,0,0,0-.05-.2l-.48-1.27a.74.74,0,0,1,1.14-.85l.78.6a1.38,1.38,0,0,0,1.92-.27l1.35-1.78A.64.64,0,0,0,133.33,301.26Z"/><path class="cls-55" d="M228.68,301.26l8.59-6c.28-.21-.19-.94,0-.66l.25.24.11-.92a3.81,3.81,0,0,1,4.3-3.21l7,1a3.8,3.8,0,0,1,3.21,4.29l.84,12.6a.44.44,0,0,1,0,.2,3.76,3.76,0,0,1-2.17,2.79.72.72,0,0,0-.41.64l-.49,8.64c0,.81-.74,3.21-1.55,3.17l-1.26-1.81a1.5,1.5,0,0,1-1.42-1.56l.48-8.46a.74.74,0,0,0-.62-.77h0a.74.74,0,0,0-.84.63L242,330.7a1.67,1.67,0,0,1-1.89,1.41l-.89-.13a1.66,1.66,0,0,1-1.41-1.89l2.7-18.64a.73.73,0,0,0-.62-.83l-.5-.08a.73.73,0,0,0-.83.62l-2.19,15a1.58,1.58,0,0,1-1.8,1.34l-1-.15a1.59,1.59,0,0,1-1.35-1.8l2.31-15.93a.76.76,0,0,0-.23-.65,3.76,3.76,0,0,1-1.09-3.1,1.17,1.17,0,0,1,0-.2l.47-1.27a.74.74,0,0,0-1.13-.85l-.79.6a1.38,1.38,0,0,1-1.92-.27l-1.34-1.78A.64.64,0,0,1,228.68,301.26Z"/><line class="cls-56" x1="250.1" y1="265.74" x2="250.1" y2="223.5"/><line class="cls-57" x1="110.65" y1="256.38" x2="111.81" y2="211.34"/><path class="cls-58" d="M132,64.72s-10.52-8.06-1.67-19.84c0,0-2.75-14.08,8.8-14.83,0,0,2.27-13.67,13.82-10.58,0,0,3-7.4,9.92-3.57a6,6,0,0,1,8-3.46s6.46-4.68,11.22-.33c0,0,6.5-6.8,16.2,1.34,0,0,10.14-4.35,13.15,5.24,0,0,10.15,1.67,9.37,9.14,0,0,4.12,0,3.78,5.68,0,0,6.36-.85,6.36,8.92,0,0,6.32,2.71,2.16,13.35,0,0,4.53,16.85-10.08,18.75,0,0-5.9,17-22.29,9.36,0,0-8.92,14.72-24.19,4.46a13.8,13.8,0,0,1-14-6s-13.82,4.68-17.28-6.8C145.23,75.53,130.3,80.77,132,64.72Z"/><path class="cls-59" d="M134.2,91.36h1.57A6.77,6.77,0,0,1,129,84.61l-1.57-10.79a6.77,6.77,0,0,1,6.75-6.75h0A6.77,6.77,0,0,1,141,73.82V84.61A6.77,6.77,0,0,1,134.2,91.36Z"/><path class="cls-59" d="M227.09,91.36h-1.57c-3.71,0-5.18-3-5.18-6.75V73.82a6.77,6.77,0,0,1,6.75-6.75h0a6.76,6.76,0,0,1,6.74,6.75l-1.57,10.79C232.26,88.32,230.8,91.36,227.09,91.36Z"/><path class="cls-59" d="M180.64,142.11c-41.41,0-75,34.89-75,77.93v45.75h150V220C255.64,177,222.06,142.11,180.64,142.11Z"/><path class="cls-60" d="M180.64,137.62c-24.94,0-47.13,12.25-61.32,31.26,0,0,11.54,3.48,5.72,16.63,0,0-4.68,2.09-4.67,2.07l-1.47,5.74c-.53,8.09-13.51,5.28-13.51,5.28a83.93,83.93,0,0,0-2.33,19.63v73.91H258.22V218.23C258.22,173.71,223.49,137.62,180.64,137.62Z"/><path class="cls-12" d="M209.41,143.37c23.48,13.86,39.33,40.06,39.33,96.47v52.25l9.48.05V218.23C258.22,184.28,238,155.25,209.41,143.37Z"/><path class="cls-61" d="M180.64,137.62c-24.94,0-47.13,12.25-61.32,31.26,0,0,11.54,3.48,5.72,16.63,0,0-4.68,2.09-4.67,2.07l-1.47,5.74c-.53,8.09-13.51,5.28-13.51,5.28a83.93,83.93,0,0,0-2.33,19.63v73.91H258.22V218.23C258.22,173.71,223.49,137.62,180.64,137.62Z"/><path class="cls-14" d="M198.18,117.49H163.1v29.23a17.54,17.54,0,0,0,17.54,17.54c.53,0,6.34,6.38,6.34,6.38l1.28-7.55,5.94,1.39-.87-5.67a17.47,17.47,0,0,0,4.85-12.09Z"/><path class="cls-57" d="M198.18,117.49H163.1v29.23a17.54,17.54,0,0,0,17.54,17.54c.53,0,6.34,6.38,6.34,6.38l1.28-7.55,5.94,1.39-.87-5.67a17.47,17.47,0,0,0,4.85-12.09Z"/><ellipse class="cls-15" cx="180.42" cy="137.4" rx="17.76" ry="8.21"/><path class="cls-52" d="M130.05,44.73s4.7,24.16,4.7,38,2.79,21.1,7.6,29.74l4.1-2.56,1.26,5.73,3.8,2.71-2.29,3.88c9.18,10.44,17.27,16.93,31.42,16.93,15.63,0,24.89-7.9,34.17-20.31l-3.67-6.09,6.55,1.84c5.58-9.07,8.85-12.5,8.85-31.87a177.26,177.26,0,0,1,4.7-38Z"/><line class="cls-57" x1="131.06" y1="292.14" x2="129.49" y2="205.08"/><line class="cls-57" x1="230.23" y1="292.14" x2="231.79" y2="205.08"/><path class="cls-15" d="M186.35,81.16c0,7.65,12,16.36,19.6,16.36S218,93.18,218,85.52,214.53,73,206.87,73,186.35,73.5,186.35,81.16Z"/><path class="cls-62" d="M211.83,183.87c0-5.55-3.11-8.49-7-8.49s-7,4.5-7,10.06,3.12,8.5,7,8.5l.16,0c0,.17,0,.33,0,.49a3.91,3.91,0,0,0,.77,7.74,4.36,4.36,0,0,0,.52-.05c1.24,2.87,3.26,4.75,5.54,4.75,3.79,0,6.86-5.14,6.86-11.49S215.62,183.87,211.83,183.87Z"/><path class="cls-63" d="M186.35,76.46c0,7.65,12,16.36,19.6,16.36S218,88.48,218,80.82s-3.5-12.51-11.16-12.51S186.35,68.8,186.35,76.46Z"/><path class="cls-64" d="M241.62,62.17s-9.86-2.34-5.52-22.47c-5.4,7.07-15.18,3.93-15.18,3.93l-4.4-9.81-6.13-2-2.2-7.42-7.87-3.53c.15-6.52,3.24-11.56,7.19-13.33-12-3.07-27.84-1.18-48.18,5.4,0,0-8.76-3.82-6-11.24,0,0-11.75.67-9.84,19.79,0,0-17.35-14.46-25.38,8.1,0,0,10.93-3.61,10.93,8.09,0,0-11.9,8.4-1.58,36.17,0,0,12.47-5.1,13.5-16.8.88-10,7.65-11.05,7.65-11.05S143,60.11,179.74,66.23c0,0-3.86-14-.42-16.27-.38,0,23.3,32,62.3,22.94a15.87,15.87,0,0,1-8-9.62A9.22,9.22,0,0,0,241.62,62.17Z"/><path class="cls-18" d="M187.7,100.73c0,5.68-3.16.49-7.06.49s-7,5.19-7-.49,3.16-10.27,7-10.27S187.7,95.06,187.7,100.73Z"/><path class="cls-65" d="M146.91,30.92s1-4.31-3.43-9.46"/><path class="cls-65" d="M200,26.19s-.1-7.83,1.47-11.51"/><path class="cls-65" d="M174,41.18s2,5.3,8.8,13"/><line class="cls-66" x1="178.07" y1="126.35" x2="179.64" y2="122.43"/><path class="cls-67" d="M201.45,120.62c0,6.22-12.71,6.06-20.24,3.37-10.53-3.75-17.11,2.22-17.11-3.37s7.46-3.6,17.11-8.55C191.89,106.59,201.45,115,201.45,120.62Z"/><g class="cls-68"><ellipse class="cls-23" cx="186.91" cy="124.63" rx="9.44" ry="4.05"/></g><path class="cls-15" d="M175,81.16c0,7.65-11.95,16.36-19.61,16.36s-12.08-4.34-12.08-12S146.77,73,154.42,73,175,73.5,175,81.16Z"/><path class="cls-63" d="M175,76.46c0,7.65-11.95,16.36-19.61,16.36s-12.08-4.34-12.08-12,3.51-12.51,11.16-12.51S175,68.8,175,76.46Z"/><path class="cls-18" d="M202.84,76.67a7,7,0,0,0-4.46,1.46,2,2,0,0,1-1.32,3.36c.49,1.92,2.88,3.37,5.78,3.37,3.24,0,5.87-1.83,5.87-4.09S206.08,76.67,202.84,76.67Z"/><path class="cls-69" d="M186.35,76.46c0,7.65,7.15.21,14.81.21s17.69,6.8,16.68,1.23-3.31-9.59-11-9.59S186.35,68.8,186.35,76.46Z"/><path class="cls-18" d="M158.46,76.67A7.24,7.24,0,0,0,154.19,78a2,2,0,0,1,.8,1.56,2,2,0,0,1-2,2,1.83,1.83,0,0,1-.32-.07c.46,1.94,2.86,3.42,5.78,3.42,3.24,0,5.87-1.83,5.87-4.09S161.7,76.67,158.46,76.67Z"/><path class="cls-69" d="M175,76.46c0,7.65-9.58-1.21-20.68.21-7.59,1-11,8.85-11,4.15,0-7.65,3.51-12.51,11.16-12.51S175,68.8,175,76.46Z"/><line class="cls-66" x1="167.85" y1="115.01" x2="166.29" y2="112.66"/><line class="cls-66" x1="195.67" y1="111.33" x2="195.67" y2="108.98"/><path class="cls-70" d="M196.14,214.29c0-1.94,1.57-5.08,3.51-5.08s3.51,3.14,3.51,5.08a3.51,3.51,0,0,1-7,0Z"/><path class="cls-71" d="M232.86,339.05c0-2.34-1.33-4.24-2.16-4.24s-1.52,1.9-1.52,4.24a2.09,2.09,0,0,0,0,.25,1.46,1.46,0,0,0-.64-.15c-1.49,0-2.69,2.26-2.69,5s1.2,6.58,2.69,6.58,2.68-3.79,2.68-6.58a8.07,8.07,0,0,0-.07-1.11A6,6,0,0,0,232.86,339.05Z"/><path class="cls-72" d="M250.83,317.22c0-1.44-.81-2.61-1.33-2.61s-.93,1.17-.93,2.61a.76.76,0,0,0,0,.15.93.93,0,0,0-.4-.09c-.91,0-1.65,1.39-1.65,3.1s.74,4,1.65,4,1.65-2.33,1.65-4a5.12,5.12,0,0,0,0-.69A3.68,3.68,0,0,0,250.83,317.22Z"/></g></g></g></svg>