<svg xmlns="http://www.w3.org/2000/svg" xmlns:xlink="http://www.w3.org/1999/xlink" viewBox="0 0 557.09 361.56"><defs><style>.cls-1{fill:url(#New_Gradient_Swatch_9);}.cls-2{opacity:0.25;}.cls-3{fill:#fff;fill-opacity:0.5;stroke:#fff;stroke-miterlimit:10;stroke-width:0.67px;}</style><linearGradient id="New_Gradient_Swatch_9" x1="278.55" y1="361.56" x2="278.55" gradientUnits="userSpaceOnUse"><stop offset="0" stop-color="#9fd6ca"/><stop offset="1" stop-color="#4ab657"/></linearGradient></defs><title>inventorbg</title><g id="Layer_2" data-name="Layer 2"><g id="Layer_1-2" data-name="Layer 1"><rect id="Background" class="cls-1" width="557.09" height="361.56"/><g class="cls-2"><circle class="cls-3" cx="194.94" cy="31.57" r="13.92"/><circle class="cls-3" cx="51.67" cy="24.57" r="16.71"/><circle class="cls-3" cx="68.33" cy="77.48" r="13.92"/><circle class="cls-3" cx="47.98" cy="161.02" r="8.35"/><circle class="cls-3" cx="35.7" cy="119.25" r="11.14"/><circle class="cls-3" cx="116.24" cy="48.05" r="16.71"/><circle class="cls-3" cx="132.89" cy="100.96" r="13.92"/><circle class="cls-3" cx="122.56" cy="185.63" r="8.35"/><circle class="cls-3" cx="100.27" cy="142.73" r="11.14"/><circle class="cls-3" cx="180.55" cy="118.3" r="8.35"/><circle class="cls-3" cx="165.27" cy="64.76" r="11.14"/><circle class="cls-3" cx="257.54" cy="21.82" r="16.71"/><circle class="cls-3" cx="234.05" cy="63.56" r="13.92"/><circle class="cls-3" cx="240.37" cy="141.61" r="8.35"/><circle class="cls-3" cx="243.79" cy="102.73" r="11.14"/><circle class="cls-3" cx="51.66" cy="214.15" r="16.71"/><circle class="cls-3" cx="68.32" cy="267.06" r="13.92"/><circle class="cls-3" cx="52.34" cy="346.82" r="8.35"/><circle class="cls-3" cx="35.7" cy="308.83" r="11.14"/><circle class="cls-3" cx="116.23" cy="237.64" r="16.71"/><circle class="cls-3" cx="132.88" cy="290.54" r="13.92"/><circle class="cls-3" cx="100.26" cy="332.31" r="11.14"/><circle class="cls-3" cx="179.48" cy="171.26" r="16.71"/><circle class="cls-3" cx="192.98" cy="237.06" r="13.92"/><circle class="cls-3" cx="178.38" cy="345.03" r="8.35"/><circle class="cls-3" cx="181.84" cy="286.89" r="11.14"/><circle class="cls-3" cx="244.05" cy="194.74" r="16.71"/><circle class="cls-3" cx="260.71" cy="247.65" r="13.92"/><circle class="cls-3" cx="240.36" cy="331.19" r="8.35"/><circle class="cls-3" cx="228.08" cy="289.42" r="11.14"/><circle class="cls-3" cx="455.43" cy="31.57" r="13.92"/><circle class="cls-3" cx="312.16" cy="24.57" r="16.71"/><circle class="cls-3" cx="328.82" cy="77.48" r="13.92"/><circle class="cls-3" cx="308.47" cy="161.02" r="8.35"/><circle class="cls-3" cx="296.19" cy="119.25" r="11.14"/><circle class="cls-3" cx="376.73" cy="48.05" r="16.71"/><circle class="cls-3" cx="393.38" cy="100.96" r="13.92"/><circle class="cls-3" cx="383.05" cy="185.63" r="8.35"/><circle class="cls-3" cx="360.76" cy="142.73" r="11.14"/><circle class="cls-3" cx="441.04" cy="118.3" r="8.35"/><circle class="cls-3" cx="425.76" cy="64.76" r="11.14"/><circle class="cls-3" cx="518.03" cy="21.82" r="16.71"/><circle class="cls-3" cx="494.54" cy="63.56" r="13.92"/><circle class="cls-3" cx="500.86" cy="141.61" r="8.35"/><circle class="cls-3" cx="504.28" cy="102.73" r="11.14"/><circle class="cls-3" cx="312.16" cy="214.15" r="16.71"/><circle class="cls-3" cx="328.81" cy="267.06" r="13.92"/><circle class="cls-3" cx="312.83" cy="346.82" r="8.35"/><circle class="cls-3" cx="296.19" cy="308.83" r="11.14"/><circle class="cls-3" cx="376.72" cy="237.64" r="16.71"/><circle class="cls-3" cx="393.38" cy="290.54" r="13.92"/><circle class="cls-3" cx="360.75" cy="332.31" r="11.14"/><circle class="cls-3" cx="439.98" cy="171.26" r="16.71"/><circle class="cls-3" cx="453.47" cy="237.06" r="13.92"/><circle class="cls-3" cx="438.87" cy="345.03" r="8.35"/><circle class="cls-3" cx="442.33" cy="286.89" r="11.14"/><circle class="cls-3" cx="504.54" cy="194.74" r="16.71"/><circle class="cls-3" cx="521.2" cy="247.65" r="13.92"/><circle class="cls-3" cx="500.85" cy="331.19" r="8.35"/><circle class="cls-3" cx="488.57" cy="289.42" r="11.14"/></g></g></g></svg>