<svg xmlns="http://www.w3.org/2000/svg" xmlns:xlink="http://www.w3.org/1999/xlink" viewBox="0 0 474 359.67"><defs><style>.cls-1{fill:url(#linear-gradient);}.cls-2{fill:none;}.cls-3{clip-path:url(#clip-path);}.cls-4{fill:url(#linear-gradient-2);}.cls-5{fill:#fff;}.cls-6{fill:#c4c3c3;}.cls-7{fill:#dddddc;}.cls-8{mask:url(#mask);}.cls-9{fill:#d4d6d7;}.cls-10{fill:#e2e2e2;}.cls-11{fill:url(#linear-gradient-3);}.cls-12{fill:#d3d3d3;}.cls-13{fill:url(#linear-gradient-4);}</style><linearGradient id="linear-gradient" x1="232.72" y1="446.26" x2="232.72" y2="23.87" gradientUnits="userSpaceOnUse"><stop offset="0" stop-color="#fff"/><stop offset="1" stop-color="#3c3b3d"/></linearGradient><clipPath id="clip-path"><rect id="Background" class="cls-2" width="473.78" height="359.67"/></clipPath><linearGradient id="linear-gradient-2" x1="237" y1="359.23" x2="237" y2="1.23" gradientUnits="userSpaceOnUse"><stop offset="0" stop-color="#ffd884"/><stop offset="1" stop-color="#ee545c"/></linearGradient><mask id="mask" x="0.44" y="22.42" width="464.56" height="424.36" maskUnits="userSpaceOnUse"><rect class="cls-1" x="0.44" y="22.42" width="464.56" height="424.36"/></mask><linearGradient id="linear-gradient-3" x1="326.66" y1="242.9" x2="366.79" y2="211.82" gradientUnits="userSpaceOnUse"><stop offset="0" stop-color="#fff"/><stop offset="1" stop-color="#e0e0e0"/></linearGradient><linearGradient id="linear-gradient-4" x1="315.07" y1="275.2" x2="362.84" y2="234.71" xlink:href="#linear-gradient-3"/></defs><title>cavemanbg</title><g id="Layer_2" data-name="Layer 2"><g id="Layer_1-2" data-name="Layer 1"><g class="cls-3"><rect id="Background-2" data-name="Background" class="cls-4" width="474" height="359.67"/><path class="cls-5" d="M72.59,303.28c-2.79,9.28-8.11,7.11-18.1,7.11s-10.86,1.9-18.11-7.11c-6.27-7.79.26-21.4,10.25-21.4S75.47,293.71,72.59,303.28Z"/><path class="cls-6" d="M72.59,303.28c-2.79,9.28-8.11,7.11-18.1,7.11,0,0,15.35-9.9,4.17-22-6-6.53-20-5.94-12-6.49C56.61,281.18,75.47,293.71,72.59,303.28Z"/><path class="cls-7" d="M46.86,285.87a3.11,3.11,0,0,1-4,4.57c-1-.89-2-3.64-.85-4.9S45.83,285,46.86,285.87Z"/><path class="cls-7" d="M48.11,291.67a1.24,1.24,0,0,1,.1,1.76,2.78,2.78,0,0,1-2.75.13c-.51-.45.44-1.23.9-1.76A1.24,1.24,0,0,1,48.11,291.67Z"/><path class="cls-5" d="M52.36,310.29c-1.25,5.48-3.63,4.19-8.12,4.19s-4.87,1.13-8.12-4.19c-2.81-4.59.11-12.62,4.6-12.62S53.65,304.65,52.36,310.29Z"/><path class="cls-7" d="M52.36,310.29c-1.25,5.48-3.63,4.19-8.12,4.19,0,0,7.29-6.35,1.88-13-3.29-4-9.89-3.83-5.4-3.83S53.65,304.65,52.36,310.29Z"/><path class="cls-7" d="M37.71,303.84a2.35,2.35,0,0,1,.25,2.3c-.39.44-1.22-.33-1.65-.7a1.06,1.06,0,0,1,1.4-1.6Z"/><g class="cls-8"><path class="cls-5" d="M357.8,170.65c-5-4.38-9.48-9.57-15.4-12.81-8.3-4.55-7.84,5-16.31.81-14.47-7.2-18.34.49-35.92-4-11.66-5.77-33,5.24-28.49-20.59-7.38-8.18-23.81-10.77-24.73-12.78-3.35-7.28-9.21-1.8-12.82-9-.56-1.12-.84-3-2.49-2.64-4.1.81-4.64,14.67-7.34,17.76-4.07,4.66-12.49-4-16.6.66-10.82,12.2-17-23.52-28.08-11.52-1.11,1.2-6,14.93-8.09,15.95l1.67,1.84L160.32,132c-7-4.57-14.14-8.87-21.2-13.31-4.1-2.57-8.51-4.82-12.14-7.94-12.25-10.54-15.36,12.32-27.56,1.71-1.91-1.67-4.81-6.93-7.48-7.75-5.66-1.74-.14-7-6-8.27-1.37-.3-20.3.72-20.91-.5-3-6-6.23-11.9-8.81-18.08-3.42-8.2,1.66-3.63-4.07-10.37C49.52,64.45,39.62,62.06,36.89,65s-12.91-2.66-15,.52C15.58,75.15,17.37,84.69,12,94.93,9.11,100.47,7.48,106.81,2,110.68.32,111.83.44,113.6.45,115.34c0,14.93,0-1.16,0,13.76,8.82,3.54,17.05,8.28,25.54,12.5a81.9,81.9,0,0,1,17.65,11.82c3.72,3.25,8.55,4.18,13,5.44,5.47,1.55,10.36,3.47,14.34,7.69,4.49,4.78,10.55,6.27,16.79,6.76,12.39,1,23.94,4.71,35,10.23a10.73,10.73,0,0,0,5.75,1c13-.95,25.75,1.48,38.28,4.26,9.2,2,18.1,5.6,27,8.89,4.64,1.72,6.56,6.69,9.91,10,3.08,3,5.67,6.56,8.47,9.87,3.53.58,6.65-1.29,10-1.71a16.37,16.37,0,0,1,8.06.87c15.65,5.83,31.33,11.6,47.63,15.44a72.44,72.44,0,0,1,34.67,5.47,42.45,42.45,0,0,0,18.89,3.27A94.19,94.19,0,0,1,365.25,245c3-4.24,8.42,13.8,10.5,9.15,5-11.27,24-3,43-9C418.75,191.14,368.81,180.21,357.8,170.65Z"/><path class="cls-9" d="M.46,129.1c8.82,3.54,17.05,8.28,25.53,12.5a82,82,0,0,1,17.66,11.82c3.71,3.25,8.55,4.18,13,5.44,5.46,1.55,10.36,3.47,14.33,7.69,4.5,4.78,10.56,6.27,16.8,6.76,12.38,1,23.93,4.71,35,10.23a10.67,10.67,0,0,0,5.74,1c13-.95,25.75,1.48,38.29,4.26,9.2,2,18.09,5.6,27,8.89,4.63,1.72,6.56,6.69,9.91,10,3.07,3,5.66,6.56,8.47,9.87-8.94-.63-17.88-1.14-26.81-1.94-2.87-.26-4.89.13-5.67,3.19s-2.44,3.71-5.13,2.1a18.45,18.45,0,0,0-2.54-1.08c-14.22-5.83-14.24-5.87-28.14,1-2,1-3.75,1.31-5.88.21-11.76-6.06-24.36-8.63-37.51-9.87-11.25-1.05-22.62-1.79-33.65-4.62-8.94-2.28-17.88-4.58-26.75-7.09a7.22,7.22,0,0,0-5.92.77c-11.13,6-22.33,11.89-33.5,17.81-.07-11.33-.17-22.67-.18-34Q.42,156.6.46,129.1Z"/><path class="cls-10" d="M.49,218.09c11.17-5.92,22.37-11.81,33.51-17.81a7.19,7.19,0,0,1,5.91-.77c8.88,2.51,16.4-6.56,25.34-4.27,11,2.83,23.82,14.93,35.07,16,13.14,1.24,25.74,3.81,37.51,9.87,2.12,1.1,3.82.81,5.87-.21,13.91-6.9,10.45-30.27,24.67-24.44a19.12,19.12,0,0,1,2.55,1.08c2.68,1.61,4.36.89,5.12-2.1s2.81-3.45,5.68-3.2c8.92.81,4.19,16.14,13.12,16.76,3.53.58,6.65-1.29,10-1.7a16.36,16.36,0,0,1,8.06.86c15.65,5.83,65.15-17.3,81.45-13.46,25.43,7.26,33.79,53.25,58.74,62l-.75,1.64c-7.12.56-14.15,2.25-21.43.88-4.27-.8-.54,1.94-.68,3l-14.52,2.43c-1.07-1.19-2.47-.66-3.73-.67-6.86,0-13.73-.14-20.59,0a25.39,25.39,0,0,1-10-1.9c-6.63-2.56-13.26-5.1-19.88-7.7-10.15-4-20.82-6.91-30.26-12.39-11.34-6.58-23.13-11-36.22-12.3-3.3-.32-6.5-1-9.7.18-12.34,4.69-24.87,2.84-37.33.9a96.4,96.4,0,0,0-31.66.23c-10.83,1.88-21.66,4.26-32.73,4.31-4.65,0-6.19,6.59-10.56,8.62-10.24,4.74-23.51,2.85-33.92,7.24C26.2,250,13.32,248.24.44,246.44Z"/><path class="cls-10" d="M373,241.85c-4.34.77-8.93,1.21-12.94,2.41.49,1.08,2.41,1.22,3.43,2.13-6.31,1.13-12.5,2.32-18.37,3.89a51.61,51.61,0,0,0-10.08,3.5c-1.31.67-2.85,1.34-1.74,2.52s3,.34,4.45.39c-4.47,4.41-10.4-6.05-18.89-5.66-11-.24,4.18,16.09-6.72,17.06-10-1.91-32.4-4.93-36.7-4.66-10.28.65-25,.74-35.26.55-22.56-.42-32.17,2.85-54.74,2.77-2.93,0-18.33,1.14-21.25,1-13.83-5.78-33.39,4.27-49.77.79C92,263.74,23.17,273,.89,268c-1.57-.35,1.61-37.08,0-37.42,12.28-2.73,64.39-3.48,76.48-6.43,5.16-1.26,24.25-3.88,29.74-3.9,13.07,0,17.8,1.88,30.58.71a214.72,214.72,0,0,1,37.35-.14c14.72,1.2,29.5,2.35,44.06-.56,3.78-.75,7.56-.31,11.45-.11a173.64,173.64,0,0,1,42.74,7.64c11.14,3.4,23.73,5.22,35.72,7.7q11.7,2.42,23.45,4.78a54.55,54.55,0,0,0,11.8,1.18c8.1-.11,16.2,0,24.3,0C370.08,241.44,371.73,241.12,373,241.85Z"/></g><path class="cls-11" d="M378.06,253.72c-6.83,22.73-19.85,17.4-44.34,17.4s-26.59,4.67-44.34-17.4c-15.35-19.08.62-52.43,25.11-52.43S385.1,230.27,378.06,253.72Z"/><path class="cls-7" d="M315,211.07c2.51,2.2,6.57,5.59,4.33,8.15s-9.93,3.32-12.44,1.13a6.16,6.16,0,0,1,8.11-9.28Z"/><path class="cls-7" d="M300.17,229.76c1.25,1.1,1.58,5.43.46,6.71s-3.26-1-4.52-2.07a3.08,3.08,0,0,1,4.06-4.64Z"/><path class="cls-12" d="M312.1,271.28c3.92.48,8.5.14,14.91,0q-3.09-.11-6.47-.11C317.38,271.12,314.6,271.2,312.1,271.28Zm2.39-70a26.9,26.9,0,0,0-6,.7c25.28,4.55,62.78,30.42,56.38,51.73-3.93,13.1-9.93,16.87-19,17.72,16.81.69,26.58.9,32.17-17.72C385.1,230.27,339,201.29,314.49,201.29Z"/><path class="cls-13" d="M338.66,271.59c-2.2,9.62-6.52,8.75-14.29,7.37-15.77-2.81-14.72-1.7-15.63-11.43-.94-10,4.51-12.11,12.4-12.11S340.92,261.66,338.66,271.59Z"/><path class="cls-7" d="M338.66,271.59c-3.12,12.47-7.1,8.4-14.29,7.37,0,0,18.78-4.06,4.55-19.95-6.08-6.8-11.14-3.59-3.25-3.59S341.13,261.71,338.66,271.59Z"/><path class="cls-5" d="M354.51,275.65c-1.45,6.3-4.28,5.73-9.37,4.83-10.34-1.85-9.66-1.11-10.25-7.5-.61-6.56,3-7.94,8.13-7.94S356,269.13,354.51,275.65Z"/><path class="cls-7" d="M354.51,275.65c-2.05,8.17-4.66,5.5-9.37,4.83,0,0,12.31-2.66,3-13.08-4-4.46-7.3-2.36-2.13-2.36S356.12,269.17,354.51,275.65Z"/><path class="cls-5" d="M354.5,281.67c-.71,1.62-2.1,1.48-4.61,1.24-5.08-.47-4.74-.28-5-1.92s1.46-2,4-2S355.23,280,354.5,281.67Z"/><path class="cls-7" d="M354.5,281.67c-1,2.1-2.29,1.42-4.61,1.24,0,0,6.06-.68,1.47-3.36-2-1.15-3.59-.6-1.05-.6S355.29,280,354.5,281.67Z"/><path class="cls-5" d="M339.74,280.91c-.4.91-1.17.83-2.57.7-2.84-.27-2.65-.16-2.82-1.08s.81-1.14,2.23-1.14S340.15,280,339.74,280.91Z"/><path class="cls-7" d="M339.74,280.91c-.56,1.18-1.28.8-2.57.7,0,0,3.38-.38.82-1.88-1.1-.64-2-.34-.59-.34S340.18,280,339.74,280.91Z"/><path class="cls-5" d="M336.22,281.37c-.4.91-1.17.82-2.57.69-2.84-.26-2.65-.16-2.82-1.07s.82-1.14,2.24-1.14S336.63,280.43,336.22,281.37Z"/><path class="cls-7" d="M336.22,281.37c-.56,1.17-1.28.79-2.57.69,0,0,3.38-.38.82-1.87-1.1-.65-2-.34-.59-.34S336.66,280.44,336.22,281.37Z"/><path class="cls-5" d="M344.82,284.37c-2.84-.42-2.65-.25-2.82-1.7s.82-1.8,2.24-1.8"/><path class="cls-5" d="M341.18,282.25c-1.28,2.57-1.06,2.44-2.49,2.15s-1.46-1.33-1-2.68"/><path class="cls-7" d="M321.88,259.13c1.13,1,1.67,4.91.65,6.07s-3.2-.86-4.34-1.86a2.8,2.8,0,0,1,3.69-4.21Z"/><rect id="Background-3" data-name="Background" class="cls-2" width="470.78" height="359.67"/></g></g></g></svg>