<svg xmlns="http://www.w3.org/2000/svg" xmlns:xlink="http://www.w3.org/1999/xlink" viewBox="0 0 569.14 273.67"><defs><style>.cls-1{fill:url(#linear-gradient);}.cls-2{fill:url(#New_Gradient_Swatch_9);}.cls-3{mask:url(#mask);}.cls-4,.cls-5,.cls-6,.cls-7{fill:#fff;}.cls-4{opacity:0.27;}.cls-5{opacity:0.42;}.cls-7{opacity:0.45;}</style><linearGradient id="linear-gradient" x1="264.81" y1="273.33" x2="264.81" y2="0.93" gradientUnits="userSpaceOnUse"><stop offset="0" stop-color="#fff"/><stop offset="1" stop-color="#3c3b3d"/></linearGradient><linearGradient id="New_Gradient_Swatch_9" x1="264.81" y1="273.67" x2="264.81" gradientUnits="userSpaceOnUse"><stop offset="0" stop-color="#9fd6ca"/><stop offset="1" stop-color="#4ab657"/></linearGradient><mask id="mask" x="0" y="0" width="569.14" height="273.67" maskUnits="userSpaceOnUse"><rect class="cls-1" x="0.14" width="529.34" height="273.67"/></mask></defs><title>internsbg</title><g id="Layer_2" data-name="Layer 2"><g id="Layer_1-2" data-name="Layer 1"><rect id="Background" class="cls-2" x="0.14" width="529.33" height="273.67"/><g class="cls-3"><path class="cls-4" d="M67.18,258.94l131.6-.72,83.72-.11s-.39-4.43-76.07-5.79c-27.39-.5-34.06-10.47-52.68-5.58s-37.23,9.8-55.88,8.3-13.17-2.06-35.1.19-27.39,3.88-44.94,4Z"/><path class="cls-5" d="M298.8,205.61A12.2,12.2,0,0,1,310,193.45c27.55-2.34,97.56-7.87,112.2-4.89,18.33,3.73,17.11,6.4,42.76,6.4s30.54,6.39,30.54,11.71S375.76,212,375.76,212l-77-6.39Z"/><path class="cls-6" d="M63.14,66.69a6.16,6.16,0,0,1,5.56-6.13c20.16-2,89-8.48,102.72-5.3,16.08,3.73,15,6.39,37.53,6.39s26.8,6.39,26.8,11.72c0,5.16-98.7,5.32-104.77,5.32l-.59,0L68.73,72.83a6.17,6.17,0,0,1-5.59-6.14Z"/><path class="cls-7" d="M182.07,150.26H529.13s1.88-.53-35.74-6.39-22.58-18.11-61.14-15.44-21.63,16-58.31,16-64-20.24-83.71-17-35.74,9.06-65.83,6.92-33.86-1.06-49.85,4.27-23.51,8-36.68,8.52,4.7,9.05,13.17,8,20.69-4.8,20.69-4.8Z"/><path class="cls-6" d="M359.25,35.67H555.8s1.06-.54-20.24-6.39-12.79-18.11-34.63-15.45-12.25,16-33,16-36.22-20.24-47.41-17-20.24,9.06-37.28,6.93S364,18.62,355,24s-13.32,8-20.77,8.52,2.66,9.06,7.45,8,11.72-4.79,11.72-4.79Z"/><path class="cls-6" d="M404,85.67h135.2l19.15.29s11.27,1.45-11.26-5.09S512.13,72.16,493,76.08s-38.31,7.84-57.46,6.54-27.79-3.35-50.33-1.6-34.88,4.65-16.85,4.65Z"/><path class="cls-4" d="M43.11,227.76l131.6-.72,18.64.25s11,1.72-11-6.15-34-10.47-52.67-5.57-37.23,9.79-55.89,8.29-27.07-3.93-49-1.68S-9.12,228.05,8.43,228Z"/><path class="cls-5" d="M398.73,249.32H545.32l20.77.36s12.21,1.77-12.22-6.22S516,232.81,495.23,237.6s-41.53,9.59-62.3,8-30.13-4.08-54.56-2-37.82,5.68-18.27,5.68Z"/><path class="cls-6" d="M44.74,24.67h63.92l9,.35s5.33,1.78-5.32-6.21S95.87,8.15,86.82,13s-18.11,9.59-27.17,8-13.14-4.09-23.79-2-16.49,5.68-8,5.68Z"/></g></g></g></svg>