<svg width="20" height="19" viewBox="0 0 20 19" fill="none" xmlns="http://www.w3.org/2000/svg"><mask id="a" maskUnits="userSpaceOnUse" x="0" y="1" width="20" height="18"><path d="M17.59 10.742a5.502 5.502 0 000-7.86c-2.2-2.171-5.768-2.171-7.97 0C7.42.71 3.853.71 1.65 2.881a5.505 5.505 0 000 7.86l7.174 7.075c.44.434 1.154.434 1.594 0l7.173-7.075z" fill="#fff"/></mask><g mask="url(#a)"><path d="M17.59 10.742a5.502 5.502 0 000-7.86c-2.2-2.171-5.768-2.171-7.97 0C7.42.71 3.853.71 1.65 2.881a5.505 5.505 0 000 7.86l7.174 7.075c.44.434 1.154.434 1.594 0l7.173-7.075z" fill="#004880"/><path fill="#003064" d="M17.639 2.868l4 3.945L9.641 18.645l-4-3.945z"/><mask id="b" maskUnits="userSpaceOnUse" x="-1" y="1" width="11" height="10"><path d="M9.62 2.88l-7.97 7.862a5.505 5.505 0 010-7.861C3.852.71 7.42.71 9.62 2.88z" fill="#CFEBFF"/><path d="M9.62 2.88l-7.97 7.862a5.505 5.505 0 010-7.861C3.852.71 7.42.71 9.62 2.88z" fill="url(#paint0_linear)"/></mask><g mask="url(#b)"><path d="M9.62 2.88l-7.97 7.862a5.505 5.505 0 010-7.861C3.852.71 7.42.71 9.62 2.88z" fill="#004880"/><path d="M9.62 2.88l-7.97 7.862a5.505 5.505 0 010-7.861C3.852.71 7.42.71 9.62 2.88z" fill="url(#paint1_linear)"/><path fill="#003064" d="M1.825 2.724l4.642-4.579L18.464 9.978l-4.642 4.578z"/><path transform="scale(1.00688 .99307) rotate(-45 4.217 -.817)" fill="url(#paint2_linear)" d="M0 0h6.52v16.85H0z"/></g><g filter="url(#filter0_d)"><path fill-rule="evenodd" clip-rule="evenodd" d="M13.676 10.68c2.216-.003 4.01-1.778 4.007-3.964-.003-2.186-1.802-3.955-4.018-3.952-2.217.003-4.01 1.778-4.007 3.963 0 .845.27 1.627.727 2.269l-1.057 1.046a.827.827 0 00-.56.24l-2.266 2.242a.302.302 0 000 .43l.731.719c.12.118.316.118.437 0l2.266-2.244a.805.805 0 00.24-.553l1.037-1.025c.68.52 1.535.83 2.463.829zm-.016-1.36c1.454.005 2.638-1.153 2.644-2.588.006-1.434-1.169-2.602-2.623-2.608-1.455-.006-2.639 1.153-2.645 2.587-.005 1.435 1.169 2.603 2.624 2.609z" fill="#fff"/></g></g><defs><linearGradient id="paint0_linear" x1="5.746" y1="6.679" x2="2.425" y2="3.214" gradientUnits="userSpaceOnUse"><stop stop-color="#073A5F" stop-opacity=".3"/><stop offset="1" stop-color="#CFEBFF" stop-opacity="0"/></linearGradient><linearGradient id="paint1_linear" x1="5.746" y1="6.679" x2="1.825" y2="2.66" gradientUnits="userSpaceOnUse"><stop stop-color="#00070C" stop-opacity=".29"/><stop offset="1" stop-color="#004880" stop-opacity="0"/></linearGradient><linearGradient id="paint2_linear" x1="2.698" y1="5.27" x2="2.686" y2=".091" gradientUnits="userSpaceOnUse"><stop stop-color="#00070C" stop-opacity=".29"/><stop offset="1" stop-color="#003064" stop-opacity="0"/></linearGradient><filter id="filter0_d" x="6.026" y="2.721" width="12.038" height="11.745" filterUnits="userSpaceOnUse" color-interpolation-filters="sRGB"><feFlood flood-opacity="0" result="BackgroundImageFix"/><feColorMatrix in="SourceAlpha" values="0 0 0 0 0 0 0 0 0 0 0 0 0 0 0 0 0 0 127 0"/><feOffset dy=".333"/><feGaussianBlur stdDeviation=".185"/><feColorMatrix values="0 0 0 0 0 0 0 0 0 0.027451 0 0 0 0 0.0470588 0 0 0 0.3 0"/><feBlend in2="BackgroundImageFix" result="effect1_dropShadow"/><feBlend in="SourceGraphic" in2="effect1_dropShadow" result="shape"/></filter></defs></svg>